<svg width="206" height="272" viewBox="0 0 206 272" fill="none" xmlns="http://www.w3.org/2000/svg">
<path d="M88.6281 7.932H88.729V7.81091H91.524C92.3323 8.81823 93.4335 9.54971 94.6754 9.90431C95.9173 10.2589 97.2386 10.2192 98.457 9.79053C99.6753 9.3619 100.731 8.56554 101.477 7.51145C102.223 6.45736 102.624 5.19754 102.623 3.906C102.619 2.94111 102.398 1.98949 101.977 1.12109C96.6174 1.4907 91.4027 3.0257 86.6972 5.61894C81.9917 8.21218 77.9089 11.8012 74.7338 16.1353C74.7389 16.2261 74.7389 16.317 74.7338 16.4078C74.7339 17.3357 74.5286 18.2521 74.1326 19.0912C73.7366 19.9303 73.1597 20.6714 72.4434 21.2612V24.036H88.5877L88.6281 7.932Z" fill="#3A5164"/>
<path d="M129.363 24.3509V24.0382H138.798C136.69 18.8774 133.444 14.2591 129.303 10.5273V24.0382L129.363 24.3509Z" fill="#FAFAFA"/>
<path d="M121.603 10.1741C122.484 10.1743 123.355 9.98937 124.159 9.63129C124.964 9.27321 125.685 8.74999 126.274 8.09553C122.998 5.69288 119.346 3.84841 115.468 2.63672C115.367 3.08369 115.316 3.5406 115.316 3.9989C115.316 4.22088 115.316 4.42269 115.316 4.63459C115.504 6.16748 116.248 7.57818 117.407 8.59921C118.565 9.62025 120.058 10.1806 121.603 10.1741Z" fill="#FAFAFA"/>
<path d="M101.908 6.84161C101.423 7.75975 100.72 8.54429 99.8596 9.12583C98.9996 9.70736 98.0096 10.068 96.977 10.1757C95.9444 10.2834 94.9012 10.135 93.9397 9.74357C92.9782 9.35211 92.1279 8.72968 91.4643 7.93136H88.6289V24.0757H104.925V26.8505V26.9514C103.676 27.9888 102.874 29.4663 102.685 31.0783C102.685 31.2902 102.685 31.492 102.685 31.7039C102.674 33.3265 103.29 34.8907 104.403 36.0711C105.517 37.2515 107.042 37.9573 108.663 38.0418C110.283 38.1262 111.874 37.5828 113.104 36.5246C114.334 35.4663 115.109 33.9747 115.267 32.3598C115.277 32.1783 115.277 31.9964 115.267 31.8149C115.269 30.8645 115.056 29.926 114.643 29.0697C114.231 28.2135 113.63 27.4617 112.886 26.8707V24.1564V24.0152H129.262V10.5044C128.297 9.6472 127.286 8.8422 126.235 8.0928C125.425 8.97752 124.379 9.61238 123.22 9.92267C122.061 10.233 120.838 10.2058 119.694 9.84427C118.55 9.48277 117.534 8.80203 116.764 7.88218C115.994 6.96232 115.502 5.84164 115.348 4.65203C115.312 4.38434 115.292 4.11482 115.287 3.84481C115.292 3.43841 115.332 3.0332 115.408 2.63399C111.89 1.55964 108.23 1.01552 104.551 1.01955C103.694 1.01955 102.836 1.01955 101.988 1.11036C102.409 1.97876 102.63 2.93038 102.634 3.89527C102.637 4.92207 102.388 5.93385 101.908 6.84161Z" fill="#00A5A5"/>
<path d="M133.127 49.3547C132.73 49.0347 132.365 48.6765 132.037 48.2852H129.363V64.6717H130.1C134.312 60.6236 137.516 55.6435 139.454 50.1317C138.709 50.463 137.907 50.6447 137.092 50.6665C135.884 50.6774 134.698 50.3449 133.672 49.7079L133.329 49.4657L133.127 49.3547Z" fill="#3A5164"/>
<path d="M143.4 72.6075C143.4 72.9627 143.43 73.3172 143.491 73.667C143.829 75.1834 144.714 76.5221 145.977 77.427C147.24 78.332 148.792 78.7398 150.337 78.5725C151.881 78.4052 153.31 77.6744 154.35 76.52C155.39 75.3657 155.967 73.8685 155.973 72.3149C155.969 71.4333 155.766 70.5639 155.378 69.7722C154.99 68.9805 154.427 68.2871 153.733 67.7441V67.5221L153.592 67.3808V66.7148L145.782 67.0075V67.6734C145.039 68.2633 144.439 69.0135 144.026 69.8679C143.614 70.7223 143.4 71.6588 143.4 72.6075Z" fill="#3A5164"/>
<path d="M129.363 24.348V40.3309H132.128C132.698 39.6656 133.398 39.1239 134.185 38.739C134.972 38.3541 135.829 38.1341 136.704 38.0925C137.579 38.0509 138.453 38.1886 139.273 38.4972C140.093 38.8058 140.841 39.2787 141.472 39.8869C141.472 39.2512 141.472 38.6155 141.472 37.9698C141.478 33.192 140.552 28.4588 138.747 24.0352H129.363V24.348Z" fill="#3A5164"/>
<path d="M68.4688 78.5744C69.523 78.5725 70.5596 78.3048 71.4828 77.7959C72.4059 77.287 73.1858 76.5535 73.7502 75.6631C74.3145 74.7728 74.6452 73.7545 74.7115 72.7025C74.7778 71.6504 74.5776 70.5987 74.1295 69.6445L62.556 70.0683C62.2872 70.767 62.1504 71.5094 62.1524 72.2579C62.1524 73.9331 62.8178 75.5397 64.0024 76.7243C65.187 77.9089 66.7936 78.5744 68.4688 78.5744Z" fill="#E0E0E0"/>
<path d="M88.6796 48.2822H85.9754C85.1502 49.2904 84.0334 50.0188 82.7781 50.3675C81.5228 50.7162 80.1903 50.6682 78.9634 50.2301C77.7364 49.792 76.6749 48.9852 75.9244 47.9202C75.1739 46.8553 74.771 45.5843 74.771 44.2815C74.771 42.9786 75.1739 41.7076 75.9244 40.6427C76.6749 39.5778 77.7364 38.7709 78.9634 38.3328C80.1903 37.8947 81.5228 37.8467 82.7781 38.1954C84.0334 38.5441 85.1502 39.2725 85.9754 40.2807H88.7502V24.0354H72.4444V21.2404C73.1586 20.6472 73.7332 19.9038 74.1273 19.0632C74.5215 18.2225 74.7255 17.3054 74.7248 16.3769C74.7298 16.3165 74.7298 16.2558 74.7248 16.1953C69.4449 23.4135 66.966 32.3035 67.7493 41.2123C68.5325 50.1211 72.5245 58.4422 78.9829 64.6284H88.6897L88.6796 48.2822Z" fill="#E0E0E0"/>
<path d="M112.884 24.1764V26.7898C113.625 27.3812 114.224 28.1316 114.637 28.9857C115.049 29.8398 115.264 30.7756 115.265 31.7239C115.281 31.9423 115.281 32.1614 115.265 32.3798C115.107 33.9947 114.332 35.4863 113.102 36.5446C111.872 37.6028 110.281 38.1462 108.661 38.0617C107.04 37.9773 105.515 37.2715 104.402 36.0911C103.288 34.9107 102.673 33.3465 102.683 31.7239C102.683 31.512 102.683 31.3102 102.683 31.0983C102.847 29.4502 103.652 27.9322 104.923 26.8705V24.0352H88.6776V40.3309H85.8827C85.0519 39.3237 83.9295 38.5986 82.6697 38.2555C81.41 37.9124 80.0749 37.9681 78.8482 38.4149C77.6214 38.8618 76.5632 39.6777 75.8192 40.7506C75.0753 41.8235 74.682 43.1006 74.6936 44.4061C74.7052 45.7117 75.1211 46.9816 75.884 48.0411C76.6469 49.1006 77.7194 49.8976 78.9539 50.3226C80.1885 50.7475 81.5243 50.7795 82.7778 50.414C84.0312 50.0486 85.1406 49.3038 85.9533 48.282H88.6776V64.5979H88.7786V64.6685H104.923V61.8836C103.856 60.998 103.111 59.785 102.804 58.4327C102.693 57.9667 102.639 57.489 102.643 57.01C102.475 55.3401 102.978 53.6722 104.041 52.3732C105.103 51.0741 106.638 50.2503 108.308 50.0831C109.978 49.9158 111.646 50.4188 112.945 51.4813C114.244 52.5438 115.068 54.0789 115.235 55.7487C115.316 56.1676 115.357 56.5934 115.356 57.0201C115.358 57.9705 115.145 58.909 114.733 59.7653C114.32 60.6216 113.719 61.3734 112.975 61.9643V64.6685H129.361V48.282H132.086C132.123 48.3315 132.164 48.3787 132.207 48.4232C132.507 48.7699 132.846 49.0813 133.216 49.3515L133.367 49.4625L133.71 49.7047C134.715 50.3325 135.876 50.6647 137.06 50.6633C137.903 50.666 138.737 50.4978 139.512 50.1688C140.675 46.8632 141.355 43.407 141.53 39.9071C141.248 39.6131 140.933 39.3525 140.592 39.1301C139.294 38.2486 137.715 37.8831 136.162 38.1052C134.609 38.3273 133.195 39.121 132.197 40.3309H129.361V24.0352H112.884V24.1764Z" fill="#09253D"/>
<path d="M205.565 64.8086L201.73 64.9499H205.565V64.8086Z" fill="#00A5A5"/>
<path d="M62.1506 97.4833C62.1518 96.4167 62.4222 95.3676 62.9368 94.4333C63.4514 93.4989 64.1935 92.7097 65.0944 92.1385C65.9953 91.5674 67.0257 91.2329 68.0903 91.1661C69.1549 91.0993 70.2191 91.3023 71.1843 91.7563C72.1495 92.2103 72.9845 92.9006 73.6119 93.7633C74.2393 94.6259 74.6387 95.633 74.7733 96.6911C74.9078 97.7492 74.7731 98.8242 74.3815 99.8164C73.99 100.809 73.3543 101.686 72.5334 102.367V105.142H88.6778V88.9974H88.7787V88.8764H91.5737C92.4007 89.8591 93.5117 90.5615 94.7542 90.887C95.9966 91.2125 97.3094 91.1451 98.512 90.6941C99.7146 90.2431 100.748 89.4306 101.47 88.3684C102.192 87.3061 102.567 86.0463 102.544 84.7622C102.521 83.478 102.1 82.2326 101.341 81.1971C100.581 80.1616 99.5187 79.3869 98.3006 78.9796C97.0826 78.5723 95.7682 78.5523 94.5383 78.9224C93.3084 79.2925 92.2234 80.0345 91.4324 81.0464H88.6778V64.68H88.7787V64.6094H78.971C80.7797 66.3527 82.7608 67.9079 84.8838 69.2509L74.1983 69.6444C74.5805 70.466 74.7768 71.3617 74.7734 72.2679C74.8074 73.1179 74.6694 73.9661 74.3675 74.7615C74.0656 75.5569 73.6062 76.2831 73.0168 76.8965C72.4274 77.51 71.7201 77.9981 70.9374 78.3315C70.1547 78.6649 69.3128 78.8368 68.462 78.8368C67.6113 78.8368 66.7693 78.6649 65.9866 78.3315C65.2039 77.9981 64.4966 77.51 63.9072 76.8965C63.3178 76.2831 62.8584 75.5569 62.5565 74.7615C62.2547 73.9661 62.1166 73.1179 62.1506 72.2679C62.1486 71.5193 62.2854 70.7769 62.5542 70.0783L48.1453 70.603V80.9959H45.4311L45.3705 80.9354C44.5833 79.99 43.5355 79.2968 42.3575 78.942C41.1795 78.5872 39.9232 78.5865 38.7447 78.9399C37.5663 79.2933 36.5177 79.9853 35.7294 80.9298C34.941 81.8743 34.4476 83.0296 34.3106 84.2523C34.1735 85.4749 34.3988 86.7108 34.9584 87.8064C35.5181 88.9021 36.3874 89.809 37.4583 90.4146C38.5292 91.0202 39.7545 91.2977 40.9818 91.2126C42.2092 91.1274 43.3844 90.6835 44.3615 89.9358H44.4221L44.6037 89.7744C44.9061 89.5224 45.1801 89.2382 45.421 88.9268H48.1756V104.062L64.5621 103.638V102.508C63.8032 101.91 63.1912 101.147 62.7732 100.276C62.3551 99.4047 62.1422 98.4494 62.1506 97.4833Z" fill="#3A5164"/>
<path d="M48.1473 88.8733H45.3927C45.1519 89.1847 44.8778 89.4689 44.5754 89.7209L44.3938 89.8824H44.3332C43.4027 90.6119 42.2856 91.0647 41.1097 91.1888C39.9338 91.313 38.7468 91.1036 37.6844 90.5845C36.622 90.0654 35.7273 89.2577 35.1026 88.2537C34.4779 87.2498 34.1485 86.0903 34.1522 84.9079C34.1478 83.6075 34.5454 82.3375 35.2907 81.2719C36.036 80.2063 37.0924 79.3972 38.3154 78.9553C39.5384 78.5134 40.8681 78.4603 42.1224 78.8034C43.3767 79.1465 44.4943 79.8689 45.3221 80.8718H48.1473V70.5898L7.52409 72.0832V80.9626H10.2989C11.1316 79.9577 12.2551 79.2355 13.515 78.8951C14.7749 78.5547 16.1092 78.6129 17.3347 79.0617C18.5601 79.5105 19.6165 80.3278 20.3585 81.4014C21.1006 82.4749 21.4919 83.752 21.4786 85.0569C21.4654 86.3619 21.0483 87.6308 20.2846 88.6891C19.521 89.7473 18.4483 90.5431 17.214 90.967C15.9797 91.3908 14.6444 91.422 13.3917 91.0561C12.139 90.6902 11.0303 89.9453 10.2182 88.9238H7.50391V105.068L48.1272 104.009V88.8733H48.1473Z" fill="#09253D"/>
<path d="M129.787 64.9492H129.363V65.3125L129.787 64.9492Z" fill="#FAFAFA"/>
<path d="M121.654 91.307C122.582 91.3076 123.499 91.1036 124.34 90.7095C125.18 90.3153 125.924 89.7407 126.517 89.0266H129.362V89.299V105.171H138.999C138.992 105.074 138.992 104.976 138.999 104.878L145.648 104.737V102.719C144.404 101.645 143.629 100.128 143.489 98.4912C143.445 98.1837 143.421 97.8735 143.418 97.5629C143.418 95.934 144.048 94.3682 145.177 93.1935C146.305 92.0188 147.844 91.3264 149.472 91.2612C151.1 91.1959 152.689 91.7631 153.908 92.8437C155.127 93.9243 155.881 95.4347 156.011 97.0584C156.055 97.3524 156.078 97.6491 156.081 97.9463C156.083 98.8735 155.88 99.7897 155.486 100.629C155.091 101.468 154.516 102.209 153.801 102.8V104.545L169.945 104.202V89.1981H172.67L172.761 89.299C173.584 90.3113 174.701 91.0435 175.958 91.3951C177.215 91.7467 178.55 91.7004 179.779 91.2625C181.009 90.8246 182.072 90.0167 182.824 88.9497C183.575 87.8828 183.978 86.6093 183.976 85.3042C183.975 83.9991 183.569 82.7266 182.815 81.6616C182.06 80.5965 180.995 79.7913 179.764 79.3565C178.534 78.9217 177.199 78.8788 175.943 79.2336C174.687 79.5884 173.572 80.3235 172.75 81.3378H170.026V81.2369H169.966V66.1016L153.73 66.6969V67.7059C154.785 68.5849 155.529 69.7811 155.849 71.1164C156.017 71.928 156.023 72.7647 155.867 73.5787C155.712 74.3926 155.397 75.1679 154.942 75.8604C154.486 76.5528 153.899 77.1487 153.213 77.6142C152.528 78.0796 151.757 78.4055 150.945 78.5731C150.134 78.7407 149.297 78.7468 148.483 78.5911C147.669 78.4354 146.894 78.1209 146.201 77.6655C145.509 77.2101 144.913 76.6228 144.448 75.9372C143.982 75.2515 143.656 74.4808 143.489 73.6692C143.427 73.3194 143.397 72.9649 143.398 72.6098C143.398 71.6611 143.611 70.7245 144.024 69.8701C144.436 69.0157 145.036 68.2655 145.779 67.6757V67.0097L129.393 67.605V81.3378H126.668C126.035 80.4735 125.191 79.7859 124.216 79.3409C123.242 78.8959 122.169 78.7083 121.101 78.7959C120.033 78.8835 119.006 79.2436 118.117 79.8416C117.228 80.4395 116.507 81.2555 116.023 82.2115C115.539 83.1676 115.308 84.2317 115.353 85.3022C115.398 86.3728 115.716 87.414 116.278 88.3263C116.84 89.2387 117.626 89.9918 118.562 90.5136C119.498 91.0355 120.552 91.3086 121.623 91.307H121.654Z" fill="#FAFAFA"/>
<path d="M115.306 57.0221C115.307 56.5954 115.266 56.1697 115.185 55.7508C114.868 54.2202 113.995 52.8615 112.734 51.9373C111.474 51.0131 109.915 50.5891 108.36 50.7473C106.805 50.9054 105.364 51.6344 104.316 52.7935C103.267 53.9525 102.685 55.4591 102.683 57.0221C102.685 57.4975 102.739 57.9712 102.844 58.4348C103.151 59.787 103.896 61.0001 104.963 61.8856V64.6806H88.6777V81.1176H91.4324C92.2458 80.0903 93.359 79.3418 94.6174 78.9763C95.8758 78.6108 97.2167 78.6463 98.454 79.0779C99.6912 79.5096 100.763 80.3159 101.521 81.3849C102.279 82.4538 102.685 83.7323 102.683 85.0427C102.72 86.0197 102.494 86.9887 102.027 87.8478C101.466 88.8453 100.656 89.6807 99.6766 90.273C98.6971 90.8652 97.5812 91.1942 96.4371 91.228C95.5087 91.2287 94.5915 91.0247 93.7509 90.6306C92.9103 90.2364 92.1669 89.6618 91.5736 88.9476H88.6777V105.193H104.973V108.018V108.109C103.717 109.145 102.91 110.628 102.723 112.246C102.723 112.448 102.723 112.66 102.723 112.872C102.737 114.48 103.365 116.023 104.477 117.185C105.59 118.347 107.104 119.041 108.711 119.125C110.318 119.208 111.896 118.676 113.123 117.636C114.351 116.595 115.135 115.126 115.316 113.527C115.316 113.346 115.316 113.154 115.316 112.972C115.318 112.024 115.105 111.086 114.692 110.232C114.28 109.377 113.679 108.627 112.935 108.038V105.314V105.183H129.362V89.0384H126.567C125.735 90.0444 124.613 90.7681 123.353 91.1101C122.094 91.4521 120.759 91.3956 119.533 90.9483C118.307 90.5011 117.25 89.6851 116.506 88.6125C115.763 87.5398 115.37 86.2633 115.382 84.9583C115.393 83.6533 115.809 82.3839 116.571 81.3247C117.333 80.2654 118.405 79.4683 119.639 79.0429C120.873 78.6175 122.208 78.5846 123.461 78.9489C124.714 79.3132 125.824 80.0567 126.637 81.0773H129.362V67.6169L126.526 67.7178C127.512 66.9878 128.458 66.2064 129.362 65.3769V64.6806H112.925V61.9664C113.669 61.3754 114.27 60.6236 114.682 59.7673C115.095 58.9111 115.308 57.9725 115.306 57.0221Z" fill="#00A5A5"/>
<path d="M129.363 105.176V121.472H132.128C132.72 120.755 133.463 120.179 134.304 119.783C135.145 119.387 136.062 119.182 136.991 119.181C138.189 119.186 139.359 119.537 140.362 120.19C139.631 115.221 139.176 110.215 138.999 105.196L129.363 105.176Z" fill="#3A5164"/>
<path d="M143.4 153.464C143.399 154.606 143.706 155.726 144.291 156.707C144.876 157.688 145.715 158.492 146.72 159.034C146.088 155.61 145.503 152.388 144.964 149.367C144.61 149.763 144.305 150.2 144.056 150.669C143.627 151.538 143.402 152.494 143.4 153.464Z" fill="#3A5164"/>
<path d="M133.177 130.356C132.806 130.083 132.468 129.768 132.168 129.418H129.363L129.303 145.915H144.347C143.278 139.649 142.42 134.261 141.734 129.65C140.741 130.768 139.379 131.491 137.897 131.687C136.415 131.884 134.911 131.54 133.662 130.72L133.329 130.477C133.275 130.442 133.224 130.401 133.177 130.356Z" fill="#3A5164"/>
<path d="M149.707 91.2072C148.034 91.2072 146.43 91.8716 145.247 93.0543C144.065 94.2369 143.4 95.841 143.4 97.5135C143.403 97.8242 143.427 98.1343 143.471 98.4418C143.696 99.9816 144.483 101.383 145.681 102.377V104.738L153.642 104.567V102.448C154.384 101.857 154.984 101.107 155.396 100.253C155.809 99.3984 156.023 98.4621 156.023 97.5135C156.033 97.3455 156.033 97.1771 156.023 97.009C155.898 95.4228 155.177 93.9427 154.006 92.8663C152.834 91.7899 151.298 91.1971 149.707 91.2072Z" fill="#3A5164"/>
<path d="M62.3255 152.023C62.212 152.496 62.1544 152.98 62.1539 153.466C62.1605 155.023 62.7421 156.523 63.7871 157.678C64.8321 158.833 66.2668 159.561 67.8157 159.722C69.3647 159.883 70.9186 159.467 72.1792 158.553C73.4398 157.638 74.3182 156.29 74.6456 154.768C74.7302 154.349 74.7741 153.923 74.7768 153.496C74.7784 152.567 74.5738 151.648 74.1777 150.807C73.7816 149.966 73.204 149.224 72.4863 148.633V145.838L88.7215 145.898V129.451H85.977C85.1594 130.466 84.0482 131.202 82.7955 131.561C81.5429 131.919 80.2102 131.881 78.9799 131.452C77.7497 131.023 76.6822 130.224 75.9236 129.165C75.165 128.106 74.7526 126.838 74.7427 125.535C74.7328 124.233 75.1261 122.959 75.8685 121.888C76.611 120.817 77.6663 120.003 78.8899 119.555C80.1135 119.108 81.4455 119.05 82.7034 119.389C83.9613 119.728 85.0836 120.448 85.9164 121.45H88.6912V105.184H72.4964V102.379C73.5013 101.547 74.2236 100.423 74.5639 99.1632C74.9043 97.9033 74.8461 96.569 74.3973 95.3435C73.9485 94.1181 73.1312 93.0617 72.0576 92.3197C70.9841 91.5776 69.707 91.1863 68.4021 91.1995C67.0971 91.2128 65.8282 91.6299 64.77 92.3936C63.7117 93.1572 62.9159 94.2299 62.492 95.4642C62.0682 96.6985 62.037 98.0338 62.4029 99.2865C62.7688 100.539 63.5137 101.648 64.5352 102.46V103.59L69.994 103.449C69.994 103.449 70.4683 118.978 61.8613 145.828H64.5352V148.552C63.4277 149.426 62.6489 150.65 62.3255 152.023Z" fill="#FAFAFA"/>
<path d="M132.158 121.469H129.363V105.184H112.936V107.938C113.68 108.527 114.281 109.277 114.694 110.132C115.106 110.986 115.319 111.923 115.318 112.872C115.318 113.094 115.318 113.306 115.318 113.528C115.136 115.127 114.352 116.596 113.125 117.636C111.897 118.676 110.319 119.209 108.713 119.125C107.106 119.042 105.592 118.348 104.479 117.186C103.366 116.024 102.739 114.481 102.725 112.872C102.725 112.66 102.725 112.449 102.725 112.247C102.891 110.597 103.699 109.078 104.975 108.019V105.194H88.7298V121.479H85.9752C85.1431 120.473 84.0198 119.75 82.7596 119.408C81.4995 119.067 80.1645 119.124 78.9383 119.572C77.7121 120.021 76.655 120.838 75.9123 121.912C75.1697 122.986 74.7781 124.263 74.7913 125.569C74.8046 126.874 75.2221 128.144 75.9864 129.202C76.7506 130.261 77.8241 131.056 79.0592 131.48C80.2942 131.903 81.6301 131.933 82.8831 131.566C84.136 131.199 85.2445 130.453 86.0559 129.43H88.7702V145.918L105.005 145.968V143.173C104.289 142.581 103.713 141.838 103.317 140.997C102.921 140.157 102.715 139.239 102.715 138.31C102.719 137.249 102.994 136.208 103.512 135.283C104.169 134.035 105.225 133.044 106.511 132.467C107.798 131.89 109.241 131.761 110.609 132.1C111.978 132.439 113.193 133.227 114.061 134.338C114.929 135.449 115.4 136.819 115.398 138.229C115.4 139.23 115.161 140.216 114.702 141.105C114.252 141.925 113.661 142.659 112.956 143.274V145.918H129.343L129.404 129.42H132.128L132.249 129.562C132.551 129.906 132.89 130.217 133.258 130.49C133.308 130.533 133.362 130.57 133.419 130.601L133.752 130.843C135.014 131.644 136.521 131.968 138.001 131.757C139.481 131.546 140.836 130.814 141.825 129.693C141.28 126.04 140.816 122.892 140.493 120.168C139.49 119.514 138.32 119.164 137.123 119.159C136.175 119.147 135.236 119.348 134.377 119.748C133.518 120.148 132.759 120.736 132.158 121.469Z" fill="#09253D"/>
<path d="M170.028 81.2348H172.752C173.344 80.5209 174.085 79.9463 174.924 79.5521C175.763 79.1579 176.679 78.9539 177.606 78.9545C179.236 79.0197 180.778 79.7131 181.908 80.8896C183.039 82.0661 183.67 83.6344 183.67 85.2659C183.67 86.8974 183.039 88.4657 181.908 89.6422C180.778 90.8187 179.236 91.5121 177.606 91.5773C176.68 91.5771 175.766 91.3727 174.929 90.9785C174.092 90.5843 173.352 90.0101 172.762 89.2969L172.672 89.196H169.947V104.21L205.546 103.443V90.9417C204.716 91.3352 203.81 91.5385 202.892 91.537C201.945 91.5404 201.009 91.331 200.154 90.9241C199.299 90.5171 198.547 89.9232 197.952 89.1861C197.358 88.449 196.936 87.5878 196.72 86.666C196.503 85.7442 196.496 84.7854 196.7 83.8607C196.904 82.936 197.313 82.0689 197.898 81.3237C198.482 80.5784 199.226 79.9741 200.075 79.5553C200.925 79.1365 201.857 78.9141 202.804 78.9044C203.751 78.8947 204.688 79.098 205.546 79.4993V64.9492H201.711L169.947 66.1197V81.255L170.028 81.2348Z" fill="#09253D"/>
<path d="M88.731 145.918H72.4958V148.713C73.2135 149.304 73.7911 150.047 74.1872 150.888C74.5833 151.729 74.7879 152.647 74.7863 153.576C74.7836 154.003 74.7397 154.429 74.6551 154.848C74.3493 156.387 73.4805 157.757 72.2186 158.69C70.9567 159.623 69.3924 160.052 67.8311 159.893C66.2699 159.734 64.824 158.998 63.7759 157.83C62.7279 156.662 62.1529 155.146 62.1634 153.576C62.1639 153.08 62.2215 152.586 62.335 152.103C62.6604 150.734 63.4391 149.514 64.5447 148.642V145.918H61.8607C60.0142 151.669 57.754 157.935 54.9792 164.696C52.9006 169.741 50.5899 174.968 48.1582 180.215V186.42V186.491H64.5447V183.766C63.5214 182.952 62.7767 181.839 62.4136 180.583C62.0506 179.326 62.0872 177.988 62.5184 176.753C62.9495 175.518 63.754 174.448 64.8202 173.691C65.8865 172.934 67.1619 172.526 68.4698 172.526C70.1523 172.526 71.7661 173.193 72.9577 174.381C74.1492 175.568 74.8213 177.18 74.8267 178.863C74.8273 179.79 74.6232 180.705 74.229 181.544C73.8348 182.383 73.2602 183.125 72.5463 183.716V186.491H88.6906V170.346H91.5159C92.1231 171.068 92.8796 171.649 93.7332 172.05C94.5868 172.45 95.5172 172.661 96.4601 172.667C97.0554 172.662 97.6455 172.556 98.2057 172.354C100.294 168.5 101.041 167.874 101.041 167.874C101.041 167.874 101.223 168.571 101.576 169.892C101.719 169.704 101.847 169.505 101.959 169.297C102.696 167.907 102.887 166.292 102.495 164.769C102.102 163.246 101.155 161.924 99.8379 161.063C98.5212 160.203 96.9303 159.865 95.3775 160.117C93.8248 160.369 92.4223 161.193 91.4453 162.426H88.6906V145.948" fill="#3A5164"/>
<path d="M48.1452 180.133C47.19 182.198 46.2113 184.266 45.209 186.338H48.1452V180.133Z" fill="#09253D"/>
<path d="M153.721 185.27V186.42H154.114L153.721 185.27Z" fill="#E0E0E0"/>
<path d="M149.705 172.435H149.765C148.645 168.318 147.677 164.151 146.9 159.964C146.849 159.691 146.708 159.166 146.658 158.894C145.672 158.398 144.851 157.627 144.294 156.675C143.737 155.722 143.468 154.628 143.52 153.526C143.459 152.541 143.643 151.557 144.054 150.66C144.303 150.191 144.608 149.754 144.962 149.359C144.761 148.178 144.559 147.038 144.357 145.918H129.302V162.305H126.558C125.746 161.282 124.638 160.535 123.385 160.168C122.132 159.801 120.796 159.832 119.561 160.255C118.326 160.678 117.253 161.474 116.488 162.533C115.724 163.591 115.307 164.861 115.293 166.166C115.28 167.472 115.672 168.749 116.414 169.823C117.157 170.897 118.214 171.714 119.44 172.163C120.666 172.611 122.001 172.668 123.262 172.327C124.522 171.985 125.645 171.262 126.477 170.256H129.363V186.4H145.729V183.595C145.014 183.027 144.436 182.304 144.039 181.481C143.642 180.658 143.437 179.756 143.439 178.842C143.423 178.614 143.423 178.385 143.439 178.156C143.587 176.595 144.31 175.144 145.468 174.087C146.626 173.029 148.137 172.441 149.705 172.435Z" fill="#E0E0E0"/>
<path d="M115.236 194.754C115.236 194.572 115.236 194.391 115.236 194.199C115.237 193.262 115.029 192.337 114.627 191.49C114.226 190.644 113.641 189.897 112.915 189.305V186.581V186.45H129.291V170.305H126.496C125.906 171.019 125.166 171.594 124.329 171.99C123.493 172.385 122.579 172.592 121.653 172.596C119.978 172.596 118.371 171.93 117.186 170.746C116.002 169.561 115.336 167.955 115.336 166.279C115.336 164.604 116.002 162.998 117.186 161.813C118.371 160.628 119.978 159.963 121.653 159.963C122.6 159.963 123.535 160.178 124.388 160.59C125.24 161.002 125.989 161.602 126.577 162.344H129.291V145.917H112.915V143.193L112.975 143.143C113.712 142.571 114.317 141.848 114.751 141.024C115.214 140.179 115.46 139.232 115.468 138.269C115.462 136.841 114.983 135.455 114.107 134.327C113.23 133.199 112.005 132.393 110.622 132.035C109.24 131.677 107.778 131.786 106.464 132.346C105.15 132.906 104.058 133.885 103.359 135.131C102.869 136.099 102.63 137.174 102.663 138.259C102.664 139.188 102.869 140.106 103.265 140.946C103.661 141.787 104.238 142.53 104.954 143.122V145.917H88.7285V162.395H91.4832C92.4602 161.162 93.8627 160.339 95.4154 160.087C96.9682 159.834 98.5591 160.172 99.8758 161.032C101.193 161.893 102.14 163.215 102.533 164.738C102.925 166.261 102.734 167.876 101.997 169.266C101.886 169.478 101.755 169.69 101.624 169.892C102.835 174.301 106.104 185.632 111.371 200.011C112.433 199.57 113.355 198.848 114.036 197.921C114.717 196.995 115.132 195.899 115.236 194.754Z" fill="#00A5A5"/>
<path d="M88.6777 186.407H91.4223C94.6007 179.404 96.7802 175.025 98.2534 172.281C97.6435 172.476 97.0068 172.575 96.3665 172.573C95.4381 172.574 94.5209 172.37 93.6803 171.976C92.8396 171.582 92.0962 171.007 91.503 170.293H88.6777V186.407Z" fill="#00A5A5"/>
<path d="M169.966 227.032V222.421C168.342 219.324 166.657 215.984 164.972 212.462C164.152 212.84 163.261 213.036 162.358 213.037C160.904 213.045 159.491 212.55 158.359 211.637C157.227 210.723 156.445 209.447 156.145 208.024C155.845 206.601 156.045 205.118 156.712 203.825C157.379 202.532 158.472 201.509 159.805 200.929C157.787 196.267 155.911 191.404 154.155 186.389H153.671V184.976C152.258 180.87 150.956 176.672 149.806 172.414H149.746C148.172 172.415 146.656 173.003 145.493 174.063C144.33 175.123 143.605 176.579 143.459 178.145C143.449 178.34 143.449 178.536 143.459 178.731C143.457 179.658 143.661 180.574 144.055 181.413C144.449 182.252 145.025 182.994 145.74 183.584V186.389H129.303V202.715H132.158C132.749 202 133.49 201.425 134.329 201.03C135.168 200.636 136.084 200.433 137.012 200.435C138.286 200.497 139.513 200.94 140.533 201.706C141.38 202.241 142.071 202.988 142.54 203.873C143.009 204.758 143.239 205.75 143.207 206.751C143.225 207.563 143.079 208.37 142.778 209.125C142.477 209.879 142.028 210.565 141.456 211.143C140.885 211.72 140.203 212.176 139.452 212.484C138.7 212.792 137.894 212.946 137.082 212.936C135.888 212.996 134.702 212.705 133.672 212.099C133.554 212.027 133.439 211.95 133.329 211.867L133.167 211.756C132.77 211.406 132.403 211.025 132.067 210.616H129.303L129.383 227.043H145.669V229.727C144.908 230.372 144.294 231.174 143.869 232.077C143.444 232.981 143.219 233.965 143.207 234.963C143.214 235.369 143.251 235.774 143.318 236.174C143.679 237.582 144.506 238.827 145.664 239.706C146.821 240.585 148.242 241.047 149.695 241.018C150.623 241.019 151.54 240.816 152.38 240.422C153.22 240.028 153.962 239.453 154.554 238.739C155.146 238.024 155.573 237.188 155.804 236.289C156.035 235.391 156.064 234.452 155.89 233.541C155.571 232.139 154.832 230.868 153.772 229.898L153.62 229.767V227.043L169.966 227.032Z" fill="#3A5164"/>
<path d="M88.7294 186.407H72.4841V183.612C73.2793 182.954 73.9011 182.112 74.295 181.158C74.6888 180.205 74.8427 179.169 74.7431 178.142C74.6435 177.115 74.2935 176.128 73.7237 175.268C73.1539 174.408 72.3818 173.701 71.4751 173.209C70.5138 172.686 69.4331 172.422 68.3391 172.443C67.2451 172.463 66.1752 172.768 65.2342 173.326C64.2933 173.885 63.5135 174.678 62.9714 175.628C62.4293 176.579 62.1433 177.654 62.1416 178.748C62.1397 179.697 62.353 180.634 62.7655 181.489C63.1779 182.343 63.7788 183.093 64.5229 183.682V186.407H48.1465V202.622H50.9415C51.7693 201.619 52.8869 200.896 54.1412 200.553C55.3955 200.21 56.7251 200.263 57.9481 200.705C59.1711 201.147 60.2276 201.956 60.9729 203.022C61.7181 204.087 62.1158 205.357 62.1114 206.658V206.728C62.1096 208.037 61.7016 209.312 60.9437 210.379C60.1858 211.445 59.1154 212.25 57.8803 212.682C56.6453 213.114 55.3066 213.152 54.0492 212.79C52.7918 212.429 51.6776 211.685 50.8608 210.663H48.1465V226.969V227.05H48.1969V226.979H64.5835V229.663L64.533 229.714C64.162 229.991 63.8235 230.309 63.524 230.662C62.5426 231.903 62.0633 233.467 62.181 235.044C62.2988 236.622 63.005 238.097 64.1597 239.178C69.4167 230.955 74.8251 221.843 79.4363 212.772C78.5376 212.538 77.7017 212.108 76.9877 211.514C76.2737 210.92 75.6992 210.177 75.3051 209.336C74.911 208.495 74.7068 207.577 74.7071 206.648C74.7075 205.72 74.9123 204.802 75.307 203.962C75.7017 203.121 76.2767 202.378 76.9911 201.784C77.7055 201.191 78.5418 200.762 79.4406 200.528C80.3394 200.294 81.2786 200.261 82.1917 200.431C83.1047 200.601 83.9691 200.97 84.7236 201.512C86.1665 198.141 87.4782 195.114 88.689 192.43L88.7294 186.407Z" fill="#FAFAFA"/>
<path d="M88.779 186.41H88.7285V192.464C89.7375 190.265 90.5851 188.267 91.4226 186.41H88.779Z" fill="#09253D"/>
<path d="M133.167 211.727L133.328 211.838C133.438 211.921 133.553 211.998 133.671 212.07C134.665 212.719 135.824 213.069 137.011 213.079C138.076 213.081 139.123 212.814 140.057 212.303C140.991 211.792 141.781 211.053 142.352 210.155C142.924 209.257 143.26 208.23 143.328 207.167C143.396 206.105 143.195 205.043 142.743 204.079C142.291 203.115 141.602 202.281 140.741 201.655C139.881 201.029 138.876 200.63 137.82 200.496C136.764 200.362 135.691 200.497 134.701 200.889C133.711 201.28 132.836 201.916 132.158 202.736H129.363V186.41H112.926V189.165C113.669 189.755 114.269 190.505 114.681 191.359C115.093 192.214 115.307 193.15 115.307 194.099C115.307 194.321 115.307 194.543 115.307 194.755C115.186 195.901 114.754 196.993 114.057 197.911C113.359 198.829 112.424 199.538 111.352 199.961C114.379 208.225 118.062 217.498 122.39 227.043H129.363V210.657H132.087L132.208 210.788C132.497 211.131 132.818 211.445 133.167 211.727Z" fill="#09253D"/>
<path d="M79.4778 212.825C81.3545 209.132 83.1102 205.439 84.654 201.817L84.7449 201.605C83.6774 200.829 82.3914 200.412 81.072 200.414C79.5366 200.411 78.0529 200.969 76.8992 201.982C75.7454 202.995 75.0009 204.394 74.8053 205.917C74.6097 207.44 74.9764 208.982 75.8366 210.254C76.6968 211.525 77.9915 212.44 79.4778 212.825Z" fill="#09253D"/>
<path d="M31.9114 224.259V226.963H48.1465V210.577H50.8608C51.6721 211.601 52.7817 212.349 54.0362 212.715C55.2906 213.082 56.628 213.049 57.8634 212.623C59.0988 212.196 60.1711 211.397 60.9321 210.334C61.6931 209.271 62.1052 207.999 62.1114 206.692C62.1159 205.391 61.7182 204.122 60.9729 203.056C60.2276 201.99 59.1712 201.181 57.9482 200.739C56.7252 200.297 55.3955 200.244 54.1412 200.587C52.8869 200.93 51.7693 201.653 50.9415 202.656H48.1465V186.34H45.2103C40.6192 195.875 35.7356 205.33 31.084 213.927C31.893 214.413 32.5826 215.075 33.102 215.864C33.8097 216.905 34.186 218.136 34.1817 219.395C34.1836 220.323 33.9812 221.24 33.5888 222.08C33.1964 222.921 32.6237 223.665 31.9114 224.259Z" fill="#00A5A5"/>
<path d="M170.017 227.029H172.439C171.638 225.556 170.814 224.019 169.967 222.418V227.029H170.017Z" fill="#00A5A5"/>
<path d="M156.002 206.719C156.002 208.394 156.667 210 157.852 211.185C159.037 212.37 160.643 213.035 162.318 213.035C163.225 213.035 164.121 212.835 164.942 212.45C163.196 208.807 161.451 204.963 159.745 200.957C158.632 201.454 157.686 202.262 157.022 203.284C156.358 204.307 156.003 205.499 156.002 206.719Z" fill="#00A5A5"/>
<path d="M48.1571 226.961V243.297H45.3218C44.7647 242.621 44.0729 242.069 43.2905 241.676C42.508 241.283 41.6522 241.057 40.7777 241.014C39.9031 240.97 39.029 241.109 38.2113 241.422C37.3936 241.736 36.6502 242.216 36.0287 242.833C34.8652 243.96 34.1798 245.491 34.1145 247.109C34.0492 248.727 34.609 250.308 35.6779 251.525C36.7467 252.742 38.2428 253.501 39.856 253.645C41.4691 253.788 43.0758 253.306 44.343 252.297H44.3934L44.5852 252.136C44.8827 251.879 45.1563 251.595 45.4025 251.288H48.1571V262.711C52.3143 257 58.1263 248.715 64.1602 239.271C63.4991 238.659 62.9777 237.912 62.6315 237.081C62.2853 236.249 62.1225 235.353 62.1541 234.452C62.1857 233.552 62.411 232.669 62.8146 231.864C63.2183 231.059 63.7908 230.35 64.4932 229.786L64.5436 229.736V227.011L48.1571 226.961Z" fill="#3A5164"/>
<path d="M48.1973 251.25H45.4426C45.1965 251.556 44.9229 251.84 44.6253 252.097L44.4336 252.259H44.3832C43.402 253.02 42.2183 253.475 40.9799 253.567C39.7416 253.659 38.5036 253.384 37.4206 252.776C36.3377 252.169 35.4579 251.255 34.8912 250.15C34.3245 249.045 34.096 247.798 34.2344 246.564C34.3727 245.33 34.8717 244.164 35.669 243.212C36.4663 242.26 37.5265 241.564 38.7171 241.211C39.9077 240.859 41.1759 240.865 42.3631 241.229C43.5503 241.593 44.6039 242.299 45.3922 243.258H48.2275V226.922L31.8713 227.003L31.9823 226.922V224.218C32.6965 223.625 33.2711 222.881 33.6652 222.041C34.0594 221.2 34.2634 220.283 34.2627 219.354C34.267 218.095 33.8906 216.864 33.183 215.823C32.6577 215.05 31.9687 214.402 31.165 213.926C28.6727 218.567 26.2611 222.957 24.0211 226.972C20.994 232.462 18.2091 237.244 16.0195 241.018C17.5588 241.193 18.9799 241.929 20.0116 243.084C21.0433 244.24 21.6136 245.735 21.6136 247.284C21.6136 248.833 21.0433 250.328 20.0116 251.484C18.9799 252.64 17.5588 253.375 16.0195 253.55L37.0274 267.394H44.7161C45.6747 266.112 46.8754 264.498 48.2578 262.591V251.25H48.1973Z" fill="#09253D"/>
<path d="M183.629 245.717C183.235 245.122 182.499 243.992 181.49 242.398C180.845 241.878 180.104 241.491 179.309 241.26C178.514 241.03 177.682 240.959 176.859 241.053C176.037 241.147 175.241 241.403 174.519 241.807C173.796 242.211 173.161 242.755 172.651 243.407H170.068V243.306L169.967 227.05H153.641V229.845C154.353 230.441 154.926 231.184 155.32 232.025C155.714 232.865 155.919 233.781 155.921 234.709C155.922 236.294 155.325 237.822 154.251 238.988C153.176 240.153 151.701 240.871 150.121 240.998C148.54 241.125 146.97 240.653 145.723 239.674C144.475 238.696 143.642 237.283 143.389 235.718C143.334 235.367 143.303 235.013 143.298 234.659C143.296 233.708 143.509 232.77 143.922 231.913C144.334 231.057 144.935 230.305 145.68 229.714V227H129.293V241.328C133.878 250.285 139.042 258.934 144.751 267.22H145.579V264.334C144.954 263.886 144.43 263.311 144.042 262.647C143.655 261.982 143.411 261.244 143.328 260.479C143.285 260.175 143.261 259.868 143.258 259.561C143.282 257.947 143.924 256.404 145.05 255.248C146.177 254.092 147.703 253.411 149.316 253.346C150.929 253.28 152.505 253.834 153.722 254.894C154.94 255.954 155.705 257.44 155.861 259.047C155.874 259.34 155.857 259.634 155.81 259.924C155.743 261.768 154.966 263.515 153.641 264.798V266.554L170.057 255.454V251.539H172.752C172.752 251.539 172.691 251.59 172.752 251.63C173.142 252.162 173.612 252.632 174.144 253.023L183.8 246.303C183.753 246.105 183.696 245.909 183.629 245.717Z" fill="#E0E0E0"/>
<path d="M129.364 241.5V227.051H122.371C124.54 231.834 126.871 236.727 129.364 241.5Z" fill="#00A5A5"/>
<path d="M153.68 264.798C154.405 264.137 154.979 263.326 155.36 262.422C155.742 261.518 155.922 260.541 155.89 259.561C155.89 259.389 155.89 259.218 155.89 259.046C155.734 257.44 154.969 255.954 153.752 254.893C152.535 253.833 150.958 253.279 149.345 253.345C147.732 253.411 146.206 254.092 145.08 255.248C143.953 256.403 143.312 257.947 143.287 259.561C143.289 259.868 143.316 260.176 143.368 260.479C143.586 262.019 144.37 263.422 145.568 264.414V267.219H144.74C145.517 268.329 146.627 269.59 147.424 270.68L153.68 266.311V264.798Z" fill="#3A5164"/>
<path d="M42.0926 270.853C42.0926 270.853 43.0411 269.632 44.6556 267.473H36.9668L42.0926 270.853Z" fill="#00A5A5"/>
<path d="M170.018 251.57V255.818L174.316 252.983C173.755 252.623 173.251 252.181 172.823 251.671C172.798 251.636 172.771 251.602 172.742 251.57H170.018Z" fill="#09253D"/>
<path d="M184.102 246.527C184.102 246.527 183.981 246.366 183.77 246.043C183.829 246.245 183.873 246.45 183.901 246.658L184.102 246.527Z" fill="#09253D"/>
<path d="M172.439 227.031H169.967L170.017 243.609H172.812C173.405 242.895 174.149 242.321 174.99 241.927C175.83 241.532 176.747 241.328 177.676 241.329C179.123 241.34 180.521 241.853 181.631 242.782C179.553 239.422 176.152 233.812 172.439 227.031Z" fill="#09253D"/>
<path d="M205.615 103.336L139.09 104.89L139.211 104.769C139.292 109.329 139.867 114.112 140.462 119.107C141.058 124.101 141.865 129.298 142.723 134.696C143.58 140.094 144.559 145.715 145.588 151.527C146.123 154.423 146.648 157.379 147.233 160.376C147.556 161.869 147.879 163.403 148.242 164.886C148.605 166.369 148.857 167.913 149.301 169.457C152.719 182.418 157.263 195.056 162.883 207.225C169.062 220.765 176.239 233.828 184.355 246.304L184.466 246.476L184.294 246.587L147.465 270.924L147.293 271.035L147.172 270.874C136.68 256.004 127.782 240.071 120.625 223.339C112.7 205.326 106.103 186.758 100.888 167.782L101.272 167.913C100.569 168.814 99.9447 169.772 99.4052 170.779C98.83 171.788 98.2751 172.797 97.7302 173.877C96.6506 175.975 95.6113 178.104 94.5921 180.254C92.5741 184.542 90.5561 188.921 88.6389 193.371C86.7218 197.821 84.8147 202.291 82.7563 206.751C81.7473 208.991 80.5869 211.17 79.5073 213.4C78.4276 215.63 77.1865 217.769 76.0261 219.969C71.2232 228.687 65.9359 237.263 60.2854 245.759C54.6349 254.255 48.6413 262.64 42.3551 270.904L42.2037 271.096L42.0019 270.955L10.5305 250.209L10.3186 250.078L10.4498 249.856C20.0456 233.802 29.7221 216.437 38.8638 198.547C42.7789 190.879 46.5223 183.16 50.0135 175.34C53.5048 167.52 56.7942 159.75 59.5589 151.799C62.3566 143.928 64.6881 135.899 66.5413 127.754C68.297 119.682 69.7198 111.469 69.7904 103.316L70.0527 103.568L3.92139 105.283H3.75996L3.68932 105.152C2.43505 102.615 1.60993 99.887 1.24749 97.0799C0.809196 94.3173 0.539621 91.5306 0.440264 88.7352C0.224036 83.2244 0.331858 77.7056 0.763159 72.2074V71.9855H0.985145L84.9156 68.9584L84.7945 69.3822C77.0911 64.5343 71.4384 57.0239 68.9119 48.2797C66.3853 39.5354 67.1613 30.1675 71.092 21.9581C72.9459 18.0849 75.4471 14.5565 78.4882 11.5248C81.482 8.57339 84.9597 6.1571 88.7701 4.38095C92.4843 2.6264 96.4631 1.4979 100.545 1.04108C104.541 0.63513 108.575 0.832416 112.512 1.62631C116.333 2.47132 119.996 3.91163 123.369 5.89448C124.187 6.41917 125.044 6.85305 125.811 7.43829L128.102 9.15362C129.537 10.3705 130.885 11.6853 132.138 13.0888C137.07 18.553 140.256 25.366 141.29 32.6538C142.294 39.5039 141.346 46.4983 138.555 52.8342C135.919 58.7597 131.797 63.9038 126.588 67.7677L126.487 67.4852L205.575 64.6398H205.665V64.7306C205.605 90.3093 205.585 102.72 205.575 103.366C205.575 102.72 205.575 90.3093 205.484 64.7306L205.585 64.8315L126.497 67.798H125.993L126.397 67.4953C131.554 63.6565 135.637 58.5556 138.253 52.6829C141.008 46.394 141.939 39.4565 140.937 32.6639C139.909 25.4482 136.746 18.7048 131.855 13.3007C130.603 11.9125 129.254 10.6143 127.819 9.41597L125.589 7.68045C124.833 7.10531 123.985 6.67142 123.178 6.15682C119.84 4.19539 116.213 2.77524 112.432 1.9492C108.543 1.154 104.557 0.943144 100.606 1.3236C96.583 1.79668 92.6638 2.92131 89.0022 4.65338C85.2362 6.40928 81.7993 8.79833 78.8413 11.7165C72.7139 17.8147 68.9124 25.8639 68.0952 34.47C67.4662 41.2237 68.7234 48.0195 71.7269 54.1012C74.7303 60.183 79.3623 65.3121 85.1073 68.918L85.7329 69.3216H84.9863L1.06587 72.4193L1.21722 72.2579C0.785914 77.7359 0.67809 83.2345 0.894321 88.7252C1.00276 91.4998 1.27229 94.2658 1.70154 97.0092C2.05164 99.774 2.85984 102.461 4.09294 104.96L3.86085 104.829L70.0023 103.094H70.2747V103.346C70.0305 111.625 68.9418 119.858 67.0257 127.916C65.1618 136.09 62.8236 144.149 60.023 152.051C57.2583 160.013 53.9689 167.853 50.4676 175.622C46.9663 183.392 43.2228 191.131 39.2977 198.83C30.156 216.75 20.4694 234.145 10.8635 250.179L10.7827 249.826L42.2642 270.581L41.9111 270.632C48.2276 262.398 54.1606 253.983 59.791 245.507C65.4213 237.031 70.7288 228.465 75.5216 219.757C76.682 217.567 77.8726 215.388 79.0028 213.198C80.1329 211.009 81.2226 208.799 82.2417 206.569C84.2598 202.129 86.1668 197.619 88.1243 193.199C90.0818 188.78 92.0393 184.391 94.0876 180.082C95.0967 177.923 96.1057 175.794 97.2358 173.695C97.7807 172.686 98.3356 171.606 98.9209 170.577C99.4908 169.503 100.167 168.489 100.939 167.55L101.211 167.247L101.332 167.681C106.535 186.634 113.115 205.182 121.018 223.177C128.156 239.868 137.027 255.763 147.485 270.601L147.193 270.551L184.042 246.244L183.992 246.526C175.87 234.023 168.69 220.934 162.509 207.366C156.894 195.173 152.356 182.512 148.948 169.528C148.504 168.014 148.232 166.501 147.889 164.947C147.546 163.393 147.243 161.92 146.88 160.426C146.294 157.399 145.78 154.473 145.245 151.567C144.236 145.755 143.227 140.145 142.4 134.737C141.572 129.328 140.785 124.122 140.16 119.127C139.507 114.361 139.096 109.566 138.929 104.759V104.637H139.05L205.615 103.336Z" fill="#09253D"/>
<g opacity="0.3">
<path d="M104.612 0.917969C96.6021 0.926734 88.8122 3.53783 82.4154 8.35798C76.0185 13.1781 71.3611 19.9463 69.1447 27.6431C66.9282 35.3399 67.2726 43.5485 70.1262 51.0325C72.9797 58.5165 78.1878 64.8707 84.966 69.138L1.01529 72.2559C1.01529 72.2559 -1.09357 96.1596 3.91118 105.1L70.0526 103.374C70.0526 103.374 70.769 126.269 55.0283 164.541C39.2875 202.813 10.6313 250.036 10.6313 250.036L42.1128 270.781C42.1128 270.781 71.0818 233.578 84.6734 201.744C98.2649 169.909 101.11 167.72 101.11 167.72C101.11 167.72 116.932 229.27 147.334 270.741L184.153 246.413C184.153 246.413 155.184 203.853 146.96 159.849C146.96 159.849 153.963 210.976 180.258 245.313L146.728 264.656C146.728 264.656 106.559 189.131 103.128 155.934C103.128 155.934 53.0808 263.9 40.69 264.656L15.9186 248.088C15.9186 248.088 51.5976 206.971 66.4605 154.451C81.3234 101.931 78.1954 95.4634 78.1954 95.4634L5.97968 98.9344C5.97968 98.9344 4.39551 82.1746 3.96163 77.1295L92.3217 71.6807C92.3217 71.6807 70.3654 57.2921 71.3442 37.0006C72.3229 16.7092 104.612 0.917969 104.612 0.917969Z" fill="#09253D"/>
</g>
</svg>
