<svg width="417" height="394" viewBox="0 0 417 394" fill="none" xmlns="http://www.w3.org/2000/svg">
<path d="M208.257 393.501C323.275 393.501 416.515 339.67 416.515 273.266C416.515 206.862 323.275 153.031 208.257 153.031C93.24 153.031 0 206.862 0 273.266C0 339.67 93.24 393.501 208.257 393.501Z" fill="#F5F5F5"/>
<path d="M244.332 321.042L262.135 310.763C260.741 310.505 259.398 310.019 258.161 309.326C256.847 308.63 255.745 307.593 254.971 306.324C254.196 305.054 253.779 303.6 253.762 302.113C253.762 298.346 256.36 294.683 260.889 292.068C264.68 289.917 268.956 288.767 273.315 288.725C275.936 288.639 278.535 289.236 280.857 290.457C282.127 291.133 283.2 292.126 283.971 293.34C284.742 294.555 285.185 295.948 285.256 297.385L306.177 285.262L364.861 313.941C367.321 315.145 367.399 317.223 365.026 318.6L338.312 334.023C336.591 334.987 334.647 335.483 332.675 335.46C330.766 335.476 328.881 335.027 327.185 334.152C327.245 334.317 327.288 334.481 327.332 334.646C328.137 337.651 326.726 340.708 323.729 342.439L302.644 354.692C301.312 355.365 299.841 355.716 298.349 355.716C296.857 355.716 295.386 355.365 294.054 354.692L244.366 326.004C241.959 324.636 241.959 322.41 244.332 321.042Z" fill="#E0E0E0"/>
<path d="M299.465 280.532C338.6 280.532 370.324 262.218 370.324 239.626C370.324 217.033 338.6 198.719 299.465 198.719C260.33 198.719 228.605 217.033 228.605 239.626C228.605 262.218 260.33 280.532 299.465 280.532Z" fill="#E0E0E0"/>
<path d="M61.3512 264.087L50.908 270.148C50.3105 239.512 30.4286 217.067 20.8427 205.203C11.0923 193.08 24.5749 185.884 35.9273 191.184C47.2797 196.483 56.502 210.087 60.3121 227.752C63.5593 242.82 61.914 259.558 61.3512 264.087Z" fill="#00A5A5"/>
<path opacity="0.3" d="M61.3512 264.087L50.908 270.148C50.3105 239.512 30.4286 217.067 20.8427 205.203C11.0923 193.08 24.5749 185.884 35.9273 191.184C47.2797 196.483 56.502 210.087 60.3121 227.752C63.5593 242.82 61.914 259.558 61.3512 264.087Z" fill="white"/>
<path d="M56.9188 263.151H57.0573C57.2349 263.144 57.4027 263.068 57.5243 262.938C57.6459 262.808 57.7114 262.636 57.7068 262.458C56.6417 223.889 43.7912 204.57 28.9491 194.751C28.8765 194.695 28.7934 194.655 28.7047 194.633C28.6161 194.611 28.5239 194.607 28.4338 194.622C28.3437 194.637 28.2577 194.671 28.1811 194.721C28.1044 194.77 28.0388 194.835 27.9883 194.911C27.9377 194.987 27.9034 195.073 27.8873 195.163C27.8713 195.253 27.8739 195.345 27.8949 195.434C27.916 195.523 27.9551 195.606 28.0098 195.679C28.0645 195.753 28.1337 195.814 28.213 195.859C42.856 205.549 55.3254 224.435 56.3732 262.536C56.3809 262.685 56.4391 262.827 56.5382 262.939C56.6373 263.051 56.7716 263.126 56.9188 263.151Z" fill="white"/>
<path d="M5.25743 229.145C5.48257 231.275 7.19712 232.912 8.8424 234.289C10.4877 235.666 12.3061 237.155 12.7304 239.251C13.5964 243.485 8.61726 247.391 9.69968 251.582C9.99165 252.445 10.4562 253.241 11.065 253.92C11.6738 254.599 12.4143 255.146 13.2414 255.53C14.5662 256.249 16.0037 256.717 17.3892 257.306C18.0746 257.513 18.7714 257.68 19.4761 257.808C21.537 258.163 23.6932 258.76 25.1739 260.354C27.486 262.865 27.1916 266.727 28.0142 270.035C29.0014 274.009 31.3567 276.339 36.7601 278.227L55.2652 267.74C59.8806 263.038 61.4999 255.002 57.2568 249.555C54.711 246.273 49.931 245.858 47.5324 242.585C45.3675 239.64 46.6664 235.389 45.2896 231.994C43.9128 228.6 40.449 227.422 37.1325 226.799C33.816 226.175 30.283 227.595 27.0444 226.409C23.8058 225.223 20.7923 223.318 17.4325 222.478C14.0726 221.638 10.505 221.949 7.74266 224.097C6.94455 224.668 6.30005 225.428 5.86647 226.309C5.43289 227.19 5.22368 228.164 5.25743 229.145Z" fill="#00A5A5"/>
<path opacity="0.6" d="M5.25743 229.145C5.48257 231.275 7.19712 232.912 8.8424 234.289C10.4877 235.666 12.3061 237.155 12.7304 239.251C13.5964 243.485 8.61726 247.391 9.69968 251.582C9.99165 252.445 10.4562 253.241 11.065 253.92C11.6738 254.599 12.4143 255.146 13.2414 255.53C14.5662 256.249 16.0037 256.717 17.3892 257.306C18.0746 257.513 18.7714 257.68 19.4761 257.808C21.537 258.163 23.6932 258.76 25.1739 260.354C27.486 262.865 27.1916 266.727 28.0142 270.035C29.0014 274.009 31.3567 276.339 36.7601 278.227L55.2652 267.74C59.8806 263.038 61.4999 255.002 57.2568 249.555C54.711 246.273 49.931 245.858 47.5324 242.585C45.3675 239.64 46.6664 235.389 45.2896 231.994C43.9128 228.6 40.449 227.422 37.1325 226.799C33.816 226.175 30.283 227.595 27.0444 226.409C23.8058 225.223 20.7923 223.318 17.4325 222.478C14.0726 221.638 10.505 221.949 7.74266 224.097C6.94455 224.668 6.30005 225.428 5.86647 226.309C5.43289 227.19 5.22368 228.164 5.25743 229.145Z" fill="white"/>
<path d="M39.7578 245.839C39.7218 245.764 39.6718 245.697 39.6106 245.64C30.9512 233.318 17.2781 227.456 12.6714 226.434C12.6099 226.42 12.5463 226.418 12.4842 226.429C12.4222 226.44 12.3628 226.462 12.3097 226.496C12.2565 226.53 12.2106 226.574 12.1746 226.626C12.1385 226.678 12.1131 226.736 12.0998 226.798C12.0858 226.859 12.0841 226.923 12.0948 226.985C12.1056 227.047 12.1285 227.106 12.1623 227.159C12.1962 227.212 12.2402 227.258 12.2919 227.294C12.3436 227.33 12.4019 227.356 12.4635 227.369C16.7932 228.348 29.4878 233.76 38.0086 245.069C34.5361 243.898 30.8591 243.457 27.2082 243.775C23.5574 244.092 20.0115 245.161 16.7932 246.913C16.7391 246.947 16.6922 246.991 16.6554 247.043C16.6186 247.095 16.5925 247.153 16.5788 247.215C16.5651 247.278 16.5639 247.342 16.5755 247.405C16.587 247.467 16.611 247.527 16.646 247.58C16.6872 247.646 16.7446 247.701 16.8128 247.739C16.881 247.777 16.9577 247.796 17.0357 247.796C17.1344 247.804 17.2326 247.777 17.3128 247.718C20.6083 245.937 24.2536 244.897 27.9932 244.673C31.7328 244.449 35.4762 245.045 38.9611 246.42C44.0392 253.69 46.5831 262.429 46.2004 271.289C46.1953 271.41 46.2363 271.528 46.315 271.62C46.3938 271.712 46.5045 271.77 46.6247 271.783H46.668C46.7951 271.785 46.9181 271.737 47.0104 271.65C47.1028 271.563 47.157 271.442 47.1616 271.315C47.5589 262.241 44.957 253.288 39.7578 245.839Z" fill="white"/>
<path d="M387.395 261.388C384.122 264.895 379.342 269.658 374.657 274.931C367.652 282.811 360.871 291.826 359.78 299.411L359.564 300.156L356.291 311.413L355.693 314.764L346.609 309.499C347.259 298.459 348.255 283.149 354.896 267.649C361.027 253.352 376.917 239.844 385.931 241.039C394.331 242.164 395.552 252.642 387.395 261.388Z" fill="#00A5A5"/>
<path opacity="0.3" d="M387.395 261.388C384.122 264.895 379.342 269.658 374.657 274.931C367.652 282.811 360.871 291.826 359.78 299.411L359.564 300.156L356.291 311.413L355.693 314.764L346.609 309.499C347.259 298.459 348.255 283.149 354.896 267.649C361.027 253.352 376.917 239.844 385.931 241.039C394.331 242.164 395.552 252.642 387.395 261.388Z" fill="white"/>
<path d="M351.564 305.812C351.679 305.789 351.785 305.731 351.865 305.646C351.946 305.56 351.998 305.452 352.014 305.335C355.105 276.898 372.502 254.124 386.244 247.647C386.309 247.617 386.366 247.574 386.414 247.522C386.462 247.469 386.499 247.408 386.523 247.341C386.547 247.275 386.558 247.204 386.555 247.133C386.551 247.062 386.534 246.992 386.504 246.928C386.474 246.864 386.432 246.806 386.379 246.758C386.327 246.711 386.265 246.674 386.199 246.649C386.132 246.625 386.061 246.615 385.99 246.618C385.919 246.621 385.85 246.638 385.785 246.668C371.818 253.249 354.066 276.396 350.932 305.214C350.923 305.285 350.929 305.356 350.948 305.425C350.968 305.493 351 305.557 351.045 305.612C351.089 305.668 351.144 305.714 351.206 305.749C351.269 305.783 351.337 305.804 351.408 305.812H351.564Z" fill="white"/>
<path d="M397.179 286.398C394.426 291.248 382.831 293.932 373.591 300.063C365.252 305.605 360.031 312.394 358.766 316.516L355.857 314.844L353.346 313.389C358.766 293.949 370.604 283.177 379.324 277.947C381.897 276.488 384.764 275.624 387.715 275.418C397.136 275.115 400.496 280.605 397.179 286.398Z" fill="#00A5A5"/>
<path opacity="0.6" d="M397.18 286.395C394.427 291.244 382.832 293.928 373.592 300.059C365.253 305.601 360.04 312.39 358.767 316.512L355.849 314.832L353.338 313.377C358.759 293.937 370.596 283.165 379.316 277.934C381.889 276.476 384.756 275.612 387.707 275.406C397.137 275.111 400.497 280.601 397.18 286.395Z" fill="white"/>
<path d="M357.025 312.136C357.13 312.132 357.231 312.097 357.316 312.035C357.401 311.973 357.466 311.888 357.502 311.789C365.667 290.219 382.363 282.893 390.061 282.036C390.203 282.018 390.332 281.946 390.421 281.834C390.51 281.722 390.552 281.58 390.537 281.438C390.531 281.367 390.51 281.298 390.476 281.235C390.442 281.172 390.396 281.117 390.34 281.072C390.284 281.028 390.22 280.995 390.151 280.976C390.082 280.957 390.01 280.952 389.94 280.962C381.436 281.906 364.827 289.387 356.488 311.399C356.438 311.534 356.442 311.683 356.5 311.814C356.559 311.946 356.666 312.049 356.8 312.101C356.872 312.129 356.949 312.141 357.025 312.136Z" fill="white"/>
<path d="M173.383 172.277C152.921 214.448 95.0423 298.253 42.7052 345.464C48.6542 326.007 53.7372 296.903 53.7372 296.903L14.4844 291.612C52.1699 262.438 103.122 206.646 129.048 155.937C163.945 87.6667 154.376 37.3559 143.249 38.1699C146.245 21.5699 181.437 13.9237 189.499 23.2758C209.649 44.292 201.596 114.095 173.383 172.277Z" fill="#00A5A5"/>
<path opacity="0.15" d="M173.383 172.277C152.921 214.448 95.0423 298.253 42.7052 345.464C48.6542 326.007 53.7372 296.903 53.7372 296.903L14.4844 291.612C52.1699 262.438 103.122 206.646 129.048 155.937C163.945 87.6667 154.376 37.3559 143.249 38.1699C146.245 21.5699 181.437 13.9237 189.499 23.2758C209.649 44.292 201.596 114.095 173.383 172.277Z" fill="black"/>
<path opacity="0.25" d="M156.367 191.932C151.094 191.126 138.858 178.241 126.215 161.355C116.984 178.406 105.104 195.889 92.0195 212.627C101.9 229.946 112.897 239.03 119.729 245.126C124.778 249.638 118.864 258.453 118.474 259.059C134.061 237.939 147.976 217.018 158.705 199.032L170.162 178.579C169.902 179.064 161.502 192.728 156.367 191.932Z" fill="black"/>
<path opacity="0.25" d="M143.248 38.2474C147.119 37.953 150.799 43.8587 152.488 54.5616C182.7 35.6929 200.538 46.7163 200.686 64.9962C200.729 46.2833 197.144 31.294 189.498 23.3447C181.418 14.0445 146.244 21.6908 143.248 38.2474Z" fill="black"/>
<path d="M84.6154 221.879C61.6421 249.866 35.9152 275.073 14.4746 291.665L53.7275 296.955L23.4197 290.348C39.1191 279.212 60.9753 254.629 84.6154 221.879Z" fill="#00A5A5"/>
<path d="M120.985 7.05696C89.3174 25.3455 74.0423 48.1283 68.5869 88.5068C63.1315 128.885 69.0372 158.812 84.7106 189.284C94.3276 207.948 106.902 224.932 121.946 239.578V220.597C111.191 208.352 100.904 193.709 95.786 181.578C77.2636 137.649 103.042 81.0338 119.668 60.5804C136.294 40.127 172.62 13.5948 189.523 23.3452C182.024 15.8722 152.643 -11.2143 120.985 7.05696Z" fill="#00A5A5"/>
<path opacity="0.1" d="M95.5613 108.725L68.0506 92.8438C63.591 131.04 69.6093 159.91 84.7112 189.283C94.3282 207.947 106.902 224.931 121.946 239.576V220.595C111.191 208.351 100.904 193.708 95.7865 181.576C86.0014 158.43 88.5386 131.768 95.5613 108.725Z" fill="black"/>
<path opacity="0.15" d="M161.268 26.8859L121.279 6.88281L120.985 7.03868C109.918 13.4466 100.887 20.3914 93.5176 28.4359L129.991 49.4955C139.161 40.7409 150.479 32.2547 161.268 26.8859Z" fill="white"/>
<path opacity="0.15" d="M88.2962 34.7266C85.8673 37.9565 83.6737 41.3568 81.7324 44.9013L116.37 64.9044C117.487 63.3284 118.578 61.8823 119.634 60.5747C121.003 58.8429 122.518 57.1629 124.129 55.3791L88.2962 34.7266Z" fill="white"/>
<path d="M130.327 173.873C109.215 146.267 100.885 106.33 104.262 86.1797C91.8532 112.686 82.6137 150.337 95.7932 181.58C100.911 193.703 111.198 208.354 121.953 220.599L157.517 200.076C147.239 192.696 138.081 183.871 130.327 173.873Z" fill="#00A5A5"/>
<path opacity="0.25" d="M104.619 110.547C103.268 101.1 103.147 92.6222 104.238 86.1797C93.5525 108.997 85.2396 140.076 91.5349 168.218C90.0195 153.723 94.6176 131.84 104.619 110.547Z" fill="black"/>
<path opacity="0.25" d="M121.921 239.586V220.596L120.371 218.812L121.921 239.586Z" fill="black"/>
<path d="M185.444 233.842L182.942 235.28C182.942 235.28 182.942 248.476 182.942 249.464C182.942 251.066 181.539 252.927 178.915 254.434C174.681 256.885 168.853 257.499 165.926 255.811C165.571 255.65 165.252 255.418 164.991 255.128C164.73 254.839 164.531 254.498 164.407 254.128C164.284 253.758 164.238 253.367 164.273 252.978C164.308 252.59 164.422 252.213 164.61 251.871C165.346 250.269 163.129 248.996 160.765 248.996C159.813 248.987 158.875 249.22 158.037 249.671L143.256 258.21C135.793 252.414 128.672 246.192 121.928 239.575V220.593C129.323 229.019 136.96 236.31 143.256 240.856L158.037 232.318C158.873 231.862 159.813 231.63 160.765 231.643C163.129 231.643 165.346 232.916 164.61 234.509C164.422 234.851 164.308 235.228 164.273 235.617C164.238 236.005 164.284 236.396 164.407 236.766C164.531 237.136 164.73 237.477 164.991 237.766C165.252 238.056 165.571 238.288 165.926 238.449C168.861 240.181 174.689 239.531 178.915 237.081C183.141 234.63 184.223 231.279 181.288 229.582C179.686 228.647 177.088 228.404 174.49 228.82C170.619 229.409 167.857 226.664 170.697 225.027L185.444 216.523V233.842Z" fill="#00A5A5"/>
<path opacity="0.15" d="M121.918 220.594V239.584C128.662 246.201 135.784 252.423 143.246 258.219V240.9C136.951 236.31 129.313 229.019 121.918 220.594Z" fill="black"/>
<path opacity="0.25" d="M143.246 240.857V258.219L142.051 239.965L143.246 240.857Z" fill="black"/>
<path d="M233.84 239.756L216.522 231.443C213.56 230.023 208.728 231.72 208.728 233.738C208.728 233.92 208.728 237.201 208.728 237.201C208.417 237.638 208.012 237.999 207.542 238.258C206.431 238.839 205.202 239.159 203.948 239.193V226.377C203.91 226.036 203.782 225.71 203.577 225.435C203.371 225.159 203.096 224.943 202.779 224.81L185.46 216.488L170.575 225.087C170.558 225.081 170.54 225.081 170.523 225.087C170.239 225.224 169.995 225.433 169.816 225.692C169.637 225.952 169.529 226.254 169.501 226.568V239.384C168.253 239.351 167.029 239.031 165.925 238.448C165.463 238.197 165.062 237.848 164.747 237.427V233.894C164.747 232.015 160.669 230.854 158.088 232.292L143.246 240.856V258.174C148.026 261.82 152.841 265.405 157.577 268.687L157.751 268.799C160.279 270.228 164.262 268.964 164.254 267.068V264.409C164.57 263.982 164.975 263.628 165.44 263.37C166.426 262.858 167.509 262.563 168.618 262.504C168.618 262.504 168.618 273.813 168.618 275.294C168.648 275.617 168.764 275.927 168.952 276.192C169.141 276.456 169.396 276.666 169.692 276.801C172.29 278.394 174.809 280.022 177.243 281.477C180.1 283.209 182.854 284.828 185.443 286.326L233.814 258.408L233.84 239.756Z" fill="#00A5A5"/>
<path opacity="0.15" d="M208.833 234.289C208.75 234.115 208.706 233.926 208.703 233.734V237.198C208.99 236.772 209.154 236.275 209.177 235.762C209.2 235.248 209.081 234.739 208.833 234.289Z" fill="black"/>
<path opacity="0.3" d="M194.518 236.868C197.381 238.493 200.64 239.291 203.931 239.172V226.391C203.931 227.75 201.74 229.032 198.969 228.59C196.371 228.183 193.773 228.417 192.154 229.361C189.21 231.058 190.266 234.418 194.518 236.868Z" fill="black"/>
<path opacity="0.15" d="M178.921 237.083C183.173 234.633 184.22 231.281 181.285 229.584C179.683 228.649 177.085 228.407 174.487 228.822C171.889 229.238 169.525 227.956 169.525 226.605V239.387C172.811 239.51 176.065 238.712 178.921 237.083Z" fill="black"/>
<path d="M164.746 233.887C164.741 234.102 164.691 234.315 164.599 234.51C164.351 234.961 164.233 235.472 164.259 235.986C164.285 236.5 164.454 236.996 164.746 237.42V233.887Z" fill="#00A5A5"/>
<path opacity="0.2" d="M185.478 267.675C182.88 266.177 180.126 264.601 177.269 262.938C174.815 261.507 172.298 260.02 169.718 258.479C169.447 258.357 169.21 258.171 169.028 257.937C168.845 257.703 168.722 257.429 168.67 257.137V262.471C168.67 262.471 168.67 273.771 168.67 275.261C168.7 275.584 168.816 275.894 169.004 276.158C169.193 276.423 169.448 276.633 169.744 276.767C172.341 278.361 174.861 279.989 177.295 281.444C180.152 283.175 182.897 284.786 185.504 286.284L185.478 267.675Z" fill="black"/>
<path opacity="0.2" d="M164.262 249.569C163.933 251.301 160.183 252.375 157.776 251.015L157.611 250.903C152.866 247.794 148.086 244.46 143.271 240.875V258.194C148.043 261.839 152.866 265.424 157.611 268.706L157.776 268.819C160.304 270.256 164.279 269.001 164.279 267.087V264.351L164.262 249.569Z" fill="black"/>
<path opacity="0.3" d="M180.846 253.632C179.192 254.575 176.663 254.809 174.005 254.402C171.061 253.943 168.472 255.597 168.671 257.139V262.473C167.565 262.534 166.485 262.83 165.502 263.339C165.033 263.594 164.627 263.953 164.315 264.386V249.57C164.333 249.441 164.333 249.31 164.315 249.181C164.32 249.173 164.322 249.164 164.322 249.155C164.322 249.146 164.32 249.137 164.315 249.129C164.299 248.987 164.258 248.849 164.194 248.722C164.01 248.377 163.899 247.998 163.867 247.608C163.835 247.219 163.884 246.827 164.009 246.457C164.135 246.086 164.336 245.746 164.598 245.456C164.861 245.167 165.18 244.934 165.536 244.773C168.463 243.041 174.282 243.699 178.525 246.141C182.768 248.583 183.773 251.934 180.846 253.632Z" fill="black"/>
<path d="M233.839 239.756L185.468 267.674C182.87 266.176 180.125 264.6 177.268 262.938C174.814 261.517 172.297 260.028 169.717 258.469C166.885 256.833 170.132 253.802 174.046 254.399C176.696 254.798 179.242 254.581 180.87 253.629C183.806 251.897 182.74 248.572 178.497 246.121C174.254 243.67 168.435 243.064 165.508 244.753C165.154 244.916 164.836 245.15 164.575 245.44C164.314 245.73 164.115 246.07 163.991 246.44C163.866 246.81 163.818 247.201 163.849 247.59C163.881 247.979 163.992 248.357 164.175 248.702C165.197 250.884 160.616 252.59 157.819 251.014L157.646 250.901C152.909 247.801 148.12 244.467 143.314 240.874L158.157 232.309C161.006 230.716 165.699 232.309 164.668 234.526C164.481 234.869 164.367 235.246 164.333 235.635C164.299 236.024 164.345 236.416 164.47 236.786C164.594 237.156 164.794 237.496 165.056 237.785C165.318 238.074 165.637 238.306 165.993 238.466C168.929 240.198 174.748 239.557 178.982 237.107C183.217 234.656 184.282 231.296 181.346 229.599C179.684 228.647 177.086 228.404 174.488 228.82C170.687 229.409 167.959 226.759 170.548 225.122C170.565 225.116 170.583 225.116 170.6 225.122L185.46 216.523L202.778 224.845C205.61 226.482 202.865 229.227 198.985 228.629C196.388 228.222 193.79 228.447 192.162 229.391C189.226 231.123 190.291 234.448 194.535 236.899C198.778 239.349 204.597 239.964 207.524 238.267C207.878 238.105 208.195 237.872 208.456 237.583C208.716 237.293 208.915 236.953 209.038 236.583C209.162 236.214 209.208 235.823 209.174 235.435C209.139 235.046 209.026 234.669 208.84 234.327C207.801 232.093 213.299 229.919 216.538 231.469L233.839 239.756Z" fill="#00A5A5"/>
<path opacity="0.35" d="M233.839 239.756L185.468 267.674C182.87 266.176 180.125 264.6 177.268 262.938C174.814 261.517 172.297 260.028 169.717 258.469C166.885 256.833 170.132 253.802 174.046 254.399C176.696 254.798 179.242 254.581 180.87 253.629C183.806 251.897 182.74 248.572 178.497 246.121C174.254 243.67 168.435 243.064 165.508 244.753C165.154 244.916 164.836 245.15 164.575 245.44C164.314 245.73 164.115 246.07 163.991 246.44C163.866 246.81 163.818 247.201 163.849 247.59C163.881 247.979 163.992 248.357 164.175 248.702C165.197 250.884 160.616 252.59 157.819 251.014L157.646 250.901C152.909 247.801 148.12 244.467 143.314 240.874L158.157 232.309C161.006 230.716 165.699 232.309 164.668 234.526C164.481 234.869 164.367 235.246 164.333 235.635C164.299 236.024 164.345 236.416 164.47 236.786C164.594 237.156 164.794 237.496 165.056 237.785C165.318 238.074 165.637 238.306 165.993 238.466C168.929 240.198 174.748 239.557 178.982 237.107C183.217 234.656 184.282 231.296 181.346 229.599C179.684 228.647 177.086 228.404 174.488 228.82C170.687 229.409 167.959 226.759 170.548 225.122C170.565 225.116 170.583 225.116 170.6 225.122L185.46 216.523L202.778 224.845C205.61 226.482 202.865 229.227 198.985 228.629C196.388 228.222 193.79 228.447 192.162 229.391C189.226 231.123 190.291 234.448 194.535 236.899C198.778 239.349 204.597 239.964 207.524 238.267C207.878 238.105 208.195 237.872 208.456 237.583C208.716 237.293 208.915 236.953 209.038 236.583C209.162 236.214 209.208 235.823 209.174 235.435C209.139 235.046 209.026 234.669 208.84 234.327C207.801 232.093 213.299 229.919 216.538 231.469L233.839 239.756Z" fill="white"/>
<path d="M181.286 229.583C179.65 228.63 177.121 228.405 174.463 228.812C170.584 229.41 167.839 226.665 170.67 225.028L185.443 216.524C175.649 211.91 166.3 206.402 157.517 200.072L144.285 207.709C141.445 209.346 138.353 206.791 140.025 204.194C141.159 202.41 141.419 200.574 140.51 199.206C138.873 196.755 134.11 196.764 129.867 199.206C125.624 201.648 123.503 205.622 125.139 208.073C126.048 209.432 127.928 210.039 130.153 209.883C133.392 209.649 134.483 213.347 131.66 214.983L121.918 220.612C129.313 229.037 136.951 236.328 143.246 240.875L158.036 232.319C160.868 230.674 165.63 232.267 164.591 234.501C164.407 234.844 164.295 235.222 164.262 235.61C164.229 235.998 164.276 236.389 164.4 236.758C164.524 237.128 164.723 237.467 164.984 237.757C165.244 238.046 165.562 238.279 165.916 238.441C168.852 240.173 174.679 239.524 178.905 237.073C183.131 234.623 184.222 231.245 181.286 229.583Z" fill="#00A5A5"/>
<path opacity="0.2" d="M181.286 229.583C179.65 228.63 177.121 228.405 174.463 228.812C170.584 229.41 167.839 226.665 170.67 225.028L185.443 216.524C175.649 211.91 166.3 206.402 157.517 200.072L144.285 207.709C141.445 209.346 138.353 206.791 140.025 204.194C141.159 202.41 141.419 200.574 140.51 199.206C138.873 196.755 134.11 196.764 129.867 199.206C125.624 201.648 123.503 205.622 125.139 208.073C126.048 209.432 127.928 210.039 130.153 209.883C133.392 209.649 134.483 213.347 131.66 214.983L121.918 220.612C129.313 229.037 136.951 236.328 143.246 240.875L158.036 232.319C160.868 230.674 165.63 232.267 164.591 234.501C164.407 234.844 164.295 235.222 164.262 235.61C164.229 235.998 164.276 236.389 164.4 236.758C164.524 237.128 164.723 237.467 164.984 237.757C165.244 238.046 165.562 238.279 165.916 238.441C168.852 240.173 174.679 239.524 178.905 237.073C183.131 234.623 184.222 231.245 181.286 229.583Z" fill="white"/>
<path d="M276.349 245.669C276.349 243.686 274.201 241.34 270.426 239.677C264.962 237.218 258.147 237.001 255.203 239.184C253.566 240.405 253.471 242.11 254.666 243.808C256.397 246.276 251.392 248.475 247.738 246.864L233.883 239.746L218.037 248.899L193.063 263.283L185.469 267.664V286.282L225.769 309.549L244.673 298.63C245.043 298.478 245.365 298.227 245.604 297.905C245.842 297.583 245.987 297.202 246.024 296.803C246.024 295.236 246.024 282.082 246.024 282.082C247.467 282.119 248.883 282.487 250.163 283.156C250.696 283.448 251.16 283.853 251.522 284.342V288.395C251.56 288.782 251.7 289.152 251.929 289.467C252.157 289.782 252.465 290.031 252.821 290.187C253.816 290.705 254.921 290.975 256.042 290.975C257.164 290.975 258.269 290.705 259.264 290.187L278.167 279.268V260.685L276.349 259.819V245.669Z" fill="#00A5A5"/>
<path opacity="0.25" d="M276.349 245.669C276.349 243.686 274.201 241.34 270.426 239.677C264.962 237.218 258.147 237.001 255.203 239.184C253.566 240.405 253.471 242.11 254.666 243.808C256.397 246.276 251.392 248.475 247.738 246.864L233.883 239.746L218.037 248.899L193.063 263.283L185.469 267.664V286.282L225.769 309.549L244.673 298.63C245.043 298.478 245.365 298.227 245.604 297.905C245.842 297.583 245.987 297.202 246.024 296.803C246.024 295.236 246.024 282.082 246.024 282.082C247.467 282.119 248.883 282.487 250.163 283.156C250.696 283.448 251.16 283.853 251.522 284.342V288.395C251.56 288.782 251.7 289.152 251.929 289.467C252.157 289.782 252.465 290.031 252.821 290.187C253.816 290.705 254.921 290.975 256.042 290.975C257.164 290.975 258.269 290.705 259.264 290.187L278.167 279.268V260.685L276.349 259.819V245.669Z" fill="black"/>
<path d="M270.425 239.677C264.961 237.218 258.146 237.001 255.202 239.184C253.565 240.405 253.47 242.11 254.665 243.808C256.397 246.276 251.392 248.475 247.738 246.864L233.883 239.746L218.036 248.899C215.204 250.536 210.442 248.951 211.481 246.709C211.667 246.366 211.78 245.988 211.813 245.6C211.847 245.211 211.8 244.82 211.676 244.45C211.551 244.081 211.352 243.741 211.091 243.451C210.829 243.162 210.511 242.93 210.156 242.769C207.22 241.037 201.401 241.686 197.167 244.137C192.933 246.587 191.859 249.947 194.794 251.644C196.431 252.588 198.968 252.813 201.618 252.406C205.497 251.809 208.242 254.563 205.411 256.199L185.494 267.673L225.795 290.941L244.698 280.03C247.971 278.133 244.802 274.964 240.325 275.7C238.879 275.932 237.41 275.982 235.952 275.847C234.74 275.742 233.561 275.391 232.488 274.817C229.103 272.86 230.324 268.98 235.225 266.157C240.126 263.335 246.837 262.624 250.223 264.573C250.634 264.758 251.002 265.027 251.304 265.362C251.607 265.696 251.837 266.09 251.98 266.517C252.123 266.945 252.176 267.398 252.136 267.847C252.096 268.296 251.963 268.732 251.747 269.128C251.288 270.132 251.842 271.024 252.881 271.63C253.877 272.146 254.981 272.415 256.102 272.415C257.224 272.415 258.328 272.146 259.324 271.63L278.167 260.685L263.931 254.138C260.354 252.484 262.813 249.151 267.394 249.514C270.538 249.757 273.378 249.289 275.023 248.068C277.941 245.886 275.898 242.128 270.425 239.677Z" fill="#00A5A5"/>
<path opacity="0.1" d="M270.425 239.677C264.961 237.218 258.146 237.001 255.202 239.184C253.565 240.405 253.47 242.11 254.665 243.808C256.397 246.276 251.392 248.475 247.738 246.864L233.883 239.746L218.036 248.899C215.204 250.536 210.442 248.951 211.481 246.709C211.667 246.366 211.78 245.988 211.813 245.6C211.847 245.211 211.8 244.82 211.676 244.45C211.551 244.081 211.352 243.741 211.091 243.451C210.829 243.162 210.511 242.93 210.156 242.769C207.22 241.037 201.401 241.686 197.167 244.137C192.933 246.587 191.859 249.947 194.794 251.644C196.431 252.588 198.968 252.813 201.618 252.406C205.497 251.809 208.242 254.563 205.411 256.199L185.494 267.673L225.795 290.941L244.698 280.03C247.971 278.133 244.802 274.964 240.325 275.7C238.879 275.932 237.41 275.982 235.952 275.847C234.74 275.742 233.561 275.391 232.488 274.817C229.103 272.86 230.324 268.98 235.225 266.157C240.126 263.335 246.837 262.624 250.223 264.573C250.634 264.758 251.002 265.027 251.304 265.362C251.607 265.696 251.837 266.09 251.98 266.517C252.123 266.945 252.176 267.398 252.136 267.847C252.096 268.296 251.963 268.732 251.747 269.128C251.288 270.132 251.842 271.024 252.881 271.63C253.877 272.146 254.981 272.415 256.102 272.415C257.224 272.415 258.328 272.146 259.324 271.63L278.167 260.685L263.931 254.138C260.354 252.484 262.813 249.151 267.394 249.514C270.538 249.757 273.378 249.289 275.023 248.068C277.941 245.886 275.898 242.128 270.425 239.677Z" fill="black"/>
<g opacity="0.15">
<path d="M276.348 245.672C276.338 246.152 276.211 246.623 275.977 247.043C275.743 247.463 275.409 247.818 275.005 248.079C273.36 249.283 270.52 249.759 267.377 249.517C262.813 249.144 260.362 252.495 263.913 254.141L276.348 259.821V245.672Z" fill="black"/>
<path d="M251.554 269.771C251.559 269.535 251.612 269.302 251.71 269.087C251.925 268.693 252.057 268.259 252.097 267.812C252.137 267.365 252.084 266.914 251.942 266.488C251.799 266.062 251.571 265.67 251.27 265.337C250.97 265.003 250.604 264.735 250.195 264.55C246.8 262.593 240.081 263.294 235.188 266.126C230.296 268.957 229.066 272.828 232.452 274.785C233.524 275.359 234.703 275.707 235.916 275.807C237.359 275.95 238.814 275.903 240.245 275.668C243.518 275.166 246.073 276.716 245.952 278.327V282.076C247.398 282.119 248.816 282.489 250.1 283.159C250.629 283.454 251.09 283.858 251.45 284.345L251.554 269.771Z" fill="black"/>
<path d="M225.767 309.561V290.943L185.467 267.676V286.293L225.767 309.561Z" fill="black"/>
</g>
<path d="M358.767 297.922L306.377 272.316L287.474 283.236C284.201 285.124 278.702 283.296 279.906 280.716C280.119 280.32 280.249 279.884 280.287 279.436C280.325 278.988 280.271 278.536 280.127 278.11C279.983 277.684 279.753 277.291 279.452 276.958C279.15 276.624 278.783 276.356 278.373 276.17C274.987 274.213 268.268 274.914 263.375 277.746C260.353 279.478 258.725 281.634 258.725 283.478V299.836L249.953 304.902V323.51L298.316 351.446L321.254 338.205C321.624 338.048 321.943 337.793 322.18 337.468C322.416 337.144 322.56 336.761 322.596 336.361C322.596 334.794 322.596 321.64 322.596 321.64C324.04 321.677 325.456 322.045 326.736 322.714C327.271 323.007 327.738 323.411 328.104 323.9C328.104 323.9 328.104 327.745 328.104 327.979C328.144 328.364 328.285 328.732 328.513 329.045C328.741 329.359 329.048 329.606 329.403 329.763C330.397 330.278 331.5 330.547 332.62 330.547C333.739 330.547 334.843 330.278 335.837 329.763L358.775 316.522L358.767 297.922Z" fill="#37474F"/>
<path d="M287.474 283.245C284.201 285.132 278.702 283.305 279.906 280.725C280.12 280.329 280.249 279.893 280.288 279.445C280.326 278.996 280.271 278.545 280.127 278.119C279.984 277.692 279.754 277.3 279.452 276.966C279.15 276.633 278.783 276.364 278.373 276.178C274.988 274.221 268.268 274.923 263.375 277.754C258.483 280.586 257.253 284.457 260.639 286.414C262.527 287.505 265.454 287.765 268.519 287.28C272.987 286.587 276.157 289.756 272.849 291.609L249.91 304.85L298.316 332.828L321.255 319.57C324.528 317.683 321.35 314.513 316.882 315.241C315.433 315.475 313.96 315.521 312.5 315.379C311.288 315.272 310.11 314.921 309.036 314.349C305.659 312.392 306.871 308.513 311.764 305.69C316.656 302.867 323.385 302.165 326.771 304.114C327.181 304.3 327.548 304.569 327.85 304.904C328.151 305.238 328.381 305.631 328.525 306.058C328.669 306.486 328.723 306.938 328.685 307.386C328.647 307.835 328.517 308.272 328.303 308.668C327.836 309.673 328.381 310.565 329.429 311.171C330.423 311.686 331.526 311.955 332.646 311.955C333.766 311.955 334.869 311.686 335.863 311.171L358.767 297.922L306.378 272.316L287.474 283.245Z" fill="#455A64"/>
<path d="M298.316 332.828V351.445L249.953 323.519V304.91L298.316 332.828Z" fill="#263238"/>
<path d="M272.893 291.662L258.727 299.854V283.496C258.747 284.111 258.936 284.709 259.274 285.224C259.611 285.739 260.084 286.151 260.64 286.414C262.528 287.505 265.455 287.765 268.52 287.28C272.989 286.605 276.149 289.774 272.893 291.662Z" fill="#263238"/>
<path d="M328.102 309.389C328.096 309.134 328.153 308.881 328.267 308.653C328.482 308.256 328.612 307.819 328.65 307.37C328.689 306.92 328.634 306.467 328.489 306.04C328.344 305.612 328.113 305.219 327.81 304.885C327.506 304.551 327.137 304.283 326.726 304.098C323.348 302.141 316.629 302.851 311.728 305.674C306.826 308.497 305.614 312.385 309.009 314.334C310.08 314.91 311.259 315.258 312.472 315.355C313.936 315.497 315.411 315.451 316.863 315.217C320.041 314.715 322.56 316.187 322.569 317.754C322.569 318.386 322.569 321.633 322.569 321.633C324.008 321.668 325.419 322.035 326.691 322.707C327.228 323.003 327.694 323.41 328.059 323.902L328.102 309.389Z" fill="#263238"/>
</svg>
