<svg width="21" height="21" viewBox="0 0 21 21" fill="none" xmlns="http://www.w3.org/2000/svg">
<path d="M16.8323 20.4998V20.4998C17.2354 20.5042 17.6342 20.4169 17.9986 20.2445L18.0014 20.2432C18.7254 19.9063 19.1675 19.4148 19.6422 18.7053C19.9045 18.3076 20.1297 17.8866 20.3149 17.4477L20.3155 17.4462C20.3346 17.4014 20.3531 17.3601 20.3683 17.326C20.3709 17.3203 20.3733 17.3149 20.3756 17.3096L20.8323 17.5132M16.8323 20.4998L13.7298 13.75C13.7406 13.7417 13.7514 13.7335 13.762 13.7254C13.8216 13.6799 13.8785 13.6363 13.9379 13.5926L13.9379 13.5926L13.94 13.5911C14.4487 13.2127 14.7209 13.0552 15.0604 13.0552H15.0632C15.3759 13.0552 15.6514 13.1826 16.3317 13.5257C16.7353 13.7292 17.4128 14.1137 18.0937 14.5529C18.7818 14.9967 19.4362 15.4729 19.8185 15.8585L19.8187 15.8587C20.2384 16.2816 20.3893 16.4759 20.4583 16.6586L20.4584 16.6587C20.5491 16.899 20.4784 17.0771 20.375 17.311L20.8323 17.5132M16.8323 20.4998H16.827C16.0316 20.4998 14.8329 20.2116 12.9453 19.1572M16.8323 20.4998L12.9453 19.1572M20.8323 17.5132L20.8357 17.5054C20.9394 17.2711 21.093 16.9238 20.9261 16.482M20.8323 17.5132L20.8245 17.5306C20.8093 17.5648 20.7928 17.6017 20.7756 17.6421C20.5782 18.1097 20.3383 18.5582 20.0587 18.9818L20.9261 16.482M20.9261 16.482C20.814 16.1852 20.5848 15.9209 20.1736 15.5065L20.9261 16.482ZM12.9453 19.1572C10.634 17.8613 8.86278 16.6756 6.57425 14.3935C4.36298 12.184 3.29919 10.7698 1.79322 8.02992L1.79316 8.02981C0.111705 4.97237 0.466211 3.50102 0.704285 2.99208L0.704578 2.99145C1.04063 2.27045 1.53264 1.83022 2.2455 1.35414C2.64403 1.09324 3.06572 0.869559 3.50524 0.685918L3.50525 0.685942L3.50996 0.683916C3.55942 0.662652 3.60513 0.642502 3.64543 0.624542L3.64543 0.624545L3.64722 0.623738C3.87438 0.52142 4.05491 0.451136 4.29385 0.541666L4.2953 0.542212C4.47884 0.611098 4.67422 0.761745 5.09771 1.1799L5.09795 1.18013C5.48535 1.56213 5.96615 2.20408 6.41215 2.88369C6.85538 3.55908 7.24011 4.23456 7.44137 4.66502C7.74339 5.31363 7.8737 5.61472 7.87414 5.94021C7.87411 6.2975 7.70266 6.59263 7.37321 7.04171L7.3729 7.04214C7.31652 7.11916 7.2603 7.19321 7.20276 7.269L7.19706 7.27651C7.19705 7.27653 7.19703 7.27654 7.19702 7.27656C7.02708 7.49983 6.88225 7.69469 6.7976 7.87462C6.69028 8.10272 6.67538 8.3092 6.72239 8.52971L6.72258 8.53059C6.79439 8.86447 7.05644 9.41 7.43028 10.0013C7.81569 10.6109 8.35362 11.3222 9.02387 11.9909C9.69448 12.6599 10.397 13.1852 10.9983 13.5584C11.5835 13.9216 12.1166 14.1679 12.4475 14.2385L12.9453 19.1572ZM13.116 14.1618C12.8831 14.2719 12.6729 14.2867 12.4478 14.2386L13.116 14.1618ZM13.116 14.1618C13.2999 14.0749 13.4996 13.9257 13.7298 13.75L13.116 14.1618Z" stroke="white"/>
</svg>
