<svg width="45" height="45" viewBox="0 0 45 45" fill="none" xmlns="http://www.w3.org/2000/svg">
<path fill-rule="evenodd" clip-rule="evenodd" d="M4.62859 1.41429C5.53192 0.509834 6.75744 0.00112533 8.03574 0L40.1786 0C41.4573 0 42.6837 0.50797 43.5879 1.41216C44.4921 2.31636 45 3.54271 45 4.82143V36.9643C45 38.243 44.4921 39.4694 43.5879 40.3736C42.6837 41.2777 41.4573 41.7857 40.1786 41.7857H14.6636L1.99931 44.9518C1.71989 45.0219 1.42678 45.0155 1.15065 44.9335C0.874515 44.8515 0.625506 44.6967 0.429681 44.4854C0.233856 44.2742 0.0984145 44.0142 0.0375291 43.7326C-0.0233563 43.451 -0.00744703 43.1583 0.0835921 42.885L3.21431 33.4896V4.82143C3.21431 3.54214 3.72216 2.31429 4.62859 1.41429ZM22.9243 11.6679C23.3667 11.4828 23.8447 11.3984 24.3238 11.4207C24.8028 11.443 25.2709 11.5714 25.6943 11.7968C26.1176 12.0221 26.4855 12.3387 26.7715 12.7236C27.0575 13.1086 27.2544 13.5523 27.3479 14.0226C27.4415 14.493 27.4293 14.9782 27.3124 15.4433C27.1954 15.9084 26.9766 16.3417 26.6717 16.7118C26.3668 17.082 25.9834 17.3798 25.5494 17.5837C25.1153 17.7875 24.6414 17.8924 24.1618 17.8907C23.629 17.8907 23.118 18.1024 22.7413 18.4791C22.3645 18.8559 22.1529 19.3668 22.1529 19.8996V23.4C22.1529 23.9328 22.3645 24.4438 22.7413 24.8205C23.118 25.1973 23.629 25.4089 24.1618 25.4089C24.6946 25.4089 25.2056 25.1973 25.5823 24.8205C25.9591 24.4438 26.1707 23.9328 26.1707 23.4V21.6289C27.4654 21.2556 28.6305 20.529 29.5353 19.5305C30.4401 18.532 31.0488 17.3011 31.2931 15.976C31.5374 14.6509 31.4076 13.2839 30.9184 12.0284C30.4291 10.7729 29.5998 9.6786 28.5233 8.86816C27.4468 8.05772 26.1658 7.56324 24.824 7.4402C23.4822 7.31716 22.1326 7.57041 20.9267 8.17156C19.7208 8.7727 18.7062 9.69796 17.9968 10.8435C17.2874 11.9891 16.9112 13.3097 16.9104 14.6571C16.9104 15.1899 17.122 15.7009 17.4988 16.0777C17.8755 16.4544 18.3865 16.6661 18.9193 16.6661C19.4521 16.6661 19.9631 16.4544 20.3398 16.0777C20.7166 15.7009 20.9282 15.1899 20.9282 14.6571C20.9283 14.0174 21.1179 13.392 21.4732 12.86C21.8285 12.3279 22.3334 11.9131 22.9243 11.6679ZM24.1618 34.1486C23.3974 34.1477 22.6646 33.8434 22.1246 33.3024C21.5845 32.7614 21.2814 32.0281 21.2818 31.2638C21.2822 30.4994 21.5862 29.7664 22.1269 29.2261C22.6675 28.6857 23.4006 28.3821 24.165 28.3821C24.9294 28.3821 25.6625 28.6857 26.2032 29.2261C26.7439 29.7664 27.0478 30.4994 27.0482 31.2638C27.0487 32.0281 26.7455 32.7614 26.2055 33.3024C25.6654 33.8434 24.9326 34.1477 24.1682 34.1486H24.1618Z" fill="#DF2E38"/>
</svg>
