<svg width="80" height="80" viewBox="0 0 80 80" fill="none" xmlns="http://www.w3.org/2000/svg">
<g clip-path="url(#clip0_1427_78977)">
<path d="M80 40.0016C80 17.9101 62.0914 0.0015564 40 0.0015564C17.9086 0.0015564 0 17.9101 0 40.0016C0 59.9667 14.6274 76.5148 33.75 79.5156V51.5641H23.5938V40.0016H33.75V31.1891C33.75 21.1641 39.7217 15.6266 48.8586 15.6266C53.2349 15.6266 57.8125 16.4078 57.8125 16.4078V26.2516H52.7686C47.7996 26.2516 46.25 29.3349 46.25 32.4982V40.0016H57.3438L55.5703 51.5641H46.25V79.5156C65.3726 76.5148 80 59.9667 80 40.0016Z" fill="#1877F2"/>
<path d="M55.5703 51.5625L57.3438 40H46.25V32.4966C46.25 29.3334 47.7996 26.25 52.7686 26.25H57.8125V16.4062C57.8125 16.4062 53.2349 15.625 48.8586 15.625C39.7217 15.625 33.75 21.1625 33.75 31.1875V40H23.5938V51.5625H33.75V79.5141C35.7865 79.8336 37.8738 80 40 80C42.1263 80 44.2135 79.8336 46.25 79.5141V51.5625H55.5703Z" fill="white"/>
</g>
<defs>
<clipPath id="clip0_1427_78977">
<rect width="80" height="80" fill="white"/>
</clipPath>
</defs>
</svg>
