<svg width="150" height="150" viewBox="0 0 150 150" fill="none" xmlns="http://www.w3.org/2000/svg">
<g clip-path="url(#clip0_2091_34980)">
<path d="M90.2578 35.3672C91.5586 40.8809 96.5098 44.9883 102.422 44.9883C109.324 44.9883 114.92 39.3926 114.92 32.4902C114.92 25.5879 109.324 19.9922 102.422 19.9922C96.3867 19.9922 91.3535 24.2695 90.1816 29.959C80.0742 31.043 72.1816 39.6152 72.1816 50.0039C72.1816 50.0273 72.1816 50.0449 72.1816 50.0684C61.1895 50.5312 51.1523 53.6602 43.1836 58.5996C40.2246 56.3086 36.5098 54.9434 32.4785 54.9434C22.8047 54.9434 14.9648 62.7832 14.9648 72.457C14.9648 79.4766 19.0898 85.5234 25.0488 88.3184C25.6289 108.65 47.7832 125.004 75.0352 125.004C102.287 125.004 124.471 108.633 125.021 88.2832C130.934 85.4707 135.023 79.4414 135.023 72.4629C135.023 62.7891 127.184 54.9492 117.51 54.9492C113.496 54.9492 109.799 56.3027 106.846 58.5762C98.8066 53.6016 88.6582 50.4727 77.5547 50.0566C77.5547 50.0391 77.5547 50.0273 77.5547 50.0098C77.5547 42.5684 83.0859 36.3926 90.2578 35.3789V35.3672ZM42.4805 83.5723C42.7734 77.2207 46.9922 72.3457 51.8965 72.3457C56.8008 72.3457 60.5508 77.4961 60.2578 83.8477C59.9648 90.1992 56.3027 92.5078 51.3926 92.5078C46.4824 92.5078 42.1875 89.9238 42.4805 83.5723ZM98.1797 72.3457C103.09 72.3457 107.309 77.2207 107.596 83.5723C107.889 89.9238 103.588 92.5078 98.6836 92.5078C93.7793 92.5078 90.1113 90.2051 89.8184 83.8477C89.5254 77.4961 93.2695 72.3457 98.1797 72.3457ZM92.3438 98.2676C93.2637 98.3613 93.8496 99.3164 93.4922 100.172C90.4746 107.385 83.3496 112.453 75.0352 112.453C66.7207 112.453 59.6016 107.385 56.5781 100.172C56.2207 99.3164 56.8066 98.3613 57.7266 98.2676C63.1172 97.7227 68.9473 97.4238 75.0352 97.4238C81.123 97.4238 86.9473 97.7227 92.3438 98.2676Z" fill="white"/>
</g>
<defs>
<clipPath id="clip0_2091_34980">
<rect width="150" height="150" fill="white"/>
</clipPath>
</defs>
</svg>
