<svg width="45" height="45" viewBox="0 0 45 45" fill="none" xmlns="http://www.w3.org/2000/svg">
<rect width="45" height="45" rx="4" fill="#00A5A5"/>
<path d="M16.436 27.212C16.98 26.78 17.228 26.58 17.18 26.612C18.748 25.316 19.98 24.252 20.876 23.42C21.788 22.588 22.556 21.716 23.18 20.804C23.804 19.892 24.116 19.004 24.116 18.14C24.116 17.484 23.964 16.972 23.66 16.604C23.356 16.236 22.9 16.052 22.292 16.052C21.684 16.052 21.204 16.284 20.852 16.748C20.516 17.196 20.348 17.836 20.348 18.668H16.388C16.42 17.308 16.708 16.172 17.252 15.26C17.812 14.348 18.54 13.676 19.436 13.244C20.348 12.812 21.356 12.596 22.46 12.596C24.364 12.596 25.796 13.084 26.756 14.06C27.732 15.036 28.22 16.308 28.22 17.876C28.22 19.588 27.636 21.18 26.468 22.652C25.3 24.108 23.812 25.532 22.004 26.924H28.484V30.26H16.436V27.212Z" fill="white"/>
</svg>
