<svg width="45" height="45" viewBox="0 0 45 45" fill="none" xmlns="http://www.w3.org/2000/svg">
<rect width="45" height="45" rx="4" fill="#00A5A5"/>
<path d="M16.224 17.924C16.288 16.212 16.848 14.892 17.904 13.964C18.96 13.036 20.392 12.572 22.2 12.572C23.4 12.572 24.424 12.78 25.272 13.196C26.136 13.612 26.784 14.18 27.216 14.9C27.664 15.62 27.888 16.428 27.888 17.324C27.888 18.38 27.624 19.244 27.096 19.916C26.568 20.572 25.952 21.02 25.248 21.26V21.356C26.16 21.66 26.88 22.164 27.408 22.868C27.936 23.572 28.2 24.476 28.2 25.58C28.2 26.572 27.968 27.452 27.504 28.22C27.056 28.972 26.392 29.564 25.512 29.996C24.648 30.428 23.616 30.644 22.416 30.644C20.496 30.644 18.96 30.172 17.808 29.228C16.672 28.284 16.072 26.86 16.008 24.956H19.992C20.008 25.66 20.208 26.22 20.592 26.636C20.976 27.036 21.536 27.236 22.272 27.236C22.896 27.236 23.376 27.06 23.712 26.708C24.064 26.34 24.24 25.86 24.24 25.268C24.24 24.5 23.992 23.948 23.496 23.612C23.016 23.26 22.24 23.084 21.168 23.084H20.4V19.748H21.168C21.984 19.748 22.64 19.612 23.136 19.34C23.648 19.052 23.904 18.548 23.904 17.828C23.904 17.252 23.744 16.804 23.424 16.484C23.104 16.164 22.664 16.004 22.104 16.004C21.496 16.004 21.04 16.188 20.736 16.556C20.448 16.924 20.28 17.38 20.232 17.924H16.224Z" fill="white"/>
</svg>
