<svg width="45" height="45" viewBox="0 0 45 45" fill="none" xmlns="http://www.w3.org/2000/svg">
<rect width="45" height="45" rx="4" fill="#00A5A5"/>
<path d="M27.916 16.556H20.428V19.868C20.748 19.516 21.196 19.228 21.772 19.004C22.348 18.78 22.972 18.668 23.644 18.668C24.844 18.668 25.836 18.94 26.62 19.484C27.42 20.028 28.004 20.732 28.372 21.596C28.74 22.46 28.924 23.396 28.924 24.404C28.924 26.276 28.396 27.764 27.34 28.868C26.284 29.956 24.796 30.5 22.876 30.5C21.596 30.5 20.484 30.284 19.54 29.852C18.596 29.404 17.868 28.788 17.356 28.004C16.844 27.22 16.564 26.316 16.516 25.292H20.524C20.62 25.788 20.852 26.204 21.22 26.54C21.588 26.86 22.092 27.02 22.732 27.02C23.484 27.02 24.044 26.78 24.412 26.3C24.78 25.82 24.964 25.18 24.964 24.38C24.964 23.596 24.772 22.996 24.388 22.58C24.004 22.164 23.444 21.956 22.708 21.956C22.164 21.956 21.716 22.092 21.364 22.364C21.012 22.62 20.78 22.964 20.668 23.396H16.708V12.956H27.916V16.556Z" fill="white"/>
</svg>
