<svg width="45" height="45" viewBox="0 0 45 45" fill="none" xmlns="http://www.w3.org/2000/svg">
<rect width="45" height="45" rx="4" fill="#00A5A5"/>
<path d="M24.244 17.708C24.116 17.116 23.892 16.676 23.572 16.388C23.252 16.084 22.796 15.932 22.204 15.932C21.292 15.932 20.636 16.332 20.236 17.132C19.836 17.916 19.628 19.164 19.612 20.876C19.964 20.316 20.468 19.876 21.124 19.556C21.796 19.236 22.532 19.076 23.332 19.076C24.9 19.076 26.156 19.572 27.1 20.564C28.06 21.556 28.54 22.94 28.54 24.716C28.54 25.884 28.3 26.908 27.82 27.788C27.356 28.668 26.668 29.356 25.756 29.852C24.86 30.348 23.796 30.596 22.564 30.596C20.1 30.596 18.388 29.828 17.428 28.292C16.468 26.74 15.988 24.516 15.988 21.62C15.988 18.58 16.492 16.324 17.5 14.852C18.524 13.364 20.156 12.62 22.396 12.62C23.596 12.62 24.604 12.86 25.42 13.34C26.252 13.804 26.876 14.42 27.292 15.188C27.724 15.956 27.98 16.796 28.06 17.708H24.244ZM22.348 22.316C21.66 22.316 21.084 22.524 20.62 22.94C20.172 23.34 19.948 23.916 19.948 24.668C19.948 25.436 20.156 26.036 20.572 26.468C21.004 26.9 21.612 27.116 22.396 27.116C23.1 27.116 23.652 26.908 24.052 26.492C24.468 26.06 24.676 25.476 24.676 24.74C24.676 23.988 24.476 23.396 24.076 22.964C23.676 22.532 23.1 22.316 22.348 22.316Z" fill="white"/>
</svg>
