<svg width="108" height="84" viewBox="0 0 108 84" fill="none" xmlns="http://www.w3.org/2000/svg">
<path d="M107.53 0.0210955C76.1616 9.78496 44.7208 21.3673 17.6111 40.2919C16.0578 41.3758 16.9677 43.8877 18.9291 43.413C31.448 40.3832 44.5991 37.9766 57.5925 37.6063C41.959 49.1897 26.5066 61.0219 11.0039 72.7779C12.2495 70.3773 13.2488 67.8593 13.8722 65.2028C14.2059 63.7767 12.3691 63.0592 11.5628 64.2314C7.88421 69.5724 4.7525 75.2066 0.574206 80.2034C-0.810182 81.8583 0.463622 84.4907 2.74178 83.9207C8.01291 82.601 13.3082 81.8453 18.7331 81.5522C21.6024 81.3967 21.6316 76.9478 18.7331 77.0712C16.4449 77.1685 14.1698 77.3683 11.9067 77.6583C29.6021 64.1561 47.3991 50.7703 64.8955 37.0112C66.2054 35.9815 65.1287 33.5438 63.5131 33.6783C51.1179 34.712 39.0103 35.852 26.9067 38.1904C52.0449 22.1451 80.1449 11.9376 107.738 0.770772C108.188 0.587116 108.02 -0.131449 107.53 0.0210955Z" fill="#00A5A5"/>
<path d="M56.8996 13.2942C56.7612 13.2021 56.6227 13.11 56.4853 13.0179C56.4342 12.9845 56.371 13.0017 56.3289 13.0381C56.2226 13.1292 56.1172 13.2193 56.0109 13.3104C55.9478 13.364 56.028 13.445 56.0922 13.4167C54.2377 14.2375 52.3983 15.5979 50.4585 16.4673C48.3583 17.4076 46.2681 18.3762 44.187 19.358C39.7689 21.4431 35.398 23.6354 31.1103 25.9836C22.8047 30.5323 14.783 35.6872 7.57363 41.8735C4.4173 44.581 -0.557406 50.1398 6.89263 50.0548C16.826 49.9404 26.8727 48.5102 36.6436 46.6134C32.2898 49.9981 27.7513 53.075 22.9652 55.8301C22.2711 56.2299 22.897 57.314 23.592 56.9121C29.1926 53.6672 34.4823 50.0244 39.5151 45.9434C40.0397 45.5183 39.456 44.7885 38.9123 44.8988C29.317 46.8452 19.6183 48.1519 9.84136 48.6671C8.53148 48.7359 7.2216 48.7916 5.91072 48.8341C4.55371 46.8675 4.75432 45.409 6.51352 44.4575C7.3841 43.1711 9.24257 42.0587 10.414 41.0992C13.9084 38.2378 17.5903 35.6123 21.3775 33.1618C28.1264 28.7964 35.2305 25.0292 42.4037 21.4319C45.9963 19.6303 49.617 17.8843 53.2117 16.0878C54.5195 15.4339 56.5666 15.0726 56.9928 13.527C57.0179 13.4339 56.9748 13.3438 56.8996 13.2942Z" fill="#00A5A5"/>
<path d="M20.8237 59.7139C20.6249 59.4454 20.3404 59.2546 20.034 59.1353C19.3949 58.887 18.6356 58.9808 18.0949 59.4145C17.6451 59.7747 17.4276 60.3181 17.4223 60.8808C17.1242 61.3049 16.958 61.8271 17.0092 62.3812C17.0312 62.622 17.1765 62.9268 17.4474 62.9673C17.9568 63.044 18.4641 62.9822 18.9337 62.8192C19.579 62.8149 20.1856 62.2938 20.4607 61.6757C20.6458 61.4136 20.8017 61.1248 20.9 60.8009C21.0182 60.4119 21.0736 60.0506 20.8237 59.7139Z" fill="#00A5A5"/>
</svg>
