<svg width="45" height="45" viewBox="0 0 45 45" fill="none" xmlns="http://www.w3.org/2000/svg">
<path fill-rule="evenodd" clip-rule="evenodd" d="M1.88357 1.55118C-1.91586e-07 3.10235 0 5.59588 0 10.5882V34.4118C0 39.4041 -1.91586e-07 41.8976 1.88357 43.4488C3.76714 45 6.795 45 12.8571 45H32.1429C38.205 45 41.2329 45 43.1164 43.4488C45 41.8976 45 39.4041 45 34.4118V10.5882C45 5.59588 45 3.10235 43.1164 1.55118C41.2329 -1.57777e-07 38.205 0 32.1429 0H12.8571C6.795 0 3.76714 -1.57777e-07 1.88357 1.55118ZM12.8571 10.5882C12.0047 10.5882 11.1871 10.8671 10.5843 11.3635C9.9815 11.86 9.64286 12.5332 9.64286 13.2353C9.64286 13.9373 9.9815 14.6106 10.5843 15.107C11.1871 15.6035 12.0047 15.8824 12.8571 15.8824H32.1429C32.9953 15.8824 33.8129 15.6035 34.4157 15.107C35.0185 14.6106 35.3571 13.9373 35.3571 13.2353C35.3571 12.5332 35.0185 11.86 34.4157 11.3635C33.8129 10.8671 32.9953 10.5882 32.1429 10.5882H12.8571ZM12.8571 21.1765C12.0047 21.1765 11.1871 21.4554 10.5843 21.9518C9.9815 22.4482 9.64286 23.1215 9.64286 23.8235C9.64286 24.5256 9.9815 25.1989 10.5843 25.6953C11.1871 26.1917 12.0047 26.4706 12.8571 26.4706H32.1429C32.9953 26.4706 33.8129 26.1917 34.4157 25.6953C35.0185 25.1989 35.3571 24.5256 35.3571 23.8235C35.3571 23.1215 35.0185 22.4482 34.4157 21.9518C33.8129 21.4554 32.9953 21.1765 32.1429 21.1765H12.8571ZM12.8571 31.7647C12.0047 31.7647 11.1871 32.0436 10.5843 32.54C9.9815 33.0364 9.64286 33.7097 9.64286 34.4118C9.64286 35.1138 9.9815 35.7871 10.5843 36.2835C11.1871 36.7799 12.0047 37.0588 12.8571 37.0588H25.7143C26.5668 37.0588 27.3843 36.7799 27.9871 36.2835C28.5899 35.7871 28.9286 35.1138 28.9286 34.4118C28.9286 33.7097 28.5899 33.0364 27.9871 32.54C27.3843 32.0436 26.5668 31.7647 25.7143 31.7647H12.8571Z" fill="#00A5A5"/>
</svg>
