<svg width="40" height="40" viewBox="0 0 40 40" fill="none" xmlns="http://www.w3.org/2000/svg">
<rect width="40" height="40" rx="4" fill="#09253D"/>
<path fill-rule="evenodd" clip-rule="evenodd" d="M19.3477 7.5667C19.7777 7.47777 20.2223 7.47777 20.6523 7.5667C21.6088 7.76454 22.227 8.49017 22.7118 9.25654C23.2022 10.032 23.7181 11.1225 24.3521 12.4622L24.3824 12.5264C24.8101 13.4304 24.912 13.596 25.0384 13.704C25.0876 13.7461 25.1409 13.7835 25.1974 13.8159C25.3426 13.8989 25.5367 13.9414 26.5569 14.056L26.8067 14.084C28.2417 14.2451 29.4103 14.3762 30.282 14.5738C31.1423 14.7687 32.0074 15.0859 32.507 15.8399C32.7966 16.277 32.9651 16.779 32.9961 17.2974C33.0497 18.1918 32.5424 18.9406 31.9648 19.5879C31.3795 20.2439 30.5137 21.015 29.4504 21.9621L29.3996 22.0074C28.6054 22.7147 28.4672 22.8681 28.4003 23.024C28.3668 23.1019 28.3437 23.1836 28.3313 23.2671C28.3064 23.4342 28.3443 23.6344 28.6534 24.6355L28.7171 24.8418C29.2101 26.4389 29.61 27.734 29.779 28.7332C29.9456 29.7174 29.9567 30.7649 29.2234 31.5521C29.038 31.7511 28.8261 31.9254 28.5933 32.0704C27.6723 32.6436 26.6065 32.4637 25.6302 32.1455C24.6391 31.8224 23.3838 31.2308 21.8356 30.5015L21.3612 30.278C20.3914 29.8211 20.1975 29.7554 20.0172 29.754L19.9929 29.7542C19.8126 29.7568 19.6192 29.8242 18.6532 30.2885L18.2262 30.4937C16.6626 31.2456 15.3953 31.8547 14.3948 32.1889C13.4103 32.5178 12.3331 32.7067 11.4024 32.1251C11.1819 31.9874 10.9803 31.8233 10.8022 31.6367C10.0504 30.849 10.0572 29.7892 10.2224 28.7936C10.3902 27.7819 10.792 26.4685 11.2878 24.8478L11.3529 24.6349C11.659 23.6343 11.6962 23.4343 11.6711 23.2674C11.6585 23.1844 11.6354 23.1033 11.6022 23.026C11.5353 22.8703 11.3972 22.7171 10.6041 22.0107L10.5532 21.9653C9.48835 21.0168 8.62131 20.2446 8.03527 19.5877C7.45693 18.9394 6.94923 18.1893 7.00407 17.2936C7.03563 16.7778 7.20321 16.2784 7.49079 15.8432C7.99025 15.0873 8.85634 14.7694 9.71781 14.5741C10.5907 14.3761 11.761 14.2447 13.1983 14.0834L13.443 14.056C14.4633 13.9414 14.6574 13.8989 14.8025 13.8159C14.8591 13.7835 14.9123 13.7461 14.9616 13.704C15.088 13.596 15.1897 13.4304 15.6175 12.5264L15.6478 12.4623C16.2817 11.1226 16.7977 10.032 17.2882 9.25654C17.7729 8.49017 18.3911 7.76454 19.3477 7.5667Z" fill="#00A5A5"/>
</svg>
