<svg width="509" height="462" viewBox="0 0 509 462" fill="none" xmlns="http://www.w3.org/2000/svg">
<path d="M366.961 8.59636H367.084V8.44967H370.47C371.449 9.66993 372.783 10.556 374.287 10.9856C375.791 11.4152 377.392 11.367 378.868 10.8478C380.344 10.3285 381.622 9.36383 382.526 8.08691C383.43 6.80999 383.916 5.28386 383.915 3.71931C383.91 2.55045 383.642 1.39767 383.133 0.345703C376.64 0.793438 370.323 2.65292 364.622 5.79434C358.922 8.93577 353.976 13.2834 350.13 18.5338C350.136 18.6437 350.136 18.7539 350.13 18.8638C350.13 19.9879 349.881 21.098 349.402 22.1145C348.922 23.131 348.223 24.0287 347.355 24.7432V28.1046H366.913L366.961 8.59636Z" fill="#3A5164"/>
<path d="M416.306 28.484V28.1051H427.734C425.181 21.8535 421.249 16.2589 416.232 11.7383V28.1051L416.306 28.484Z" fill="#FAFAFA"/>
<path d="M406.906 11.3104C407.973 11.3106 409.028 11.0866 410.003 10.6528C410.978 10.2191 411.851 9.58523 412.565 8.79244C408.596 5.88189 404.172 3.64752 399.474 2.17969C399.351 2.72114 399.29 3.27465 399.291 3.82982C399.291 4.09873 399.291 4.3432 399.291 4.59988C399.518 6.45681 400.419 8.16572 401.823 9.40259C403.226 10.6395 405.035 11.3183 406.906 11.3104Z" fill="#FAFAFA"/>
<path d="M383.047 7.27741C382.46 8.38963 381.608 9.34003 380.566 10.0445C379.524 10.749 378.325 11.1858 377.074 11.3163C375.823 11.4468 374.559 11.267 373.394 10.7928C372.23 10.3186 371.2 9.56459 370.396 8.59752H366.961V28.1546H386.701V31.516V31.6382C385.189 32.8949 384.218 34.6847 383.988 36.6375C383.988 36.8942 383.988 37.1387 383.988 37.3953C383.975 39.361 384.721 41.2557 386.07 42.6857C387.418 44.1156 389.267 44.9706 391.229 45.0729C393.192 45.1753 395.119 44.517 396.609 43.2351C398.1 41.9531 399.038 40.1461 399.23 38.1899C399.242 37.97 399.242 37.7497 399.23 37.5298C399.233 36.3785 398.974 35.2416 398.475 34.2043C397.975 33.167 397.247 32.2563 396.345 31.5404V28.2524V28.0813H416.184V11.7144C415.014 10.6761 413.79 9.70091 412.517 8.79309C411.535 9.86483 410.268 10.6339 408.864 11.0098C407.461 11.3857 405.979 11.3527 404.593 10.9148C403.208 10.4769 401.976 9.65225 401.043 8.53795C400.11 7.42364 399.515 6.06606 399.328 4.62498C399.285 4.3007 399.26 3.97421 399.255 3.64712C399.26 3.15481 399.309 2.66394 399.401 2.18034C395.139 0.878889 390.706 0.219753 386.249 0.224636C385.21 0.224636 384.171 0.224632 383.144 0.334641C383.654 1.38661 383.921 2.53939 383.927 3.70824C383.93 4.9521 383.628 6.17777 383.047 7.27741Z" fill="#00A5A5"/>
<path d="M420.866 58.7742C420.385 58.3865 419.942 57.9525 419.546 57.4785H416.307V77.329H417.199C422.302 72.4252 426.183 66.3923 428.53 59.7154C427.628 60.1167 426.656 60.3368 425.67 60.3632C424.206 60.3764 422.769 59.9737 421.526 59.202L421.11 58.9086L420.866 58.7742Z" fill="#3A5164"/>
<path d="M433.311 86.9469C433.31 87.3772 433.346 87.8066 433.421 88.2304C433.83 90.0673 434.902 91.6889 436.432 92.7852C437.962 93.8815 439.842 94.3755 441.713 94.1728C443.584 93.9701 445.315 93.0849 446.574 91.6865C447.834 90.2881 448.534 88.4745 448.541 86.5925C448.536 85.5244 448.29 84.4713 447.82 83.5123C447.35 82.5532 446.669 81.7132 445.827 81.0554V80.7865L445.656 80.6153V79.8086L436.195 80.1631V80.9698C435.295 81.6844 434.568 82.5932 434.069 83.6282C433.569 84.6632 433.31 85.7977 433.311 86.9469Z" fill="#3A5164"/>
<path d="M416.307 28.4844V47.8459H419.656C420.346 47.0401 421.194 46.3838 422.147 45.9175C423.101 45.4513 424.139 45.1848 425.199 45.1344C426.259 45.084 427.318 45.2509 428.311 45.6247C429.304 45.9985 430.211 46.5713 430.974 47.3081C430.974 46.538 430.974 45.768 430.974 44.9857C430.982 39.1979 429.861 33.4643 427.674 28.1055H416.307V28.4844Z" fill="#3A5164"/>
<path d="M342.54 94.171C343.817 94.1688 345.073 93.8444 346.191 93.228C347.31 92.6115 348.254 91.7229 348.938 90.6444C349.622 89.5659 350.022 88.3323 350.103 87.0579C350.183 85.7834 349.94 84.5093 349.398 83.3535L335.378 83.8669C335.052 84.7132 334.886 85.6126 334.889 86.5193C334.889 88.5487 335.695 90.4949 337.13 91.9299C338.565 93.3649 340.511 94.171 342.54 94.171Z" fill="#E0E0E0"/>
<path d="M367.025 57.4772H363.749C362.749 58.6985 361.396 59.5808 359.876 60.0032C358.355 60.4256 356.741 60.3675 355.255 59.8368C353.768 59.306 352.482 58.3287 351.573 57.0386C350.664 55.7486 350.176 54.2089 350.176 52.6307C350.176 51.0524 350.664 49.5128 351.573 48.2227C352.482 46.9327 353.768 45.9553 355.255 45.4246C356.741 44.8938 358.355 44.8357 359.876 45.2581C361.396 45.6805 362.749 46.5629 363.749 47.7842H367.11V28.1048H347.357V24.719C348.223 24.0004 348.919 23.0998 349.396 22.0815C349.874 21.0632 350.121 19.9521 350.12 18.8274C350.126 18.7542 350.126 18.6806 350.12 18.6074C343.724 27.3514 340.721 38.1207 341.67 48.9127C342.619 59.7047 347.455 69.7849 355.278 77.2787H367.037L367.025 57.4772Z" fill="#E0E0E0"/>
<path d="M396.346 28.2766V31.4424C397.244 32.1588 397.969 33.0679 398.469 34.1025C398.968 35.1371 399.228 36.2707 399.231 37.4195C399.249 37.684 399.249 37.9495 399.231 38.2141C399.039 40.1703 398.1 41.9773 396.61 43.2592C395.12 44.5412 393.193 45.1994 391.23 45.0971C389.267 44.9948 387.419 44.1398 386.07 42.7099C384.721 41.2799 383.976 39.3852 383.988 37.4195C383.988 37.1629 383.988 36.9184 383.988 36.6617C384.187 34.6651 385.162 32.8263 386.702 31.5402V28.1055H367.022V47.8459H363.637C362.63 46.6258 361.271 45.7475 359.745 45.3319C358.219 44.9163 356.601 44.9837 355.115 45.525C353.629 46.0662 352.347 47.0547 351.446 48.3544C350.545 49.6541 350.068 51.2011 350.082 52.7826C350.096 54.3642 350.6 55.9025 351.524 57.186C352.449 58.4694 353.748 59.435 355.243 59.9497C356.739 60.4645 358.357 60.5032 359.875 60.0606C361.394 59.6179 362.738 58.7156 363.722 57.4778H367.022V77.2427H367.145V77.3282H386.702V73.9546C385.409 72.8819 384.507 71.4124 384.135 69.7743C384.001 69.2098 383.935 68.6311 383.939 68.0508C383.737 66.028 384.346 64.0075 385.633 62.4338C386.92 60.8601 388.78 59.8622 390.803 59.6596C392.826 59.457 394.846 60.0663 396.42 61.3534C397.993 62.6405 398.991 64.5001 399.194 66.5229C399.292 67.0304 399.341 67.5462 399.341 68.0631C399.343 69.2144 399.085 70.3513 398.585 71.3886C398.085 72.4258 397.358 73.3366 396.456 74.0524V77.3282H416.306V57.4778H419.607C419.652 57.5378 419.701 57.595 419.753 57.6489C420.117 58.0688 420.527 58.4461 420.976 58.7735L421.159 58.9079L421.575 59.2013C422.791 59.9618 424.198 60.3642 425.633 60.3625C426.653 60.3658 427.663 60.1621 428.603 59.7635C430.012 55.7592 430.835 51.5723 431.048 47.3325C430.706 46.9765 430.324 46.6607 429.911 46.3914C428.339 45.3235 426.425 44.8807 424.544 45.1497C422.663 45.4188 420.95 46.3803 419.741 47.8459H416.306V28.1055H396.346V28.2766Z" fill="#09253D"/>
<path d="M508.617 77.498L503.973 77.6692H508.617V77.498Z" fill="#00A5A5"/>
<path d="M334.888 117.077C334.889 115.785 335.217 114.514 335.84 113.382C336.463 112.25 337.362 111.294 338.454 110.602C339.545 109.911 340.793 109.505 342.083 109.424C343.373 109.344 344.662 109.589 345.831 110.139C347 110.689 348.012 111.526 348.772 112.571C349.532 113.616 350.016 114.836 350.179 116.117C350.342 117.399 350.178 118.701 349.704 119.903C349.23 121.105 348.46 122.168 347.465 122.993V126.354H367.022V106.797H367.145V106.651H370.53C371.532 107.841 372.878 108.692 374.383 109.086C375.888 109.481 377.479 109.399 378.935 108.853C380.392 108.306 381.644 107.322 382.519 106.035C383.393 104.749 383.848 103.222 383.82 101.667C383.792 100.111 383.282 98.6024 382.362 97.3481C381.441 96.0937 380.155 95.1553 378.679 94.6618C377.204 94.1684 375.612 94.1442 374.122 94.5925C372.632 95.0408 371.318 95.9397 370.359 97.1655H367.022V77.3395H367.145V77.2539H355.264C357.455 79.3658 359.855 81.2497 362.426 82.8766L349.482 83.3533C349.945 84.3486 350.183 85.4336 350.179 86.5313C350.22 87.5611 350.053 88.5885 349.687 89.5521C349.321 90.5156 348.765 91.3953 348.051 92.1384C347.337 92.8816 346.48 93.4728 345.532 93.8767C344.584 94.2806 343.564 94.4888 342.533 94.4888C341.503 94.4888 340.483 94.2806 339.535 93.8767C338.586 93.4728 337.73 92.8816 337.016 92.1384C336.302 91.3953 335.745 90.5156 335.379 89.5521C335.014 88.5885 334.846 87.5611 334.888 86.5313C334.885 85.6245 335.051 84.7252 335.377 83.8789L317.922 84.5145V97.1044H314.634L314.56 97.031C313.607 95.8858 312.338 95.046 310.911 94.6163C309.483 94.1865 307.962 94.1856 306.534 94.6137C305.107 95.0418 303.836 95.8801 302.881 97.0242C301.926 98.1684 301.329 99.568 301.163 101.049C300.997 102.53 301.269 104.027 301.947 105.355C302.625 106.682 303.678 107.78 304.976 108.514C306.273 109.248 307.757 109.584 309.244 109.481C310.731 109.378 312.155 108.84 313.338 107.934H313.412L313.632 107.739C313.998 107.433 314.33 107.089 314.622 106.712H317.959V125.047L337.809 124.533V123.164C336.89 122.44 336.148 121.515 335.642 120.46C335.135 119.405 334.877 118.247 334.888 117.077Z" fill="#3A5164"/>
<path d="M317.922 106.65H314.586C314.294 107.028 313.962 107.372 313.595 107.677L313.375 107.873H313.302C312.175 108.756 310.822 109.305 309.397 109.455C307.973 109.606 306.535 109.352 305.248 108.723C303.961 108.094 302.877 107.116 302.12 105.9C301.363 104.684 300.965 103.279 300.969 101.847C300.964 100.271 301.445 98.733 302.348 97.4421C303.251 96.1513 304.531 95.1711 306.012 94.6357C307.494 94.1004 309.105 94.0361 310.624 94.4518C312.143 94.8674 313.497 95.7425 314.5 96.9574H317.922V84.502L268.712 86.311V97.0674H272.073C273.082 95.8501 274.443 94.9752 275.969 94.5628C277.495 94.1505 279.112 94.221 280.596 94.7646C282.081 95.3083 283.361 96.2984 284.259 97.5989C285.158 98.8994 285.632 100.446 285.616 102.027C285.6 103.608 285.095 105.145 284.17 106.427C283.245 107.709 281.945 108.673 280.45 109.187C278.955 109.7 277.337 109.738 275.82 109.295C274.302 108.851 272.959 107.949 271.976 106.711H268.688V126.269L317.898 124.985V106.65H317.922Z" fill="#09253D"/>
<path d="M416.82 77.6699H416.307V78.11L416.82 77.6699Z" fill="#FAFAFA"/>
<path d="M406.967 109.596C408.092 109.597 409.203 109.35 410.221 108.872C411.239 108.395 412.14 107.699 412.859 106.834H416.306V107.164V126.391H427.979C427.97 126.273 427.97 126.154 427.979 126.036L436.034 125.865V123.42C434.527 122.12 433.588 120.282 433.418 118.299C433.365 117.926 433.336 117.551 433.332 117.174C433.332 115.201 434.096 113.304 435.463 111.881C436.83 110.458 438.694 109.62 440.666 109.541C442.638 109.462 444.564 110.149 446.04 111.458C447.517 112.767 448.429 114.596 448.587 116.563C448.64 116.919 448.669 117.279 448.673 117.639C448.675 118.762 448.428 119.872 447.951 120.888C447.473 121.905 446.776 122.803 445.91 123.518V125.633L465.467 125.217V107.041H468.767L468.877 107.164C469.875 108.39 471.228 109.277 472.751 109.703C474.273 110.129 475.89 110.073 477.38 109.542C478.869 109.012 480.158 108.033 481.068 106.741C481.978 105.448 482.466 103.905 482.464 102.324C482.462 100.743 481.97 99.2019 481.057 97.9117C480.143 96.6216 478.852 95.6461 477.362 95.1194C475.871 94.5927 474.254 94.5407 472.732 94.9705C471.211 95.4003 469.86 96.2908 468.865 97.5195H465.565V97.3973H465.492V79.0625L445.825 79.7837V81.006C447.103 82.0708 448.003 83.5198 448.391 85.1374C448.594 86.1206 448.602 87.1341 448.413 88.1202C448.225 89.1062 447.844 90.0454 447.292 90.8842C446.74 91.723 446.029 92.4449 445.198 93.0088C444.368 93.5726 443.434 93.9673 442.451 94.1704C441.468 94.3734 440.454 94.3808 439.468 94.1922C438.482 94.0036 437.543 93.6225 436.704 93.0709C435.865 92.5193 435.143 91.8079 434.58 90.9772C434.016 90.1466 433.621 89.2131 433.418 88.2299C433.344 87.8061 433.307 87.3767 433.308 86.9465C433.307 85.7972 433.567 84.6627 434.066 83.6277C434.566 82.5927 435.293 81.6839 436.193 80.9693V80.1626L416.342 80.8838V97.5195H413.042C412.275 96.4725 411.252 95.6396 410.071 95.1005C408.891 94.5614 407.591 94.3341 406.298 94.4403C405.004 94.5465 403.759 94.9826 402.682 95.707C401.605 96.4314 400.732 97.4198 400.146 98.578C399.56 99.7361 399.281 101.025 399.335 102.322C399.389 103.619 399.775 104.88 400.455 105.985C401.136 107.091 402.088 108.003 403.222 108.635C404.356 109.267 405.632 109.598 406.93 109.596H406.967Z" fill="#FAFAFA"/>
<path d="M399.278 68.0625C399.279 67.5456 399.23 67.0298 399.132 66.5224C398.748 64.6683 397.69 63.0223 396.163 61.9028C394.636 60.7832 392.749 60.2696 390.865 60.4612C388.981 60.6527 387.235 61.5359 385.965 62.9399C384.695 64.3439 383.99 66.1691 383.987 68.0625C383.99 68.6383 384.055 69.2121 384.183 69.7737C384.555 71.4118 385.457 72.8813 386.75 73.9541V77.3399H367.021V97.2514H370.358C371.344 96.0069 372.692 95.1003 374.217 94.6575C375.741 94.2147 377.366 94.2577 378.864 94.7806C380.363 95.3035 381.662 96.2803 382.58 97.5752C383.498 98.8701 383.99 100.419 383.987 102.006C384.033 103.19 383.758 104.364 383.193 105.404C382.513 106.613 381.532 107.625 380.345 108.342C379.159 109.06 377.807 109.458 376.421 109.499C375.296 109.5 374.185 109.253 373.167 108.775C372.149 108.298 371.248 107.602 370.53 106.737H367.021V126.416H386.762V129.838V129.948C385.239 131.204 384.262 133 384.036 134.96C384.036 135.204 384.036 135.461 384.036 135.718C384.053 137.667 384.813 139.536 386.161 140.943C387.509 142.351 389.343 143.191 391.29 143.293C393.236 143.394 395.148 142.749 396.634 141.489C398.121 140.229 399.071 138.449 399.291 136.512C399.291 136.292 399.291 136.06 399.291 135.84C399.293 134.691 399.035 133.555 398.535 132.52C398.035 131.485 397.307 130.576 396.406 129.863V126.563V126.404H416.305V106.847H412.92C411.912 108.065 410.553 108.942 409.027 109.356C407.501 109.77 405.885 109.702 404.399 109.16C402.914 108.618 401.633 107.63 400.733 106.331C399.832 105.031 399.356 103.485 399.37 101.904C399.384 100.323 399.888 98.7854 400.811 97.5023C401.735 96.2191 403.033 95.2535 404.527 94.7381C406.022 94.2228 407.639 94.183 409.158 94.6243C410.676 95.0656 412.02 95.9663 413.005 97.2026H416.305V80.8968L412.871 81.0191C414.065 80.1348 415.211 79.1882 416.305 78.1833V77.3399H396.394V74.0518C397.295 73.336 398.023 72.4253 398.523 71.388C399.023 70.3507 399.281 69.2138 399.278 68.0625Z" fill="#00A5A5"/>
<path d="M416.307 126.393V146.133H419.656C420.373 145.266 421.273 144.567 422.292 144.088C423.31 143.608 424.422 143.359 425.547 143.358C426.997 143.365 428.415 143.789 429.63 144.581C428.744 138.561 428.194 132.497 427.98 126.417L416.307 126.393Z" fill="#3A5164"/>
<path d="M433.311 184.892C433.308 186.275 433.681 187.633 434.389 188.821C435.098 190.009 436.114 190.983 437.332 191.64C436.566 187.492 435.857 183.588 435.205 179.93C434.776 180.409 434.406 180.938 434.105 181.506C433.585 182.559 433.313 183.718 433.311 184.892Z" fill="#3A5164"/>
<path d="M420.926 156.9C420.477 156.569 420.067 156.188 419.704 155.764H416.306L416.232 175.749H434.457C433.162 168.158 432.123 161.631 431.291 156.045C430.089 157.399 428.439 158.275 426.643 158.513C424.848 158.751 423.027 158.335 421.513 157.34L421.109 157.047C421.044 157.004 420.982 156.955 420.926 156.9Z" fill="#3A5164"/>
<path d="M440.95 109.475C438.924 109.475 436.981 110.28 435.548 111.712C434.115 113.145 433.311 115.088 433.311 117.114C433.314 117.491 433.343 117.866 433.396 118.239C433.669 120.104 434.622 121.802 436.073 123.006V125.866L445.717 125.658V123.091C446.616 122.376 447.343 121.467 447.842 120.432C448.342 119.398 448.601 118.263 448.602 117.114C448.614 116.911 448.614 116.707 448.602 116.503C448.45 114.582 447.577 112.789 446.158 111.485C444.738 110.181 442.878 109.463 440.95 109.475Z" fill="#3A5164"/>
<path d="M335.097 183.144C334.96 183.717 334.89 184.304 334.89 184.892C334.898 186.779 335.602 188.596 336.868 189.995C338.134 191.393 339.872 192.275 341.748 192.471C343.625 192.666 345.507 192.162 347.034 191.054C348.561 189.946 349.625 188.313 350.022 186.469C350.124 185.962 350.178 185.446 350.181 184.929C350.183 183.803 349.935 182.69 349.455 181.672C348.975 180.653 348.276 179.753 347.406 179.037V175.652L367.073 175.725V155.801H363.749C362.758 157.03 361.412 157.922 359.895 158.356C358.377 158.79 356.763 158.744 355.272 158.225C353.782 157.705 352.489 156.738 351.57 155.455C350.651 154.171 350.151 152.636 350.14 151.057C350.128 149.479 350.604 147.936 351.503 146.639C352.403 145.342 353.681 144.355 355.163 143.813C356.646 143.271 358.259 143.201 359.783 143.612C361.307 144.022 362.666 144.894 363.675 146.108H367.037V126.404H347.418V123.006C348.636 121.998 349.511 120.637 349.923 119.11C350.335 117.584 350.265 115.968 349.721 114.483C349.177 112.999 348.187 111.719 346.887 110.82C345.586 109.921 344.039 109.447 342.459 109.463C340.878 109.479 339.341 109.985 338.059 110.91C336.777 111.835 335.813 113.134 335.299 114.629C334.786 116.125 334.748 117.742 335.191 119.26C335.634 120.777 336.537 122.12 337.774 123.104V124.473L344.387 124.302C344.387 124.302 344.962 143.113 334.535 175.639H337.774V178.94C336.433 179.999 335.489 181.481 335.097 183.144Z" fill="#FAFAFA"/>
<path d="M419.691 146.133H416.305V126.404H396.406V129.741C397.307 130.455 398.035 131.363 398.535 132.398C399.035 133.434 399.293 134.569 399.291 135.718C399.291 135.987 399.291 136.244 399.291 136.513C399.071 138.449 398.121 140.229 396.634 141.489C395.148 142.749 393.236 143.395 391.29 143.293C389.343 143.192 387.509 142.352 386.161 140.944C384.813 139.536 384.053 137.667 384.036 135.718C384.036 135.462 384.036 135.205 384.036 134.961C384.237 132.962 385.216 131.122 386.762 129.839V126.417H367.083V146.145H363.746C362.738 144.926 361.377 144.049 359.85 143.636C358.324 143.222 356.707 143.292 355.221 143.835C353.736 144.378 352.455 145.368 351.556 146.669C350.656 147.97 350.182 149.517 350.198 151.099C350.214 152.68 350.719 154.218 351.645 155.5C352.571 156.782 353.872 157.746 355.368 158.259C356.864 158.772 358.482 158.809 360 158.364C361.518 157.92 362.86 157.016 363.843 155.777H367.131V175.749L386.799 175.81V172.425C385.931 171.707 385.233 170.807 384.753 169.789C384.274 168.77 384.025 167.659 384.024 166.533C384.029 165.249 384.362 163.987 384.99 162.866C385.785 161.355 387.065 160.154 388.623 159.455C390.182 158.756 391.929 158.6 393.587 159.011C395.245 159.422 396.717 160.376 397.769 161.722C398.82 163.068 399.391 164.727 399.388 166.435C399.391 167.647 399.102 168.842 398.545 169.919C398 170.912 397.284 171.802 396.43 172.547V175.749H416.281L416.354 155.764H419.654L419.801 155.936C420.168 156.353 420.577 156.73 421.023 157.06C421.084 157.112 421.149 157.157 421.219 157.195L421.622 157.488C423.151 158.458 424.976 158.851 426.769 158.595C428.561 158.34 430.204 157.453 431.401 156.094C430.741 151.67 430.179 147.856 429.788 144.556C428.572 143.764 427.155 143.34 425.705 143.333C424.557 143.319 423.42 143.563 422.379 144.047C421.338 144.532 420.419 145.245 419.691 146.133Z" fill="#09253D"/>
<path d="M465.567 97.3981H468.867C469.583 96.5333 470.481 95.8373 471.498 95.3597C472.514 94.8822 473.623 94.635 474.746 94.6357C476.721 94.7147 478.589 95.5548 479.958 96.98C481.327 98.4051 482.092 100.305 482.092 102.281C482.092 104.258 481.327 106.158 479.958 107.583C478.589 109.008 476.721 109.848 474.746 109.927C473.625 109.927 472.518 109.679 471.504 109.201C470.49 108.724 469.593 108.028 468.879 107.164L468.769 107.042H465.469V125.23L508.592 124.301V109.157C507.588 109.634 506.489 109.88 505.377 109.878C504.23 109.882 503.097 109.628 502.061 109.136C501.025 108.643 500.114 107.923 499.394 107.03C498.673 106.137 498.163 105.094 497.901 103.977C497.638 102.861 497.63 101.699 497.877 100.579C498.124 99.4589 498.62 98.4085 499.327 97.5057C500.035 96.603 500.937 95.8708 501.966 95.3636C502.994 94.8563 504.124 94.5868 505.271 94.575C506.418 94.5633 507.553 94.8096 508.592 95.2958V77.6699H503.947L465.469 79.0878V97.4226L465.567 97.3981Z" fill="#09253D"/>
<path d="M367.085 175.75H347.418V179.136C348.287 179.852 348.987 180.751 349.467 181.77C349.947 182.789 350.194 183.901 350.193 185.027C350.189 185.545 350.136 186.06 350.034 186.568C349.663 188.432 348.611 190.092 347.082 191.222C345.553 192.352 343.658 192.871 341.767 192.679C339.876 192.486 338.124 191.596 336.855 190.181C335.585 188.766 334.889 186.928 334.901 185.027C334.902 184.427 334.972 183.828 335.109 183.243C335.503 181.584 336.447 180.106 337.786 179.05V175.75H334.535C332.298 182.717 329.56 190.308 326.198 198.497C323.68 204.609 320.881 210.941 317.936 217.297V224.814V224.899H337.786V221.599C336.546 220.612 335.644 219.265 335.204 217.743C334.765 216.221 334.809 214.599 335.331 213.104C335.854 211.608 336.828 210.311 338.12 209.394C339.411 208.476 340.956 207.983 342.541 207.983C344.579 207.983 346.534 208.79 347.977 210.229C349.421 211.668 350.235 213.621 350.241 215.659C350.242 216.782 349.995 217.891 349.517 218.907C349.04 219.923 348.344 220.822 347.479 221.538V224.899H367.036V205.342H370.459C371.194 206.216 372.111 206.92 373.145 207.406C374.179 207.891 375.306 208.146 376.448 208.154C377.169 208.147 377.884 208.019 378.563 207.775C381.093 203.105 381.997 202.348 381.997 202.348C381.997 202.348 382.217 203.191 382.645 204.792C382.818 204.564 382.974 204.323 383.11 204.071C384.002 202.388 384.234 200.431 383.758 198.586C383.283 196.741 382.135 195.139 380.54 194.097C378.945 193.054 377.017 192.646 375.137 192.951C373.256 193.256 371.557 194.254 370.373 195.747H367.036V175.787" fill="#3A5164"/>
<path d="M317.92 217.199C316.763 219.701 315.577 222.207 314.363 224.716H317.92V217.199Z" fill="#09253D"/>
<path d="M445.814 223.42V224.813H446.291L445.814 223.42Z" fill="#E0E0E0"/>
<path d="M440.948 207.873H441.021C439.664 202.885 438.491 197.837 437.55 192.765C437.489 192.435 437.318 191.799 437.256 191.469C436.062 190.868 435.068 189.934 434.393 188.78C433.719 187.626 433.393 186.302 433.455 184.966C433.382 183.773 433.605 182.581 434.103 181.495C434.404 180.927 434.774 180.397 435.203 179.918C434.958 178.488 434.714 177.107 434.47 175.75H416.233V195.6H412.908C411.925 194.361 410.582 193.457 409.064 193.013C407.546 192.568 405.928 192.605 404.432 193.118C402.936 193.631 401.636 194.595 400.71 195.877C399.784 197.159 399.278 198.697 399.262 200.278C399.246 201.86 399.72 203.407 400.62 204.708C401.52 206.009 402.8 206.999 404.286 207.542C405.771 208.086 407.388 208.155 408.915 207.741C410.441 207.328 411.802 206.451 412.81 205.232H416.306V224.789H436.132V221.391C435.265 220.703 434.565 219.828 434.085 218.831C433.604 217.834 433.355 216.741 433.357 215.634C433.339 215.358 433.339 215.08 433.357 214.803C433.536 212.912 434.413 211.155 435.816 209.874C437.219 208.593 439.048 207.879 440.948 207.873Z" fill="#E0E0E0"/>
<path d="M399.194 234.909C399.194 234.689 399.194 234.469 399.194 234.237C399.195 233.102 398.944 231.981 398.457 230.956C397.971 229.93 397.263 229.026 396.383 228.309V225.009V224.85H416.221V205.293H412.835C412.121 206.157 411.224 206.853 410.211 207.333C409.197 207.812 408.09 208.063 406.968 208.067C404.939 208.067 402.993 207.261 401.558 205.826C400.123 204.391 399.317 202.445 399.317 200.416C399.317 198.386 400.123 196.44 401.558 195.005C402.993 193.57 404.939 192.764 406.968 192.764C408.116 192.764 409.248 193.024 410.281 193.523C411.314 194.023 412.22 194.749 412.933 195.649H416.221V175.749H396.383V172.449L396.456 172.388C397.348 171.695 398.082 170.82 398.608 169.821C399.168 168.797 399.466 167.651 399.475 166.484C399.468 164.754 398.889 163.075 397.827 161.709C396.765 160.343 395.281 159.366 393.606 158.932C391.931 158.498 390.16 158.631 388.568 159.309C386.977 159.988 385.654 161.174 384.808 162.683C384.214 163.855 383.924 165.158 383.964 166.472C383.965 167.597 384.214 168.709 384.693 169.727C385.173 170.746 385.871 171.646 386.739 172.363V175.749H367.084V195.71H370.421C371.604 194.216 373.303 193.219 375.184 192.914C377.065 192.608 378.993 193.017 380.588 194.059C382.183 195.102 383.331 196.703 383.806 198.548C384.282 200.394 384.05 202.35 383.157 204.034C383.023 204.29 382.864 204.547 382.705 204.791C384.172 210.133 388.132 223.86 394.513 241.278C395.8 240.744 396.916 239.868 397.741 238.746C398.566 237.624 399.069 236.297 399.194 234.909Z" fill="#00A5A5"/>
<path d="M367.021 224.8H370.346C374.196 216.317 376.837 211.012 378.621 207.687C377.882 207.924 377.111 208.043 376.336 208.042C375.211 208.043 374.1 207.795 373.081 207.318C372.063 206.841 371.163 206.144 370.444 205.279H367.021V224.8Z" fill="#00A5A5"/>
<path d="M465.492 274.01V268.424C463.524 264.671 461.483 260.625 459.441 256.36C458.449 256.817 457.369 257.055 456.276 257.056C454.514 257.065 452.802 256.466 451.431 255.36C450.06 254.253 449.113 252.707 448.749 250.983C448.386 249.259 448.628 247.462 449.436 245.896C450.244 244.331 451.567 243.091 453.183 242.388C450.738 236.741 448.465 230.85 446.338 224.775H445.751V223.064C444.04 218.089 442.463 213.004 441.07 207.846H440.997C439.091 207.847 437.254 208.559 435.845 209.843C434.437 211.127 433.558 212.891 433.382 214.788C433.369 215.025 433.369 215.261 433.382 215.497C433.379 216.621 433.626 217.73 434.103 218.747C434.581 219.764 435.278 220.662 436.144 221.377V224.775H416.232V244.552H419.692C420.407 243.686 421.305 242.989 422.321 242.511C423.338 242.034 424.448 241.787 425.571 241.79C427.115 241.865 428.601 242.402 429.837 243.33C430.862 243.978 431.7 244.883 432.268 245.955C432.836 247.027 433.115 248.229 433.076 249.441C433.097 250.425 432.921 251.403 432.556 252.317C432.192 253.231 431.647 254.062 430.955 254.761C430.263 255.46 429.437 256.013 428.527 256.386C427.616 256.759 426.64 256.946 425.656 256.934C424.21 257.006 422.774 256.654 421.525 255.92C421.382 255.833 421.243 255.739 421.109 255.638L420.914 255.504C420.433 255.08 419.988 254.618 419.582 254.123H416.232L416.33 274.022H436.058V277.273C435.136 278.056 434.393 279.027 433.878 280.121C433.363 281.216 433.09 282.408 433.076 283.617C433.084 284.109 433.129 284.599 433.21 285.084C433.648 286.79 434.649 288.297 436.052 289.362C437.454 290.427 439.175 290.987 440.935 290.951C442.059 290.953 443.17 290.707 444.187 290.229C445.205 289.752 446.104 289.056 446.822 288.19C447.539 287.325 448.056 286.312 448.336 285.223C448.615 284.135 448.651 282.998 448.441 281.894C448.054 280.196 447.158 278.657 445.874 277.481L445.69 277.322V274.022L465.492 274.01Z" fill="#3A5164"/>
<path d="M367.084 224.802H347.404V221.416C348.368 220.62 349.121 219.599 349.598 218.444C350.075 217.289 350.261 216.034 350.141 214.79C350.02 213.546 349.596 212.351 348.906 211.309C348.216 210.267 347.28 209.41 346.182 208.814C345.017 208.181 343.708 207.861 342.383 207.886C341.058 207.911 339.762 208.28 338.622 208.956C337.482 209.633 336.537 210.594 335.881 211.745C335.224 212.897 334.878 214.199 334.875 215.525C334.873 216.674 335.131 217.809 335.631 218.844C336.131 219.88 336.859 220.788 337.76 221.502V224.802H317.922V244.445H321.308C322.31 243.23 323.664 242.355 325.184 241.939C326.703 241.523 328.314 241.588 329.795 242.123C331.277 242.658 332.557 243.638 333.46 244.929C334.362 246.22 334.844 247.759 334.839 249.334V249.419C334.837 251.004 334.342 252.55 333.424 253.842C332.506 255.134 331.209 256.109 329.713 256.632C328.217 257.155 326.596 257.201 325.072 256.763C323.549 256.325 322.199 255.425 321.21 254.187H317.922V273.939V274.037H317.983V273.951H337.833V277.203L337.772 277.264C337.323 277.6 336.913 277.985 336.55 278.413C335.361 279.916 334.781 281.81 334.923 283.721C335.066 285.632 335.921 287.42 337.32 288.729C343.688 278.767 350.24 267.73 355.826 256.741C354.737 256.457 353.725 255.937 352.86 255.217C351.995 254.498 351.299 253.597 350.822 252.578C350.344 251.559 350.097 250.448 350.097 249.323C350.098 248.198 350.346 247.087 350.824 246.068C351.302 245.05 351.998 244.149 352.864 243.43C353.729 242.711 354.742 242.192 355.831 241.909C356.92 241.625 358.058 241.585 359.164 241.791C360.27 241.997 361.317 242.444 362.231 243.1C363.979 239.018 365.568 235.351 367.035 232.099L367.084 224.802Z" fill="#FAFAFA"/>
<path d="M367.145 224.801H367.084V232.135C368.306 229.47 369.333 227.05 370.348 224.801H367.145Z" fill="#09253D"/>
<path d="M420.915 255.469L421.11 255.603C421.244 255.704 421.383 255.798 421.526 255.884C422.73 256.671 424.134 257.095 425.572 257.107C426.861 257.109 428.131 256.786 429.262 256.167C430.393 255.548 431.35 254.653 432.042 253.565C432.735 252.478 433.142 251.233 433.224 249.946C433.307 248.659 433.063 247.372 432.515 246.204C431.968 245.037 431.134 244.027 430.091 243.268C429.048 242.509 427.831 242.026 426.551 241.864C425.272 241.702 423.972 241.865 422.773 242.34C421.574 242.814 420.514 243.584 419.692 244.578H416.307V224.801H396.395V228.138C397.295 228.852 398.022 229.761 398.522 230.796C399.021 231.831 399.28 232.966 399.28 234.115C399.28 234.384 399.28 234.653 399.28 234.909C399.134 236.298 398.61 237.62 397.765 238.732C396.921 239.844 395.787 240.704 394.488 241.217C398.155 251.227 402.617 262.46 407.86 274.024H416.307V254.173H419.607L419.754 254.332C420.104 254.747 420.493 255.128 420.915 255.469Z" fill="#09253D"/>
<path d="M355.877 256.802C358.15 252.328 360.277 247.855 362.147 243.467L362.257 243.21C360.964 242.271 359.406 241.766 357.808 241.768C355.948 241.764 354.151 242.439 352.753 243.667C351.355 244.894 350.454 246.589 350.217 248.434C349.98 250.279 350.424 252.146 351.466 253.687C352.508 255.228 354.076 256.335 355.877 256.802Z" fill="#09253D"/>
<path d="M298.256 270.65V273.925H317.923V254.075H321.211C322.194 255.316 323.538 256.221 325.058 256.666C326.578 257.11 328.198 257.071 329.694 256.554C331.191 256.037 332.49 255.068 333.412 253.781C334.333 252.494 334.833 250.952 334.84 249.369C334.846 247.794 334.364 246.255 333.461 244.964C332.558 243.674 331.278 242.693 329.797 242.158C328.315 241.623 326.705 241.559 325.185 241.974C323.666 242.39 322.312 243.265 321.309 244.48H317.923V224.715H314.366C308.805 236.266 302.889 247.719 297.254 258.133C298.234 258.723 299.069 259.525 299.699 260.48C300.556 261.742 301.012 263.233 301.006 264.758C301.009 265.882 300.764 266.992 300.288 268.01C299.813 269.029 299.119 269.93 298.256 270.65Z" fill="#00A5A5"/>
<path d="M465.553 274.012H468.487C467.517 272.227 466.519 270.365 465.492 268.426V274.012H465.553Z" fill="#00A5A5"/>
<path d="M448.576 249.405C448.576 251.435 449.382 253.381 450.817 254.816C452.252 256.251 454.199 257.057 456.228 257.057C457.326 257.057 458.412 256.815 459.406 256.348C457.291 251.935 455.177 247.278 453.111 242.426C451.762 243.027 450.616 244.007 449.812 245.245C449.007 246.483 448.578 247.928 448.576 249.405Z" fill="#00A5A5"/>
<path d="M317.935 273.928V293.717H314.501C313.826 292.899 312.988 292.23 312.04 291.754C311.092 291.277 310.055 291.004 308.996 290.951C307.936 290.898 306.878 291.067 305.887 291.446C304.896 291.826 303.996 292.408 303.243 293.155C301.834 294.52 301.003 296.374 300.924 298.335C300.845 300.295 301.523 302.211 302.818 303.685C304.113 305.159 305.925 306.078 307.879 306.252C309.834 306.426 311.78 305.842 313.315 304.62H313.376L313.608 304.425C313.969 304.113 314.3 303.769 314.598 303.398H317.935V317.234C322.971 310.316 330.012 300.281 337.321 288.84C336.52 288.099 335.889 287.194 335.469 286.186C335.05 285.179 334.853 284.093 334.891 283.003C334.929 281.912 335.202 280.843 335.691 279.867C336.18 278.892 336.874 278.033 337.725 277.35L337.786 277.289V273.989L317.935 273.928Z" fill="#3A5164"/>
<path d="M317.984 303.346H314.647C314.349 303.718 314.017 304.062 313.657 304.373L313.424 304.569H313.363C312.175 305.491 310.741 306.042 309.241 306.154C307.741 306.265 306.241 305.932 304.929 305.196C303.617 304.46 302.551 303.353 301.865 302.015C301.178 300.676 300.902 299.165 301.069 297.67C301.237 296.176 301.841 294.763 302.807 293.61C303.773 292.457 305.057 291.614 306.5 291.186C307.942 290.759 309.478 290.766 310.916 291.207C312.354 291.648 313.631 292.503 314.586 293.666H318.02V273.876L298.207 273.974L298.341 273.876V270.6C299.206 269.882 299.902 268.981 300.38 267.963C300.857 266.945 301.104 265.834 301.103 264.709C301.109 263.184 300.653 261.692 299.796 260.431C299.159 259.495 298.325 258.71 297.351 258.133C294.332 263.755 291.41 269.073 288.697 273.937C285.03 280.587 281.656 286.381 279.004 290.952C280.869 291.164 282.59 292.055 283.84 293.455C285.09 294.855 285.78 296.666 285.78 298.543C285.78 300.419 285.09 302.23 283.84 303.63C282.59 305.03 280.869 305.921 279.004 306.133L304.453 322.904H313.767C314.928 321.351 316.382 319.395 318.057 317.085V303.346H317.984Z" fill="#09253D"/>
<path d="M482.045 296.649C481.568 295.927 480.676 294.558 479.453 292.627C478.673 291.997 477.775 291.529 476.812 291.25C475.849 290.97 474.84 290.884 473.844 290.998C472.847 291.112 471.884 291.423 471.008 291.912C470.133 292.402 469.364 293.06 468.746 293.85H465.617V293.727L465.494 274.036H445.717V277.422C446.58 278.142 447.274 279.043 447.751 280.061C448.229 281.079 448.477 282.189 448.48 283.313C448.481 285.234 447.758 287.084 446.456 288.496C445.154 289.908 443.368 290.778 441.453 290.932C439.539 291.086 437.637 290.513 436.125 289.328C434.614 288.143 433.605 286.432 433.298 284.535C433.231 284.111 433.195 283.682 433.188 283.252C433.186 282.101 433.444 280.964 433.944 279.927C434.444 278.889 435.171 277.979 436.073 277.263V273.975H416.223V291.332C421.777 302.182 428.032 312.659 434.949 322.696H435.951V319.2C435.194 318.658 434.56 317.961 434.09 317.157C433.62 316.352 433.326 315.457 433.225 314.531C433.172 314.163 433.143 313.791 433.14 313.419C433.169 311.464 433.946 309.594 435.311 308.194C436.676 306.794 438.525 305.969 440.478 305.889C442.432 305.81 444.342 306.481 445.816 307.765C447.291 309.049 448.217 310.849 448.406 312.795C448.423 313.151 448.402 313.507 448.345 313.859C448.264 316.092 447.323 318.208 445.717 319.763V321.89L465.604 308.444V303.701H468.868C468.868 303.701 468.795 303.763 468.868 303.811C469.341 304.456 469.91 305.025 470.555 305.498L482.252 297.358C482.195 297.118 482.126 296.881 482.045 296.649Z" fill="#E0E0E0"/>
<path d="M416.307 291.539V274.035H407.836C410.464 279.829 413.287 285.757 416.307 291.539Z" fill="#00A5A5"/>
<path d="M445.766 319.763C446.644 318.962 447.339 317.98 447.801 316.885C448.263 315.789 448.482 314.607 448.443 313.419C448.443 313.211 448.443 313.003 448.443 312.795C448.254 310.849 447.327 309.049 445.853 307.765C444.378 306.481 442.468 305.809 440.514 305.889C438.561 305.969 436.712 306.794 435.347 308.194C433.982 309.594 433.205 311.464 433.176 313.419C433.177 313.792 433.21 314.164 433.274 314.531C433.537 316.396 434.488 318.096 435.938 319.298V322.696H434.936C435.877 324.041 437.222 325.569 438.187 326.889L445.766 321.596V319.763Z" fill="#3A5164"/>
<path d="M310.588 327.097C310.588 327.097 311.737 325.618 313.693 323.002H304.379L310.588 327.097Z" fill="#00A5A5"/>
<path d="M465.555 303.736V308.882L470.762 305.448C470.082 305.012 469.472 304.476 468.953 303.859C468.923 303.815 468.89 303.775 468.855 303.736H465.555Z" fill="#09253D"/>
<path d="M482.618 297.626C482.618 297.626 482.472 297.43 482.215 297.039C482.287 297.283 482.34 297.532 482.374 297.785L482.618 297.626Z" fill="#09253D"/>
<path d="M468.487 274.01H465.492L465.553 294.092H468.939C469.658 293.227 470.558 292.531 471.577 292.054C472.595 291.576 473.706 291.329 474.831 291.33C476.584 291.343 478.278 291.965 479.622 293.09C477.104 289.02 472.985 282.224 468.487 274.01Z" fill="#09253D"/>
<path d="M508.677 124.167L428.09 126.05L428.237 125.903C428.334 131.428 429.031 137.222 429.752 143.272C430.473 149.323 431.451 155.617 432.49 162.157C433.529 168.696 434.715 175.505 435.962 182.545C436.609 186.053 437.245 189.635 437.954 193.265C438.345 195.074 438.736 196.932 439.176 198.729C439.616 200.525 439.922 202.396 440.46 204.266C444.6 219.967 450.105 235.276 456.912 250.017C464.398 266.42 473.092 282.244 482.923 297.358L483.058 297.565L482.85 297.7L438.235 327.182L438.027 327.317L437.881 327.121C425.171 309.108 414.392 289.807 405.721 269.538C396.121 247.717 388.13 225.224 381.813 202.237L382.277 202.396C381.426 203.486 380.67 204.648 380.016 205.867C379.319 207.089 378.647 208.312 377.987 209.62C376.679 212.162 375.42 214.741 374.186 217.345C371.741 222.539 369.296 227.844 366.974 233.235C364.652 238.625 362.341 244.04 359.848 249.443C358.626 252.156 357.22 254.796 355.912 257.498C354.604 260.199 353.101 262.79 351.695 265.455C345.877 276.016 339.472 286.406 332.627 296.698C325.782 306.989 318.521 317.147 310.906 327.158L310.723 327.39L310.478 327.219L272.354 302.088L272.098 301.929L272.257 301.66C283.881 282.213 295.603 261.177 306.677 239.505C311.42 230.216 315.954 220.865 320.184 211.392C324.413 201.919 328.398 192.507 331.747 182.875C335.136 173.34 337.96 163.614 340.205 153.747C342.332 143.969 344.056 134.019 344.141 124.143L344.459 124.448L264.348 126.526H264.153L264.067 126.367C262.548 123.294 261.548 119.989 261.109 116.589C260.578 113.242 260.251 109.867 260.131 106.48C259.869 99.8045 260 93.1191 260.522 86.4587V86.1897H260.791L362.464 82.5228L362.317 83.0362C352.985 77.1635 346.137 68.0655 343.077 57.4728C340.016 46.8801 340.956 35.532 345.718 25.5872C347.964 20.8952 350.994 16.6209 354.677 12.9484C358.304 9.37306 362.517 6.44599 367.133 4.29439C371.632 2.16895 376.452 0.801892 381.397 0.248506C386.238 -0.243256 391.125 -0.00426615 395.894 0.957454C400.522 1.98109 404.96 3.72586 409.046 6.12787C410.036 6.76347 411.075 7.28907 412.004 7.99801L414.779 10.076C416.517 11.55 418.151 13.1429 419.668 14.843C425.642 21.4623 429.503 29.7154 430.755 38.5438C431.971 46.8419 430.823 55.3148 427.442 62.9901C424.249 70.1683 419.255 76.3997 412.945 81.0805L412.823 80.7382L508.629 77.2913H508.739V77.4013C508.665 108.387 508.641 123.422 508.629 124.204C508.629 123.422 508.629 108.387 508.519 77.4013L508.641 77.5235L412.835 81.1171H412.224L412.713 80.7504C418.96 76.1002 423.906 69.9209 427.075 62.8068C430.414 55.1886 431.541 46.7845 430.327 38.556C429.082 29.815 425.25 21.6462 419.326 15.0997C417.809 13.418 416.175 11.8455 414.437 10.3938L411.735 8.29137C410.819 7.59464 409.792 7.06905 408.814 6.44566C404.771 4.06961 400.378 2.34925 395.796 1.3486C391.085 0.385294 386.257 0.129869 381.471 0.590754C376.597 1.16384 371.85 2.5262 367.414 4.62441C362.852 6.75149 358.689 9.64555 355.105 13.1806C347.683 20.5679 343.077 30.3186 342.088 40.7439C341.326 48.9253 342.849 57.1577 346.487 64.525C350.125 71.8924 355.736 78.1058 362.696 82.4739L363.454 82.9628H362.549L260.889 86.7154L261.072 86.5198C260.55 93.1557 260.419 99.8167 260.681 106.468C260.813 109.829 261.139 113.18 261.659 116.503C262.083 119.852 263.062 123.108 264.556 126.135L264.275 125.976L344.398 123.874H344.728V124.179C344.432 134.209 343.113 144.181 340.792 153.943C338.534 163.845 335.702 173.608 332.309 183.181C328.96 192.825 324.975 202.322 320.734 211.734C316.492 221.146 311.957 230.521 307.203 239.847C296.128 261.556 284.394 282.629 272.758 302.051L272.66 301.623L310.796 326.767L310.368 326.828C318.02 316.854 325.207 306.659 332.028 296.392C338.848 286.124 345.278 275.747 351.084 265.198C352.49 262.546 353.932 259.906 355.301 257.253C356.67 254.601 357.99 251.924 359.224 249.223C361.669 243.844 363.979 238.381 366.351 233.027C368.722 227.673 371.093 222.356 373.575 217.137C374.797 214.521 376.019 211.942 377.388 209.399C378.048 208.177 378.72 206.869 379.429 205.623C380.12 204.322 380.939 203.093 381.874 201.956L382.204 201.589L382.351 202.114C388.653 225.074 396.624 247.543 406.198 269.342C414.845 289.561 425.591 308.816 438.26 326.791L437.905 326.73L482.544 297.284L482.483 297.626C472.645 282.481 463.947 266.624 456.46 250.188C449.657 235.418 444.16 220.08 440.032 204.351C439.494 202.518 439.164 200.684 438.749 198.802C438.333 196.92 437.966 195.135 437.526 193.326C436.817 189.659 436.194 186.114 435.546 182.594C434.324 175.553 433.101 168.757 432.099 162.206C431.097 155.654 430.143 149.347 429.386 143.296C428.595 137.523 428.097 131.714 427.894 125.891V125.744H428.041L508.677 124.167Z" fill="#09253D"/>
<g opacity="0.3">
<path d="M386.323 0.103516C376.62 0.114133 367.183 3.27718 359.434 9.11626C351.685 14.9553 346.043 23.1542 343.358 32.478C340.673 41.8018 341.091 51.7456 344.547 60.8117C348.004 69.8778 354.313 77.5752 362.524 82.7445L260.827 86.5215C260.827 86.5215 258.273 115.478 264.335 126.308L344.458 124.218C344.458 124.218 345.326 151.952 326.258 198.315C307.19 244.677 272.476 301.882 272.476 301.882L310.612 327.013C310.612 327.013 345.705 281.946 362.17 243.382C378.634 204.817 382.081 202.165 382.081 202.165C382.081 202.165 401.247 276.726 438.076 326.964L482.678 297.494C482.678 297.494 447.585 245.936 437.623 192.631C437.623 192.631 446.106 254.566 477.96 296.161L437.342 319.593C437.342 319.593 388.682 228.103 384.526 187.888C384.526 187.888 323.899 318.676 308.889 319.593L278.881 299.523C278.881 299.523 322.102 249.713 340.107 186.092C358.112 122.47 354.322 114.635 354.322 114.635L266.841 118.84C266.841 118.84 264.922 98.5369 264.396 92.4253L371.435 85.8247C371.435 85.8247 344.837 68.3945 346.023 43.8136C347.209 19.2328 386.323 0.103516 386.323 0.103516Z" fill="#09253D"/>
</g>
<path d="M197.296 462.001C306.26 462.001 394.593 411.003 394.593 348.094C394.593 285.185 306.26 234.188 197.296 234.188C88.3326 234.188 0 285.185 0 348.094C0 411.003 88.3326 462.001 197.296 462.001Z" fill="#F5F5F5"/>
<path d="M231.475 393.35L248.341 383.613C247.02 383.367 245.748 382.907 244.576 382.251C243.331 381.592 242.287 380.609 241.554 379.406C240.82 378.204 240.425 376.826 240.408 375.417C240.408 371.849 242.87 368.379 247.16 365.901C250.752 363.864 254.803 362.774 258.932 362.735C261.416 362.653 263.878 363.218 266.077 364.375C267.281 365.015 268.297 365.956 269.027 367.107C269.758 368.257 270.177 369.577 270.245 370.938L290.065 359.453L345.661 386.623C347.99 387.764 348.064 389.733 345.816 391.037L320.508 405.648C318.878 406.562 317.037 407.031 315.168 407.009C313.359 407.025 311.574 406.6 309.967 405.771C310.024 405.926 310.065 406.082 310.106 406.238C310.869 409.085 309.532 411.981 306.693 413.621L286.718 425.23C285.456 425.867 284.062 426.199 282.649 426.199C281.235 426.199 279.841 425.867 278.58 425.23L231.508 398.051C229.227 396.755 229.227 394.647 231.475 393.35Z" fill="#E0E0E0"/>
<path d="M283.706 354.974C320.781 354.974 350.836 337.624 350.836 316.221C350.836 294.817 320.781 277.467 283.706 277.467C246.631 277.467 216.576 294.817 216.576 316.221C216.576 337.624 246.631 354.974 283.706 354.974Z" fill="#E0E0E0"/>
<path d="M58.1206 339.399L48.2271 345.142C47.661 316.117 28.8256 294.854 19.7442 283.615C10.507 272.13 23.28 265.313 34.0349 270.333C44.7898 275.354 53.5266 288.242 57.1362 304.977C60.2125 319.251 58.6539 335.109 58.1206 339.399Z" fill="#00A5A5"/>
<path opacity="0.3" d="M58.1206 339.399L48.2271 345.142C47.661 316.117 28.8256 294.854 19.7442 283.615C10.507 272.13 23.28 265.313 34.0349 270.333C44.7898 275.354 53.5266 288.242 57.1362 304.977C60.2125 319.251 58.6539 335.109 58.1206 339.399Z" fill="white"/>
<path d="M53.9195 338.512H54.0508C54.2191 338.506 54.378 338.433 54.4932 338.311C54.6084 338.188 54.6705 338.024 54.6661 337.856C53.657 301.317 41.4829 283.015 27.4219 273.712C27.3532 273.66 27.2744 273.622 27.1905 273.601C27.1065 273.58 27.0191 273.576 26.9338 273.591C26.8485 273.605 26.767 273.637 26.6943 273.684C26.6217 273.731 26.5596 273.792 26.5117 273.864C26.4638 273.936 26.4313 274.017 26.4161 274.103C26.4009 274.188 26.4033 274.275 26.4233 274.359C26.4433 274.444 26.4803 274.523 26.5321 274.592C26.584 274.661 26.6495 274.719 26.7246 274.762C40.5969 283.942 52.4101 301.834 53.4027 337.93C53.41 338.071 53.4651 338.206 53.559 338.312C53.6529 338.418 53.7801 338.488 53.9195 338.512Z" fill="white"/>
<path d="M4.97795 306.297C5.19124 308.315 6.81555 309.866 8.37423 311.17C9.93292 312.474 11.6557 313.885 12.0576 315.871C12.878 319.882 8.16094 323.582 9.18639 327.553C9.46299 328.371 9.90305 329.125 10.4798 329.768C11.0566 330.411 11.7581 330.93 12.5417 331.293C13.7968 331.974 15.1586 332.417 16.4712 332.975C17.1206 333.171 17.7807 333.33 18.4482 333.451C20.4007 333.787 22.4434 334.353 23.8462 335.863C26.0366 338.242 25.7576 341.901 26.537 345.034C27.4722 348.8 29.7036 351.007 34.8226 352.795L52.3537 342.861C56.7262 338.406 58.2603 330.793 54.2405 325.633C51.8287 322.524 47.3003 322.13 45.0279 319.029C42.977 316.24 44.2075 312.212 42.9032 308.996C41.5988 305.78 38.3174 304.665 35.1754 304.074C32.0334 303.483 28.6863 304.829 25.6182 303.705C22.55 302.581 19.6952 300.776 16.5122 299.98C13.3292 299.185 9.94932 299.48 7.33238 301.514C6.57627 302.056 5.96569 302.776 5.55493 303.61C5.14418 304.445 4.94597 305.368 4.97795 306.297Z" fill="#00A5A5"/>
<path opacity="0.6" d="M4.97795 306.297C5.19124 308.315 6.81555 309.866 8.37423 311.17C9.93292 312.474 11.6557 313.885 12.0576 315.871C12.878 319.882 8.16094 323.582 9.18639 327.553C9.46299 328.371 9.90305 329.125 10.4798 329.768C11.0566 330.411 11.7581 330.93 12.5417 331.293C13.7968 331.974 15.1586 332.417 16.4712 332.975C17.1206 333.171 17.7807 333.33 18.4482 333.451C20.4007 333.787 22.4434 334.353 23.8462 335.863C26.0366 338.242 25.7576 341.901 26.537 345.034C27.4722 348.8 29.7036 351.007 34.8226 352.795L52.3537 342.861C56.7262 338.406 58.2603 330.793 54.2405 325.633C51.8287 322.524 47.3003 322.13 45.0279 319.029C42.977 316.24 44.2075 312.212 42.9032 308.996C41.5988 305.78 38.3174 304.665 35.1754 304.074C32.0334 303.483 28.6863 304.829 25.6182 303.705C22.55 302.581 19.6952 300.776 16.5122 299.98C13.3292 299.185 9.94932 299.48 7.33238 301.514C6.57627 302.056 5.96569 302.776 5.55493 303.61C5.14418 304.445 4.94597 305.368 4.97795 306.297Z" fill="white"/>
<path d="M37.6628 322.112C37.6287 322.041 37.5814 321.977 37.5234 321.924C29.3198 310.25 16.3663 304.696 12.002 303.728C11.9438 303.715 11.8835 303.713 11.8247 303.723C11.7659 303.734 11.7097 303.755 11.6593 303.787C11.609 303.819 11.5655 303.861 11.5313 303.91C11.4972 303.959 11.4731 304.014 11.4605 304.073C11.4473 304.131 11.4456 304.191 11.4558 304.25C11.466 304.309 11.4877 304.365 11.5198 304.415C11.5518 304.466 11.5935 304.509 11.6425 304.543C11.6915 304.577 11.7467 304.601 11.8051 304.614C15.9069 305.541 27.9334 310.668 36.0057 321.382C32.7159 320.273 29.2324 319.856 25.7737 320.156C22.315 320.457 18.9558 321.469 15.9069 323.13C15.8556 323.161 15.8112 323.203 15.7763 323.252C15.7414 323.301 15.7168 323.357 15.7038 323.416C15.6908 323.475 15.6897 323.536 15.7006 323.595C15.7116 323.654 15.7343 323.711 15.7674 323.761C15.8065 323.824 15.8608 323.876 15.9254 323.912C15.99 323.948 16.0627 323.966 16.1366 323.966C16.2301 323.974 16.3232 323.948 16.3991 323.893C19.5212 322.205 22.9746 321.22 26.5174 321.007C30.0602 320.795 33.6066 321.359 36.9081 322.662C41.7189 329.55 44.1289 337.829 43.7663 346.223C43.7615 346.337 43.8003 346.449 43.8749 346.536C43.9496 346.623 44.0544 346.678 44.1683 346.69H44.2093C44.3297 346.693 44.4463 346.647 44.5337 346.565C44.6212 346.482 44.6726 346.368 44.6769 346.247C45.0533 337.65 42.5883 329.169 37.6628 322.112Z" fill="white"/>
<path d="M367.004 336.839C363.903 340.161 359.375 344.673 354.937 349.669C348.3 357.134 341.877 365.674 340.843 372.861L340.638 373.566L337.537 384.231L336.971 387.406L328.365 382.418C328.981 371.958 329.924 357.454 336.216 342.77C342.024 329.226 357.078 316.428 365.618 317.56C373.575 318.627 374.732 328.553 367.004 336.839Z" fill="#00A5A5"/>
<path opacity="0.3" d="M367.004 336.839C363.903 340.161 359.375 344.673 354.937 349.669C348.3 357.134 341.877 365.674 340.843 372.861L340.638 373.566L337.537 384.231L336.971 387.406L328.365 382.418C328.981 371.958 329.924 357.454 336.216 342.77C342.024 329.226 357.078 316.428 365.618 317.56C373.575 318.627 374.732 328.553 367.004 336.839Z" fill="white"/>
<path d="M333.058 378.923C333.167 378.901 333.267 378.847 333.343 378.766C333.42 378.685 333.469 378.582 333.484 378.472C336.413 351.531 352.894 329.956 365.913 323.819C365.974 323.791 366.028 323.75 366.074 323.701C366.119 323.651 366.154 323.593 366.177 323.53C366.2 323.467 366.21 323.399 366.207 323.332C366.204 323.265 366.188 323.199 366.159 323.138C366.13 323.077 366.09 323.023 366.041 322.978C365.991 322.932 365.933 322.897 365.87 322.874C365.806 322.851 365.739 322.841 365.672 322.844C365.605 322.847 365.539 322.864 365.478 322.892C352.246 329.127 335.428 351.055 332.459 378.357C332.451 378.424 332.456 378.491 332.474 378.556C332.493 378.621 332.524 378.681 332.566 378.734C332.608 378.787 332.66 378.83 332.719 378.863C332.778 378.895 332.843 378.916 332.91 378.923H333.058Z" fill="white"/>
<path d="M376.275 360.531C373.666 365.125 362.681 367.668 353.928 373.476C346.028 378.726 341.081 385.158 339.884 389.063L337.127 387.48L334.748 386.101C339.883 367.684 351.098 357.479 359.359 352.524C361.797 351.142 364.513 350.324 367.308 350.129C376.234 349.841 379.417 355.042 376.275 360.531Z" fill="#00A5A5"/>
<path opacity="0.6" d="M376.275 360.529C373.666 365.123 362.682 367.666 353.928 373.474C346.028 378.724 341.09 385.156 339.884 389.061L337.119 387.469L334.74 386.091C339.876 367.674 351.09 357.469 359.351 352.514C361.789 351.132 364.505 350.314 367.3 350.118C376.234 349.839 379.417 355.04 376.275 360.529Z" fill="white"/>
<path d="M338.234 384.914C338.333 384.911 338.429 384.878 338.509 384.819C338.589 384.761 338.651 384.68 338.685 384.586C346.421 364.151 362.237 357.211 369.53 356.399C369.665 356.382 369.787 356.314 369.871 356.208C369.956 356.102 369.995 355.967 369.981 355.833C369.975 355.765 369.956 355.7 369.924 355.64C369.892 355.581 369.848 355.528 369.795 355.486C369.742 355.444 369.681 355.413 369.616 355.395C369.551 355.377 369.482 355.372 369.415 355.382C361.359 356.276 345.625 363.364 337.725 384.217C337.677 384.345 337.681 384.486 337.736 384.61C337.791 384.735 337.893 384.832 338.02 384.882C338.088 384.908 338.161 384.919 338.234 384.914Z" fill="white"/>
<path d="M164.255 252.415C144.87 292.367 90.0368 371.761 40.4543 416.487C46.0901 398.054 50.9056 370.482 50.9056 370.482L13.7188 365.469C49.4208 337.831 97.6907 284.976 122.252 236.935C155.313 172.258 146.248 124.595 135.706 125.366C138.545 109.64 171.884 102.396 179.522 111.256C198.611 131.166 190.982 197.296 164.255 252.415Z" fill="#00A5A5"/>
<path opacity="0.15" d="M164.255 252.415C144.87 292.367 90.0368 371.761 40.4543 416.487C46.0901 398.054 50.9056 370.482 50.9056 370.482L13.7188 365.469C49.4208 337.831 97.6907 284.976 122.252 236.935C155.313 172.258 146.248 124.595 135.706 125.366C138.545 109.64 171.884 102.396 179.522 111.256C198.611 131.166 190.982 197.296 164.255 252.415Z" fill="black"/>
<path opacity="0.25" d="M148.135 271.035C143.139 270.272 131.547 258.065 119.57 242.068C110.825 258.221 99.5695 274.784 87.1738 290.642C96.5341 307.049 106.953 315.655 113.425 321.43C118.208 325.704 112.605 334.055 112.236 334.63C127.002 314.621 140.185 294.801 150.35 277.762L161.203 258.385C160.957 258.845 152.999 271.79 148.135 271.035Z" fill="black"/>
<path opacity="0.25" d="M135.707 125.439C139.374 125.16 142.861 130.755 144.46 140.895C173.083 123.019 189.982 133.462 190.121 150.78C190.162 133.052 186.766 118.852 179.522 111.321C171.868 102.51 138.545 109.754 135.707 125.439Z" fill="black"/>
<path d="M80.16 299.406C58.3959 325.92 34.023 349.801 13.7109 365.519L50.8978 370.531L22.1853 364.272C37.0584 353.722 57.7642 330.432 80.16 299.406Z" fill="#00A5A5"/>
<path d="M114.614 95.8899C84.6139 113.216 70.1428 134.8 64.9745 173.053C59.8063 211.306 65.4011 239.658 80.2496 268.526C89.3604 286.208 101.273 302.298 115.525 316.173V298.191C105.336 286.591 95.5903 272.718 90.742 261.225C73.1945 219.608 97.6166 165.973 113.368 146.596C129.118 127.219 163.532 102.084 179.546 111.321C172.442 104.241 144.607 78.5803 114.614 95.8899Z" fill="#00A5A5"/>
<path opacity="0.1" d="M90.5299 192.206L64.4671 177.16C60.2423 213.346 65.9438 240.697 80.2508 268.524C89.3617 286.205 101.274 302.295 115.526 316.17V298.188C105.337 286.588 95.5915 272.716 90.7432 261.222C81.4732 239.294 83.8768 214.035 90.5299 192.206Z" fill="black"/>
<path opacity="0.15" d="M152.779 114.675L114.894 95.7246L114.616 95.8723C104.131 101.943 95.575 108.522 88.5938 116.143L123.147 136.094C131.835 127.801 142.557 119.761 152.779 114.675Z" fill="white"/>
<path opacity="0.15" d="M83.648 122.102C81.347 125.161 79.2688 128.383 77.4297 131.741L110.244 150.691C111.302 149.198 112.336 147.828 113.337 146.589C114.633 144.949 116.069 143.357 117.594 141.667L83.648 122.102Z" fill="white"/>
<path d="M123.466 253.925C103.465 227.772 95.5736 189.937 98.773 170.848C87.0173 195.959 78.264 231.628 90.7499 261.227C95.5982 272.712 105.344 286.592 115.533 298.192L149.225 278.75C139.488 271.758 130.812 263.397 123.466 253.925Z" fill="#00A5A5"/>
<path opacity="0.25" d="M99.1109 193.933C97.8311 184.982 97.7162 176.951 98.7499 170.848C88.6267 192.464 80.7512 221.907 86.7152 248.569C85.2796 234.836 89.6357 214.105 99.1109 193.933Z" fill="black"/>
<path opacity="0.25" d="M115.502 316.18V298.19L114.033 296.5L115.502 316.18Z" fill="black"/>
<path d="M175.681 310.741L173.31 312.103C173.31 312.103 173.31 324.605 173.31 325.54C173.31 327.058 171.981 328.822 169.496 330.249C165.484 332.571 159.963 333.153 157.19 331.554C156.854 331.401 156.552 331.181 156.305 330.907C156.057 330.633 155.869 330.31 155.752 329.96C155.635 329.609 155.591 329.238 155.624 328.87C155.657 328.502 155.766 328.145 155.943 327.821C156.641 326.303 154.541 325.097 152.301 325.097C151.399 325.089 150.51 325.309 149.717 325.737L135.713 333.826C128.644 328.336 121.897 322.441 115.508 316.172V298.19C122.514 306.172 129.749 313.079 135.713 317.386L149.717 309.297C150.509 308.866 151.399 308.645 152.301 308.657C154.541 308.657 156.641 309.863 155.943 311.373C155.766 311.697 155.657 312.054 155.624 312.422C155.591 312.79 155.635 313.161 155.752 313.511C155.869 313.862 156.057 314.184 156.305 314.459C156.552 314.733 156.854 314.953 157.19 315.105C159.971 316.746 165.492 316.131 169.496 313.809C173.499 311.488 174.524 308.313 171.743 306.705C170.226 305.819 167.765 305.589 165.304 305.983C161.637 306.541 159.02 303.94 161.71 302.39L175.681 294.334V310.741Z" fill="#00A5A5"/>
<path opacity="0.15" d="M115.5 298.189V316.18C121.889 322.449 128.636 328.344 135.705 333.834V317.427C129.741 313.079 122.506 306.172 115.5 298.189Z" fill="black"/>
<path opacity="0.25" d="M135.704 317.384V333.832L134.572 316.539L135.704 317.384Z" fill="black"/>
<path d="M221.531 316.342L205.124 308.466C202.318 307.121 197.741 308.729 197.741 310.64C197.741 310.813 197.741 313.922 197.741 313.922C197.446 314.336 197.062 314.678 196.617 314.923C195.564 315.474 194.4 315.777 193.212 315.809V303.667C193.177 303.344 193.055 303.035 192.86 302.774C192.666 302.513 192.405 302.309 192.105 302.182L175.698 294.299L161.596 302.445C161.58 302.439 161.562 302.439 161.546 302.445C161.277 302.575 161.046 302.772 160.877 303.018C160.707 303.264 160.604 303.55 160.578 303.848V315.989C159.396 315.958 158.236 315.655 157.19 315.103C156.753 314.865 156.372 314.534 156.075 314.135V310.788C156.075 309.008 152.211 307.909 149.766 309.27L135.705 317.384V333.791C140.233 337.245 144.795 340.641 149.282 343.75L149.446 343.857C151.842 345.21 155.615 344.013 155.607 342.216V339.698C155.907 339.293 156.29 338.957 156.731 338.713C157.665 338.228 158.691 337.949 159.742 337.893C159.742 337.893 159.742 348.607 159.742 350.009C159.77 350.316 159.88 350.609 160.058 350.86C160.237 351.111 160.479 351.31 160.759 351.437C163.22 352.946 165.607 354.489 167.912 355.867C170.62 357.508 173.228 359.042 175.681 360.461L221.506 334.012L221.531 316.342Z" fill="#00A5A5"/>
<path opacity="0.15" d="M197.84 311.164C197.761 311 197.719 310.821 197.717 310.639V313.92C197.988 313.516 198.144 313.045 198.165 312.559C198.187 312.073 198.074 311.59 197.84 311.164Z" fill="black"/>
<path opacity="0.3" d="M184.278 313.604C186.991 315.144 190.078 315.899 193.196 315.786V303.678C193.196 304.966 191.12 306.18 188.495 305.761C186.034 305.376 183.573 305.597 182.039 306.492C179.25 308.099 180.25 311.282 184.278 313.604Z" fill="black"/>
<path opacity="0.15" d="M169.502 313.809C173.53 311.488 174.523 308.313 171.742 306.705C170.224 305.819 167.763 305.589 165.302 305.983C162.841 306.377 160.602 305.163 160.602 303.883V315.991C163.714 316.108 166.797 315.353 169.502 313.809Z" fill="black"/>
<path d="M156.074 310.779C156.069 310.984 156.021 311.185 155.934 311.37C155.7 311.797 155.588 312.281 155.613 312.768C155.637 313.255 155.797 313.725 156.074 314.126V310.779Z" fill="#00A5A5"/>
<path opacity="0.2" d="M175.714 342.79C173.253 341.371 170.644 339.878 167.937 338.303C165.613 336.947 163.228 335.538 160.784 334.078C160.527 333.963 160.303 333.787 160.13 333.565C159.957 333.344 159.841 333.083 159.791 332.807V337.86C159.791 337.86 159.791 348.566 159.791 349.977C159.82 350.283 159.929 350.577 160.108 350.827C160.286 351.078 160.528 351.277 160.808 351.404C163.269 352.914 165.657 354.456 167.962 355.834C170.669 357.475 173.27 359.001 175.739 360.42L175.714 342.79Z" fill="black"/>
<path opacity="0.2" d="M155.614 325.637C155.302 327.278 151.75 328.295 149.47 327.007L149.314 326.9C144.818 323.955 140.29 320.797 135.729 317.4V333.808C140.249 337.261 144.818 340.658 149.314 343.767L149.47 343.873C151.865 345.235 155.63 344.046 155.63 342.233V339.64L155.614 325.637Z" fill="black"/>
<path opacity="0.3" d="M171.327 329.487C169.76 330.381 167.364 330.603 164.846 330.217C162.057 329.783 159.604 331.349 159.793 332.81V337.863C158.745 337.922 157.722 338.201 156.79 338.683C156.346 338.926 155.962 339.265 155.666 339.676V325.64C155.683 325.517 155.683 325.393 155.666 325.271C155.67 325.263 155.673 325.255 155.673 325.246C155.673 325.237 155.67 325.229 155.666 325.221C155.651 325.087 155.612 324.957 155.551 324.836C155.377 324.509 155.271 324.15 155.241 323.781C155.211 323.412 155.257 323.04 155.376 322.69C155.496 322.339 155.686 322.017 155.934 321.742C156.183 321.468 156.486 321.248 156.823 321.095C159.596 319.454 165.109 320.078 169.128 322.391C173.148 324.705 174.1 327.879 171.327 329.487Z" fill="black"/>
<path d="M221.532 316.344L175.707 342.793C173.245 341.373 170.645 339.88 167.938 338.305C165.613 336.96 163.229 335.549 160.784 334.072C158.102 332.522 161.178 329.65 164.886 330.216C167.396 330.594 169.808 330.389 171.35 329.486C174.131 327.846 173.122 324.695 169.103 322.374C165.083 320.052 159.57 319.478 156.797 321.078C156.461 321.232 156.161 321.454 155.913 321.728C155.666 322.003 155.478 322.326 155.359 322.676C155.241 323.026 155.196 323.397 155.226 323.765C155.256 324.134 155.361 324.492 155.534 324.819C156.502 326.886 152.162 328.502 149.513 327.009L149.348 326.902C144.861 323.965 140.324 320.807 135.771 317.402L149.832 309.289C152.531 307.78 156.978 309.289 156.002 311.389C155.824 311.714 155.716 312.072 155.684 312.44C155.651 312.808 155.695 313.179 155.813 313.53C155.931 313.88 156.12 314.203 156.369 314.477C156.617 314.751 156.919 314.97 157.257 315.122C160.038 316.763 165.551 316.156 169.562 313.834C173.574 311.512 174.583 308.329 171.802 306.721C170.227 305.819 167.765 305.589 165.304 305.983C161.703 306.541 159.119 304.031 161.572 302.48C161.588 302.475 161.605 302.475 161.621 302.48L175.698 294.334L192.106 302.218C194.788 303.768 192.188 306.369 188.512 305.803C186.051 305.417 183.59 305.63 182.048 306.525C179.267 308.165 180.276 311.315 184.296 313.637C188.315 315.959 193.828 316.541 196.601 314.933C196.937 314.78 197.238 314.559 197.484 314.285C197.731 314.01 197.919 313.688 198.036 313.338C198.153 312.988 198.197 312.617 198.164 312.25C198.132 311.882 198.024 311.525 197.848 311.201C196.864 309.084 202.073 307.025 205.141 308.493L221.532 316.344Z" fill="#00A5A5"/>
<path opacity="0.35" d="M221.532 316.344L175.707 342.793C173.245 341.373 170.645 339.88 167.938 338.305C165.613 336.96 163.229 335.549 160.784 334.072C158.102 332.522 161.178 329.65 164.886 330.216C167.396 330.594 169.808 330.389 171.35 329.486C174.131 327.846 173.122 324.695 169.103 322.374C165.083 320.052 159.57 319.478 156.797 321.078C156.461 321.232 156.161 321.454 155.913 321.728C155.666 322.003 155.478 322.326 155.359 322.676C155.241 323.026 155.196 323.397 155.226 323.765C155.256 324.134 155.361 324.492 155.534 324.819C156.502 326.886 152.162 328.502 149.513 327.009L149.348 326.902C144.861 323.965 140.324 320.807 135.771 317.402L149.832 309.289C152.531 307.78 156.978 309.289 156.002 311.389C155.824 311.714 155.716 312.072 155.684 312.44C155.651 312.808 155.695 313.179 155.813 313.53C155.931 313.88 156.12 314.203 156.369 314.477C156.617 314.751 156.919 314.97 157.257 315.122C160.038 316.763 165.551 316.156 169.562 313.834C173.574 311.512 174.583 308.329 171.802 306.721C170.227 305.819 167.765 305.589 165.304 305.983C161.703 306.541 159.119 304.031 161.572 302.48C161.588 302.475 161.605 302.475 161.621 302.48L175.698 294.334L192.106 302.218C194.788 303.768 192.188 306.369 188.512 305.803C186.051 305.417 183.59 305.63 182.048 306.525C179.267 308.165 180.276 311.315 184.296 313.637C188.315 315.959 193.828 316.541 196.601 314.933C196.937 314.78 197.238 314.559 197.484 314.285C197.731 314.01 197.919 313.688 198.036 313.338C198.153 312.988 198.197 312.617 198.164 312.25C198.132 311.882 198.024 311.525 197.848 311.201C196.864 309.084 202.073 307.025 205.141 308.493L221.532 316.344Z" fill="white"/>
<path d="M171.744 306.704C170.193 305.801 167.798 305.588 165.279 305.974C161.604 306.54 159.004 303.939 161.686 302.389L175.682 294.333C166.403 289.961 157.546 284.743 149.225 278.746L136.69 285.982C133.999 287.532 131.07 285.112 132.654 282.651C133.728 280.961 133.974 279.222 133.113 277.926C131.563 275.604 127.051 275.612 123.031 277.926C119.011 280.239 117.001 284.004 118.552 286.326C119.413 287.614 121.193 288.188 123.302 288.041C126.37 287.819 127.403 291.322 124.729 292.873L115.5 298.205C122.506 306.187 129.741 313.094 135.705 317.401L149.717 309.296C152.4 307.737 156.912 309.247 155.927 311.363C155.753 311.689 155.646 312.046 155.615 312.414C155.584 312.782 155.629 313.152 155.746 313.502C155.864 313.852 156.052 314.174 156.299 314.448C156.546 314.722 156.847 314.943 157.182 315.096C159.963 316.737 165.485 316.122 169.488 313.8C173.491 311.478 174.525 308.279 171.744 306.704Z" fill="#00A5A5"/>
<path opacity="0.2" d="M171.744 306.704C170.193 305.801 167.798 305.588 165.279 305.974C161.604 306.54 159.004 303.939 161.686 302.389L175.682 294.333C166.403 289.961 157.546 284.743 149.225 278.746L136.69 285.982C133.999 287.532 131.07 285.112 132.654 282.651C133.728 280.961 133.974 279.222 133.113 277.926C131.563 275.604 127.051 275.612 123.031 277.926C119.011 280.239 117.001 284.004 118.552 286.326C119.413 287.614 121.193 288.188 123.302 288.041C126.37 287.819 127.403 291.322 124.729 292.873L115.5 298.205C122.506 306.187 129.741 313.094 135.705 317.401L149.717 309.296C152.4 307.737 156.912 309.247 155.927 311.363C155.753 311.689 155.646 312.046 155.615 312.414C155.584 312.782 155.629 313.152 155.746 313.502C155.864 313.852 156.052 314.174 156.299 314.448C156.546 314.722 156.847 314.943 157.182 315.096C159.963 316.737 165.485 316.122 169.488 313.8C173.491 311.478 174.525 308.279 171.744 306.704Z" fill="white"/>
<path d="M261.802 321.944C261.802 320.066 259.767 317.842 256.191 316.267C251.014 313.938 244.558 313.732 241.769 315.8C240.218 316.956 240.128 318.573 241.26 320.18C242.901 322.519 238.159 324.602 234.697 323.076L221.571 316.333L206.559 325.004L182.9 338.63L175.705 342.781V360.419L213.885 382.462L231.793 372.117C232.144 371.974 232.449 371.736 232.675 371.431C232.901 371.126 233.038 370.764 233.073 370.386C233.073 368.902 233.073 356.44 233.073 356.44C234.44 356.476 235.782 356.824 236.994 357.458C237.5 357.735 237.939 358.118 238.282 358.582V362.421C238.318 362.788 238.451 363.138 238.667 363.437C238.883 363.735 239.175 363.971 239.513 364.119C240.455 364.609 241.502 364.865 242.564 364.865C243.627 364.865 244.674 364.609 245.616 364.119L263.525 353.774V336.169L261.802 335.349V321.944Z" fill="#00A5A5"/>
<path opacity="0.25" d="M261.802 321.944C261.802 320.066 259.767 317.842 256.191 316.267C251.014 313.938 244.558 313.732 241.769 315.8C240.218 316.956 240.128 318.573 241.26 320.18C242.901 322.519 238.159 324.602 234.697 323.076L221.571 316.333L206.559 325.004L182.9 338.63L175.705 342.781V360.419L213.885 382.462L231.793 372.117C232.144 371.974 232.449 371.736 232.675 371.431C232.901 371.126 233.038 370.764 233.073 370.386C233.073 368.902 233.073 356.44 233.073 356.44C234.44 356.476 235.782 356.824 236.994 357.458C237.5 357.735 237.939 358.118 238.282 358.582V362.421C238.318 362.788 238.451 363.138 238.667 363.437C238.883 363.735 239.175 363.971 239.513 364.119C240.455 364.609 241.502 364.865 242.564 364.865C243.627 364.865 244.674 364.609 245.616 364.119L263.525 353.774V336.169L261.802 335.349V321.944Z" fill="black"/>
<path d="M256.191 316.267C251.015 313.938 244.559 313.732 241.769 315.8C240.219 316.956 240.129 318.573 241.261 320.18C242.901 322.519 238.16 324.602 234.698 323.076L221.572 316.333L206.56 325.004C203.877 326.555 199.365 325.053 200.349 322.929C200.525 322.604 200.633 322.246 200.664 321.878C200.696 321.51 200.652 321.139 200.534 320.789C200.416 320.439 200.228 320.117 199.98 319.843C199.732 319.569 199.431 319.349 199.094 319.196C196.313 317.555 190.8 318.171 186.789 320.492C182.777 322.814 181.76 325.997 184.541 327.605C186.092 328.499 188.495 328.712 191.006 328.327C194.681 327.761 197.281 330.369 194.599 331.92L175.73 342.79L213.91 364.833L231.818 354.496C234.919 352.7 231.917 349.697 227.676 350.394C226.306 350.614 224.914 350.661 223.533 350.534C222.384 350.434 221.268 350.102 220.251 349.558C217.044 347.704 218.2 344.028 222.844 341.354C227.487 338.68 233.845 338.007 237.052 339.853C237.442 340.029 237.791 340.283 238.077 340.6C238.363 340.917 238.581 341.29 238.717 341.695C238.852 342.1 238.903 342.529 238.865 342.954C238.827 343.38 238.701 343.793 238.496 344.168C238.061 345.119 238.586 345.964 239.571 346.539C240.514 347.027 241.561 347.282 242.623 347.282C243.685 347.282 244.731 347.027 245.674 346.539L263.525 336.169L250.039 329.967C246.651 328.4 248.98 325.242 253.32 325.587C256.298 325.816 258.989 325.373 260.547 324.217C263.312 322.149 261.376 318.589 256.191 316.267Z" fill="#00A5A5"/>
<path opacity="0.1" d="M256.191 316.267C251.015 313.938 244.559 313.732 241.769 315.8C240.219 316.956 240.129 318.573 241.261 320.18C242.901 322.519 238.16 324.602 234.698 323.076L221.572 316.333L206.56 325.004C203.877 326.555 199.365 325.053 200.349 322.929C200.525 322.604 200.633 322.246 200.664 321.878C200.696 321.51 200.652 321.139 200.534 320.789C200.416 320.439 200.228 320.117 199.98 319.843C199.732 319.569 199.431 319.349 199.094 319.196C196.313 317.555 190.8 318.171 186.789 320.492C182.777 322.814 181.76 325.997 184.541 327.605C186.092 328.499 188.495 328.712 191.006 328.327C194.681 327.761 197.281 330.369 194.599 331.92L175.73 342.79L213.91 364.833L231.818 354.496C234.919 352.7 231.917 349.697 227.676 350.394C226.306 350.614 224.914 350.661 223.533 350.534C222.384 350.434 221.268 350.102 220.251 349.558C217.044 347.704 218.2 344.028 222.844 341.354C227.487 338.68 233.845 338.007 237.052 339.853C237.442 340.029 237.791 340.283 238.077 340.6C238.363 340.917 238.581 341.29 238.717 341.695C238.852 342.1 238.903 342.529 238.865 342.954C238.827 343.38 238.701 343.793 238.496 344.168C238.061 345.119 238.586 345.964 239.571 346.539C240.514 347.027 241.561 347.282 242.623 347.282C243.685 347.282 244.731 347.027 245.674 346.539L263.525 336.169L250.039 329.967C246.651 328.4 248.98 325.242 253.32 325.587C256.298 325.816 258.989 325.373 260.547 324.217C263.312 322.149 261.376 318.589 256.191 316.267Z" fill="black"/>
<g opacity="0.15">
<path d="M261.801 321.947C261.792 322.402 261.672 322.848 261.45 323.246C261.228 323.644 260.912 323.981 260.53 324.228C258.971 325.368 256.28 325.819 253.302 325.59C248.979 325.237 246.657 328.412 250.021 329.97L261.801 335.352V321.947Z" fill="black"/>
<path d="M238.313 344.78C238.318 344.556 238.368 344.336 238.461 344.132C238.665 343.759 238.79 343.347 238.827 342.924C238.865 342.5 238.815 342.073 238.68 341.67C238.546 341.266 238.329 340.895 238.044 340.579C237.76 340.263 237.413 340.009 237.026 339.833C233.81 337.979 227.444 338.644 222.809 341.326C218.174 344.009 217.009 347.676 220.216 349.53C221.232 350.074 222.349 350.403 223.498 350.498C224.865 350.633 226.244 350.589 227.6 350.367C230.701 349.891 233.121 351.359 233.006 352.885V356.437C234.376 356.478 235.72 356.829 236.935 357.463C237.437 357.742 237.873 358.125 238.215 358.587L238.313 344.78Z" fill="black"/>
<path d="M213.885 382.474V364.836L175.705 342.793V360.431L213.885 382.474Z" fill="black"/>
</g>
<path d="M339.883 371.447L290.251 347.189L272.343 357.534C269.242 359.323 264.033 357.592 265.173 355.147C265.375 354.772 265.498 354.359 265.534 353.934C265.57 353.51 265.519 353.082 265.383 352.678C265.246 352.274 265.029 351.903 264.743 351.586C264.457 351.27 264.109 351.016 263.721 350.84C260.513 348.986 254.147 349.651 249.512 352.333C246.649 353.974 245.107 356.017 245.107 357.764V373.26L236.797 378.06V395.689L282.614 422.154L304.345 409.611C304.695 409.461 304.998 409.22 305.222 408.912C305.446 408.605 305.582 408.242 305.617 407.863C305.617 406.378 305.617 393.917 305.617 393.917C306.984 393.952 308.326 394.3 309.538 394.934C310.046 395.212 310.488 395.595 310.834 396.058C310.834 396.058 310.834 399.701 310.834 399.922C310.872 400.287 311.006 400.636 311.222 400.933C311.438 401.229 311.729 401.464 312.065 401.612C313.007 402.1 314.052 402.355 315.112 402.355C316.173 402.355 317.218 402.1 318.16 401.612L339.891 389.069L339.883 371.447Z" fill="#37474F"/>
<path d="M272.343 357.542C269.242 359.331 264.033 357.6 265.173 355.155C265.375 354.78 265.498 354.367 265.534 353.942C265.57 353.518 265.519 353.09 265.383 352.686C265.246 352.282 265.029 351.911 264.743 351.595C264.457 351.278 264.109 351.024 263.721 350.848C260.513 348.994 254.147 349.659 249.512 352.341C244.877 355.024 243.712 358.691 246.92 360.545C248.708 361.579 251.481 361.825 254.385 361.365C258.618 360.709 261.621 363.711 258.487 365.467L236.756 378.01L282.614 404.516L304.345 391.956C307.446 390.168 304.436 387.166 300.202 387.855C298.83 388.076 297.435 388.12 296.051 387.986C294.903 387.884 293.787 387.552 292.77 387.01C289.571 385.156 290.719 381.48 295.354 378.806C299.989 376.132 306.363 375.467 309.571 377.313C309.959 377.49 310.307 377.745 310.593 378.062C310.879 378.379 311.097 378.751 311.233 379.156C311.369 379.56 311.421 379.988 311.385 380.414C311.348 380.839 311.225 381.252 311.023 381.628C310.58 382.58 311.097 383.425 312.089 383.999C313.031 384.487 314.076 384.742 315.137 384.742C316.198 384.742 317.243 384.487 318.185 383.999L339.883 371.447L290.251 347.189L272.343 357.542Z" fill="#455A64"/>
<path d="M282.614 404.517V422.154L236.797 395.698V378.068L282.614 404.517Z" fill="#263238"/>
<path d="M258.529 365.517L245.107 373.278V357.781C245.127 358.364 245.306 358.93 245.626 359.418C245.945 359.906 246.393 360.296 246.92 360.546C248.709 361.58 251.482 361.826 254.386 361.366C258.619 360.726 261.613 363.729 258.529 365.517Z" fill="#263238"/>
<path d="M310.834 382.31C310.828 382.069 310.882 381.829 310.99 381.613C311.193 381.237 311.317 380.823 311.353 380.397C311.389 379.971 311.337 379.542 311.2 379.137C311.063 378.732 310.844 378.36 310.557 378.043C310.269 377.727 309.92 377.473 309.53 377.298C306.33 375.444 299.964 376.117 295.321 378.791C290.678 381.465 289.529 385.149 292.745 386.994C293.76 387.541 294.878 387.87 296.027 387.963C297.413 388.097 298.811 388.053 300.186 387.831C303.196 387.355 305.584 388.75 305.592 390.235C305.592 390.834 305.592 393.91 305.592 393.91C306.955 393.943 308.291 394.291 309.497 394.927C310.005 395.207 310.447 395.593 310.793 396.059L310.834 382.31Z" fill="#263238"/>
</svg>
