<svg width="263" height="237" viewBox="0 0 263 237" fill="none" xmlns="http://www.w3.org/2000/svg">
<path d="M101.62 236.957C157.742 236.957 203.239 210.69 203.239 178.288C203.239 145.886 157.742 119.619 101.62 119.619C45.4966 119.619 0 145.886 0 178.288C0 210.69 45.4966 236.957 101.62 236.957Z" fill="#F5F5F5"/>
<path d="M119.226 201.6L127.913 196.584C127.232 196.458 126.577 196.221 125.973 195.883C125.332 195.543 124.795 195.037 124.417 194.418C124.039 193.798 123.835 193.089 123.827 192.363C123.827 190.525 125.095 188.738 127.304 187.462C129.154 186.412 131.241 185.851 133.368 185.831C134.647 185.789 135.915 186.08 137.048 186.676C137.668 187.005 138.191 187.49 138.567 188.083C138.944 188.675 139.16 189.355 139.195 190.056L149.403 184.141L178.038 198.135C179.238 198.722 179.276 199.736 178.118 200.408L165.083 207.934C164.244 208.404 163.295 208.646 162.333 208.635C161.401 208.643 160.482 208.424 159.654 207.997C159.683 208.077 159.704 208.157 159.726 208.238C160.118 209.704 159.43 211.196 157.968 212.041L147.679 218.019C147.029 218.348 146.311 218.519 145.583 218.519C144.855 218.519 144.137 218.348 143.488 218.019L119.242 204.021C118.068 203.353 118.068 202.267 119.226 201.6Z" fill="#E0E0E0"/>
<path d="M146.129 181.833C165.225 181.833 180.705 172.897 180.705 161.873C180.705 150.849 165.225 141.912 146.129 141.912C127.033 141.912 111.553 150.849 111.553 161.873C111.553 172.897 127.033 181.833 146.129 181.833Z" fill="#E0E0E0"/>
<path d="M29.9371 173.81L24.8414 176.768C24.5498 161.818 14.8484 150.866 10.171 145.078C5.41323 139.162 11.9921 135.651 17.5315 138.237C23.071 140.823 27.5709 147.461 29.4301 156.08C31.0146 163.432 30.2118 171.6 29.9371 173.81Z" fill="#00A5A5"/>
<path opacity="0.3" d="M29.9371 173.81L24.8414 176.768C24.5498 161.818 14.8484 150.866 10.171 145.078C5.41323 139.162 11.9921 135.651 17.5315 138.237C23.071 140.823 27.5709 147.461 29.4301 156.08C31.0146 163.432 30.2118 171.6 29.9371 173.81Z" fill="white"/>
<path d="M27.7745 173.353H27.8421C27.9288 173.35 28.0107 173.313 28.07 173.249C28.1293 173.186 28.1613 173.102 28.159 173.015C27.6393 154.195 21.3689 144.769 14.1266 139.977C14.0913 139.95 14.0507 139.931 14.0074 139.92C13.9642 139.909 13.9192 139.907 13.8752 139.915C13.8313 139.922 13.7893 139.938 13.7519 139.962C13.7145 139.987 13.6825 140.018 13.6578 140.056C13.6332 140.093 13.6164 140.134 13.6086 140.178C13.6007 140.222 13.602 140.267 13.6123 140.311C13.6226 140.354 13.6417 140.395 13.6684 140.43C13.6951 140.466 13.7288 140.496 13.7675 140.518C20.9126 145.246 26.997 154.462 27.5083 173.053C27.5121 173.126 27.5404 173.195 27.5888 173.25C27.6372 173.304 27.7027 173.341 27.7745 173.353Z" fill="white"/>
<path d="M2.56617 156.761C2.67603 157.8 3.51265 158.599 4.31546 159.27C5.11828 159.942 6.0056 160.669 6.21264 161.692C6.63518 163.758 4.20561 165.663 4.73377 167.708C4.87624 168.13 5.1029 168.518 5.39998 168.849C5.69705 169.181 6.05836 169.448 6.46194 169.635C7.10842 169.986 7.80982 170.214 8.48588 170.501C8.82035 170.603 9.16034 170.684 9.50419 170.746C10.5098 170.92 11.5619 171.211 12.2845 171.989C13.4126 173.214 13.269 175.099 13.6704 176.713C14.1521 178.652 15.3014 179.789 17.938 180.71L26.9675 175.593C29.2196 173.299 30.0098 169.377 27.9394 166.72C26.6971 165.118 24.3647 164.915 23.1943 163.318C22.138 161.882 22.7718 159.807 22.0999 158.151C21.4281 156.494 19.738 155.92 18.1197 155.615C16.5014 155.311 14.7774 156.004 13.1971 155.425C11.6169 154.846 10.1464 153.917 8.50701 153.507C6.86757 153.097 5.12673 153.249 3.77885 154.297C3.3894 154.576 3.07492 154.947 2.86336 155.377C2.65179 155.806 2.5497 156.282 2.56617 156.761Z" fill="#00A5A5"/>
<path opacity="0.6" d="M2.56617 156.761C2.67603 157.8 3.51265 158.599 4.31546 159.27C5.11828 159.942 6.0056 160.669 6.21264 161.692C6.63518 163.758 4.20561 165.663 4.73377 167.708C4.87624 168.13 5.1029 168.518 5.39998 168.849C5.69705 169.181 6.05836 169.448 6.46194 169.635C7.10842 169.986 7.80982 170.214 8.48588 170.501C8.82035 170.603 9.16034 170.684 9.50419 170.746C10.5098 170.92 11.5619 171.211 12.2845 171.989C13.4126 173.214 13.269 175.099 13.6704 176.713C14.1521 178.652 15.3014 179.789 17.938 180.71L26.9675 175.593C29.2196 173.299 30.0098 169.377 27.9394 166.72C26.6971 165.118 24.3647 164.915 23.1943 163.318C22.138 161.882 22.7718 159.807 22.0999 158.151C21.4281 156.494 19.738 155.92 18.1197 155.615C16.5014 155.311 14.7774 156.004 13.1971 155.425C11.6169 154.846 10.1464 153.917 8.50701 153.507C6.86757 153.097 5.12673 153.249 3.77885 154.297C3.3894 154.576 3.07492 154.947 2.86336 155.377C2.65179 155.806 2.5497 156.282 2.56617 156.761Z" fill="white"/>
<path d="M19.4 164.906C19.3824 164.87 19.3581 164.837 19.3282 164.809C15.1028 158.797 8.43102 155.936 6.18314 155.437C6.15317 155.431 6.12213 155.43 6.09184 155.435C6.06154 155.44 6.03259 155.451 6.00665 155.468C5.98071 155.484 5.9583 155.506 5.94073 155.531C5.92316 155.556 5.91076 155.585 5.90427 155.615C5.89742 155.645 5.8966 155.676 5.90183 155.706C5.90707 155.737 5.91826 155.765 5.93477 155.791C5.95128 155.817 5.97276 155.84 5.99799 155.857C6.02322 155.875 6.05168 155.887 6.08173 155.894C8.1944 156.371 14.3888 159.012 18.5465 164.53C16.8521 163.959 15.0579 163.744 13.2764 163.899C11.495 164.054 9.76479 164.575 8.1944 165.43C8.16799 165.447 8.14512 165.468 8.12715 165.494C8.10918 165.519 8.09648 165.548 8.08978 165.578C8.08308 165.608 8.08253 165.64 8.08817 165.67C8.0938 165.701 8.1055 165.73 8.12257 165.756C8.14268 165.788 8.17069 165.815 8.20396 165.833C8.23723 165.852 8.27466 165.861 8.31271 165.861C8.36087 165.865 8.40882 165.852 8.44792 165.823C10.056 164.954 11.8347 164.447 13.6595 164.337C15.4842 164.228 17.3108 164.519 19.0113 165.19C21.4891 168.737 22.7305 173.002 22.5437 177.325C22.5412 177.384 22.5612 177.441 22.5996 177.486C22.6381 177.531 22.6921 177.559 22.7507 177.566H22.7718C22.8339 177.567 22.8939 177.543 22.939 177.501C22.984 177.458 23.0105 177.399 23.0127 177.337C23.2066 172.909 21.937 168.541 19.4 164.906Z" fill="white"/>
<path d="M189.03 172.491C187.433 174.202 185.101 176.526 182.815 179.099C179.397 182.944 176.088 187.343 175.556 191.044L175.45 191.408L173.853 196.901L173.561 198.536L169.129 195.967C169.446 190.58 169.932 183.109 173.173 175.546C176.164 168.57 183.918 161.978 188.316 162.561C192.415 163.111 193.011 168.223 189.03 172.491Z" fill="#00A5A5"/>
<path opacity="0.3" d="M189.03 172.491C187.433 174.202 185.101 176.526 182.815 179.099C179.397 182.944 176.088 187.343 175.556 191.044L175.45 191.408L173.853 196.901L173.561 198.536L169.129 195.967C169.446 190.58 169.932 183.109 173.173 175.546C176.164 168.57 183.918 161.978 188.316 162.561C192.415 163.111 193.011 168.223 189.03 172.491Z" fill="white"/>
<path d="M171.545 194.167C171.601 194.156 171.652 194.128 171.692 194.086C171.731 194.045 171.757 193.992 171.764 193.935C173.273 180.059 181.762 168.946 188.467 165.786C188.499 165.771 188.527 165.75 188.55 165.725C188.573 165.699 188.591 165.669 188.603 165.637C188.615 165.604 188.62 165.569 188.619 165.535C188.617 165.5 188.609 165.466 188.594 165.435C188.579 165.404 188.559 165.375 188.533 165.352C188.507 165.329 188.477 165.311 188.445 165.299C188.412 165.287 188.378 165.282 188.343 165.283C188.309 165.285 188.275 165.293 188.243 165.308C181.428 168.519 172.766 179.814 171.236 193.876C171.232 193.91 171.235 193.945 171.244 193.978C171.254 194.012 171.27 194.043 171.291 194.07C171.313 194.097 171.34 194.12 171.37 194.136C171.401 194.153 171.434 194.164 171.469 194.167H171.545Z" fill="white"/>
<path d="M193.805 184.694C192.461 187.06 186.803 188.37 182.295 191.361C178.226 194.065 175.678 197.378 175.061 199.389L173.641 198.574L172.416 197.864C175.061 188.378 180.837 183.122 185.092 180.57C186.348 179.858 187.747 179.437 189.186 179.336C193.784 179.188 195.423 181.867 193.805 184.694Z" fill="#00A5A5"/>
<path opacity="0.6" d="M193.805 184.694C192.461 187.06 186.804 188.37 182.295 191.361C178.226 194.065 175.683 197.378 175.061 199.389L173.637 198.57L172.412 197.86C175.057 188.374 180.833 183.118 185.088 180.566C186.344 179.854 187.743 179.432 189.183 179.332C193.784 179.188 195.423 181.867 193.805 184.694Z" fill="white"/>
<path d="M174.211 197.253C174.262 197.251 174.311 197.234 174.353 197.204C174.394 197.173 174.426 197.132 174.443 197.084C178.428 186.558 186.574 182.984 190.331 182.565C190.4 182.557 190.463 182.522 190.506 182.467C190.55 182.413 190.57 182.343 190.563 182.274C190.56 182.239 190.55 182.205 190.533 182.175C190.517 182.144 190.494 182.117 190.467 182.095C190.44 182.074 190.408 182.058 190.375 182.048C190.341 182.039 190.306 182.037 190.271 182.041C186.122 182.502 178.018 186.153 173.949 196.894C173.924 196.959 173.926 197.032 173.955 197.096C173.983 197.16 174.036 197.21 174.101 197.236C174.136 197.249 174.173 197.255 174.211 197.253Z" fill="white"/>
<path d="M84.6035 129.01C74.619 149.587 46.3768 190.48 20.8388 213.516C23.7416 204.022 26.2219 189.821 26.2219 189.821L7.06836 187.239C25.4571 173.004 50.319 145.78 62.9697 121.036C79.9978 87.7237 75.3288 63.1744 69.8992 63.5716C71.3612 55.4716 88.533 51.7406 92.4668 56.304C102.299 66.5589 98.3696 100.619 84.6035 129.01Z" fill="#00A5A5"/>
<path opacity="0.15" d="M84.6035 129.01C74.619 149.587 46.3768 190.48 20.8388 213.516C23.7416 204.022 26.2219 189.821 26.2219 189.821L7.06836 187.239C25.4571 173.004 50.319 145.78 62.9697 121.036C79.9978 87.7237 75.3288 63.1744 69.8992 63.5716C71.3612 55.4716 88.533 51.7406 92.4668 56.304C102.299 66.5589 98.3696 100.619 84.6035 129.01Z" fill="black"/>
<path opacity="0.25" d="M76.3009 138.599C73.7276 138.206 67.7572 131.919 61.5882 123.68C57.084 131.999 51.2868 140.53 44.9023 148.698C49.7235 157.149 55.0896 161.581 58.4234 164.556C60.8868 166.757 58.0009 171.058 57.8108 171.354C65.4164 161.049 72.2065 150.84 77.4417 142.064L83.0319 132.084C82.9051 132.321 78.8065 138.988 76.3009 138.599Z" fill="black"/>
<path opacity="0.25" d="M69.8984 63.6087C71.7872 63.465 73.5829 66.3467 74.4069 71.5693C89.1491 62.3622 97.8533 67.7411 97.9252 76.6608C97.9463 67.5298 96.197 60.2158 92.466 56.3369C88.5238 51.7989 71.3604 55.5298 69.8984 63.6087Z" fill="black"/>
<path d="M41.2898 153.211C30.0799 166.867 17.5264 179.167 7.06445 187.263L26.2179 189.845L11.4292 186.621C19.0898 181.187 29.7546 169.191 41.2898 153.211Z" fill="#00A5A5"/>
<path d="M59.0373 48.3891C43.5852 57.3131 36.1317 68.4299 33.4697 88.1327C30.8077 107.836 33.6894 122.438 41.3373 137.307C46.0299 146.414 52.1656 154.702 59.5063 161.848V152.586C54.2584 146.612 49.2387 139.466 46.7415 133.547C37.7035 112.112 50.2824 84.4862 58.395 74.506C66.5077 64.5257 84.233 51.5793 92.4809 56.337C88.8217 52.6905 74.4851 39.4736 59.0373 48.3891Z" fill="#00A5A5"/>
<path opacity="0.1" d="M46.6292 97.9973L33.2052 90.248C31.0292 108.886 33.9658 122.973 41.3348 137.306C46.0274 146.413 52.1631 154.7 59.5038 161.847V152.585C54.2559 146.61 49.2362 139.465 46.739 133.545C41.9644 122.251 43.2024 109.241 46.6292 97.9973Z" fill="black"/>
<path opacity="0.15" d="M78.6939 58.0652L59.1812 48.3047L59.0376 48.3807C53.6376 51.5075 49.2305 54.8962 45.6348 58.8216L63.4319 69.0976C67.9066 64.8258 73.4291 60.6849 78.6939 58.0652Z" fill="white"/>
<path opacity="0.15" d="M43.0856 61.8887C41.9004 63.4647 40.8301 65.1239 39.8828 66.8535L56.7842 76.614C57.3293 75.845 57.8617 75.1394 58.3771 74.5013C59.0448 73.6563 59.7842 72.8365 60.5701 71.9661L43.0856 61.8887Z" fill="white"/>
<path d="M63.5937 129.788C53.2923 116.318 49.2275 96.8304 50.8754 86.998C44.8205 99.9318 40.312 118.304 46.743 133.549C49.2402 139.464 54.2599 146.613 59.5078 152.588L76.8613 142.574C71.8463 138.973 67.3776 134.667 63.5937 129.788Z" fill="#00A5A5"/>
<path opacity="0.25" d="M51.0505 98.8882C50.3914 94.2783 50.3322 90.1417 50.8646 86.998C45.6505 98.1318 41.5942 113.297 44.666 127.029C43.9266 119.956 46.1702 109.278 51.0505 98.8882Z" fill="black"/>
<path opacity="0.25" d="M59.4927 161.853V152.587L58.7363 151.717L59.4927 161.853Z" fill="black"/>
<path d="M90.489 159.048L89.2679 159.75C89.2679 159.75 89.2679 166.189 89.2679 166.671C89.2679 167.453 88.5834 168.361 87.3031 169.096C85.2369 170.292 82.3932 170.592 80.9651 169.768C80.7917 169.69 80.6364 169.576 80.5089 169.435C80.3814 169.294 80.2845 169.128 80.2242 168.947C80.1639 168.767 80.1415 168.576 80.1585 168.386C80.1755 168.196 80.2314 168.012 80.3228 167.846C80.682 167.064 79.6003 166.443 78.4468 166.443C77.9824 166.438 77.5245 166.552 77.1158 166.772L69.9031 170.938C66.2618 168.111 62.787 165.074 59.4961 161.846V152.584C63.1045 156.695 66.8313 160.253 69.9031 162.471L77.1158 158.305C77.5238 158.082 77.9822 157.969 78.4468 157.975C79.6003 157.975 80.682 158.596 80.3228 159.374C80.2314 159.541 80.1755 159.725 80.1585 159.914C80.1415 160.104 80.1639 160.295 80.2242 160.475C80.2845 160.656 80.3814 160.822 80.5089 160.963C80.6364 161.104 80.7917 161.218 80.9651 161.296C82.3975 162.141 85.2411 161.824 87.3031 160.629C89.3651 159.433 89.8932 157.798 88.4608 156.969C87.6791 156.513 86.4115 156.395 85.1439 156.598C83.2552 156.885 81.9073 155.546 83.2932 154.747L90.489 150.598V159.048Z" fill="#00A5A5"/>
<path opacity="0.15" d="M59.4922 152.584V161.85C62.7831 165.079 66.2579 168.115 69.8992 170.943V162.492C66.8274 160.253 63.1006 156.695 59.4922 152.584Z" fill="black"/>
<path opacity="0.25" d="M69.8995 162.47V170.942L69.3164 162.035L69.8995 162.47Z" fill="black"/>
<path d="M114.104 161.936L105.653 157.879C104.208 157.186 101.85 158.014 101.85 158.999C101.85 159.088 101.85 160.689 101.85 160.689C101.699 160.902 101.501 161.078 101.272 161.205C100.73 161.488 100.13 161.644 99.5181 161.661V155.407C99.4997 155.241 99.4371 155.082 99.3368 154.947C99.2366 154.813 99.1022 154.708 98.9477 154.643L90.497 150.582L83.2336 154.778C83.2254 154.775 83.2165 154.775 83.2083 154.778C83.0696 154.845 82.9508 154.946 82.8634 155.073C82.776 155.2 82.723 155.347 82.7097 155.5V161.754C82.1006 161.738 81.5034 161.582 80.9646 161.298C80.7394 161.175 80.5433 161.005 80.39 160.799V159.075C80.39 158.158 78.3998 157.592 77.1407 158.293L69.8984 162.472V170.923C72.2308 172.702 74.5801 174.451 76.8914 176.052L76.9759 176.107C78.2097 176.805 80.1533 176.188 80.1491 175.262V173.965C80.3036 173.757 80.501 173.584 80.728 173.458C81.2089 173.208 81.7376 173.064 82.2787 173.036C82.2787 173.036 82.2787 178.554 82.2787 179.276C82.2935 179.434 82.3498 179.585 82.4418 179.714C82.5338 179.844 82.6583 179.946 82.8026 180.012C84.0702 180.789 85.2998 181.583 86.4871 182.293C87.8815 183.138 89.2252 183.928 90.4885 184.659L114.091 171.037L114.104 161.936Z" fill="#00A5A5"/>
<path opacity="0.15" d="M101.901 159.267C101.861 159.182 101.839 159.09 101.838 158.996V160.686C101.978 160.478 102.058 160.236 102.069 159.985C102.08 159.735 102.022 159.486 101.901 159.267Z" fill="black"/>
<path opacity="0.3" d="M94.9164 160.525C96.3137 161.318 97.9038 161.707 99.5094 161.649V155.412C99.5094 156.075 98.4404 156.701 97.0883 156.485C95.8207 156.287 94.553 156.401 93.7629 156.861C92.3263 157.69 92.8418 159.329 94.9164 160.525Z" fill="black"/>
<path opacity="0.15" d="M87.3072 160.628C89.3818 159.433 89.8931 157.797 88.4607 156.969C87.679 156.513 86.4114 156.394 85.1438 156.597C83.8762 156.8 82.7227 156.175 82.7227 155.516V161.752C84.3257 161.813 85.9138 161.423 87.3072 160.628Z" fill="black"/>
<path d="M80.3897 159.068C80.387 159.174 80.3626 159.277 80.3178 159.373C80.1968 159.593 80.1394 159.842 80.1521 160.093C80.1648 160.343 80.2471 160.586 80.3897 160.792V159.068Z" fill="#00A5A5"/>
<path opacity="0.2" d="M90.5061 175.558C89.2385 174.827 87.8948 174.058 86.5005 173.247C85.3033 172.548 84.0751 171.823 82.816 171.071C82.684 171.011 82.5684 170.921 82.4794 170.807C82.3903 170.693 82.3303 170.558 82.3047 170.416V173.019C82.3047 173.019 82.3047 178.533 82.3047 179.26C82.3195 179.417 82.3758 179.569 82.4678 179.698C82.5598 179.827 82.6843 179.929 82.8286 179.995C84.0962 180.772 85.3258 181.567 86.5131 182.277C87.9075 183.122 89.2469 183.908 90.5188 184.639L90.5061 175.558Z" fill="black"/>
<path opacity="0.2" d="M80.1543 166.721C79.9938 167.566 78.1642 168.09 76.9896 167.426L76.9093 167.371C74.5938 165.855 72.2614 164.228 69.9121 162.479V170.929C72.2403 172.708 74.5938 174.457 76.9093 176.059L76.9896 176.114C78.2234 176.815 80.1628 176.202 80.1628 175.269V173.933L80.1543 166.721Z" fill="black"/>
<path opacity="0.3" d="M88.2466 168.705C87.4396 169.166 86.2058 169.28 84.9086 169.081C83.472 168.857 82.2086 169.664 82.3058 170.416V173.019C81.7662 173.049 81.2392 173.193 80.7593 173.442C80.5304 173.567 80.3326 173.741 80.1804 173.953V166.723C80.1889 166.66 80.1889 166.596 80.1804 166.533C80.1827 166.529 80.1838 166.525 80.1838 166.521C80.1838 166.516 80.1827 166.512 80.1804 166.508C80.1726 166.439 80.1525 166.372 80.1213 166.309C80.0315 166.141 79.9771 165.956 79.9616 165.766C79.9461 165.576 79.9698 165.385 80.0312 165.204C80.0926 165.023 80.1904 164.857 80.3185 164.716C80.4467 164.575 80.6024 164.461 80.7762 164.383C82.2044 163.538 85.0438 163.859 87.1142 165.05C89.1846 166.242 89.6748 167.877 88.2466 168.705Z" fill="black"/>
<path d="M114.105 161.934L90.5026 175.557C89.235 174.826 87.8955 174.057 86.5012 173.246C85.304 172.553 84.0758 171.826 82.8167 171.065C81.435 170.267 83.0195 168.788 84.9293 169.079C86.2223 169.274 87.4645 169.168 88.2589 168.703C89.6913 167.858 89.1716 166.236 87.1012 165.04C85.0308 163.844 82.1913 163.548 80.7632 164.372C80.5902 164.452 80.4353 164.566 80.3079 164.707C80.1806 164.849 80.0834 165.015 80.0225 165.195C79.9616 165.376 79.9381 165.567 79.9536 165.757C79.9691 165.946 80.0231 166.131 80.1124 166.299C80.611 167.364 78.3758 168.196 77.011 167.427L76.9265 167.372C74.6153 165.86 72.2787 164.233 69.9336 162.479L77.1758 158.3C78.566 157.523 80.8561 158.3 80.3533 159.382C80.262 159.549 80.2063 159.734 80.1896 159.923C80.1729 160.113 80.1956 160.304 80.2563 160.485C80.317 160.665 80.4144 160.831 80.5424 160.972C80.6703 161.114 80.826 161.227 80.9998 161.305C82.4322 162.15 85.2716 161.837 87.3378 160.641C89.404 159.446 89.9237 157.806 88.4913 156.978C87.68 156.513 86.4124 156.395 85.1448 156.598C83.2899 156.885 81.9589 155.592 83.2223 154.793C83.2305 154.791 83.2395 154.791 83.2477 154.793L90.4983 150.598L98.949 154.658C100.331 155.457 98.9913 156.796 97.0983 156.505C95.8307 156.306 94.5631 156.416 93.7688 156.877C92.3364 157.722 92.8561 159.344 94.9265 160.54C96.9969 161.736 99.8364 162.036 101.265 161.207C101.437 161.129 101.592 161.015 101.719 160.874C101.847 160.732 101.943 160.566 102.004 160.386C102.064 160.206 102.086 160.015 102.07 159.825C102.053 159.636 101.998 159.452 101.907 159.285C101.4 158.195 104.083 157.134 105.663 157.891L114.105 161.934Z" fill="#00A5A5"/>
<path opacity="0.35" d="M114.105 161.934L90.5026 175.557C89.235 174.826 87.8955 174.057 86.5012 173.246C85.304 172.553 84.0758 171.826 82.8167 171.065C81.435 170.267 83.0195 168.788 84.9293 169.079C86.2223 169.274 87.4645 169.168 88.2589 168.703C89.6913 167.858 89.1716 166.236 87.1012 165.04C85.0308 163.844 82.1913 163.548 80.7632 164.372C80.5902 164.452 80.4353 164.566 80.3079 164.707C80.1806 164.849 80.0834 165.015 80.0225 165.195C79.9616 165.376 79.9381 165.567 79.9536 165.757C79.9691 165.946 80.0231 166.131 80.1124 166.299C80.611 167.364 78.3758 168.196 77.011 167.427L76.9265 167.372C74.6153 165.86 72.2787 164.233 69.9336 162.479L77.1758 158.3C78.566 157.523 80.8561 158.3 80.3533 159.382C80.262 159.549 80.2063 159.734 80.1896 159.923C80.1729 160.113 80.1956 160.304 80.2563 160.485C80.317 160.665 80.4144 160.831 80.5424 160.972C80.6703 161.114 80.826 161.227 80.9998 161.305C82.4322 162.15 85.2716 161.837 87.3378 160.641C89.404 159.446 89.9237 157.806 88.4913 156.978C87.68 156.513 86.4124 156.395 85.1448 156.598C83.2899 156.885 81.9589 155.592 83.2223 154.793C83.2305 154.791 83.2395 154.791 83.2477 154.793L90.4983 150.598L98.949 154.658C100.331 155.457 98.9913 156.796 97.0983 156.505C95.8307 156.306 94.5631 156.416 93.7688 156.877C92.3364 157.722 92.8561 159.344 94.9265 160.54C96.9969 161.736 99.8364 162.036 101.265 161.207C101.437 161.129 101.592 161.015 101.719 160.874C101.847 160.732 101.943 160.566 102.004 160.386C102.064 160.206 102.086 160.015 102.07 159.825C102.053 159.636 101.998 159.452 101.907 159.285C101.4 158.195 104.083 157.134 105.663 157.891L114.105 161.934Z" fill="white"/>
<path d="M88.4612 156.97C87.6626 156.505 86.4288 156.395 85.1316 156.594C83.2386 156.885 81.8992 155.546 83.2809 154.747L90.4893 150.598C85.7102 148.346 81.1486 145.659 76.8626 142.57L70.4063 146.296C69.0203 147.095 67.5119 145.849 68.3274 144.581C68.8809 143.711 69.0077 142.815 68.564 142.147C67.7654 140.951 65.4415 140.956 63.3711 142.147C61.3006 143.339 60.2654 145.278 61.064 146.474C61.5077 147.137 62.4246 147.433 63.5105 147.357C65.0908 147.243 65.6232 149.047 64.2457 149.846L59.4922 152.592C63.1006 156.704 66.8274 160.261 69.8992 162.48L77.1161 158.305C78.4978 157.502 80.8217 158.28 80.3147 159.37C80.2247 159.537 80.17 159.721 80.1539 159.911C80.1379 160.1 80.1609 160.291 80.2215 160.471C80.2821 160.651 80.379 160.817 80.5062 160.958C80.6334 161.1 80.7883 161.213 80.9612 161.292C82.3936 162.137 85.2372 161.82 87.2992 160.625C89.3612 159.429 89.8935 157.781 88.4612 156.97Z" fill="#00A5A5"/>
<path opacity="0.2" d="M88.4612 156.97C87.6626 156.505 86.4288 156.395 85.1316 156.594C83.2386 156.885 81.8992 155.546 83.2809 154.747L90.4893 150.598C85.7102 148.346 81.1486 145.659 76.8626 142.57L70.4063 146.296C69.0203 147.095 67.5119 145.849 68.3274 144.581C68.8809 143.711 69.0077 142.815 68.564 142.147C67.7654 140.951 65.4415 140.956 63.3711 142.147C61.3006 143.339 60.2654 145.278 61.064 146.474C61.5077 147.137 62.4246 147.433 63.5105 147.357C65.0908 147.243 65.6232 149.047 64.2457 149.846L59.4922 152.592C63.1006 156.704 66.8274 160.261 69.8992 162.48L77.1161 158.305C78.4978 157.502 80.8217 158.28 80.3147 159.37C80.2247 159.537 80.17 159.721 80.1539 159.911C80.1379 160.1 80.1609 160.291 80.2215 160.471C80.2821 160.651 80.379 160.817 80.5062 160.958C80.6334 161.1 80.7883 161.213 80.9612 161.292C82.3936 162.137 85.2372 161.82 87.2992 160.625C89.3612 159.429 89.8935 157.781 88.4612 156.97Z" fill="white"/>
<path d="M134.847 164.819C134.847 163.851 133.799 162.706 131.957 161.895C129.291 160.695 125.965 160.589 124.529 161.654C123.73 162.25 123.684 163.082 124.267 163.91C125.112 165.114 122.67 166.188 120.886 165.402L114.126 161.928L106.393 166.395L94.2076 173.413L90.502 175.551V184.635L110.167 195.989L119.391 190.661C119.572 190.587 119.729 190.464 119.845 190.307C119.961 190.15 120.032 189.964 120.05 189.769C120.05 189.004 120.05 182.586 120.05 182.586C120.754 182.604 121.445 182.783 122.07 183.11C122.33 183.253 122.556 183.45 122.733 183.689V185.666C122.751 185.855 122.82 186.036 122.931 186.19C123.043 186.343 123.193 186.465 123.367 186.541C123.852 186.794 124.391 186.925 124.939 186.925C125.486 186.925 126.025 186.794 126.51 186.541L135.734 181.213V172.145L134.847 171.723V164.819Z" fill="#00A5A5"/>
<path opacity="0.25" d="M134.847 164.819C134.847 163.851 133.799 162.706 131.957 161.895C129.291 160.695 125.965 160.589 124.529 161.654C123.73 162.25 123.684 163.082 124.267 163.91C125.112 165.114 122.67 166.188 120.886 165.402L114.126 161.928L106.393 166.395L94.2076 173.413L90.502 175.551V184.635L110.167 195.989L119.391 190.661C119.572 190.587 119.729 190.464 119.845 190.307C119.961 190.15 120.032 189.964 120.05 189.769C120.05 189.004 120.05 182.586 120.05 182.586C120.754 182.604 121.445 182.783 122.07 183.11C122.33 183.253 122.556 183.45 122.733 183.689V185.666C122.751 185.855 122.82 186.036 122.931 186.19C123.043 186.343 123.193 186.465 123.367 186.541C123.852 186.794 124.391 186.925 124.939 186.925C125.486 186.925 126.025 186.794 126.51 186.541L135.734 181.213V172.145L134.847 171.723V164.819Z" fill="black"/>
<path d="M131.956 161.895C129.29 160.695 125.964 160.589 124.528 161.654C123.729 162.25 123.683 163.082 124.266 163.91C125.111 165.114 122.669 166.188 120.885 165.402L114.125 161.928L106.393 166.395C105.011 167.193 102.687 166.42 103.194 165.326C103.285 165.158 103.34 164.974 103.356 164.785C103.373 164.595 103.35 164.404 103.289 164.224C103.228 164.043 103.131 163.877 103.004 163.736C102.876 163.595 102.721 163.482 102.547 163.403C101.115 162.558 98.2756 162.875 96.2094 164.071C94.1432 165.266 93.6193 166.906 95.0517 167.734C95.8503 168.195 97.0883 168.304 98.3813 168.106C100.274 167.814 101.614 169.158 100.232 169.957L90.5137 175.555L110.178 186.909L119.402 181.585C121 180.659 119.453 179.113 117.269 179.472C116.563 179.585 115.846 179.609 115.135 179.544C114.543 179.493 113.968 179.321 113.445 179.041C111.793 178.086 112.388 176.193 114.78 174.816C117.171 173.438 120.446 173.092 122.098 174.042C122.299 174.133 122.478 174.264 122.626 174.427C122.773 174.591 122.886 174.783 122.955 174.991C123.025 175.2 123.051 175.421 123.032 175.64C123.012 175.859 122.947 176.072 122.842 176.265C122.618 176.755 122.888 177.19 123.395 177.486C123.881 177.738 124.42 177.869 124.967 177.869C125.514 177.869 126.053 177.738 126.539 177.486L135.733 172.145L128.787 168.951C127.042 168.144 128.242 166.517 130.477 166.695C132.011 166.813 133.397 166.585 134.2 165.989C135.623 164.924 134.626 163.09 131.956 161.895Z" fill="#00A5A5"/>
<path opacity="0.1" d="M131.956 161.895C129.29 160.695 125.964 160.589 124.528 161.654C123.729 162.25 123.683 163.082 124.266 163.91C125.111 165.114 122.669 166.188 120.885 165.402L114.125 161.928L106.393 166.395C105.011 167.193 102.687 166.42 103.194 165.326C103.285 165.158 103.34 164.974 103.356 164.785C103.373 164.595 103.35 164.404 103.289 164.224C103.228 164.043 103.131 163.877 103.004 163.736C102.876 163.595 102.721 163.482 102.547 163.403C101.115 162.558 98.2756 162.875 96.2094 164.071C94.1432 165.266 93.6193 166.906 95.0517 167.734C95.8503 168.195 97.0883 168.304 98.3813 168.106C100.274 167.814 101.614 169.158 100.232 169.957L90.5137 175.555L110.178 186.909L119.402 181.585C121 180.659 119.453 179.113 117.269 179.472C116.563 179.585 115.846 179.609 115.135 179.544C114.543 179.493 113.968 179.321 113.445 179.041C111.793 178.086 112.388 176.193 114.78 174.816C117.171 173.438 120.446 173.092 122.098 174.042C122.299 174.133 122.478 174.264 122.626 174.427C122.773 174.591 122.886 174.783 122.955 174.991C123.025 175.2 123.051 175.421 123.032 175.64C123.012 175.859 122.947 176.072 122.842 176.265C122.618 176.755 122.888 177.19 123.395 177.486C123.881 177.738 124.42 177.869 124.967 177.869C125.514 177.869 126.053 177.738 126.539 177.486L135.733 172.145L128.787 168.951C127.042 168.144 128.242 166.517 130.477 166.695C132.011 166.813 133.397 166.585 134.2 165.989C135.623 164.924 134.626 163.09 131.956 161.895Z" fill="black"/>
<g opacity="0.15">
<path d="M134.845 164.822C134.841 165.057 134.779 165.286 134.664 165.491C134.55 165.696 134.387 165.87 134.19 165.997C133.388 166.584 132.002 166.817 130.468 166.698C128.241 166.517 127.045 168.152 128.778 168.955L134.845 171.726V164.822Z" fill="black"/>
<path d="M122.749 176.583C122.751 176.468 122.777 176.354 122.825 176.249C122.93 176.057 122.994 175.845 123.013 175.627C123.033 175.409 123.007 175.189 122.938 174.981C122.868 174.773 122.757 174.582 122.61 174.419C122.463 174.256 122.285 174.126 122.085 174.035C120.429 173.08 117.15 173.422 114.763 174.804C112.375 176.186 111.775 178.074 113.427 179.029C113.951 179.309 114.526 179.479 115.118 179.528C115.822 179.598 116.532 179.575 117.23 179.46C118.827 179.215 120.074 179.972 120.015 180.758V182.587C120.721 182.608 121.413 182.789 122.039 183.115C122.297 183.259 122.522 183.456 122.698 183.694L122.749 176.583Z" fill="black"/>
<path d="M110.165 195.997V186.912L90.5 175.559V184.643L110.165 195.997Z" fill="black"/>
</g>
<path d="M175.065 190.317L149.501 177.822L140.277 183.15C138.68 184.072 135.997 183.18 136.584 181.921C136.688 181.728 136.752 181.515 136.77 181.296C136.789 181.078 136.762 180.857 136.692 180.649C136.622 180.441 136.51 180.25 136.363 180.087C136.215 179.924 136.036 179.793 135.836 179.703C134.184 178.748 130.905 179.09 128.518 180.472C127.043 181.317 126.249 182.369 126.249 183.269V191.25L121.969 193.722V202.803L145.567 216.433L156.76 209.973C156.941 209.896 157.097 209.772 157.212 209.613C157.327 209.455 157.397 209.268 157.415 209.073C157.415 208.308 157.415 201.89 157.415 201.89C158.12 201.908 158.811 202.087 159.435 202.414C159.696 202.557 159.924 202.754 160.103 202.993C160.103 202.993 160.103 204.869 160.103 204.983C160.122 205.171 160.191 205.35 160.302 205.503C160.414 205.656 160.563 205.777 160.736 205.853C161.221 206.105 161.76 206.236 162.306 206.236C162.852 206.236 163.391 206.105 163.876 205.853L175.069 199.393L175.065 190.317Z" fill="#37474F"/>
<path d="M140.277 183.155C138.68 184.076 135.997 183.184 136.584 181.925C136.688 181.732 136.751 181.519 136.77 181.3C136.789 181.082 136.762 180.862 136.692 180.653C136.622 180.445 136.509 180.254 136.362 180.091C136.215 179.928 136.036 179.797 135.836 179.707C134.184 178.752 130.905 179.094 128.518 180.476C126.13 181.857 125.53 183.746 127.182 184.701C128.104 185.234 129.532 185.36 131.028 185.124C133.208 184.786 134.754 186.332 133.14 187.236L121.947 193.697L145.567 207.349L156.76 200.88C158.357 199.959 156.806 198.412 154.626 198.767C153.919 198.881 153.201 198.904 152.488 198.835C151.897 198.782 151.322 198.611 150.798 198.332C149.15 197.377 149.742 195.484 152.129 194.107C154.516 192.729 157.799 192.387 159.451 193.338C159.651 193.429 159.831 193.56 159.978 193.723C160.125 193.887 160.237 194.078 160.307 194.287C160.378 194.495 160.404 194.716 160.386 194.935C160.367 195.154 160.304 195.367 160.199 195.56C159.971 196.05 160.237 196.486 160.749 196.781C161.234 197.033 161.772 197.164 162.318 197.164C162.865 197.164 163.403 197.033 163.888 196.781L175.064 190.317L149.501 177.822L140.277 183.155Z" fill="#455A64"/>
<path d="M145.567 207.349V216.434L121.969 202.807V193.727L145.567 207.349Z" fill="#263238"/>
<path d="M133.163 187.262L126.25 191.259V183.277C126.26 183.578 126.352 183.869 126.517 184.12C126.682 184.372 126.912 184.573 127.184 184.701C128.105 185.234 129.533 185.36 131.029 185.124C133.209 184.794 134.751 186.341 133.163 187.262Z" fill="#263238"/>
<path d="M160.102 195.912C160.099 195.788 160.126 195.665 160.182 195.553C160.287 195.36 160.35 195.146 160.369 194.927C160.388 194.708 160.361 194.487 160.29 194.278C160.22 194.069 160.107 193.878 159.959 193.715C159.811 193.552 159.631 193.421 159.43 193.331C157.782 192.376 154.503 192.722 152.112 194.1C149.72 195.477 149.128 197.374 150.785 198.325C151.308 198.606 151.883 198.776 152.475 198.824C153.189 198.893 153.909 198.87 154.617 198.756C156.168 198.511 157.397 199.229 157.402 199.994C157.402 200.303 157.402 201.887 157.402 201.887C158.104 201.904 158.792 202.083 159.413 202.411C159.675 202.555 159.903 202.754 160.081 202.994L160.102 195.912Z" fill="#263238"/>
<path d="M189.008 4.42732H189.071V4.35177H190.815C191.32 4.98027 192.007 5.43667 192.782 5.65792C193.556 5.87918 194.381 5.85437 195.141 5.58693C195.901 5.31949 196.56 4.82261 197.025 4.16492C197.491 3.50723 197.741 2.72118 197.741 1.91534C197.738 1.31331 197.6 0.719561 197.338 0.177734C193.993 0.408345 190.74 1.36609 187.804 2.98411C184.868 4.60213 182.32 6.84144 180.339 9.5457C180.342 9.60232 180.342 9.65907 180.339 9.71569C180.339 10.2946 180.211 10.8664 179.964 11.39C179.717 11.9135 179.357 12.3759 178.91 12.7439V14.4752H188.983L189.008 4.42732Z" fill="#3A5164"/>
<path d="M214.424 14.672V14.4768H220.311C218.996 11.2568 216.971 8.37525 214.387 6.04688V14.4768L214.424 14.672Z" fill="#FAFAFA"/>
<path d="M209.584 5.82592C210.134 5.82604 210.677 5.71065 211.18 5.48723C211.682 5.26381 212.131 4.93735 212.499 4.52901C210.455 3.0299 208.176 1.87907 205.757 1.12305C205.693 1.40193 205.662 1.68702 205.662 1.97296C205.662 2.11147 205.662 2.23738 205.662 2.36959C205.779 3.32602 206.243 4.20621 206.966 4.84328C207.689 5.48034 208.621 5.82999 209.584 5.82592Z" fill="#FAFAFA"/>
<path d="M197.295 3.74785C196.993 4.32071 196.554 4.81022 196.017 5.17306C195.48 5.53591 194.863 5.76089 194.218 5.82812C193.574 5.89534 192.923 5.80274 192.323 5.55849C191.723 5.31425 191.193 4.92589 190.779 4.42779H189.01V14.5009H199.177V16.2322V16.2951C198.398 16.9424 197.898 17.8643 197.78 18.8701C197.78 19.0023 197.78 19.1282 197.78 19.2604C197.773 20.2728 198.157 21.2487 198.852 21.9852C199.547 22.7217 200.498 23.1621 201.51 23.2148C202.521 23.2675 203.513 22.9285 204.281 22.2682C205.048 21.6079 205.531 20.6772 205.63 19.6696C205.637 19.5564 205.637 19.4429 205.63 19.3297C205.632 18.7367 205.499 18.1511 205.241 17.6168C204.984 17.0826 204.609 16.6135 204.145 16.2448V14.5512V14.4631H214.362V6.03319C213.76 5.49837 213.13 4.9961 212.474 4.52852C211.968 5.08053 211.316 5.47664 210.593 5.67025C209.87 5.86385 209.106 5.84687 208.393 5.62132C207.679 5.39578 207.045 4.97104 206.564 4.3971C206.084 3.82317 205.777 3.12393 205.681 2.38169C205.659 2.21467 205.646 2.0465 205.643 1.87804C205.646 1.62446 205.671 1.37164 205.719 1.12256C203.523 0.452228 201.24 0.112733 198.944 0.115248C198.409 0.115248 197.874 0.115246 197.345 0.171907C197.608 0.713734 197.745 1.30748 197.748 1.90952C197.75 2.55018 197.594 3.18147 197.295 3.74785Z" fill="#00A5A5"/>
<path d="M216.774 30.2728C216.526 30.0731 216.298 29.8496 216.094 29.6055H214.426V39.8296H214.885C217.514 37.3039 219.513 34.1966 220.721 30.7576C220.257 30.9643 219.756 31.0777 219.248 31.0913C218.495 31.0981 217.754 30.8906 217.114 30.4932L216.9 30.3421L216.774 30.2728Z" fill="#3A5164"/>
<path d="M223.184 44.7822C223.183 45.0037 223.202 45.2249 223.24 45.4432C223.451 46.3893 224.003 47.2246 224.791 47.7892C225.579 48.3539 226.548 48.6083 227.511 48.5039C228.475 48.3995 229.367 47.9436 230.015 47.2233C230.664 46.503 231.025 45.5689 231.028 44.5996C231.026 44.0495 230.899 43.5071 230.657 43.0131C230.415 42.5191 230.064 42.0864 229.63 41.7476V41.6091L229.542 41.521V41.1055L224.669 41.288V41.7036C224.206 42.0716 223.831 42.5397 223.574 43.0728C223.317 43.6059 223.183 44.1902 223.184 44.7822Z" fill="#3A5164"/>
<path d="M214.426 14.6717V24.6441H216.151C216.506 24.229 216.943 23.891 217.434 23.6509C217.925 23.4107 218.46 23.2734 219.006 23.2475C219.552 23.2215 220.097 23.3075 220.609 23.5C221.12 23.6925 221.587 23.9876 221.981 24.3671C221.981 23.9704 221.981 23.5738 221.981 23.1709C221.984 20.1899 221.407 17.2367 220.281 14.4766H214.426V14.6717Z" fill="#3A5164"/>
<path d="M176.431 48.5033C177.089 48.5022 177.736 48.3351 178.312 48.0176C178.888 47.7001 179.374 47.2424 179.727 46.6869C180.079 46.1314 180.285 45.496 180.326 44.8396C180.368 44.1832 180.243 43.527 179.963 42.9316L172.742 43.1961C172.574 43.632 172.489 44.0952 172.49 44.5622C172.49 45.6075 172.905 46.6099 173.645 47.349C174.384 48.0881 175.386 48.5033 176.431 48.5033Z" fill="#E0E0E0"/>
<path d="M189.042 29.6042H187.355C186.84 30.2333 186.143 30.6877 185.36 30.9053C184.577 31.1229 183.746 31.0929 182.98 30.8196C182.214 30.5462 181.552 30.0428 181.084 29.3784C180.616 28.7139 180.364 27.9209 180.364 27.108C180.364 26.2951 180.616 25.5021 181.084 24.8376C181.552 24.1732 182.214 23.6698 182.98 23.3964C183.746 23.1231 184.577 23.0931 185.36 23.3107C186.143 23.5283 186.84 23.9827 187.355 24.6118H189.086V14.4757H178.913V12.7318C179.358 12.3617 179.717 11.8978 179.963 11.3733C180.208 10.8488 180.336 10.2766 180.335 9.69731C180.338 9.6596 180.338 9.62169 180.335 9.58398C177.041 14.0877 175.494 19.6345 175.983 25.193C176.472 30.7516 178.962 35.9435 182.992 39.8032H189.049L189.042 29.6042Z" fill="#E0E0E0"/>
<path d="M204.145 14.5647V16.1953C204.608 16.5643 204.981 17.0325 205.238 17.5654C205.496 18.0983 205.63 18.6822 205.631 19.2739C205.64 19.4101 205.64 19.5469 205.631 19.6831C205.532 20.6907 205.049 21.6214 204.281 22.2817C203.514 22.942 202.521 23.281 201.51 23.2283C200.499 23.1756 199.547 22.7352 198.852 21.9987C198.158 21.2622 197.774 20.2863 197.78 19.2739C197.78 19.1417 197.78 19.0157 197.78 18.8835C197.883 17.8552 198.385 16.9081 199.178 16.2456V14.4766H189.042V24.6441H187.298C186.78 24.0157 186.079 23.5633 185.293 23.3492C184.507 23.1351 183.674 23.1699 182.909 23.4487C182.143 23.7274 181.483 24.2366 181.019 24.906C180.555 25.5754 180.309 26.3722 180.317 27.1868C180.324 28.0014 180.583 28.7937 181.059 29.4548C181.535 30.1158 182.204 30.6131 182.975 30.8783C183.745 31.1434 184.579 31.1634 185.361 30.9354C186.143 30.7074 186.835 30.2426 187.342 29.6051H189.042V39.7852H189.105V39.8293H199.178V38.0917C198.512 37.5391 198.047 36.7822 197.856 35.9385C197.787 35.6477 197.753 35.3497 197.755 35.0508C197.651 34.0089 197.964 32.9683 198.627 32.1577C199.29 31.3472 200.248 30.8332 201.29 30.7289C202.332 30.6245 203.373 30.9383 204.183 31.6013C204.994 32.2642 205.508 33.222 205.612 34.2639C205.663 34.5252 205.688 34.7909 205.688 35.0571C205.689 35.6501 205.556 36.2357 205.298 36.77C205.041 37.3042 204.666 37.7733 204.202 38.142V39.8293H214.426V29.6051H216.126C216.149 29.636 216.174 29.6654 216.201 29.6932C216.389 29.9095 216.6 30.1038 216.831 30.2724L216.925 30.3417L217.139 30.4928C217.766 30.8845 218.49 31.0918 219.23 31.0909C219.755 31.0926 220.276 30.9876 220.759 30.7824C221.485 28.7199 221.909 26.5634 222.019 24.3797C221.842 24.1963 221.646 24.0336 221.433 23.8949C220.623 23.3449 219.638 23.1168 218.669 23.2554C217.7 23.394 216.818 23.8892 216.195 24.6441H214.426V14.4766H204.145V14.5647Z" fill="#09253D"/>
<path d="M261.97 39.916L259.578 40.0042H261.97V39.916Z" fill="#00A5A5"/>
<path d="M172.491 60.3023C172.491 59.6368 172.66 58.9822 172.981 58.3993C173.302 57.8163 173.765 57.3239 174.327 56.9675C174.889 56.6112 175.532 56.4025 176.197 56.3608C176.861 56.3191 177.525 56.4458 178.127 56.729C178.729 57.0123 179.25 57.443 179.642 57.9812C180.033 58.5195 180.282 59.1478 180.366 59.808C180.45 60.4682 180.366 61.139 180.122 61.758C179.878 62.3771 179.481 62.9245 178.969 63.3494V65.0808H189.042V55.0077H189.105V54.9321H190.849C191.365 55.5453 192.058 55.9835 192.833 56.1866C193.608 56.3897 194.427 56.3477 195.178 56.0663C195.928 55.7849 196.573 55.2779 197.023 54.6152C197.474 53.9524 197.708 53.1664 197.694 52.3651C197.679 51.5639 197.417 50.7868 196.943 50.1407C196.469 49.4946 195.806 49.0113 195.046 48.7571C194.286 48.503 193.466 48.4905 192.698 48.7214C191.931 48.9524 191.254 49.4153 190.761 50.0467H189.042V39.8351H189.105V39.791H182.985C184.114 40.8788 185.35 41.8491 186.675 42.687L180.008 42.9326C180.246 43.4452 180.369 44.0041 180.366 44.5694C180.388 45.0998 180.301 45.629 180.113 46.1253C179.925 46.6216 179.638 47.0747 179.27 47.4574C178.903 47.8402 178.461 48.1447 177.973 48.3528C177.485 48.5608 176.959 48.668 176.428 48.668C175.898 48.668 175.372 48.5608 174.884 48.3528C174.396 48.1447 173.954 47.8402 173.587 47.4574C173.219 47.0747 172.932 46.6216 172.744 46.1253C172.555 45.629 172.469 45.0998 172.491 44.5694C172.489 44.1024 172.575 43.6392 172.742 43.2033L163.752 43.5307V50.0152H162.059L162.021 49.9774C161.53 49.3875 160.876 48.955 160.141 48.7337C159.406 48.5123 158.622 48.5119 157.887 48.7324C157.151 48.9529 156.497 49.3846 156.005 49.9739C155.513 50.5632 155.206 51.2841 155.12 52.047C155.035 52.8098 155.175 53.581 155.524 54.2646C155.873 54.9482 156.416 55.5141 157.084 55.8919C157.752 56.2697 158.517 56.4429 159.283 56.3898C160.048 56.3366 160.782 56.0596 161.391 55.5932H161.429L161.542 55.4924C161.731 55.3352 161.902 55.1579 162.052 54.9636H163.771V64.4071L173.995 64.1427V63.4376C173.522 63.0646 173.14 62.5881 172.879 62.0446C172.618 61.5011 172.485 60.9051 172.491 60.3023Z" fill="#3A5164"/>
<path d="M163.752 54.9312H162.033C161.883 55.1255 161.712 55.3028 161.523 55.46L161.41 55.5608H161.372C160.791 56.016 160.094 56.2985 159.361 56.3759C158.627 56.4534 157.886 56.3227 157.223 55.9989C156.56 55.675 156.002 55.171 155.612 54.5446C155.223 53.9182 155.017 53.1947 155.019 52.457C155.017 51.6456 155.265 50.8533 155.73 50.1884C156.195 49.5235 156.854 49.0187 157.617 48.7429C158.38 48.4672 159.21 48.4341 159.992 48.6482C160.775 48.8623 161.472 49.313 161.989 49.9387H163.752V43.5234L138.405 44.4552V49.9954H140.136C140.656 49.3684 141.357 48.9178 142.143 48.7054C142.929 48.493 143.762 48.5293 144.526 48.8093C145.291 49.0894 145.95 49.5993 146.413 50.2692C146.876 50.939 147.12 51.7358 147.112 52.55C147.104 53.3642 146.843 54.1559 146.367 54.8162C145.89 55.4765 145.221 55.973 144.451 56.2375C143.681 56.502 142.848 56.5214 142.066 56.2931C141.285 56.0648 140.593 55.6001 140.086 54.9627H138.393V65.0358L163.739 64.3747V54.9312H163.752Z" fill="#09253D"/>
<path d="M214.69 40.0059H214.426V40.2325L214.69 40.0059Z" fill="#FAFAFA"/>
<path d="M209.614 56.4473C210.193 56.4477 210.766 56.3205 211.29 56.0745C211.815 55.8286 212.279 55.4701 212.649 55.0245H214.424V55.1945V65.0976H220.436C220.432 65.0368 220.432 64.9758 220.436 64.915L224.585 64.8269V63.5677C223.809 62.8979 223.326 61.9512 223.238 60.9298C223.211 60.7379 223.196 60.5445 223.194 60.3506C223.194 59.3343 223.587 58.3573 224.291 57.6244C224.995 56.8915 225.956 56.4594 226.971 56.4187C227.987 56.378 228.979 56.7319 229.739 57.4061C230.5 58.0804 230.97 59.0228 231.051 60.0359C231.078 60.2193 231.093 60.4044 231.095 60.5899C231.096 61.1684 230.969 61.74 230.723 62.2636C230.477 62.7872 230.118 63.2498 229.672 63.6181V64.7072L239.745 64.4932V55.1315H241.445L241.502 55.1945C242.016 55.8261 242.713 56.2829 243.497 56.5023C244.281 56.7217 245.114 56.6928 245.881 56.4196C246.648 56.1464 247.312 55.6423 247.781 54.9765C248.25 54.3108 248.501 53.5162 248.5 52.702C248.499 51.8877 248.245 51.0937 247.775 50.4292C247.304 49.7647 246.639 49.2622 245.872 48.991C245.104 48.7197 244.271 48.6929 243.487 48.9143C242.704 49.1356 242.008 49.5943 241.495 50.2272H239.796V50.1642H239.758V40.7207L229.628 41.0922V41.7217C230.286 42.2702 230.75 43.0165 230.95 43.8497C231.055 44.356 231.059 44.8781 230.961 45.3859C230.864 45.8938 230.668 46.3776 230.384 46.8096C230.1 47.2416 229.733 47.6135 229.306 47.9039C228.878 48.1943 228.397 48.3976 227.891 48.5022C227.384 48.6067 226.862 48.6106 226.354 48.5134C225.846 48.4162 225.363 48.22 224.931 47.9359C224.499 47.6518 224.127 47.2853 223.836 46.8575C223.546 46.4297 223.343 45.9489 223.238 45.4425C223.2 45.2242 223.181 45.003 223.181 44.7814C223.181 44.1895 223.315 43.6051 223.572 43.0721C223.829 42.539 224.204 42.0709 224.667 41.7028V41.2873L214.443 41.6588V50.2272H212.743C212.348 49.6879 211.821 49.2589 211.213 48.9812C210.605 48.7036 209.936 48.5865 209.27 48.6412C208.603 48.6959 207.962 48.9205 207.407 49.2936C206.853 49.6667 206.403 50.1758 206.101 50.7723C205.799 51.3688 205.655 52.0328 205.683 52.7007C205.711 53.3687 205.91 54.0183 206.26 54.5876C206.611 55.1569 207.101 55.6267 207.685 55.9523C208.269 56.2779 208.927 56.4483 209.595 56.4473H209.614Z" fill="#FAFAFA"/>
<path d="M205.655 35.0565C205.656 34.7902 205.63 34.5246 205.58 34.2632C205.382 33.3082 204.837 32.4605 204.051 31.8838C203.264 31.3072 202.292 31.0427 201.322 31.1413C200.352 31.24 199.452 31.6949 198.798 32.418C198.144 33.1412 197.781 34.0812 197.779 35.0565C197.781 35.3531 197.815 35.6486 197.88 35.9379C198.072 36.7816 198.536 37.5384 199.202 38.091V39.8349H189.041V50.0905H190.76C191.267 49.4496 191.962 48.9826 192.747 48.7545C193.532 48.5264 194.369 48.5486 195.141 48.8179C195.913 49.0872 196.582 49.5903 197.055 50.2573C197.527 50.9243 197.781 51.722 197.779 52.5396C197.803 53.1491 197.661 53.7537 197.37 54.2898C197.02 54.9121 196.515 55.4334 195.904 55.8029C195.293 56.1725 194.596 56.3777 193.882 56.3988C193.303 56.3992 192.731 56.272 192.206 56.026C191.682 55.7801 191.218 55.4216 190.848 54.976H189.041V65.112H199.209V66.8748V66.9315C198.424 67.5779 197.921 68.5031 197.805 69.5127C197.805 69.6386 197.805 69.7708 197.805 69.903C197.813 70.9068 198.205 71.8695 198.899 72.5945C199.593 73.3195 200.538 73.7523 201.541 73.8045C202.543 73.8567 203.528 73.5244 204.293 72.8755C205.059 72.2265 205.549 71.3097 205.662 70.3123C205.662 70.1989 205.662 70.0793 205.662 69.966C205.663 69.3739 205.53 68.7893 205.272 68.256C205.015 67.7228 204.64 67.2549 204.176 66.8874V65.1876V65.1057H214.425V55.0327H212.681C212.163 55.6603 211.462 56.1118 210.676 56.3252C209.89 56.5386 209.058 56.5034 208.293 56.2243C207.528 55.9453 206.868 55.4361 206.404 54.7669C205.94 54.0976 205.695 53.3011 205.703 52.4869C205.71 51.6727 205.969 50.8806 206.445 50.2197C206.92 49.5588 207.589 49.0615 208.359 48.796C209.129 48.5306 209.962 48.5101 210.744 48.7374C211.526 48.9647 212.218 49.4286 212.725 50.0654H214.425V41.6669L212.656 41.7299C213.271 41.2744 213.862 40.7869 214.425 40.2693V39.8349H204.17V38.1413C204.634 37.7726 205.009 37.3036 205.266 36.7693C205.524 36.235 205.657 35.6495 205.655 35.0565Z" fill="#00A5A5"/>
<path d="M214.426 65.0996V75.2671H216.151C216.52 74.8204 216.984 74.4607 217.508 74.2136C218.033 73.9666 218.606 73.8384 219.185 73.838C219.932 73.8414 220.662 74.0599 221.288 74.4676C220.832 71.3672 220.548 68.244 220.438 65.1122L214.426 65.0996Z" fill="#3A5164"/>
<path d="M223.184 95.2318C223.183 95.9442 223.375 96.6436 223.739 97.2555C224.104 97.8674 224.628 98.3691 225.255 98.707C224.86 96.5707 224.495 94.5603 224.159 92.6758C223.938 92.9225 223.748 93.1952 223.593 93.4879C223.325 94.0303 223.185 94.6269 223.184 95.2318Z" fill="#3A5164"/>
<path d="M216.804 80.8121C216.573 80.6415 216.362 80.4451 216.175 80.2266H214.424L214.387 90.52H223.774C223.106 86.6104 222.571 83.2485 222.143 80.3714C221.524 81.0688 220.674 81.5201 219.749 81.6426C218.824 81.7651 217.886 81.5508 217.106 81.0387L216.899 80.8876C216.865 80.8655 216.833 80.8402 216.804 80.8121Z" fill="#3A5164"/>
<path d="M227.118 56.3868C226.075 56.3868 225.074 56.8014 224.336 57.5393C223.598 58.2772 223.184 59.278 223.184 60.3216C223.186 60.5154 223.2 60.7089 223.228 60.9008C223.368 61.8615 223.859 62.7362 224.606 63.3561V64.8293L229.574 64.7223V63.4002C230.037 63.0318 230.411 62.5637 230.668 62.0307C230.926 61.4976 231.059 60.9134 231.059 60.3216C231.066 60.2168 231.066 60.1116 231.059 60.0068C230.982 59.0171 230.532 58.0936 229.801 57.422C229.069 56.7504 228.111 56.3806 227.118 56.3868Z" fill="#3A5164"/>
<path d="M172.598 94.3293C172.527 94.6242 172.491 94.9263 172.491 95.2296C172.495 96.2013 172.858 97.1372 173.51 97.8576C174.162 98.5781 175.057 99.0322 176.024 99.1329C176.99 99.2336 177.96 98.9738 178.746 98.4032C179.533 97.8327 180.081 96.9917 180.285 96.0417C180.338 95.7806 180.365 95.5149 180.367 95.2485C180.368 94.6685 180.24 94.0955 179.993 93.5708C179.746 93.046 179.386 92.5826 178.938 92.214V90.4701L189.068 90.5078V80.2459H187.355C186.845 80.8788 186.152 81.3385 185.37 81.562C184.589 81.7854 183.757 81.7618 182.99 81.4942C182.222 81.2266 181.556 80.7283 181.083 80.0674C180.609 79.4065 180.352 78.6154 180.346 77.8025C180.34 76.9897 180.585 76.1948 181.048 75.5268C181.511 74.8588 182.17 74.3504 182.933 74.0713C183.697 73.7921 184.528 73.7559 185.313 73.9675C186.098 74.1792 186.798 74.6283 187.317 75.2534H189.049V65.1048H178.944V63.3546C179.571 62.835 180.022 62.134 180.234 61.3479C180.447 60.5619 180.41 59.7293 180.13 58.9647C179.85 58.2001 179.34 57.541 178.67 57.078C178.001 56.615 177.204 56.3709 176.39 56.3791C175.575 56.3874 174.784 56.6476 174.123 57.1241C173.463 57.6006 172.967 58.2699 172.702 59.04C172.438 59.8101 172.418 60.6433 172.647 61.4249C172.875 62.2065 173.34 62.8982 173.977 63.4049V64.1101L177.383 64.0219C177.383 64.0219 177.679 73.711 172.309 90.4638H173.977V92.1636C173.286 92.7091 172.8 93.4724 172.598 94.3293Z" fill="#FAFAFA"/>
<path d="M216.169 75.2667H214.425V65.1055H204.175V66.8242C204.64 67.1916 205.014 67.6596 205.272 68.1928C205.529 68.726 205.662 69.3107 205.661 69.9028C205.661 70.0413 205.661 70.1735 205.661 70.312C205.548 71.3094 205.059 72.2262 204.293 72.8752C203.527 73.5242 202.542 73.8565 201.54 73.8042C200.538 73.752 199.593 73.3193 198.899 72.5942C198.204 71.8692 197.813 70.9066 197.804 69.9028C197.804 69.7706 197.804 69.6384 197.804 69.5124C197.908 68.4829 198.412 67.5355 199.208 66.8746V65.1118H189.072V75.273H187.353C186.834 74.6452 186.133 74.1937 185.347 73.9807C184.561 73.7676 183.728 73.8034 182.963 74.0832C182.198 74.3629 181.538 74.8729 181.075 75.5429C180.611 76.2129 180.367 77.01 180.375 77.8246C180.383 78.6392 180.644 79.4312 181.121 80.0916C181.598 80.7521 182.267 81.2485 183.038 81.5127C183.809 81.7769 184.642 81.7957 185.424 81.5668C186.206 81.3378 186.897 80.8722 187.404 80.234H189.097V90.5211L199.227 90.5526V88.8087C198.78 88.4392 198.42 87.9756 198.173 87.4511C197.926 86.9265 197.798 86.354 197.798 85.7742C197.801 85.1126 197.972 84.4626 198.295 83.8855C198.705 83.1071 199.364 82.4886 200.167 82.1286C200.969 81.7687 201.869 81.6881 202.723 81.8998C203.577 82.1114 204.335 82.6031 204.877 83.2963C205.419 83.9894 205.713 84.8441 205.711 85.7238C205.713 86.3481 205.564 86.9635 205.277 87.5181C204.996 88.0296 204.627 88.4878 204.188 88.8717V90.5211H214.412L214.45 80.2277H216.15L216.225 80.3158C216.414 80.5306 216.625 80.7248 216.855 80.895C216.886 80.9216 216.92 80.9449 216.956 80.9643L217.163 81.1154C217.951 81.6151 218.891 81.8174 219.814 81.6858C220.737 81.5542 221.583 81.0975 222.2 80.3977C221.86 78.1186 221.57 76.1544 221.369 74.4545C220.743 74.0469 220.013 73.8283 219.266 73.825C218.675 73.8175 218.089 73.9432 217.553 74.1927C217.017 74.4423 216.544 74.8094 216.169 75.2667Z" fill="#09253D"/>
<path d="M239.798 50.1671H241.498C241.867 49.7216 242.33 49.3631 242.853 49.1172C243.377 48.8712 243.948 48.7439 244.526 48.7443C245.544 48.7849 246.506 49.2176 247.211 49.9517C247.916 50.6857 248.31 51.6642 248.31 52.6822C248.31 53.7002 247.916 54.6787 247.211 55.4127C246.506 56.1468 245.544 56.5795 244.526 56.6202C243.949 56.62 243.379 56.4925 242.856 56.2465C242.334 56.0006 241.872 55.6423 241.505 55.1973L241.448 55.1344H239.748V64.5023L261.959 64.0239V56.2235C261.442 56.4691 260.876 56.596 260.303 56.595C259.713 56.5971 259.129 56.4664 258.595 56.2126C258.062 55.9587 257.592 55.5881 257.221 55.1282C256.85 54.6683 256.588 54.1309 256.452 53.5558C256.317 52.9806 256.313 52.3824 256.44 51.8055C256.567 51.2285 256.823 50.6875 257.187 50.2225C257.552 49.7575 258.016 49.3804 258.546 49.1191C259.076 48.8579 259.658 48.7191 260.249 48.713C260.839 48.707 261.424 48.8338 261.959 49.0842V40.0059H259.567L239.748 40.7362V50.1797L239.798 50.1671Z" fill="#09253D"/>
<path d="M189.073 90.5215H178.943V92.2654C179.391 92.6341 179.751 93.0974 179.998 93.6222C180.245 94.1469 180.373 94.7199 180.372 95.2999C180.37 95.5663 180.343 95.832 180.29 96.0932C180.099 97.0535 179.557 97.9082 178.77 98.4903C177.983 99.0724 177.007 99.34 176.033 99.2408C175.058 99.1417 174.156 98.6829 173.502 97.9542C172.848 97.2254 172.49 96.279 172.496 95.2999C172.497 94.9904 172.532 94.682 172.603 94.3807C172.806 93.5261 173.292 92.7652 173.982 92.2213V90.5215H172.307C171.155 94.11 169.745 98.0196 168.014 102.238C166.717 105.386 165.275 108.647 163.758 111.92V115.792V115.836H173.982V114.137C173.344 113.628 172.879 112.934 172.652 112.15C172.426 111.366 172.449 110.531 172.718 109.761C172.987 108.99 173.489 108.323 174.154 107.85C174.819 107.378 175.615 107.123 176.431 107.123C177.481 107.123 178.488 107.539 179.231 108.28C179.975 109.022 180.394 110.027 180.397 111.077C180.398 111.655 180.27 112.227 180.024 112.75C179.778 113.273 179.42 113.736 178.974 114.105V115.836H189.048V105.763H190.81C191.189 106.213 191.661 106.576 192.194 106.826C192.726 107.076 193.307 107.207 193.895 107.211C194.267 107.208 194.635 107.142 194.984 107.016C196.288 104.611 196.753 104.221 196.753 104.221C196.753 104.221 196.867 104.655 197.087 105.48C197.176 105.363 197.256 105.238 197.326 105.109C197.786 104.241 197.905 103.234 197.661 102.283C197.416 101.333 196.824 100.508 196.003 99.9713C195.181 99.4343 194.189 99.2238 193.22 99.3811C192.251 99.5383 191.376 100.052 190.766 100.821H189.048V90.5404" fill="#3A5164"/>
<path d="M163.75 111.871C163.154 113.16 162.543 114.45 161.918 115.743H163.75V111.871Z" fill="#09253D"/>
<path d="M229.623 115.074V115.792H229.869L229.623 115.074Z" fill="#E0E0E0"/>
<path d="M227.117 107.067H227.155C226.456 104.498 225.852 101.898 225.367 99.2851C225.336 99.1151 225.248 98.7877 225.216 98.6177C224.601 98.3083 224.089 97.8273 223.741 97.2329C223.394 96.6385 223.226 95.9562 223.258 95.2684C223.22 94.6541 223.335 94.0399 223.592 93.4805C223.747 93.1877 223.937 92.915 224.158 92.6683C224.032 91.9317 223.907 91.2203 223.781 90.5215H214.387V100.746H212.675C212.169 100.107 211.477 99.6419 210.695 99.4129C209.914 99.1839 209.08 99.2028 208.31 99.467C207.539 99.7311 206.869 100.228 206.392 100.888C205.915 101.549 205.655 102.34 205.647 103.155C205.638 103.97 205.883 104.767 206.346 105.437C206.809 106.107 207.469 106.617 208.234 106.896C208.999 107.176 209.832 107.212 210.618 106.999C211.405 106.786 212.106 106.334 212.625 105.707H214.425V115.78H224.637V114.03C224.19 113.675 223.83 113.224 223.582 112.711C223.335 112.197 223.207 111.634 223.208 111.064C223.198 110.922 223.198 110.779 223.208 110.636C223.3 109.662 223.751 108.757 224.474 108.097C225.197 107.437 226.139 107.07 227.117 107.067Z" fill="#E0E0E0"/>
<path d="M205.613 120.992C205.613 120.879 205.613 120.766 205.613 120.646C205.614 120.062 205.484 119.484 205.233 118.956C204.983 118.428 204.618 117.962 204.165 117.593V115.893V115.811H214.383V105.738H212.639C212.271 106.183 211.809 106.542 211.287 106.789C210.765 107.036 210.195 107.165 209.617 107.167C208.572 107.167 207.569 106.752 206.83 106.013C206.091 105.274 205.676 104.271 205.676 103.226C205.676 102.181 206.091 101.178 206.83 100.439C207.569 99.7001 208.572 99.2849 209.617 99.2849C210.208 99.2851 210.791 99.4188 211.323 99.6761C211.855 99.9334 212.322 100.308 212.689 100.771H214.383V90.5213H204.165V88.8214L204.203 88.79C204.662 88.4333 205.04 87.9825 205.311 87.4679C205.599 86.9407 205.753 86.3502 205.758 85.7491C205.754 84.858 205.455 83.9932 204.909 83.2895C204.362 82.5859 203.597 82.0831 202.735 81.8595C201.872 81.636 200.96 81.7042 200.14 82.0536C199.32 82.4031 198.639 83.014 198.203 83.7912C197.897 84.3951 197.748 85.0662 197.769 85.7429C197.769 86.3226 197.897 86.8952 198.144 87.4197C198.391 87.9443 198.751 88.4078 199.198 88.7774V90.5213H189.074V100.802H190.793C191.403 100.033 192.278 99.5192 193.246 99.362C194.215 99.2047 195.208 99.4152 196.029 99.9522C196.851 100.489 197.442 101.314 197.687 102.264C197.932 103.215 197.813 104.222 197.353 105.089C197.284 105.222 197.202 105.354 197.12 105.48C197.876 108.231 199.915 115.301 203.202 124.272C203.865 123.997 204.44 123.547 204.865 122.968C205.29 122.39 205.548 121.707 205.613 120.992Z" fill="#00A5A5"/>
<path d="M189.041 115.785H190.753C192.737 111.415 194.096 108.683 195.016 106.971C194.635 107.092 194.238 107.154 193.838 107.153C193.259 107.154 192.687 107.026 192.162 106.781C191.638 106.535 191.174 106.176 190.804 105.73H189.041V115.785Z" fill="#00A5A5"/>
<path d="M239.758 141.131V138.254C238.745 136.321 237.693 134.237 236.642 132.04C236.131 132.276 235.574 132.398 235.011 132.399C234.104 132.404 233.223 132.095 232.516 131.525C231.81 130.955 231.322 130.159 231.135 129.271C230.948 128.383 231.073 127.458 231.489 126.651C231.905 125.845 232.586 125.206 233.419 124.844C232.159 121.936 230.988 118.901 229.893 115.772H229.591V114.891C228.709 112.329 227.897 109.71 227.18 107.053H227.142C226.16 107.053 225.214 107.42 224.488 108.081C223.763 108.743 223.311 109.651 223.22 110.629C223.213 110.75 223.213 110.872 223.22 110.994C223.218 111.572 223.345 112.144 223.591 112.668C223.837 113.191 224.196 113.654 224.642 114.022V115.772H214.387V125.959H216.168C216.537 125.513 216.999 125.154 217.523 124.908C218.046 124.662 218.618 124.535 219.197 124.536C219.992 124.575 220.757 124.851 221.394 125.329C221.922 125.663 222.354 126.129 222.646 126.681C222.939 127.233 223.082 127.852 223.062 128.477C223.073 128.984 222.982 129.487 222.794 129.958C222.607 130.429 222.326 130.857 221.97 131.217C221.613 131.577 221.188 131.862 220.719 132.054C220.25 132.246 219.747 132.342 219.241 132.336C218.496 132.373 217.756 132.192 217.113 131.814C217.039 131.769 216.968 131.721 216.899 131.669L216.798 131.6C216.55 131.381 216.321 131.143 216.112 130.888H214.387L214.437 141.138H224.598V142.812C224.123 143.215 223.74 143.715 223.475 144.279C223.21 144.843 223.069 145.457 223.062 146.08C223.066 146.333 223.09 146.585 223.131 146.835C223.357 147.714 223.873 148.49 224.595 149.039C225.317 149.587 226.204 149.876 227.11 149.857C227.689 149.858 228.261 149.731 228.785 149.485C229.309 149.239 229.773 148.881 230.142 148.435C230.511 147.989 230.778 147.467 230.922 146.907C231.066 146.346 231.084 145.761 230.976 145.192C230.777 144.317 230.315 143.525 229.654 142.919L229.559 142.837V141.138L239.758 141.131Z" fill="#3A5164"/>
<path d="M189.071 115.786H178.935V114.042C179.431 113.632 179.819 113.106 180.065 112.511C180.311 111.916 180.407 111.27 180.345 110.629C180.283 109.988 180.064 109.373 179.709 108.836C179.353 108.299 178.871 107.858 178.306 107.551C177.706 107.225 177.032 107.06 176.349 107.073C175.666 107.086 174.999 107.276 174.412 107.624C173.825 107.973 173.338 108.468 173 109.061C172.662 109.654 172.483 110.324 172.482 111.007C172.481 111.599 172.614 112.184 172.871 112.717C173.129 113.25 173.504 113.718 173.968 114.086V115.786H163.75V125.903H165.494C166.01 125.277 166.708 124.826 167.49 124.612C168.273 124.398 169.103 124.431 169.866 124.707C170.629 124.983 171.288 125.488 171.753 126.152C172.218 126.817 172.466 127.61 172.463 128.421V128.465C172.462 129.281 172.208 130.077 171.735 130.743C171.262 131.408 170.594 131.91 169.823 132.18C169.053 132.449 168.217 132.473 167.433 132.247C166.648 132.022 165.953 131.558 165.444 130.92H163.75V141.094V141.145H163.781V141.101H174.006V142.775L173.974 142.807C173.743 142.98 173.532 143.178 173.345 143.398C172.732 144.173 172.433 145.148 172.507 146.133C172.58 147.117 173.021 148.037 173.741 148.712C177.021 143.581 180.396 137.896 183.273 132.236C182.712 132.09 182.191 131.822 181.745 131.451C181.3 131.081 180.941 130.617 180.695 130.092C180.449 129.567 180.322 128.995 180.322 128.415C180.322 127.836 180.45 127.264 180.696 126.739C180.943 126.215 181.301 125.751 181.747 125.38C182.193 125.01 182.715 124.742 183.276 124.597C183.836 124.451 184.422 124.43 184.992 124.536C185.562 124.642 186.101 124.872 186.572 125.21C187.472 123.108 188.291 121.219 189.046 119.544L189.071 115.786Z" fill="#FAFAFA"/>
<path d="M189.106 115.787H189.074V119.565C189.704 118.192 190.233 116.946 190.755 115.787H189.106Z" fill="#09253D"/>
<path d="M216.799 131.583L216.899 131.652C216.968 131.704 217.04 131.752 217.114 131.797C217.734 132.202 218.457 132.421 219.197 132.427C219.862 132.428 220.515 132.262 221.098 131.943C221.681 131.624 222.173 131.163 222.53 130.603C222.887 130.042 223.096 129.401 223.139 128.738C223.182 128.075 223.056 127.413 222.774 126.811C222.492 126.21 222.062 125.69 221.525 125.299C220.988 124.908 220.361 124.659 219.702 124.576C219.043 124.492 218.374 124.576 217.756 124.821C217.138 125.065 216.593 125.462 216.169 125.974H214.425V115.787H204.17V117.506C204.633 117.874 205.008 118.342 205.265 118.875C205.522 119.408 205.656 119.992 205.655 120.584C205.655 120.723 205.655 120.861 205.655 120.994C205.58 121.709 205.31 122.39 204.875 122.963C204.44 123.535 203.856 123.978 203.188 124.242C205.076 129.398 207.374 135.184 210.075 141.14H214.425V130.916H216.125L216.201 130.997C216.381 131.211 216.581 131.407 216.799 131.583Z" fill="#09253D"/>
<path d="M183.299 132.269C184.47 129.965 185.565 127.661 186.529 125.4L186.585 125.268C185.919 124.784 185.117 124.524 184.294 124.525C183.336 124.524 182.41 124.871 181.69 125.504C180.97 126.136 180.506 127.009 180.384 127.959C180.262 128.909 180.49 129.871 181.027 130.665C181.564 131.458 182.372 132.029 183.299 132.269Z" fill="#09253D"/>
<path d="M153.622 139.401V141.089H163.751V130.864H165.445C165.951 131.504 166.644 131.97 167.426 132.199C168.209 132.427 169.043 132.407 169.814 132.141C170.585 131.875 171.254 131.376 171.729 130.713C172.204 130.05 172.461 129.256 172.465 128.441C172.467 127.629 172.219 126.837 171.754 126.172C171.289 125.507 170.63 125.002 169.867 124.727C169.104 124.451 168.274 124.418 167.492 124.632C166.709 124.846 166.012 125.297 165.495 125.922H163.751V115.742H161.919C159.055 121.692 156.008 127.591 153.105 132.955C153.61 133.258 154.041 133.671 154.365 134.163C154.806 134.813 155.041 135.581 155.038 136.367C155.039 136.946 154.913 137.518 154.668 138.042C154.423 138.566 154.066 139.031 153.622 139.401Z" fill="#00A5A5"/>
<path d="M239.791 141.131H241.302C240.803 140.212 240.289 139.253 239.76 138.254V141.131H239.791Z" fill="#00A5A5"/>
<path d="M231.045 128.46C231.045 129.505 231.46 130.508 232.199 131.247C232.938 131.986 233.941 132.401 234.986 132.401C235.552 132.401 236.111 132.277 236.623 132.036C235.534 129.763 234.445 127.365 233.381 124.865C232.686 125.175 232.096 125.679 231.681 126.317C231.267 126.955 231.046 127.699 231.045 128.46Z" fill="#00A5A5"/>
<path d="M163.757 141.09V151.283H161.988C161.64 150.861 161.209 150.517 160.721 150.271C160.232 150.026 159.698 149.885 159.153 149.858C158.607 149.831 158.062 149.918 157.552 150.113C157.041 150.308 156.578 150.608 156.19 150.993C155.464 151.696 155.036 152.651 154.995 153.661C154.955 154.671 155.304 155.657 155.971 156.416C156.638 157.176 157.571 157.649 158.578 157.739C159.584 157.829 160.587 157.528 161.377 156.898H161.409L161.528 156.798C161.714 156.637 161.885 156.46 162.038 156.269H163.757V163.395C166.351 159.832 169.977 154.663 173.742 148.771C173.33 148.389 173.004 147.923 172.788 147.404C172.572 146.885 172.471 146.326 172.49 145.764C172.51 145.202 172.651 144.652 172.903 144.149C173.154 143.647 173.512 143.204 173.95 142.853L173.981 142.821V141.121L163.757 141.09Z" fill="#3A5164"/>
<path d="M163.784 156.241H162.065C161.912 156.432 161.741 156.609 161.555 156.77L161.436 156.87H161.404C160.792 157.345 160.053 157.629 159.281 157.687C158.508 157.744 157.736 157.573 157.06 157.193C156.384 156.814 155.835 156.244 155.482 155.555C155.128 154.866 154.986 154.087 155.072 153.317C155.158 152.547 155.47 151.82 155.967 151.226C156.465 150.632 157.126 150.198 157.869 149.978C158.612 149.758 159.403 149.761 160.144 149.988C160.885 150.216 161.542 150.656 162.034 151.255H163.803V141.062L153.598 141.112L153.667 141.062V139.375C154.112 139.005 154.471 138.541 154.717 138.016C154.963 137.492 155.09 136.919 155.09 136.34C155.092 135.555 154.857 134.787 154.416 134.137C154.088 133.655 153.658 133.25 153.157 132.953C151.602 135.849 150.097 138.588 148.7 141.093C146.811 144.518 145.073 147.502 143.707 149.857C144.667 149.966 145.554 150.425 146.198 151.146C146.842 151.867 147.197 152.8 147.197 153.767C147.197 154.733 146.842 155.666 146.198 156.387C145.554 157.108 144.667 157.567 143.707 157.676L156.815 166.314H161.612C162.21 165.514 162.959 164.507 163.822 163.317V156.241H163.784Z" fill="#09253D"/>
<path d="M248.285 152.792C248.04 152.42 247.58 151.715 246.95 150.72C246.548 150.396 246.086 150.155 245.59 150.011C245.094 149.867 244.574 149.823 244.061 149.881C243.548 149.94 243.052 150.1 242.601 150.352C242.15 150.604 241.754 150.943 241.435 151.35H239.824V151.287L239.761 141.145H229.574V142.889C230.019 143.26 230.376 143.724 230.622 144.248C230.868 144.773 230.996 145.344 230.997 145.923C230.998 146.912 230.625 147.866 229.955 148.593C229.284 149.32 228.364 149.768 227.378 149.847C226.392 149.927 225.412 149.632 224.634 149.021C223.855 148.411 223.336 147.529 223.178 146.553C223.143 146.334 223.124 146.113 223.121 145.892C223.12 145.299 223.253 144.713 223.51 144.179C223.768 143.645 224.143 143.176 224.607 142.807V141.113H214.383V150.053C217.244 155.642 220.465 161.038 224.028 166.208H224.544V164.407C224.154 164.128 223.827 163.769 223.586 163.355C223.344 162.94 223.192 162.479 223.14 162.002C223.113 161.813 223.098 161.621 223.096 161.429C223.111 160.422 223.511 159.46 224.214 158.738C224.917 158.017 225.87 157.592 226.876 157.551C227.882 157.51 228.866 157.856 229.625 158.517C230.385 159.179 230.862 160.106 230.959 161.108C230.968 161.292 230.957 161.475 230.928 161.656C230.886 162.806 230.401 163.896 229.574 164.697V165.792L239.817 158.867V156.424H241.498C241.498 156.424 241.461 156.456 241.498 156.481C241.742 156.813 242.035 157.106 242.367 157.35L248.392 153.157C248.363 153.033 248.327 152.912 248.285 152.792Z" fill="#E0E0E0"/>
<path d="M214.423 150.16V141.145H210.061C211.414 144.129 212.868 147.182 214.423 150.16Z" fill="#00A5A5"/>
<path d="M229.598 164.698C230.05 164.285 230.408 163.78 230.646 163.215C230.884 162.651 230.997 162.042 230.977 161.43C230.977 161.323 230.977 161.216 230.977 161.109C230.879 160.107 230.402 159.18 229.643 158.518C228.883 157.857 227.899 157.511 226.893 157.552C225.887 157.593 224.935 158.018 224.232 158.739C223.529 159.46 223.129 160.423 223.113 161.43C223.114 161.622 223.131 161.814 223.164 162.003C223.3 162.964 223.789 163.839 224.536 164.458V166.209H224.02C224.505 166.901 225.197 167.688 225.695 168.368L229.598 165.642V164.698Z" fill="#3A5164"/>
<path d="M159.974 168.474C159.974 168.474 160.565 167.713 161.573 166.365H156.775L159.974 168.474Z" fill="#00A5A5"/>
<path d="M239.791 156.441V159.092L242.473 157.323C242.123 157.099 241.809 156.823 241.541 156.504C241.526 156.482 241.509 156.461 241.491 156.441H239.791Z" fill="#09253D"/>
<path d="M248.581 153.296C248.581 153.296 248.505 153.196 248.373 152.994C248.41 153.12 248.437 153.248 248.455 153.378L248.581 153.296Z" fill="#09253D"/>
<path d="M241.302 141.133H239.76L239.791 151.477H241.535C241.905 151.031 242.369 150.672 242.894 150.427C243.418 150.181 243.99 150.053 244.57 150.054C245.473 150.06 246.345 150.381 247.038 150.96C245.741 148.864 243.619 145.364 241.302 141.133Z" fill="#09253D"/>
<path d="M262.002 63.9536L220.494 64.9231L220.57 64.8476C220.62 67.6932 220.979 70.6774 221.351 73.7937C221.722 76.9101 222.226 80.1524 222.761 83.5206C223.296 86.8887 223.907 90.3954 224.549 94.0217C224.883 95.8286 225.21 97.6732 225.575 99.5431C225.776 100.475 225.978 101.432 226.205 102.357C226.431 103.283 226.589 104.246 226.866 105.209C228.998 113.296 231.833 121.181 235.34 128.774C239.195 137.222 243.673 145.372 248.737 153.157L248.806 153.264L248.699 153.333L225.72 168.519L225.613 168.588L225.537 168.487C218.991 159.209 213.439 149.268 208.973 138.828C204.028 127.589 199.913 116.004 196.659 104.164L196.898 104.246C196.46 104.808 196.07 105.406 195.734 106.034C195.375 106.663 195.028 107.293 194.688 107.967C194.015 109.276 193.366 110.605 192.73 111.946C191.471 114.621 190.212 117.354 189.016 120.13C187.82 122.906 186.63 125.695 185.346 128.478C184.716 129.876 183.992 131.236 183.318 132.627C182.645 134.018 181.87 135.353 181.146 136.725C178.15 142.165 174.851 147.516 171.325 152.817C167.8 158.118 164.06 163.35 160.138 168.506L160.043 168.626L159.917 168.537L140.281 155.593L140.149 155.512L140.231 155.373C146.218 145.357 152.256 134.522 157.959 123.36C160.402 118.575 162.738 113.759 164.916 108.88C167.094 104 169.147 99.1527 170.872 94.1917C172.617 89.2808 174.072 84.2712 175.228 79.1891C176.324 74.1526 177.212 69.0279 177.256 63.941L177.419 64.0984L136.158 65.1687H136.057L136.013 65.0868C135.23 63.5037 134.715 61.8018 134.489 60.0503C134.216 58.3266 134.047 56.5879 133.985 54.8437C133.851 51.4053 133.918 47.9619 134.187 44.5314V44.3929H134.325L186.693 42.5042L186.617 42.7686C181.811 39.7439 178.284 35.0578 176.708 29.602C175.131 24.1461 175.615 18.3011 178.068 13.1789C179.225 10.7623 180.785 8.56077 182.683 6.66921C184.551 4.82769 186.72 3.32008 189.098 2.21187C191.415 1.11714 193.898 0.413023 196.445 0.127996C198.938 -0.125291 201.455 -0.00219732 203.912 0.493146C206.295 1.02038 208.581 1.91904 210.686 3.15622C211.196 3.4836 211.731 3.75431 212.209 4.11946L213.638 5.18972C214.534 5.94895 215.375 6.76936 216.157 7.64504C219.234 11.0544 221.222 15.3052 221.867 19.8524C222.493 24.1264 221.902 28.4905 220.161 32.4437C218.516 36.1409 215.944 39.3504 212.694 41.7613L212.631 41.585L261.977 39.8097H262.033V39.8663C261.996 55.8259 261.983 63.5696 261.977 63.9725C261.977 63.5696 261.977 55.8259 261.92 39.8663L261.983 39.9293L212.637 41.7802H212.323L212.574 41.5913C215.792 39.1962 218.34 36.0135 219.972 32.3493C221.691 28.4254 222.272 24.0969 221.647 19.8587C221.005 15.3565 219.032 11.1491 215.98 7.77725C215.199 6.91108 214.358 6.10112 213.462 5.35341L212.071 4.27055C211.599 3.9117 211.07 3.64098 210.566 3.3199C208.484 2.09609 206.221 1.21001 203.861 0.694608C201.435 0.198449 198.948 0.0668903 196.483 0.304274C193.973 0.599447 191.527 1.30114 189.243 2.38185C186.893 3.47742 184.749 4.96804 182.903 6.78882C179.08 10.5937 176.708 15.6159 176.198 20.9856C175.806 25.1995 176.59 29.4396 178.464 33.2343C180.338 37.0289 183.228 40.2292 186.813 42.479L187.203 42.7309H186.737L134.376 44.6636L134.47 44.5629C134.201 47.9808 134.134 51.4116 134.269 54.8374C134.336 56.5687 134.505 58.2945 134.772 60.0062C134.991 61.7312 135.495 63.4079 136.265 64.9672L136.12 64.8853L177.388 63.8025H177.558V63.9599C177.406 69.1255 176.726 74.2622 175.531 79.2899C174.368 84.3901 172.909 89.4184 171.161 94.3491C169.436 99.3164 167.384 104.208 165.199 109.056C163.015 113.904 160.679 118.732 158.23 123.536C152.526 134.717 146.482 145.571 140.489 155.575L140.439 155.354L160.081 168.304L159.861 168.336C163.802 163.199 167.504 157.948 171.017 152.66C174.53 147.371 177.841 142.026 180.832 136.593C181.556 135.227 182.299 133.867 183.004 132.501C183.709 131.135 184.389 129.756 185.025 128.365C186.284 125.595 187.474 122.78 188.695 120.023C189.916 117.265 191.138 114.527 192.416 111.839C193.045 110.491 193.675 109.163 194.38 107.853C194.72 107.224 195.066 106.55 195.431 105.908C195.787 105.238 196.209 104.605 196.69 104.019L196.86 103.83L196.936 104.101C200.182 115.927 204.287 127.5 209.219 138.727C213.673 149.141 219.207 159.059 225.732 168.317L225.55 168.286L248.542 153.119L248.51 153.296C243.443 145.494 238.963 137.327 235.107 128.862C231.603 121.254 228.772 113.355 226.645 105.253C226.368 104.309 226.198 103.365 225.984 102.395C225.77 101.425 225.581 100.506 225.355 99.5745C224.99 97.6858 224.668 95.8601 224.335 94.0469C223.705 90.4206 223.076 86.9202 222.559 83.5457C222.043 80.1713 221.552 76.9227 221.162 73.8063C220.754 70.8329 220.498 67.8407 220.394 64.8413V64.7657H220.469L262.002 63.9536Z" fill="#09253D"/>
<g opacity="0.3">
<path d="M198.981 0.0506973C193.984 0.056166 189.124 1.68533 185.132 4.6928C181.141 7.70028 178.235 11.9232 176.852 16.7255C175.469 21.5278 175.684 26.6495 177.465 31.3191C179.245 35.9886 182.495 39.9533 186.724 42.6158L134.344 44.5611C134.344 44.5611 133.028 59.4756 136.151 65.0536L177.419 63.977C177.419 63.977 177.866 78.2619 168.044 102.141C158.223 126.021 140.343 155.485 140.343 155.485L159.986 168.429C159.986 168.429 178.061 145.216 186.541 125.354C195.021 105.491 196.797 104.125 196.797 104.125C196.797 104.125 206.668 142.528 225.637 168.403L248.61 153.225C248.61 153.225 230.535 126.669 225.404 99.2139C225.404 99.2139 229.774 131.114 246.18 152.538L225.26 164.607C225.26 164.607 200.197 117.484 198.056 96.7712C198.056 96.7712 166.829 164.135 159.098 164.607L143.642 154.27C143.642 154.27 165.904 128.615 175.177 95.8458C184.451 63.0767 182.499 59.0412 182.499 59.0412L137.441 61.2069C137.441 61.2069 136.453 50.7498 136.182 47.602L191.313 44.2023C191.313 44.2023 177.614 35.2247 178.225 22.564C178.835 9.90343 198.981 0.0506973 198.981 0.0506973Z" fill="#09253D"/>
</g>
</svg>
