<svg width="241" height="87" viewBox="0 0 241 87" fill="none" xmlns="http://www.w3.org/2000/svg">
<path d="M81.0805 43.08L73.2805 71H66.6805L61.4405 51.12L55.9605 71L49.4005 71.04L41.8805 43.08H47.8805L52.8005 64.76L58.4805 43.08H64.7205L70.0805 64.64L75.0405 43.08H81.0805ZM97.2171 48.52C98.8971 48.52 100.39 48.8933 101.697 49.64C103.004 50.36 104.017 51.44 104.737 52.88C105.484 54.2933 105.857 56 105.857 58V71H100.257V58.76C100.257 57 99.8171 55.6533 98.9371 54.72C98.0571 53.76 96.8571 53.28 95.3371 53.28C93.7904 53.28 92.5637 53.76 91.6571 54.72C90.7771 55.6533 90.3371 57 90.3371 58.76V71H84.7371V41.4H90.3371V51.6C91.0571 50.64 92.0171 49.8933 93.2171 49.36C94.4171 48.8 95.7504 48.52 97.2171 48.52ZM132.382 48.84L118.662 81.48H112.702L117.502 70.44L108.622 48.84H114.902L120.622 64.32L126.422 48.84H132.382Z" fill="#09253D"/>
<path d="M162.052 65.68H150.932L149.092 71H143.212L153.252 43.04H159.772L169.812 71H163.892L162.052 65.68ZM160.532 61.2L156.492 49.52L152.452 61.2H160.532ZM204.005 43.08V71H198.405V52.84L190.925 71H186.685L179.165 52.84V71H173.565V43.08H179.925L188.805 63.84L197.685 43.08H204.005ZM215.142 43.08V71H209.542V43.08H215.142ZM239.675 43.08V47.6H232.235V71H226.635V47.6H219.195V43.08H239.675Z" fill="#00A5A5"/>
<path d="M15.1308 53.5467C14.1521 52.6218 13.6865 51.2486 13.8527 49.777L16.8646 23.1051C17.1554 20.5301 19.2848 18.2723 21.8392 17.8305L48.3761 13.2414C49.84 12.9882 51.2422 13.3748 52.2236 14.3022L62.0205 23.5598C64.9496 26.3276 62.6931 31.8486 58.324 32.6041L40.6991 35.6521C38.1447 36.0938 36.0153 38.3516 35.7245 40.9267L33.7317 58.5734C33.2338 62.9832 27.8423 65.5584 24.9097 62.7871L15.1308 53.5467Z" fill="#09253D"/>
</svg>
