<svg width="180" height="180" viewBox="0 0 180 180" fill="none" xmlns="http://www.w3.org/2000/svg">
<g filter="url(#filter0_d_3036_11073)">
<circle cx="90" cy="74" r="50" fill="#00A5A5"/>
</g>
<path d="M94.8296 98.1762H85.1641C76.0519 98.1762 71.4946 98.1762 68.665 95.0739C65.833 91.9742 65.833 86.9818 65.833 76.9998V71.7057C65.833 61.7236 65.833 56.7312 68.665 53.6315C71.4946 50.5292 76.0519 50.5292 85.1641 50.5292H94.8296C103.942 50.5292 108.499 50.5292 111.329 53.6315C114.161 56.7312 114.161 61.7236 114.161 71.7057V76.9998C114.161 86.9818 114.161 91.9742 111.329 95.0739C109.751 96.8051 107.636 97.5701 104.495 97.9062M77.9149 50.5292V46.5586M102.079 50.5292V46.5586M112.953 63.7645H86.9764M65.833 63.7645H75.1965" stroke="white" stroke-width="1.5" stroke-linecap="round"/>
<path d="M104.496 84.9413C104.496 85.6434 104.241 86.3167 103.788 86.8131C103.335 87.3095 102.72 87.5884 102.079 87.5884C101.438 87.5884 100.824 87.3095 100.371 86.8131C99.9175 86.3167 99.6629 85.6434 99.6629 84.9413C99.6629 84.2393 99.9175 83.566 100.371 83.0696C100.824 82.5732 101.438 82.2943 102.079 82.2943C102.72 82.2943 103.335 82.5732 103.788 83.0696C104.241 83.566 104.496 84.2393 104.496 84.9413ZM104.496 74.3531C104.496 75.0552 104.241 75.7284 103.788 76.2249C103.335 76.7213 102.72 77.0002 102.079 77.0002C101.438 77.0002 100.824 76.7213 100.371 76.2249C99.9175 75.7284 99.6629 75.0552 99.6629 74.3531C99.6629 73.6511 99.9175 72.9778 100.371 72.4814C100.824 71.9849 101.438 71.7061 102.079 71.7061C102.72 71.7061 103.335 71.9849 103.788 72.4814C104.241 72.9778 104.496 73.6511 104.496 74.3531ZM92.4137 84.9413C92.4137 85.6434 92.1591 86.3167 91.706 86.8131C91.2528 87.3095 90.6382 87.5884 89.9973 87.5884C89.3565 87.5884 88.7419 87.3095 88.2887 86.8131C87.8355 86.3167 87.581 85.6434 87.581 84.9413C87.581 84.2393 87.8355 83.566 88.2887 83.0696C88.7419 82.5732 89.3565 82.2943 89.9973 82.2943C90.6382 82.2943 91.2528 82.5732 91.706 83.0696C92.1591 83.566 92.4137 84.2393 92.4137 84.9413ZM92.4137 74.3531C92.4137 75.0552 92.1591 75.7284 91.706 76.2249C91.2528 76.7213 90.6382 77.0002 89.9973 77.0002C89.3565 77.0002 88.7419 76.7213 88.2887 76.2249C87.8355 75.7284 87.581 75.0552 87.581 74.3531C87.581 73.6511 87.8355 72.9778 88.2887 72.4814C88.7419 71.9849 89.3565 71.7061 89.9973 71.7061C90.6382 71.7061 91.2528 71.9849 91.706 72.4814C92.1591 72.9778 92.4137 73.6511 92.4137 74.3531ZM80.3318 84.9413C80.3318 85.6434 80.0772 86.3167 79.6241 86.8131C79.1709 87.3095 78.5563 87.5884 77.9154 87.5884C77.2745 87.5884 76.6599 87.3095 76.2068 86.8131C75.7536 86.3167 75.499 85.6434 75.499 84.9413C75.499 84.2393 75.7536 83.566 76.2068 83.0696C76.6599 82.5732 77.2745 82.2943 77.9154 82.2943C78.5563 82.2943 79.1709 82.5732 79.6241 83.0696C80.0772 83.566 80.3318 84.2393 80.3318 84.9413ZM80.3318 74.3531C80.3318 75.0552 80.0772 75.7284 79.6241 76.2249C79.1709 76.7213 78.5563 77.0002 77.9154 77.0002C77.2745 77.0002 76.6599 76.7213 76.2068 76.2249C75.7536 75.7284 75.499 75.0552 75.499 74.3531C75.499 73.6511 75.7536 72.9778 76.2068 72.4814C76.6599 71.9849 77.2745 71.7061 77.9154 71.7061C78.5563 71.7061 79.1709 71.9849 79.6241 72.4814C80.0772 72.9778 80.3318 73.6511 80.3318 74.3531Z" fill="white"/>
<defs>
<filter id="filter0_d_3036_11073" x="0" y="0" width="180" height="180" filterUnits="userSpaceOnUse" color-interpolation-filters="sRGB">
<feFlood flood-opacity="0" result="BackgroundImageFix"/>
<feColorMatrix in="SourceAlpha" type="matrix" values="0 0 0 0 0 0 0 0 0 0 0 0 0 0 0 0 0 0 127 0" result="hardAlpha"/>
<feOffset dy="16"/>
<feGaussianBlur stdDeviation="20"/>
<feColorMatrix type="matrix" values="0 0 0 0 0.146118 0 0 0 0 0.172389 0 0 0 0 0.441667 0 0 0 0.1 0"/>
<feBlend mode="normal" in2="BackgroundImageFix" result="effect1_dropShadow_3036_11073"/>
<feBlend mode="normal" in="SourceGraphic" in2="effect1_dropShadow_3036_11073" result="shape"/>
</filter>
</defs>
</svg>
