<svg width="17" height="16" viewBox="0 0 17 16" fill="none" xmlns="http://www.w3.org/2000/svg">
<path d="M13.2514 15.3747V15.3747C13.5347 15.3777 13.815 15.3164 14.0711 15.1952L14.0739 15.1939L14.0739 15.1939C14.587 14.9551 14.9029 14.6079 15.2528 14.0846C15.4452 13.7929 15.6104 13.484 15.7463 13.1621L15.7469 13.1606C15.7616 13.126 15.7759 13.0939 15.7873 13.0684C15.7892 13.0641 15.791 13.0601 15.7928 13.0562L16.2495 13.2598M13.2514 15.3747L11.0239 10.5181C11.0686 10.4839 11.1103 10.4521 11.1539 10.42L11.156 10.4185C11.5397 10.133 11.7131 10.0413 11.9214 10.0413H11.9235C12.1221 10.0413 12.2998 10.1192 12.8184 10.3807C13.1164 10.5311 13.6205 10.8171 14.1281 11.1446C14.6428 11.4766 15.1239 11.8277 15.4004 12.1067L15.4006 12.1069C15.7174 12.4262 15.811 12.5544 15.852 12.6629L15.852 12.663C15.9006 12.7916 15.8696 12.8823 15.7921 13.0576L16.2495 13.2598M13.2514 15.3747H13.2461C12.6796 15.3747 11.8026 15.1692 10.3967 14.3838C8.67107 13.4161 7.35281 12.5333 5.64681 10.8319C3.99685 9.18294 3.20628 8.13177 2.08269 6.08719L2.08263 6.08709C0.833233 3.81483 1.11406 2.75503 1.26983 2.42197L1.27013 2.42134C1.50815 1.91055 1.85547 1.59608 2.38122 1.24484C2.6735 1.05351 2.98274 0.889457 3.30506 0.75476L3.30507 0.754785L3.30978 0.752758C3.34752 0.736533 3.38232 0.721188 3.41288 0.707563L3.41288 0.707567L3.41468 0.706759C3.58379 0.630574 3.67632 0.599817 3.8038 0.64813L3.80526 0.648676C3.91443 0.689658 4.04342 0.783215 4.363 1.09883L4.36325 1.09907C4.6441 1.37606 4.99882 1.84857 5.33195 2.35629C5.66232 2.8598 5.94741 3.36094 6.09495 3.67656C6.32494 4.17058 6.40752 4.36947 6.40774 4.58054L6.90774 4.58003M13.2514 15.3747L10.9996 10.5367C10.8299 10.6663 10.6691 10.7873 10.5169 10.8593C10.3156 10.9544 10.1297 10.9674 9.936 10.926M16.2495 13.2598C16.2475 13.2641 16.2456 13.2684 16.2436 13.2729C16.2322 13.2985 16.2198 13.3262 16.2069 13.3564L16.3198 12.4863C16.4449 12.8177 16.3297 13.0782 16.252 13.2539L16.2495 13.2598ZM9.936 10.926L10.0405 10.4371L9.93623 10.9261C9.93615 10.926 9.93607 10.926 9.936 10.926ZM9.936 10.926C9.66607 10.8684 9.25142 10.6742 8.80948 10.3999C8.3514 10.1155 7.8169 9.71572 7.30657 9.20651C6.79659 8.69765 6.38756 8.15665 6.09425 7.69264C5.8125 7.24693 5.60577 6.82224 5.54704 6.54913L5.54685 6.54826C5.50629 6.358 5.51952 6.17513 5.61238 5.97771C5.68257 5.82849 5.80015 5.67144 5.92544 5.50679C5.92548 5.50674 5.92552 5.50669 5.92555 5.50665L5.92939 5.50159C5.97275 5.44446 6.01436 5.38965 6.05601 5.33274L6.05632 5.33231C6.30382 4.99489 6.40774 4.80321 6.40774 4.58003H6.90774M6.90774 4.58003C6.90739 4.23698 6.76495 3.93103 6.54956 3.46839L6.54809 3.46522L6.32344 5.80944L6.32859 5.80266C6.37128 5.74642 6.41522 5.68853 6.4595 5.62803C6.70524 5.29299 6.90774 4.98256 6.90774 4.58003Z" stroke="white"/>
</svg>
