<svg width="17" height="16" viewBox="0 0 17 16" fill="none" xmlns="http://www.w3.org/2000/svg">
<g clip-path="url(#clip0_4008_12838)">
<path d="M13.2516 15.3748C13.5349 15.3778 13.8152 15.3165 14.0713 15.1953L14.0741 15.194C14.5872 14.9552 14.9031 14.608 15.253 14.0847C15.4454 13.793 15.6106 13.4841 15.7465 13.1622L15.7471 13.1607C15.7618 13.1261 15.7761 13.094 15.7875 13.0685C15.7894 13.0642 15.7912 13.0602 15.793 13.0563L16.2497 13.2599M13.2516 15.3748L11.0241 10.5182C11.0688 10.484 11.1105 10.4522 11.1541 10.4201L11.1562 10.4186C11.5399 10.1331 11.7133 10.0414 11.9216 10.0414H11.9237C12.1223 10.0414 12.3 10.1193 12.8186 10.3808C13.1166 10.5312 13.6207 10.8172 14.1283 11.1447C14.643 11.4767 15.1241 11.8278 15.4006 12.1068C15.7174 12.4261 15.8112 12.5545 15.8522 12.663C15.9008 12.7916 15.8698 12.8824 15.7923 13.0577L16.2497 13.2599M13.2516 15.3748H13.2463C12.6798 15.3748 11.8028 15.1693 10.3969 14.3839C8.67127 13.4162 7.35301 12.5334 5.64701 10.832C3.99705 9.18302 3.20648 8.13185 2.08289 6.08727C0.833497 3.81501 1.11426 2.75511 1.27003 2.42205C1.50805 1.91126 1.85567 1.59616 2.38142 1.24492C2.6737 1.05359 2.98294 0.889534 3.30526 0.754837L3.30998 0.752835C3.34772 0.73661 3.38252 0.721265 3.41308 0.70764L3.41488 0.706836C3.58399 0.630651 3.67652 0.599894 3.804 0.648207L3.80546 0.648753C3.91463 0.689735 4.04362 0.783292 4.3632 1.09891C4.64405 1.3759 4.99902 1.84865 5.33215 2.35637C5.66252 2.85988 5.94761 3.36102 6.09515 3.67664C6.32514 4.17066 6.40772 4.36955 6.40794 4.58062M13.2516 15.3748L10.9998 10.5368C10.8301 10.6664 10.6693 10.7874 10.5171 10.8594C10.3158 10.9545 10.1299 10.9675 9.9362 10.9261M16.2497 13.2599C16.2477 13.2642 16.2458 13.2685 16.2438 13.273C16.2324 13.2986 16.22 13.3263 16.2071 13.3565L16.32 12.4864C16.4451 12.8178 16.3299 13.0783 16.2522 13.254L16.2497 13.2599ZM6.40794 4.58062L6.90794 4.58011M6.40794 4.58062C6.40794 4.8038 6.30371 4.9954 6.05621 5.33282C6.01456 5.38973 5.97295 5.44454 5.92959 5.50167L5.92564 5.50687M6.90794 4.58011C6.90759 4.23706 6.76515 3.93111 6.54976 3.46847L6.54829 3.4653L6.32364 5.80952L6.32879 5.80274C6.37148 5.7465 6.41542 5.68861 6.4597 5.62811C6.70544 5.29307 6.90794 4.98264 6.90794 4.58011ZM9.9362 10.9261L10.0407 10.4372M9.9362 10.9261C9.93612 10.926 9.93627 10.9261 9.9362 10.9261ZM9.9362 10.9261C9.66627 10.8685 9.25162 10.6743 8.80968 10.4C8.3516 10.1156 7.8171 9.7158 7.30677 9.20659C6.79679 8.69773 6.38776 8.15673 6.09445 7.69272C5.8127 7.24701 5.60597 6.82232 5.54724 6.54921C5.50668 6.35895 5.51972 6.17521 5.61258 5.97779C5.68277 5.82857 5.80035 5.67152 5.92564 5.50687M5.92564 5.50687C5.92568 5.50682 5.92561 5.50691 5.92564 5.50687Z" stroke="#00A5A5"/>
</g>
<defs>
<clipPath id="clip0_4008_12838">
<rect width="17" height="16" fill="white"/>
</clipPath>
</defs>
</svg>
