<svg width="84" height="84" viewBox="0 0 84 84" fill="none" xmlns="http://www.w3.org/2000/svg">
<rect width="84" height="84" rx="42" fill="white"/>
<path d="M33.3157 52.3215C33.1533 53.5984 31.9838 54.9845 30.4881 55.0657C28.9938 55.1469 27.498 53.5984 27.3356 51.3974C27.1732 49.1965 25.6228 50.3641 25.515 52.8928C25.4057 55.42 26.9015 57.9737 30.2444 58.8166C33.5062 59.1429 35.2736 56.9138 35.1909 55.3388C35.1097 53.7622 34.0495 51.8329 33.3157 52.323V52.3215Z" fill="#00A5A5"/>
<path d="M33.3156 52.3215C33.1532 53.5984 31.9837 54.9845 30.488 55.0657C28.9937 55.1469 27.4979 53.5984 27.3355 51.3975C27.2144 49.7648 26.3314 49.9863 25.8383 51.241C26.0258 51.3502 26.1675 51.5111 26.2207 51.7237C26.7094 54.5771 29.0749 56.3707 31.684 56.1256C33.1369 55.9278 34.2695 54.9801 34.8202 53.718C34.4275 52.729 33.7999 51.9968 33.3156 52.3201V52.3215Z" fill="#009696"/>
<path d="M33.5085 54.8794C33.0345 55.2842 32.3191 55.6031 31.4674 55.774L31.5166 56.0191C31.1517 56.0923 30.7638 56.1392 30.3604 56.1554L30.3452 56.1561L30.33 56.1548C29.8262 56.1137 29.3526 56.0101 28.9244 55.8287L29.022 55.5985C28.2122 55.2553 27.5996 54.6221 27.2789 53.6069L27.0405 53.6822C26.9103 53.2701 26.8272 52.8038 26.7945 52.2796C26.7757 52.0666 26.7474 51.8936 26.7124 51.7615L26.9541 51.6975C26.8163 51.1769 26.5631 51.1111 26.238 51.671L26.4542 51.7965C26.3834 51.9185 26.306 52.0783 26.223 52.2806C26.1569 52.4418 26.1266 52.6785 26.1468 52.9831C26.1667 53.2841 26.2347 53.6341 26.3484 54.0099L26.1091 54.0823C26.4455 55.1936 27.1515 56.4709 28.0969 57.3475L28.2669 57.1642C28.7376 57.6006 29.2594 57.9227 29.8129 58.0687C30.3035 58.1981 30.7753 58.2292 31.2179 58.1878L31.2412 58.4367C32.3511 58.3328 33.2928 57.799 33.9105 57.179L33.7333 57.0025C34.1169 56.6176 34.3487 56.2162 34.4184 55.8959C34.409 55.8185 34.3998 55.7474 34.391 55.6822L34.6388 55.6487C34.6069 55.4135 34.5789 55.2508 34.5557 55.1384L34.3109 55.1889C34.2942 55.1081 34.2813 55.0604 34.2732 55.0344L34.2705 55.0316L34.2514 54.984L34.1575 54.7491L34.3896 54.6563L34.2538 54.3168C34.1321 54.5965 33.9284 54.8495 33.6708 55.0695L33.5085 54.8794Z" fill="#00A5A5" stroke="#09253D" stroke-width="0.5" stroke-dasharray="9 9"/>
<path d="M30.5057 55.3565C30.4586 55.36 30.4132 55.36 30.3776 55.36H30.3743C29.5613 55.36 28.7536 54.9347 28.1469 54.2276L28.1469 54.2276C27.5115 53.4871 27.1236 52.4884 27.0449 51.4187L27.0448 51.4184C27.0201 51.076 26.9599 50.832 26.8854 50.6821C26.8104 50.5313 26.7516 50.527 26.736 50.527C26.6998 50.527 26.626 50.5478 26.5215 50.6488C26.4196 50.7473 26.3094 50.9028 26.2059 51.1163C25.9994 51.5419 25.8366 52.1617 25.8045 52.905M30.5057 55.3565L33.4853 52.5585C33.5149 52.5415 33.5391 52.5361 33.5622 52.5361C33.5662 52.5361 33.5703 52.5362 33.5745 52.5365M30.5057 55.3565C31.3326 55.3111 32.0604 54.9025 32.5998 54.3471C33.0982 53.834 33.4499 53.1814 33.5745 52.5365M30.5057 55.3565L33.5745 52.5365M25.8045 52.905L25.7218 52.9014C25.6668 54.1762 26.0246 55.3713 26.7515 56.3614C27.5429 57.4391 28.7522 58.2179 30.2718 58.607L30.2797 58.528C30.2858 58.5286 30.2919 58.5292 30.2979 58.5298M25.8045 52.905C25.6894 55.5908 27.4325 57.8006 30.2979 58.5298M25.8045 52.905L25.7218 52.9014C25.7218 52.9011 25.7218 52.9009 25.7219 52.9006L25.7219 52.9005C25.7546 52.1357 25.9279 51.4976 26.1489 51.0589C26.2596 50.839 26.3779 50.678 26.4884 50.5753C26.601 50.4707 26.6855 50.4443 26.7346 50.4443C26.735 50.4443 26.7355 50.4443 26.736 50.4443C26.7853 50.4448 26.8607 50.4698 26.9439 50.6257C27.0297 50.7866 27.0977 51.047 27.1246 51.4113L33.5745 52.5365M30.2979 58.5298C30.3039 58.5313 30.3098 58.5328 30.3158 58.5343L30.2965 58.6108C30.4925 58.6288 30.6868 58.6389 30.8749 58.6389C30.8754 58.6389 30.8758 58.6389 30.8763 58.6389C32.1272 58.6386 33.2235 58.2243 33.9973 57.484V57.4748V57.4733H34.0085C34.0477 57.4355 34.0861 57.3968 34.1236 57.3573L34.066 57.3027C34.0663 57.3024 34.0666 57.3021 34.0669 57.3017C34.0854 57.2822 34.1037 57.2625 34.1216 57.2427M30.2979 58.5298C30.489 58.5484 30.6853 58.5577 30.8763 58.5577C32.174 58.5577 33.3022 58.1048 34.0661 57.301L34.1216 57.2427M34.1216 57.2427L34.4973 56.8474V56.8907C34.8343 56.3863 35.005 55.8357 34.9797 55.3506C34.9797 55.3506 34.9797 55.3505 34.9797 55.3505C34.9797 55.35 34.9796 55.3495 34.9796 55.349L34.9796 55.3487C34.9469 54.7185 34.7312 53.9694 34.4317 53.3809C34.2821 53.087 34.1175 52.845 33.9547 52.6803C33.8042 52.5281 33.6801 52.4663 33.589 52.4552C33.5846 52.4823 33.5798 52.5094 33.5745 52.5365M34.1216 57.2427C34.6518 56.6574 34.9313 55.9523 34.8999 55.3548L34.8999 55.3546C34.865 54.6802 34.646 53.9509 34.3566 53.3938C34.2119 53.1154 34.0551 52.8906 33.9043 52.7392C33.7564 52.5907 33.6437 52.5417 33.5745 52.5365M35.4789 55.3229C35.4422 54.6142 35.2046 53.7971 34.8773 53.1541C34.7135 52.8323 34.5213 52.5422 34.3103 52.3288C34.1048 52.1209 33.8498 51.9545 33.5622 51.9534L35.4789 55.3229ZM35.4789 55.3229C35.5217 56.1317 35.1387 57.0149 34.4862 57.7015L35.4789 55.3229ZM25.2223 52.8791C25.1624 54.264 25.5518 55.5722 26.3485 56.6573L26.3485 56.6573C27.2238 57.8493 28.5501 58.6884 30.1773 59.0989L30.1956 59.1035L30.2144 59.1053C30.4352 59.1266 30.6574 59.1389 30.8749 59.1389C32.3119 59.1389 33.5994 58.6353 34.4862 57.7016L25.2223 52.8791ZM25.7023 50.834C25.4445 51.346 25.2576 52.0555 25.2223 52.879L33.5593 51.9534C33.4151 51.954 33.2776 51.9973 33.1558 52.0779L33.1416 52.0869L33.0475 52.1468L33.0292 52.2568L33.0262 52.2745L33.026 52.2744L33.0248 52.2838C32.9528 52.8455 32.6512 53.4546 32.1904 53.9327C31.7313 54.409 31.1309 54.7384 30.4718 54.7746C30.4348 54.7761 30.4034 54.7773 30.3728 54.7773C29.7144 54.7773 29.0669 54.42 28.5573 53.8027C28.0488 53.1868 27.6935 52.3281 27.6232 51.3746C27.594 50.9773 27.5173 50.6384 27.385 50.3903C27.2508 50.1389 27.0352 49.9443 26.7346 49.9443C26.5127 49.9443 26.3123 50.0564 26.1481 50.209C25.9817 50.3635 25.831 50.5785 25.7023 50.834Z" fill="#09253D" stroke="#09253D" stroke-width="0.5"/>
<path d="M62.0465 45.4897C60.7327 46.3987 60.2213 48.3551 59.9963 49.2959C59.5371 51.2205 57.987 51.6387 56.4823 50.5934C55.4367 51.5546 56.5232 54.5677 58.9098 55.4334C64.183 55.8402 63.2602 50.048 63.3034 48.1893C63.3443 46.3305 64.7672 46.2055 64.6854 45.4057C64.6354 44.9353 63.3716 44.574 62.0487 45.4897H62.0465Z" fill="#009696"/>
<path d="M62.0464 45.4897C60.7327 46.3986 60.2212 48.3551 59.9962 49.2958C59.5371 51.2205 57.9869 51.6386 56.4822 50.5933C55.4367 51.5545 54.7639 53.2383 57.1505 54.104C62.4237 54.5108 62.1737 49.5662 62.2146 47.7075C62.2555 45.8487 64.7672 46.2077 64.6831 45.4079C64.6331 44.9375 63.3693 44.5762 62.0464 45.4919V45.4897Z" fill="#00A5A5"/>
<path d="M61.8621 46.3274L62.0208 46.176C62.1548 46.0562 62.285 45.9509 62.4119 45.8599L62.2663 45.6567C62.7527 45.3082 63.2134 45.1438 63.6707 45.1842L63.6487 45.4333C63.7253 45.44 63.8027 45.4538 63.8811 45.475C63.8387 45.4859 63.7917 45.4973 63.7399 45.5096L63.7978 45.7528C63.7847 45.756 63.7714 45.7591 63.758 45.7623C63.3575 45.8574 62.846 45.9788 62.4754 46.3187L62.3064 46.1344C62.1109 46.3137 61.9491 46.545 61.8482 46.8436C61.7079 47.2588 61.6605 47.7655 61.6315 48.2847L61.8812 48.2986C61.8726 48.4527 61.8655 48.6106 61.8584 48.7709C61.8247 49.5289 61.7885 50.3415 61.5737 51.0628L61.3341 50.9914C61.207 51.4183 61.0175 51.7979 60.731 52.1074L60.7309 52.1075C60.4791 52.38 60.208 52.5995 59.9289 52.7724L60.0605 52.9849C59.3552 53.4218 58.5966 53.5827 57.9433 53.5455L57.9575 53.2959C57.6058 53.2759 57.296 53.1941 57.0538 53.0716C56.9774 52.9455 56.9175 52.8152 56.8731 52.685L56.6365 52.7657C56.5034 52.3754 56.4929 51.9839 56.5836 51.6792L56.8232 51.7505C56.852 51.6534 56.8912 51.5755 56.9358 51.5158C57.1395 51.5899 57.3639 51.6418 57.596 51.6684L57.6244 51.42C58.1263 51.4775 58.6797 51.4084 59.129 51.1593L59.2502 51.378C59.5033 51.2377 59.731 51.0448 59.908 50.7911C60.1077 50.5052 60.2821 50.0713 60.4467 49.6066L60.211 49.5231C60.2926 49.2926 60.3744 49.0465 60.4578 48.7953C60.6389 48.2502 60.8281 47.6807 61.0419 47.1919L61.2709 47.2921C61.4602 46.8595 61.656 46.524 61.8621 46.3274Z" fill="#009696" stroke="#09253D" stroke-width="0.5" stroke-dasharray="10 10"/>
<mask id="path-9-outside-1_3076_16099" maskUnits="userSpaceOnUse" x="55.0239" y="43.8604" width="11" height="13" fill="black">
<rect fill="white" x="55.0239" y="43.8604" width="11" height="13"/>
<path d="M63.6966 44.8604C63.1465 44.8604 62.5487 45.0649 62.0101 45.4375C60.769 46.2965 60.2303 48.0416 59.9348 49.2823C59.6598 50.4298 58.9734 51.0888 58.0528 51.0888C57.5642 51.0888 57.0346 50.9002 56.5186 50.5412L56.4777 50.5116L56.4413 50.5457C56.0663 50.8911 55.9367 51.5069 56.0822 52.2409C56.314 53.3997 57.2914 54.9108 58.8893 55.4926L58.9052 55.4971C59.0825 55.5107 59.2575 55.5176 59.4234 55.5176C60.5917 55.5176 61.5146 55.1767 62.1646 54.5064C63.5148 53.1112 63.4307 50.5571 63.3829 49.0301C63.3716 48.7029 63.3625 48.4188 63.367 48.1939C63.392 47.1236 63.8784 46.6464 64.2694 46.2646C64.5444 45.9942 64.7831 45.7602 64.7467 45.4012C64.7149 45.0899 64.2739 44.8626 63.6989 44.8626L63.6966 44.8604ZM64.1785 46.1715C63.7921 46.5487 63.2625 47.0668 63.2375 48.1893C63.2329 48.4188 63.242 48.7029 63.2511 49.0323C63.3011 50.5389 63.3829 53.0612 62.0692 54.4177C61.3555 55.1563 60.2963 55.4766 58.9188 55.3721C57.371 54.8063 56.4254 53.3407 56.2004 52.2159C56.0686 51.5523 56.1708 50.9934 56.4845 50.673C57.0073 51.0274 57.5482 51.2138 58.0483 51.2138C59.0325 51.2138 59.7644 50.5207 60.053 49.3096C60.344 48.0916 60.8713 46.3737 62.0782 45.5398C62.5965 45.183 63.1693 44.9853 63.692 44.9853C64.2421 44.9853 64.5944 45.2012 64.6149 45.4125C64.6467 45.7102 64.4376 45.9147 64.1739 46.1715H64.1785Z"/>
</mask>
<path d="M63.6966 44.8604C63.1465 44.8604 62.5487 45.0649 62.0101 45.4375C60.769 46.2965 60.2303 48.0416 59.9348 49.2823C59.6598 50.4298 58.9734 51.0888 58.0528 51.0888C57.5642 51.0888 57.0346 50.9002 56.5186 50.5412L56.4777 50.5116L56.4413 50.5457C56.0663 50.8911 55.9367 51.5069 56.0822 52.2409C56.314 53.3997 57.2914 54.9108 58.8893 55.4926L58.9052 55.4971C59.0825 55.5107 59.2575 55.5176 59.4234 55.5176C60.5917 55.5176 61.5146 55.1767 62.1646 54.5064C63.5148 53.1112 63.4307 50.5571 63.3829 49.0301C63.3716 48.7029 63.3625 48.4188 63.367 48.1939C63.392 47.1236 63.8784 46.6464 64.2694 46.2646C64.5444 45.9942 64.7831 45.7602 64.7467 45.4012C64.7149 45.0899 64.2739 44.8626 63.6989 44.8626L63.6966 44.8604ZM64.1785 46.1715C63.7921 46.5487 63.2625 47.0668 63.2375 48.1893C63.2329 48.4188 63.242 48.7029 63.2511 49.0323C63.3011 50.5389 63.3829 53.0612 62.0692 54.4177C61.3555 55.1563 60.2963 55.4766 58.9188 55.3721C57.371 54.8063 56.4254 53.3407 56.2004 52.2159C56.0686 51.5523 56.1708 50.9934 56.4845 50.673C57.0073 51.0274 57.5482 51.2138 58.0483 51.2138C59.0325 51.2138 59.7644 50.5207 60.053 49.3096C60.344 48.0916 60.8713 46.3737 62.0782 45.5398C62.5965 45.183 63.1693 44.9853 63.692 44.9853C64.2421 44.9853 64.5944 45.2012 64.6149 45.4125C64.6467 45.7102 64.4376 45.9147 64.1739 46.1715H64.1785Z" fill="#09253D"/>
<path d="M63.6966 44.8604L64.0498 44.5065L63.9034 44.3604H63.6966V44.8604ZM62.0101 45.4375L61.7256 45.0263L61.7255 45.0264L62.0101 45.4375ZM59.9348 49.2823L60.4211 49.3988L60.4212 49.3981L59.9348 49.2823ZM56.5186 50.5412L56.2258 50.9466L56.233 50.9516L56.5186 50.5412ZM56.4777 50.5116L56.7704 50.1063L56.4364 49.8651L56.1358 50.1468L56.4777 50.5116ZM56.4413 50.5457L56.78 50.9135L56.7832 50.9105L56.4413 50.5457ZM56.0822 52.2409L55.5917 52.3381L55.5919 52.3389L56.0822 52.2409ZM58.8893 55.4926L58.7182 55.9624L58.7349 55.9685L58.7519 55.9733L58.8893 55.4926ZM58.9052 55.4971L58.7678 55.9779L58.8165 55.9918L58.8669 55.9956L58.9052 55.4971ZM62.1646 54.5064L62.5236 54.8545L62.5239 54.8541L62.1646 54.5064ZM63.3829 49.0301L63.8827 49.0144L63.8826 49.0127L63.3829 49.0301ZM63.367 48.1939L62.8671 48.1822L62.8671 48.1837L63.367 48.1939ZM64.2694 46.2646L64.6187 46.6224L64.6199 46.6212L64.2694 46.2646ZM64.7467 45.4012L65.2442 45.3508L65.2441 45.3503L64.7467 45.4012ZM63.6989 44.8626L63.3456 45.2165L63.492 45.3626H63.6989V44.8626ZM64.1785 46.1715L64.5277 46.5293L65.4064 45.6715H64.1785V46.1715ZM63.2375 48.1893L62.7376 48.1782L62.7376 48.1794L63.2375 48.1893ZM63.2511 49.0323L62.7513 49.0461L62.7514 49.0489L63.2511 49.0323ZM62.0692 54.4177L61.71 54.0699L61.7096 54.0703L62.0692 54.4177ZM58.9188 55.3721L58.7472 55.8417L58.8121 55.8655L58.881 55.8707L58.9188 55.3721ZM56.2004 52.2159L55.71 52.3133L55.7101 52.3139L56.2004 52.2159ZM56.4845 50.673L56.7651 50.2591L56.4194 50.0247L56.1272 50.3232L56.4845 50.673ZM60.053 49.3096L59.5667 49.1934L59.5667 49.1936L60.053 49.3096ZM62.0782 45.5398L61.7947 45.1279L61.794 45.1284L62.0782 45.5398ZM64.6149 45.4125L64.1172 45.4607L64.1177 45.4657L64.6149 45.4125ZM64.1739 46.1715L63.8251 45.8133L62.9438 46.6715H64.1739V46.1715ZM63.6966 44.3604C63.0268 44.3604 62.3316 44.6071 61.7256 45.0263L62.2945 45.8487C62.7659 45.5226 63.2663 45.3604 63.6966 45.3604V44.3604ZM61.7255 45.0264C61.0046 45.5254 60.5118 46.2633 60.1649 47.005C59.8168 47.7494 59.599 48.5343 59.4485 49.1665L60.4212 49.3981C60.5662 48.7896 60.7654 48.0816 61.0708 47.4285C61.3774 46.7728 61.7745 46.2086 62.2946 45.8487L61.7255 45.0264ZM59.4486 49.1658C59.3272 49.6724 59.1246 50.0296 58.8897 50.2552C58.6617 50.474 58.384 50.5888 58.0528 50.5888V51.5888C58.6422 51.5888 59.168 51.3741 59.5822 50.9766C59.9893 50.5857 60.2675 50.0398 60.4211 49.3988L59.4486 49.1658ZM58.0528 50.5888C57.6916 50.5888 57.2599 50.4478 56.8042 50.1307L56.233 50.9516C56.8092 51.3525 57.4367 51.5888 58.0528 51.5888V50.5888ZM56.8113 50.1358L56.7704 50.1063L56.185 50.917L56.2259 50.9465L56.8113 50.1358ZM56.1358 50.1468L56.0994 50.1809L56.7832 50.9105L56.8196 50.8764L56.1358 50.1468ZM56.1026 50.1779C55.5451 50.6913 55.4298 51.521 55.5917 52.3381L56.5727 52.1437C56.4437 51.4928 56.5874 51.0909 56.78 50.9135L56.1026 50.1779ZM55.5919 52.3389C55.8521 53.6394 56.9299 55.3113 58.7182 55.9624L59.0603 55.0227C57.6529 54.5103 56.776 53.1601 56.5725 52.1428L55.5919 52.3389ZM58.7519 55.9733L58.7678 55.9779L59.0426 55.0163L59.0267 55.0118L58.7519 55.9733ZM58.8669 55.9956C59.0563 56.0102 59.2441 56.0176 59.4234 56.0176V55.0176C59.2709 55.0176 59.1087 55.0113 58.9435 54.9986L58.8669 55.9956ZM59.4234 56.0176C60.6912 56.0176 61.757 55.6449 62.5236 54.8545L61.8057 54.1583C61.2721 54.7085 60.4923 55.0176 59.4234 55.0176V56.0176ZM62.5239 54.8541C63.3063 54.0456 63.6452 52.9346 63.7931 51.8876C63.9418 50.8348 63.9064 49.7727 63.8827 49.0144L62.8832 49.0457C62.9072 49.8144 62.9377 50.7929 62.8029 51.7477C62.6672 52.7083 62.3731 53.5719 61.8053 54.1587L62.5239 54.8541ZM63.8826 49.0127C63.8711 48.6819 63.8627 48.4125 63.8669 48.204L62.8671 48.1837C62.8622 48.4252 62.872 48.7238 62.8832 49.0474L63.8826 49.0127ZM63.8669 48.2055C63.8775 47.7503 63.9842 47.446 64.114 47.221C64.2491 46.987 64.4211 46.8153 64.6187 46.6224L63.9201 45.9069C63.7267 46.0957 63.46 46.3535 63.2479 46.7211C63.0306 47.0977 62.8815 47.5671 62.8671 48.1822L63.8669 48.2055ZM64.6199 46.6212C64.8528 46.3923 65.3088 45.9886 65.2442 45.3508L64.2492 45.4516C64.2535 45.4936 64.2476 45.5293 64.206 45.5929C64.1519 45.6759 64.0666 45.7628 63.9188 45.9081L64.6199 46.6212ZM65.2441 45.3503C65.2039 44.9574 64.9173 44.7054 64.6552 44.5705C64.3826 44.4303 64.0461 44.3626 63.6989 44.3626V45.3626C63.9267 45.3626 64.0982 45.4086 64.1978 45.4598C64.3079 45.5164 64.2576 45.5336 64.2493 45.452L65.2441 45.3503ZM64.0521 44.5088L64.0498 44.5065L63.3433 45.2142L63.3456 45.2165L64.0521 44.5088ZM63.8292 45.8137C63.6373 46.001 63.3619 46.2673 63.1399 46.6501C62.9131 47.0412 62.7519 47.534 62.7376 48.1782L63.7373 48.2004C63.748 47.7221 63.8641 47.3946 64.005 47.1517C64.1506 46.9006 64.3332 46.7191 64.5277 46.5293L63.8292 45.8137ZM62.7376 48.1794C62.7327 48.4239 62.7424 48.7233 62.7513 49.0461L63.7509 49.0185C63.7416 48.6824 63.7331 48.4137 63.7374 48.1992L62.7376 48.1794ZM62.7514 49.0489C62.7765 49.8067 62.8071 50.7726 62.6763 51.7124C62.5446 52.659 62.2585 53.5035 61.71 54.0699L62.4283 54.7656C63.1936 53.9754 63.5234 52.8805 63.6668 51.8502C63.8111 50.813 63.7757 49.7645 63.7508 49.0158L62.7514 49.0489ZM61.7096 54.0703C61.1321 54.6678 60.2404 54.971 58.9567 54.8736L58.881 55.8707C60.3521 55.9823 61.5788 55.6447 62.4287 54.7652L61.7096 54.0703ZM59.0905 54.9025C57.7331 54.4063 56.8875 53.1016 56.6907 52.1178L55.7101 52.3139C55.9633 53.5797 57.0088 55.2063 58.7472 55.8417L59.0905 54.9025ZM56.6908 52.1184C56.5738 51.5294 56.6944 51.1733 56.8418 51.0227L56.1272 50.3232C55.6473 50.8134 55.5633 51.5753 55.71 52.3133L56.6908 52.1184ZM56.2039 51.0868C56.7883 51.4831 57.4254 51.7138 58.0483 51.7138V50.7138C57.6711 50.7138 57.2262 50.5718 56.7651 50.2591L56.2039 51.0868ZM58.0483 51.7138C58.667 51.7138 59.2196 51.4924 59.6557 51.0785C60.085 50.671 60.3787 50.0997 60.5394 49.4255L59.5667 49.1936C59.4387 49.7306 59.2221 50.1113 58.9673 50.3532C58.7192 50.5887 58.4138 50.7138 58.0483 50.7138V51.7138ZM60.5394 49.4257C60.6821 48.828 60.8775 48.1322 61.1755 47.4915C61.4749 46.8478 61.8607 46.2979 62.3625 45.9511L61.794 45.1284C61.0889 45.6156 60.6075 46.3416 60.2688 47.0698C59.9286 47.8011 59.7149 48.5731 59.5667 49.1934L60.5394 49.4257ZM62.3618 45.9516C62.8146 45.6399 63.2904 45.4853 63.692 45.4853V44.4853C63.0482 44.4853 62.3784 44.7261 61.7947 45.1279L62.3618 45.9516ZM63.692 45.4853C63.9062 45.4853 64.0513 45.528 64.1269 45.5661C64.1647 45.5852 64.1728 45.5968 64.166 45.5892C64.1594 45.5817 64.1248 45.5392 64.1172 45.4607L65.1125 45.3643C65.0775 45.0027 64.7932 44.7822 64.5772 44.6732C64.334 44.5506 64.028 44.4853 63.692 44.4853V45.4853ZM64.1177 45.4657C64.1179 45.468 64.1246 45.4774 64.0907 45.5277C64.044 45.5969 63.9674 45.6747 63.8251 45.8133L64.5228 46.5297C64.6441 46.4115 64.8038 46.2587 64.9197 46.087C65.0483 45.8964 65.1436 45.6547 65.112 45.3594L64.1177 45.4657ZM64.1739 46.6715H64.1785V45.6715H64.1739V46.6715Z" fill="#09253D" mask="url(#path-9-outside-1_3076_16099)"/>
<path d="M67.8726 49.2598C65.9405 46.5307 63.0812 47.0692 65.6769 49.0916C67.0566 50.1664 67.277 51.8479 66.1792 53.4158C65.0064 55.0883 62.0061 55.5495 59.449 54.1952C57.3806 53.1 56.3464 51.0753 57.492 48.2577C59.0512 44.4174 59.1103 39.8728 56.0123 35.9394C52.9165 32.006 48.2388 30.4835 42.5382 31.2539C37.8946 31.881 32.5917 34.9305 30.8007 40.2295C28.8573 45.9785 31.2825 50.8731 33.9601 53.0545C35.2579 55.5723 34.5033 59.1557 29.7346 59.1557C24.966 59.1557 22.4112 62.5438 21.8679 64.4684C21.3247 66.3931 21.4906 68.7358 23.6249 65.4728C25.7592 62.2097 29.3573 63.9253 33.8351 63.38C38.3128 62.8346 37.8946 59.7829 40.5289 58.7785C37.5582 63.255 39.3151 68.1496 41.3654 69.8629C43.4156 71.5785 43.6679 73.026 42.7882 74.4644C40.8539 77.632 42.9041 78.725 45.1703 75.8437C47.6637 72.6761 46.3863 70.281 45.4021 67.5611C44.4157 64.8411 46.0954 61.5371 48.0615 61.3281C50.0276 61.119 52.2142 64.4548 56.1782 65.0092C59.149 65.4251 61.9742 63.4504 64.2154 64.173C65.4791 64.5798 66.1792 66.4635 67.1407 65.8455C68.4385 65.0115 66.8884 60.8259 63.3335 60.0306C68.5635 58.524 70.2705 52.6387 67.8726 49.2529V49.2598Z" fill="#00A5A5"/>
<path d="M64.7972 58.0309C67.3111 57.4514 68.634 55.2314 68.9363 52.8091C68.9431 51.5252 68.5953 50.28 67.8725 49.262C65.9405 46.5329 63.0812 47.0714 65.6769 49.0938C67.0565 50.1686 67.277 51.8501 66.1792 53.418C65.0063 55.0905 62.006 55.5518 59.449 54.1974C57.3806 53.1022 56.3464 51.0775 57.492 48.2599C59.0512 44.4196 58.9853 32.6827 55.8873 28.7493C52.7915 24.816 46.2295 25.3112 40.5289 26.0815C35.8852 26.7086 31.1833 25.5169 29.3922 30.8159C27.4488 36.5649 31.2825 50.8753 33.9601 53.0567C35.2579 55.5745 34.5033 59.1579 29.7346 59.1579C24.966 59.1579 22.4112 62.546 21.8679 64.4706C21.5474 65.6022 21.4747 66.8793 21.902 67.0747C22.6044 64.9228 23.8659 62.9323 26.2616 62.171C28.7709 61.4189 31.0325 62.6732 33.5418 62.171C35.1738 61.7938 36.3035 60.4145 37.5581 59.2852C38.9401 57.9036 41.5745 56.9015 42.9564 56.9015C42.1609 57.1742 40.9903 58.2422 40.5289 58.783C37.5581 63.2595 39.9879 67.6928 42.0404 69.4084C44.0906 71.124 43.6678 73.0305 42.7905 74.4711C40.8562 77.6388 42.9064 78.7317 45.1725 75.8504C47.666 72.6828 45.884 69.7424 44.8975 67.0247C43.9111 64.3048 44.6611 60.3736 47.5614 59.9487C51.3277 59.3965 51.9232 62.7573 55.8873 63.3117C58.858 63.7276 61.4537 62.0165 63.6949 62.7391C64.9586 63.1459 65.9701 64.791 66.8361 64.791C67.9748 64.791 66.6224 61.0758 63.7312 60.1487C58.7307 60.3123 52.5074 58.3331 52.621 52.5091C54.003 57.4037 60.1536 59.0352 64.7972 58.0309Z" fill="#009696"/>
<path d="M66.7918 48.8463L66.7182 48.7705C66.6619 48.7126 66.5759 48.6302 66.4753 48.5469L66.6346 48.3543C66.4499 48.2015 66.2192 48.0458 66.0169 48.007L65.9698 48.2525C65.9328 48.2454 65.9113 48.2478 65.9007 48.2505C65.8931 48.2525 65.8858 48.2557 65.8758 48.267C65.8156 48.3344 65.7973 48.3675 65.7928 48.3786L65.5611 48.2846C65.5075 48.4167 65.5892 48.501 65.753 48.6573L65.9256 48.4764L65.9434 48.4934C65.9794 48.5277 66.0209 48.5673 66.0658 48.6118C66.4669 48.8333 66.7751 49.1499 67.0027 49.5151L66.7906 49.6473C67.2175 50.3323 67.348 51.2243 67.2714 52.003L67.5202 52.0274C67.4738 52.4999 67.3541 52.9442 67.1709 53.2916L67.1707 53.292C66.8556 53.887 66.4238 54.3417 65.9209 54.6804L65.7812 54.473C64.8232 55.1183 63.5841 55.3195 62.4044 55.2855L62.3972 55.5354C61.7653 55.5171 61.151 55.4333 60.6029 55.3145M66.7918 48.8463L60.6559 55.0701M66.7918 48.8463H66.8073C67.1329 49.1322 67.4109 49.4778 67.6402 49.8604L67.8546 49.7319C68.3737 50.5983 68.645 51.6295 68.6691 52.5672L68.4192 52.5736C68.4324 53.0868 68.3678 53.5617 68.2318 53.9544L68.2318 53.9545C67.9015 54.9098 67.2863 55.6083 66.4987 56.1034L66.6318 56.315C65.0421 57.3144 62.8111 57.5063 60.8473 57.2626L60.8781 57.0145C59.8028 56.881 58.8155 56.6151 58.0707 56.2846C57.5116 56.0364 56.9579 55.7558 56.4285 55.4391L56.3002 55.6536C55.2109 55.0018 54.2175 54.197 53.4806 53.2066L53.6812 53.0574C53.3228 52.5757 53.0285 52.0504 52.8169 51.4773L52.3344 51.5321C52.2387 52.2785 52.2044 52.9619 52.2345 53.5933L52.4842 53.5814C52.5564 55.0944 53.0078 56.2765 53.8587 57.3056L53.6661 57.4649C54.0834 57.9697 54.5902 58.4351 55.185 58.8809C55.7352 59.2933 56.3635 59.606 57.0199 59.8441L57.1051 59.6091C58.4007 60.0791 59.8364 60.2601 61.0376 60.3337L61.0223 60.5832C61.7024 60.6249 62.3092 60.6325 62.7693 60.6382C62.8657 60.6394 62.9556 60.6405 63.0385 60.6419C63.3906 60.6476 63.732 60.7183 64.0562 60.8411L64.1448 60.6074C64.8444 60.8724 65.4602 61.3593 65.9328 61.9428L65.7386 62.1002C65.9674 62.3827 66.1606 62.6887 66.3106 63.0018C66.4169 63.2235 66.4721 63.4001 66.4929 63.5328L66.7399 63.4942C66.8295 64.0676 66.4362 64.1936 65.9329 63.8386L66.077 63.6343C65.9504 63.545 65.8093 63.4156 65.6639 63.2422C65.3705 62.892 64.9557 62.587 64.4556 62.3549L64.3504 62.5816C63.6201 62.2427 62.6748 62.0577 61.6131 62.145L61.5926 61.8959C61.1349 61.9335 60.6574 62.0197 60.1675 62.163C59.642 62.3167 59.1084 62.4044 58.5781 62.4384L58.5941 62.6878C57.4343 62.7622 56.2961 62.5869 55.2928 62.2878L55.3642 62.0482C54.8088 61.8826 54.2962 61.6783 53.8471 61.4581C53.463 61.2698 53.0314 60.9358 52.5273 60.5456C52.4278 60.4686 52.3255 60.3895 52.2201 60.3088L52.0681 60.5072C51.0284 59.7108 49.8037 58.8613 48.4001 58.8848L48.3959 58.6348C47.7385 58.6458 47.0517 58.8351 46.3396 59.2722C45.6354 59.7045 45.099 60.2256 44.7006 60.7993L44.906 60.9418C44.0286 62.2055 43.8649 63.7245 44.0171 65.0587L43.7687 65.087C43.8613 65.8993 44.0676 66.6454 44.3042 67.234C44.3266 67.2897 44.3491 67.3456 44.3717 67.4017C44.539 67.8177 44.7113 68.246 44.8789 68.68L45.1121 68.5899C45.4959 69.5834 45.8551 70.6063 46.066 71.5567L45.8219 71.6109C45.9403 72.1447 46.009 72.6468 46.009 73.101C46.009 73.4579 45.8814 73.9006 45.6576 74.3684L45.8831 74.4763C45.4666 75.347 44.7674 76.2269 44.1148 76.7132L43.9654 76.5127C43.7218 76.6942 43.506 76.8011 43.3346 76.8353C43.1732 76.8674 43.0721 76.8336 42.9979 76.7565L42.9977 76.7563C42.9169 76.6727 42.877 76.5559 42.8919 76.3708C42.9073 76.1789 42.9804 75.9409 43.0995 75.6553L42.8688 75.5591C42.9847 75.2812 43.1335 74.9806 43.2892 74.6661C43.5664 74.1061 43.8654 73.5022 44.039 72.9042L44.2791 72.9739C44.4279 72.4612 44.4964 71.9273 44.3748 71.4142L44.3748 71.4139C44.2529 70.9021 44.034 70.449 43.7637 70.0378L43.5548 70.1751C43.1521 69.5626 42.6204 69.0332 42.1061 68.521C41.9506 68.3662 41.7968 68.2129 41.6485 68.0594L41.8283 67.8858C41.4849 67.5302 41.1843 67.1856 40.9654 66.8248C40.739 66.4513 40.5323 66.0466 40.3607 65.6177L40.1286 65.7106C39.7958 64.8791 39.5895 63.9571 39.6149 62.9923L39.8648 62.9989C39.8762 62.5668 39.936 62.1261 40.0545 61.681C40.1815 61.2042 40.4209 60.6903 40.7406 60.1792L40.5287 60.0466C41.1309 59.0839 41.9921 58.1585 42.8708 57.5212L43.0176 57.7236C43.525 57.3555 44.0248 57.097 44.4679 56.9849L45.3326 56.7663L44.4802 56.5037C43.4485 56.1857 42.4845 56.1324 41.5868 56.262L41.6225 56.5094C39.6668 56.7916 38.0463 57.9753 36.7115 59.1104L36.5495 58.92C36.2661 59.161 35.9998 59.3959 35.7479 59.6179C35.2549 60.0527 34.8175 60.4384 34.417 60.7248C33.9043 61.0914 33.2703 61.2618 32.5448 61.3213L32.5652 61.5705C31.762 61.6363 30.8832 61.5686 29.9959 61.5003C29.4361 61.4571 28.8729 61.4137 28.3232 61.4035L28.3279 61.1535C27.5771 61.1395 26.8333 61.1857 26.149 61.3833C25.5997 61.5419 25.1184 61.7658 24.6969 62.0332L24.8309 62.2443C23.8692 62.8544 23.2382 63.699 22.8162 64.4875L22.5958 64.3695C22.5882 64.3837 22.5807 64.3978 22.5733 64.412L22.3917 64.3382C22.72 63.5296 23.3391 62.5567 24.2224 61.7197M66.7918 48.8463L24.2224 61.7197M60.6029 55.3145L60.6559 55.0701M60.6029 55.3145C60.603 55.3145 60.603 55.3145 60.603 55.3145L60.6559 55.0701M60.6029 55.3145C59.8239 55.1457 59.1499 54.8523 58.5819 54.4658L58.7226 54.2591C59.2627 54.6267 59.9067 54.9079 60.6559 55.0701M24.2224 61.7197L24.3944 61.9011C24.7601 61.5546 25.1717 61.2329 25.6269 60.9583L24.2224 61.7197ZM56.3796 50.7767L56.6279 50.7479L25.627 60.9582C26.2117 60.606 26.7222 60.4051 27.2002 60.2862L27.1399 60.0436C27.783 59.8836 28.3768 59.8636 29.0072 59.8424C29.5299 59.8247 30.0777 59.8063 30.6996 59.7065L30.7392 59.9534C31.2707 59.8681 31.8536 59.7253 32.5154 59.4787L32.5155 59.4786C33.2517 59.2038 33.8147 58.827 34.2328 58.3712L34.0486 58.2022C34.9431 57.2271 35.0924 55.8983 34.9412 54.5435L35.1896 54.5157C35.1162 53.8582 34.9743 53.1984 34.8136 52.5742L34.7847 52.4618L34.6977 52.4198C34.6888 52.4109 34.675 52.3958 34.6561 52.3723C34.6164 52.3229 34.5643 52.2498 34.5005 52.1518C34.3735 51.9565 34.2097 51.6775 34.019 51.3258C33.638 50.6232 33.1554 49.6424 32.6512 48.4871L32.422 48.5871C31.3442 46.1176 30.1716 42.8631 29.6736 39.8278L29.9203 39.7874C29.6532 38.159 29.5852 36.6113 29.826 35.2948C30.1082 33.7518 30.5946 32.5206 31.27 31.5341L31.0638 31.3928C32.5549 29.2148 34.9645 28.1489 38.2136 27.618L38.2539 27.8648C39.4983 27.6615 40.8706 27.5368 42.3685 27.4585L42.3686 27.4585C44.0479 27.3705 45.636 27.7366 47.1098 28.3984L47.2122 28.1703C50.3001 29.5569 52.8667 32.2026 54.6864 34.6503L54.4857 34.7995C55.712 36.449 56.5944 38.0055 57.063 39.0124C57.4085 39.7562 57.6061 40.5381 57.6957 41.3345L57.9441 41.3065C58.1334 42.9897 57.8512 44.716 57.4734 46.2542L57.2307 46.1945C57.0469 46.9427 56.8404 47.6456 56.6535 48.2822C56.6228 48.3865 56.5927 48.4891 56.5633 48.5898C56.3564 49.298 56.2945 50.0455 56.3796 50.7767ZM66.8992 48.597L66.898 48.5983V48.5963H66.8992V48.597Z" fill="#00A5A5" stroke="#09253D" stroke-width="0.5" stroke-dasharray="10 10"/>
<path d="M43.2314 31.8015C37.8582 32.7422 35.3625 35.2531 35.3625 35.2531C33.8032 37.2664 36.9513 36.7074 40.4334 35.8598C44.8952 34.7714 52.3324 35.9439 54.3371 39.5205C56.7214 42.5586 57.6102 41.2157 57.0465 38.7048C54.7871 33.5602 48.6047 30.8607 43.2314 31.8015Z" fill="#E6F6F6"/>
<mask id="path-15-outside-2_3076_16099" maskUnits="userSpaceOnUse" x="20.5391" y="24.8269" width="49" height="54" fill="black">
<rect fill="white" x="20.5391" y="24.8269" width="49" height="54"/>
<path d="M65.1541 47.3282C64.8632 47.3282 64.6654 47.4328 64.5995 47.6237C64.4768 47.9781 64.8563 48.5303 65.6382 49.1416C66.9975 50.2005 67.1907 51.8661 66.1269 53.3817C65.4496 54.3497 64.1222 54.9269 62.5788 54.9269C61.5174 54.9269 60.4445 54.6565 59.4763 54.1429C57.2238 52.95 56.5192 50.814 57.5465 48.2849C58.5966 45.7013 59.7013 33.3482 55.96 28.599C53.3984 25.3451 51.5503 25.8561 46.9771 25.8561C46.0861 25.8561 37.371 26.4804 36.4186 26.6076C31.8591 27.2234 30.7221 25.9457 28.9037 31.3197C27.0285 36.8619 31.0643 50.7754 33.9078 53.0999C34.6283 54.5065 34.6442 56.0903 33.9464 57.2356C33.4282 58.0854 32.2758 59.0989 29.7324 59.0989C25.0614 59.0989 22.3907 62.3847 21.8066 64.457C21.5429 65.391 21.4043 66.5884 21.7247 67.0111C21.802 67.1134 21.902 67.1656 22.0225 67.1656C22.4021 67.1656 22.959 66.6089 23.6772 65.5114C24.7864 63.8162 26.3093 63.4686 28.2549 63.4686C28.7595 63.4686 29.2846 63.4913 29.8415 63.514C30.4438 63.539 31.0689 63.564 31.7189 63.564C32.4963 63.564 33.1895 63.5254 33.8419 63.4458C36.5353 63.1186 37.4604 61.9098 38.3537 60.7395C38.9083 60.0146 39.4333 59.3261 40.3653 58.9148C38.781 61.4053 38.7446 63.7912 39.0015 65.3682C39.3038 67.2247 40.1925 68.9676 41.3244 69.9129C43.2337 71.5103 43.6679 72.9032 42.7337 74.4325C42.0063 75.6232 41.7722 76.6276 42.0882 77.1911C42.2314 77.4456 42.4723 77.5797 42.7905 77.5797C43.4769 77.5797 44.3838 76.9457 45.218 75.8845C47.5023 72.9805 46.6454 70.6991 45.7362 68.2859C45.6431 68.0405 45.5499 67.7928 45.4589 67.5406C44.8248 65.7931 45.3248 64.0117 46.0022 62.9278C46.5613 62.0325 47.3137 61.4712 48.066 61.3917C48.1229 61.3848 48.1819 61.3826 48.2388 61.3826C49.0684 61.3826 49.973 62.0029 51.0209 62.721C52.3505 63.6344 54.0075 64.7706 56.1668 65.0728C56.4464 65.1115 56.7374 65.1319 57.0351 65.1319C58.192 65.1319 59.3081 64.8433 60.3877 64.5638C61.3537 64.3139 62.2675 64.0776 63.1153 64.0776C63.513 64.0776 63.8653 64.1298 64.1949 64.2343C64.7177 64.4025 65.1541 64.8433 65.5382 65.2319C65.9451 65.6432 66.3315 66.034 66.752 66.034C66.8929 66.034 67.0361 65.9886 67.1725 65.8999C67.5862 65.6341 67.7453 65.0433 67.6089 64.2752C67.318 62.6369 65.8133 60.6327 63.5676 60.026C65.9474 59.2693 67.7657 57.5287 68.5749 55.2155C69.3204 53.0909 69.075 50.8481 67.9203 49.2165C66.9997 47.9145 65.8383 47.3214 65.1496 47.3214L65.1541 47.3282ZM68.4613 55.1791C67.6384 57.5242 65.7633 59.2716 63.3176 59.976L63.0812 60.0442L63.3198 60.0987C65.636 60.6168 67.1952 62.6505 67.4884 64.3025C67.6157 65.0183 67.4771 65.5636 67.1088 65.8C66.9907 65.8772 66.8747 65.9136 66.7565 65.9136C66.3883 65.9136 66.0383 65.5591 65.6314 65.1501C65.2359 64.7501 64.7882 64.298 64.2358 64.1207C63.8949 64.0117 63.5289 63.9571 63.1175 63.9571C62.2538 63.9571 61.3333 64.1957 60.3582 64.4479C59.2876 64.7252 58.1807 65.0115 57.0374 65.0115C56.7464 65.0115 56.4601 64.991 56.1873 64.9547C54.0575 64.657 52.4142 63.5299 51.0936 62.6255C50.0276 61.8961 49.1093 61.2644 48.241 61.2644C48.1774 61.2644 48.116 61.2667 48.0547 61.2735C47.2637 61.3576 46.4795 61.9393 45.8976 62.8687C45.2044 63.9776 44.693 65.8022 45.343 67.5905C45.4339 67.8405 45.5271 68.0905 45.6203 68.3359C46.5159 70.715 47.3637 72.9646 45.1225 75.8118C44.3111 76.8434 43.4406 77.4592 42.7928 77.4592C42.5246 77.4592 42.32 77.3479 42.1995 77.1366C41.9109 76.6208 42.1495 75.6368 42.8428 74.503C43.802 72.9305 43.3474 71.4444 41.4063 69.8197C40.2971 68.8926 39.4242 67.1793 39.1265 65.35C38.8674 63.7594 38.9106 61.3326 40.5812 58.8171L40.6903 58.6535L40.5085 58.724C39.4265 59.1352 38.8583 59.8783 38.256 60.6645C37.3786 61.812 36.4694 63.0005 33.8282 63.3209C33.1804 63.4004 32.4917 63.4368 31.7212 63.4368C31.0734 63.4368 30.4506 63.4118 29.8506 63.3868C29.2937 63.364 28.7664 63.3413 28.2595 63.3413C26.2729 63.3413 24.716 63.6981 23.5749 65.4409C22.7112 66.7612 22.2566 67.0384 22.0248 67.0384C21.9452 67.0384 21.8816 67.0043 21.827 66.9338C21.5816 66.6112 21.6247 65.5591 21.9293 64.4888C22.5044 62.4528 25.1342 59.2216 29.7346 59.2216C32.3372 59.2216 33.5214 58.1763 34.0555 57.2992C34.7783 56.1153 34.7624 54.4792 34.0146 53.0295L33.9987 53.0091C31.1848 50.7163 27.8754 39.3517 29.7324 33.8595C31.5325 28.5354 35.1667 27.82 39.6876 27.2088C40.6355 27.0815 44.4588 26.6076 45.343 26.6076C49.8753 26.6076 53.4234 32.7604 55.96 35.9803C59.6604 40.6817 58.4693 45.6763 57.4306 48.2349C56.376 50.8322 57.0988 53.025 59.4172 54.252C60.4059 54.7747 61.4992 55.0519 62.5788 55.0519C64.1631 55.0519 65.5269 54.4543 66.2292 53.4522C67.3339 51.8774 67.1316 50.1459 65.7133 49.0416C64.6381 48.2031 64.6768 47.7759 64.7154 47.6646C64.7632 47.5282 64.9177 47.4532 65.1518 47.4532C65.8087 47.4532 66.9247 48.0304 67.8203 49.2938C68.9522 50.8912 69.1909 53.0909 68.459 55.1791H68.4613Z"/>
</mask>
<path d="M65.1541 47.3282C64.8632 47.3282 64.6654 47.4328 64.5995 47.6237C64.4768 47.9781 64.8563 48.5303 65.6382 49.1416C66.9975 50.2005 67.1907 51.8661 66.1269 53.3817C65.4496 54.3497 64.1222 54.9269 62.5788 54.9269C61.5174 54.9269 60.4445 54.6565 59.4763 54.1429C57.2238 52.95 56.5192 50.814 57.5465 48.2849C58.5966 45.7013 59.7013 33.3482 55.96 28.599C53.3984 25.3451 51.5503 25.8561 46.9771 25.8561C46.0861 25.8561 37.371 26.4804 36.4186 26.6076C31.8591 27.2234 30.7221 25.9457 28.9037 31.3197C27.0285 36.8619 31.0643 50.7754 33.9078 53.0999C34.6283 54.5065 34.6442 56.0903 33.9464 57.2356C33.4282 58.0854 32.2758 59.0989 29.7324 59.0989C25.0614 59.0989 22.3907 62.3847 21.8066 64.457C21.5429 65.391 21.4043 66.5884 21.7247 67.0111C21.802 67.1134 21.902 67.1656 22.0225 67.1656C22.4021 67.1656 22.959 66.6089 23.6772 65.5114C24.7864 63.8162 26.3093 63.4686 28.2549 63.4686C28.7595 63.4686 29.2846 63.4913 29.8415 63.514C30.4438 63.539 31.0689 63.564 31.7189 63.564C32.4963 63.564 33.1895 63.5254 33.8419 63.4458C36.5353 63.1186 37.4604 61.9098 38.3537 60.7395C38.9083 60.0146 39.4333 59.3261 40.3653 58.9148C38.781 61.4053 38.7446 63.7912 39.0015 65.3682C39.3038 67.2247 40.1925 68.9676 41.3244 69.9129C43.2337 71.5103 43.6679 72.9032 42.7337 74.4325C42.0063 75.6232 41.7722 76.6276 42.0882 77.1911C42.2314 77.4456 42.4723 77.5797 42.7905 77.5797C43.4769 77.5797 44.3838 76.9457 45.218 75.8845C47.5023 72.9805 46.6454 70.6991 45.7362 68.2859C45.6431 68.0405 45.5499 67.7928 45.4589 67.5406C44.8248 65.7931 45.3248 64.0117 46.0022 62.9278C46.5613 62.0325 47.3137 61.4712 48.066 61.3917C48.1229 61.3848 48.1819 61.3826 48.2388 61.3826C49.0684 61.3826 49.973 62.0029 51.0209 62.721C52.3505 63.6344 54.0075 64.7706 56.1668 65.0728C56.4464 65.1115 56.7374 65.1319 57.0351 65.1319C58.192 65.1319 59.3081 64.8433 60.3877 64.5638C61.3537 64.3139 62.2675 64.0776 63.1153 64.0776C63.513 64.0776 63.8653 64.1298 64.1949 64.2343C64.7177 64.4025 65.1541 64.8433 65.5382 65.2319C65.9451 65.6432 66.3315 66.034 66.752 66.034C66.8929 66.034 67.0361 65.9886 67.1725 65.8999C67.5862 65.6341 67.7453 65.0433 67.6089 64.2752C67.318 62.6369 65.8133 60.6327 63.5676 60.026C65.9474 59.2693 67.7657 57.5287 68.5749 55.2155C69.3204 53.0909 69.075 50.8481 67.9203 49.2165C66.9997 47.9145 65.8383 47.3214 65.1496 47.3214L65.1541 47.3282ZM68.4613 55.1791C67.6384 57.5242 65.7633 59.2716 63.3176 59.976L63.0812 60.0442L63.3198 60.0987C65.636 60.6168 67.1952 62.6505 67.4884 64.3025C67.6157 65.0183 67.4771 65.5636 67.1088 65.8C66.9907 65.8772 66.8747 65.9136 66.7565 65.9136C66.3883 65.9136 66.0383 65.5591 65.6314 65.1501C65.2359 64.7501 64.7882 64.298 64.2358 64.1207C63.8949 64.0117 63.5289 63.9571 63.1175 63.9571C62.2538 63.9571 61.3333 64.1957 60.3582 64.4479C59.2876 64.7252 58.1807 65.0115 57.0374 65.0115C56.7464 65.0115 56.4601 64.991 56.1873 64.9547C54.0575 64.657 52.4142 63.5299 51.0936 62.6255C50.0276 61.8961 49.1093 61.2644 48.241 61.2644C48.1774 61.2644 48.116 61.2667 48.0547 61.2735C47.2637 61.3576 46.4795 61.9393 45.8976 62.8687C45.2044 63.9776 44.693 65.8022 45.343 67.5905C45.4339 67.8405 45.5271 68.0905 45.6203 68.3359C46.5159 70.715 47.3637 72.9646 45.1225 75.8118C44.3111 76.8434 43.4406 77.4592 42.7928 77.4592C42.5246 77.4592 42.32 77.3479 42.1995 77.1366C41.9109 76.6208 42.1495 75.6368 42.8428 74.503C43.802 72.9305 43.3474 71.4444 41.4063 69.8197C40.2971 68.8926 39.4242 67.1793 39.1265 65.35C38.8674 63.7594 38.9106 61.3326 40.5812 58.8171L40.6903 58.6535L40.5085 58.724C39.4265 59.1352 38.8583 59.8783 38.256 60.6645C37.3786 61.812 36.4694 63.0005 33.8282 63.3209C33.1804 63.4004 32.4917 63.4368 31.7212 63.4368C31.0734 63.4368 30.4506 63.4118 29.8506 63.3868C29.2937 63.364 28.7664 63.3413 28.2595 63.3413C26.2729 63.3413 24.716 63.6981 23.5749 65.4409C22.7112 66.7612 22.2566 67.0384 22.0248 67.0384C21.9452 67.0384 21.8816 67.0043 21.827 66.9338C21.5816 66.6112 21.6247 65.5591 21.9293 64.4888C22.5044 62.4528 25.1342 59.2216 29.7346 59.2216C32.3372 59.2216 33.5214 58.1763 34.0555 57.2992C34.7783 56.1153 34.7624 54.4792 34.0146 53.0295L33.9987 53.0091C31.1848 50.7163 27.8754 39.3517 29.7324 33.8595C31.5325 28.5354 35.1667 27.82 39.6876 27.2088C40.6355 27.0815 44.4588 26.6076 45.343 26.6076C49.8753 26.6076 53.4234 32.7604 55.96 35.9803C59.6604 40.6817 58.4693 45.6763 57.4306 48.2349C56.376 50.8322 57.0988 53.025 59.4172 54.252C60.4059 54.7747 61.4992 55.0519 62.5788 55.0519C64.1631 55.0519 65.5269 54.4543 66.2292 53.4522C67.3339 51.8774 67.1316 50.1459 65.7133 49.0416C64.6381 48.2031 64.6768 47.7759 64.7154 47.6646C64.7632 47.5282 64.9177 47.4532 65.1518 47.4532C65.8087 47.4532 66.9247 48.0304 67.8203 49.2938C68.9522 50.8912 69.1909 53.0909 68.459 55.1791H68.4613Z" fill="#09253D"/>
<path d="M65.1541 47.3282C64.8632 47.3282 64.6654 47.4328 64.5995 47.6237C64.4768 47.9781 64.8563 48.5303 65.6382 49.1416C66.9975 50.2005 67.1907 51.8661 66.1269 53.3817C65.4496 54.3497 64.1222 54.9269 62.5788 54.9269C61.5174 54.9269 60.4445 54.6565 59.4763 54.1429C57.2238 52.95 56.5192 50.814 57.5465 48.2849C58.5966 45.7013 59.7013 33.3482 55.96 28.599C53.3984 25.3451 51.5503 25.8561 46.9771 25.8561C46.0861 25.8561 37.371 26.4804 36.4186 26.6076C31.8591 27.2234 30.7221 25.9457 28.9037 31.3197C27.0285 36.8619 31.0643 50.7754 33.9078 53.0999C34.6283 54.5065 34.6442 56.0903 33.9464 57.2356C33.4282 58.0854 32.2758 59.0989 29.7324 59.0989C25.0614 59.0989 22.3907 62.3847 21.8066 64.457C21.5429 65.391 21.4043 66.5884 21.7247 67.0111C21.802 67.1134 21.902 67.1656 22.0225 67.1656C22.4021 67.1656 22.959 66.6089 23.6772 65.5114C24.7864 63.8162 26.3093 63.4686 28.2549 63.4686C28.7595 63.4686 29.2846 63.4913 29.8415 63.514C30.4438 63.539 31.0689 63.564 31.7189 63.564C32.4963 63.564 33.1895 63.5254 33.8419 63.4458C36.5353 63.1186 37.4604 61.9098 38.3537 60.7395C38.9083 60.0146 39.4333 59.3261 40.3653 58.9148C38.781 61.4053 38.7446 63.7912 39.0015 65.3682C39.3038 67.2247 40.1925 68.9676 41.3244 69.9129C43.2337 71.5103 43.6679 72.9032 42.7337 74.4325C42.0063 75.6232 41.7722 76.6276 42.0882 77.1911C42.2314 77.4456 42.4723 77.5797 42.7905 77.5797C43.4769 77.5797 44.3838 76.9457 45.218 75.8845C47.5023 72.9805 46.6454 70.6991 45.7362 68.2859C45.6431 68.0405 45.5499 67.7928 45.4589 67.5406C44.8248 65.7931 45.3248 64.0117 46.0022 62.9278C46.5613 62.0325 47.3137 61.4712 48.066 61.3917C48.1229 61.3848 48.1819 61.3826 48.2388 61.3826C49.0684 61.3826 49.973 62.0029 51.0209 62.721C52.3505 63.6344 54.0075 64.7706 56.1668 65.0728C56.4464 65.1115 56.7374 65.1319 57.0351 65.1319C58.192 65.1319 59.3081 64.8433 60.3877 64.5638C61.3537 64.3139 62.2675 64.0776 63.1153 64.0776C63.513 64.0776 63.8653 64.1298 64.1949 64.2343C64.7177 64.4025 65.1541 64.8433 65.5382 65.2319C65.9451 65.6432 66.3315 66.034 66.752 66.034C66.8929 66.034 67.0361 65.9886 67.1725 65.8999C67.5862 65.6341 67.7453 65.0433 67.6089 64.2752C67.318 62.6369 65.8133 60.6327 63.5676 60.026C65.9474 59.2693 67.7657 57.5287 68.5749 55.2155C69.3204 53.0909 69.075 50.8481 67.9203 49.2165C66.9997 47.9145 65.8383 47.3214 65.1496 47.3214L65.1541 47.3282ZM68.4613 55.1791C67.6384 57.5242 65.7633 59.2716 63.3176 59.976L63.0812 60.0442L63.3198 60.0987C65.636 60.6168 67.1952 62.6505 67.4884 64.3025C67.6157 65.0183 67.4771 65.5636 67.1088 65.8C66.9907 65.8772 66.8747 65.9136 66.7565 65.9136C66.3883 65.9136 66.0383 65.5591 65.6314 65.1501C65.2359 64.7501 64.7882 64.298 64.2358 64.1207C63.8949 64.0117 63.5289 63.9571 63.1175 63.9571C62.2538 63.9571 61.3333 64.1957 60.3582 64.4479C59.2876 64.7252 58.1807 65.0115 57.0374 65.0115C56.7464 65.0115 56.4601 64.991 56.1873 64.9547C54.0575 64.657 52.4142 63.5299 51.0936 62.6255C50.0276 61.8961 49.1093 61.2644 48.241 61.2644C48.1774 61.2644 48.116 61.2667 48.0547 61.2735C47.2637 61.3576 46.4795 61.9393 45.8976 62.8687C45.2044 63.9776 44.693 65.8022 45.343 67.5905C45.4339 67.8405 45.5271 68.0905 45.6203 68.3359C46.5159 70.715 47.3637 72.9646 45.1225 75.8118C44.3111 76.8434 43.4406 77.4592 42.7928 77.4592C42.5246 77.4592 42.32 77.3479 42.1995 77.1366C41.9109 76.6208 42.1495 75.6368 42.8428 74.503C43.802 72.9305 43.3474 71.4444 41.4063 69.8197C40.2971 68.8926 39.4242 67.1793 39.1265 65.35C38.8674 63.7594 38.9106 61.3326 40.5812 58.8171L40.6903 58.6535L40.5085 58.724C39.4265 59.1352 38.8583 59.8783 38.256 60.6645C37.3786 61.812 36.4694 63.0005 33.8282 63.3209C33.1804 63.4004 32.4917 63.4368 31.7212 63.4368C31.0734 63.4368 30.4506 63.4118 29.8506 63.3868C29.2937 63.364 28.7664 63.3413 28.2595 63.3413C26.2729 63.3413 24.716 63.6981 23.5749 65.4409C22.7112 66.7612 22.2566 67.0384 22.0248 67.0384C21.9452 67.0384 21.8816 67.0043 21.827 66.9338C21.5816 66.6112 21.6247 65.5591 21.9293 64.4888C22.5044 62.4528 25.1342 59.2216 29.7346 59.2216C32.3372 59.2216 33.5214 58.1763 34.0555 57.2992C34.7783 56.1153 34.7624 54.4792 34.0146 53.0295L33.9987 53.0091C31.1848 50.7163 27.8754 39.3517 29.7324 33.8595C31.5325 28.5354 35.1667 27.82 39.6876 27.2088C40.6355 27.0815 44.4588 26.6076 45.343 26.6076C49.8753 26.6076 53.4234 32.7604 55.96 35.9803C59.6604 40.6817 58.4693 45.6763 57.4306 48.2349C56.376 50.8322 57.0988 53.025 59.4172 54.252C60.4059 54.7747 61.4992 55.0519 62.5788 55.0519C64.1631 55.0519 65.5269 54.4543 66.2292 53.4522C67.3339 51.8774 67.1316 50.1459 65.7133 49.0416C64.6381 48.2031 64.6768 47.7759 64.7154 47.6646C64.7632 47.5282 64.9177 47.4532 65.1518 47.4532C65.8087 47.4532 66.9247 48.0304 67.8203 49.2938C68.9522 50.8912 69.1909 53.0909 68.459 55.1791H68.4613Z" stroke="#09253D" mask="url(#path-15-outside-2_3076_16099)"/>
<path d="M59.8529 43.9344L56.3353 24.3415C55.8009 21.3645 52.9556 19.3922 49.9803 19.9363L30.3986 23.5172C27.4233 24.0612 25.4446 26.9157 25.979 29.8927L29.4966 49.4856C30.0311 52.4626 32.8763 54.4349 35.8516 53.8908L55.4334 50.31C58.4087 49.7659 60.3874 46.9114 59.8529 43.9344Z" fill="#00A5A5" stroke="#09253D"/>
<path d="M40.8491 35.2372C42.8242 38.5738 42.3941 42.4796 39.8885 43.961C37.3829 45.4425 33.7506 43.9387 31.7754 40.6022C29.8003 37.2656 30.2302 33.3599 32.736 31.8784C35.2416 30.3969 38.8741 31.9008 40.8491 35.2372Z" fill="#F2F2F2"/>
<path d="M40.9955 35.1508C41.8093 36.5785 42.2667 38.2172 42.2013 39.8636C42.1745 40.6842 42.0014 41.5108 41.6357 42.2612C41.2725 43.01 40.705 43.6728 39.9871 44.1274C39.264 44.5746 38.4019 44.7866 37.5529 44.7709C36.7001 44.7606 35.8671 44.5298 35.0974 44.1848C33.5557 43.4794 32.2795 42.2702 31.3692 40.8425C30.4876 39.4042 29.8927 37.7166 29.9632 35.9557C29.9939 35.0814 30.1799 34.1923 30.5809 33.3739C30.9745 32.5573 31.6103 31.8141 32.4283 31.3586C33.241 30.9068 34.1863 30.6923 35.0825 30.7816C35.9793 30.8606 36.823 31.1513 37.5672 31.5742C38.316 31.9943 38.9616 32.5492 39.5375 33.1494C40.113 33.7524 40.5988 34.4301 40.9957 35.151L40.9955 35.1508ZM40.7027 35.3238C39.8865 33.9678 38.731 32.7911 37.3128 32.089C36.607 31.741 35.836 31.5179 35.0557 31.4889C34.2775 31.4576 33.4925 31.632 32.8223 32.0245C32.1556 32.4225 31.6246 33.0261 31.2772 33.7229C30.927 34.4204 30.7515 35.2029 30.7169 35.9888C30.6498 37.5689 31.1253 39.1477 31.9215 40.5155C32.7377 41.8715 33.8934 43.0482 35.3115 43.7503C36.0174 44.0983 36.7882 44.3213 37.5685 44.3505C38.3469 44.3817 39.1319 44.2073 39.8019 43.8149C40.4687 43.417 40.9997 42.8132 41.347 42.1164C41.6972 41.4189 41.8727 40.6364 41.9074 39.8505C41.9745 38.2704 41.4989 36.6917 40.7027 35.3238Z" fill="#09253D"/>
<path d="M39.5598 43.6595C37.5681 44.2494 34.7838 42.9971 33.0008 40.6375C31.9248 39.2134 31.3188 37.5828 31.3224 36.0493C31.3254 34.5946 31.885 33.4354 32.9021 32.8119C33.1353 32.6689 33.3899 32.5564 33.6591 32.4766C35.9024 31.8122 38.9453 33.4365 40.6487 36.1155C42.4991 39.0266 42.26 42.2133 40.2385 43.3706C40.0271 43.4916 39.7988 43.5888 39.5598 43.6596L39.5598 43.6595Z" fill="white"/>
<path d="M41.5933 38.4771C42.2716 40.3735 41.6671 42.3237 40.2432 42.8329C38.8192 43.342 37.1149 42.2173 36.4366 40.3209C35.7583 38.4245 36.3628 36.4743 37.7866 35.9651C39.2106 35.4559 40.9149 36.5806 41.5933 38.4771Z" fill="#09253D"/>
<path d="M41.4229 39.4962C41.5566 39.8697 41.4376 40.2539 41.1569 40.3541C40.8765 40.4545 40.5407 40.2329 40.407 39.8593C40.2735 39.4858 40.3926 39.1017 40.673 39.0014C40.9535 38.9012 41.2893 39.1226 41.4228 39.4962L41.4229 39.4962Z" fill="white"/>
<path d="M29.1921 33.2388C29.1921 33.2388 28.3361 28.3736 32.2632 26.2657C34.2266 25.2118 37.3365 28.4057 37.3365 28.4057C37.3365 28.4057 34.1713 27.0994 29.1921 33.2388Z" fill="#09253D"/>
<path d="M44.9659 34.0181C45.1264 37.8921 47.6142 40.9337 50.5224 40.8116C53.4307 40.6896 55.6583 37.4502 55.4977 33.5762C55.3371 29.7022 52.8494 26.6607 49.9411 26.7827C47.0329 26.9047 44.8053 30.1443 44.9659 34.0181Z" fill="#F2F2F2"/>
<path d="M45.136 34.011C45.2131 35.5918 45.6741 37.1749 46.5909 38.4636C47.0479 39.1038 47.6213 39.6647 48.2949 40.0588C48.9655 40.4541 49.7396 40.6713 50.5157 40.6418C51.2914 40.6061 52.0448 40.3248 52.6805 39.8748C53.3191 39.4254 53.8441 38.8185 54.2466 38.1422C55.0536 36.7811 55.3819 35.1649 55.3281 33.5831C55.251 32.0022 54.7901 30.4191 53.8733 29.1304C53.4162 28.4902 52.8427 27.9294 52.1693 27.5352C51.4987 27.1399 50.7245 26.9227 49.9485 26.9522C49.1728 26.9879 48.4193 27.2692 47.7836 27.7193C47.145 28.1686 46.6199 28.7755 46.2174 29.4518C45.4103 30.8128 45.0821 32.4292 45.136 34.011ZM44.7962 34.0253C44.7348 33.2046 44.7714 32.3714 44.924 31.5514C45.0658 30.73 45.3082 29.9114 45.7027 29.1459C46.1018 28.3877 46.6393 27.6675 47.3597 27.1174C48.0839 26.5815 48.9803 26.2223 49.9158 26.1631C50.8524 26.134 51.7814 26.4075 52.5564 26.8751C53.3365 27.3418 53.9754 27.985 54.4762 28.7003C55.466 30.1511 55.8981 31.8734 55.938 33.5579C55.9434 35.2462 55.5359 36.9458 54.6355 38.3739C54.1897 39.086 53.6122 39.7264 52.9084 40.1988C52.2085 40.6722 51.3749 40.9624 50.5296 40.9815C49.6842 41.0049 48.8471 40.7579 48.1371 40.3279C47.4233 39.899 46.8287 39.3011 46.36 38.6286C45.3897 37.2965 44.8949 35.6629 44.7963 34.0254L44.7962 34.0253Z" fill="#09253D"/>
<path d="M50.5815 40.1737C52.4577 39.618 53.988 37.1093 54.1485 34.2035C54.2454 32.4499 53.8641 30.7714 53.0546 29.4944C52.2869 28.2829 51.2373 27.6105 50.1098 27.6256C49.8513 27.629 49.5918 27.6691 49.3382 27.7442C47.2252 28.37 45.6872 31.3251 45.7571 34.4552C45.8335 37.8561 47.6978 40.3879 49.8957 40.2897C50.1255 40.2794 50.3562 40.2405 50.5813 40.1738L50.5815 40.1737Z" fill="white"/>
<path d="M46.1063 37.1406C46.5702 39.1005 48.1392 40.4069 49.6108 40.0585C51.0824 39.7099 51.8993 37.8386 51.4354 35.8786C50.9715 33.9187 49.4025 32.6123 47.9309 32.9607C46.4593 33.3091 45.6424 35.1805 46.1063 37.1406Z" fill="#09253D"/>
<path d="M46.8243 37.8468C46.912 38.2172 47.2084 38.4641 47.4867 38.3983C47.7649 38.3324 47.9193 37.9787 47.8316 37.6081C47.7439 37.2377 47.4474 36.9908 47.1693 37.0566C46.8911 37.1225 46.7367 37.4762 46.8244 37.8466L46.8243 37.8468Z" fill="white"/>
<path d="M53.6544 25.9935C53.6544 25.9935 52.6545 21.4364 48.2129 21.8072C45.9923 21.9925 44.1916 26.3754 44.1916 26.3754C44.1916 26.3754 46.1348 23.5561 53.6544 25.9935Z" fill="#09253D"/>
<g opacity="0.7">
<path d="M41.8715 40.9625C41.8819 40.9978 41.8853 41.0351 41.8888 41.0725C42.0548 42.3586 42.1391 43.8608 41.9152 44.2976C41.8033 44.516 41.0021 44.8684 39.9681 45.2129C37.909 45.9058 34.9073 46.6033 34.4944 46.2975C34.4347 46.2513 34.3592 46.1779 34.275 46.0749C33.817 45.5653 33.0321 44.392 32.5427 43.3615C32.1423 42.528 31.9336 41.7976 32.2358 41.5739C32.69 41.2413 33.4065 40.914 34.2448 40.6083C35.4219 40.1767 36.8506 39.7918 38.1186 39.5121C38.63 39.3989 39.1079 39.3021 39.5452 39.2238C40.6085 39.0303 41.3771 38.956 41.465 39.045C41.5843 39.163 41.7521 39.9886 41.8716 40.9626L41.8715 40.9625Z" fill="#B2B7D4"/>
</g>
<g style="mix-blend-mode:screen" opacity="0.6">
<path d="M41.8715 40.9628L39.9681 45.2131C37.909 45.906 34.9073 46.6035 34.4944 46.2977C34.4347 46.2515 34.3592 46.1781 34.275 46.0751L34.2447 40.6085C35.4218 40.1769 36.8504 39.792 38.1185 39.5124L37.3859 44.9686C37.5229 44.6022 38.6711 41.5594 39.5451 39.224C40.6084 39.0305 41.377 38.9562 41.4648 39.0453C41.5842 39.1632 41.7519 39.9888 41.8715 40.9629L41.8715 40.9628Z" fill="#B2B7D4"/>
</g>
<path d="M58.9104 33.5988C58.8184 33.456 58.4914 33.4536 58.0023 33.5984C57.3764 33.7838 56.6969 34.1481 56.6904 34.15L56.5611 34.2166L56.501 34.0857C56.501 34.0857 56.2858 33.6464 55.7665 33.6654C55.2558 33.6893 54.2778 33.908 52.941 34.304C50.613 34.9935 47.8257 36.0244 46.4777 36.6222C45.9557 36.8476 45.7715 37.3273 45.7715 37.3273L45.7077 37.495L45.5629 37.3891C45.5564 37.391 45.1322 37.0844 43.9342 37.255C43.9342 37.255 43.8215 37.2813 43.7758 37.2949L43.5866 37.3509C43.567 37.3567 43.541 37.3644 43.5168 37.3786L43.4386 37.4018C42.3476 37.9092 42.1588 38.3974 42.1588 38.3974L42.0969 38.5716L41.9436 38.4611C41.9436 38.4611 41.5279 38.159 40.9674 38.2543C39.5113 38.4872 36.6121 39.1403 34.2841 39.8299C32.9472 40.2258 32.0079 40.5748 31.5685 40.8396C31.1252 41.0913 31.182 41.5704 31.1813 41.5919L31.2003 41.728L31.0622 41.7405C31.0492 41.7444 30.2809 41.809 29.6549 41.9944C29.1723 42.1373 28.8929 42.3193 28.9 42.4872C28.9068 43.1088 29.7408 43.8889 29.9351 43.9945C29.9417 43.9925 29.9969 44.0116 30.2251 43.944C30.3751 43.8995 30.5538 43.8324 30.726 43.7673C30.9047 43.7001 31.0854 43.6396 31.2354 43.5951C31.4375 43.5353 31.5606 43.5201 31.6458 43.5443C31.778 43.5831 31.875 43.767 32.2414 44.5015C32.7108 45.4396 33.4896 47.0156 34.1839 47.2279C34.6159 47.3692 36.2534 47.0543 38.3467 46.4342C40.8443 45.6945 42.546 44.9497 42.7013 44.684C42.8069 44.4898 42.794 43.9197 42.7847 43.3131C42.7448 41.8371 42.7017 39.8234 44.1699 39.2965L44.4112 39.225C45.8839 38.8809 46.9378 40.5952 47.7147 41.8529C48.0306 42.3687 48.3303 42.8539 48.5313 42.9573C48.7997 43.0974 50.6392 42.7934 53.1302 42.0556C55.2235 41.4356 56.7682 40.808 57.0602 40.4523C57.5202 39.898 57.3218 38.1502 57.198 37.1098C57.1054 36.2941 57.0931 36.0852 57.1762 35.9826C57.2345 35.9159 57.346 35.8616 57.5547 35.7997C57.6982 35.7572 57.8827 35.7096 58.0692 35.6687C58.2491 35.6295 58.4355 35.5885 58.5855 35.5441C58.8138 35.4765 58.8563 35.4285 58.8563 35.4285C58.9619 35.2342 59.243 34.1237 58.9102 33.5987L58.9104 33.5988ZM41.9142 44.301C41.5841 44.9586 35.1148 46.7541 34.4977 46.2992C33.8787 45.8379 31.4879 42.1248 32.234 41.5779C34.2381 40.1057 41.1888 38.7626 41.4633 39.0426C41.7377 39.3227 42.3131 43.5168 41.9142 44.301ZM56.2915 39.8443C56.0152 40.5638 49.6182 42.579 48.9766 42.2092C48.2148 41.7688 46.4134 37.9378 46.4911 37.5535C46.5688 37.1691 53.1298 34.5103 55.6124 34.6535C56.5424 34.704 56.5529 39.1222 56.2915 39.8443Z" fill="#09253D"/>
<g opacity="0.7">
<path d="M56.2972 36.1023C56.3093 36.169 56.3231 36.2416 56.3299 36.3163C56.4807 37.4472 56.4611 38.8586 56.3547 39.5354C56.3401 39.6676 56.3168 39.7703 56.2919 39.8416C56.1833 40.123 55.163 40.5912 53.9155 41.0438C53.0139 41.3684 51.9941 41.6832 51.1105 41.913C50.0556 42.187 49.1917 42.328 48.979 42.2057C48.775 42.0872 48.4874 41.7124 48.1827 41.2276C47.8692 40.7134 47.5298 40.0857 47.2448 39.4864C47.2273 39.4532 47.2099 39.4201 47.1994 39.3848C46.7692 38.5027 46.4604 37.7188 46.4962 37.555C46.5214 37.4325 47.187 37.0884 48.163 36.678C48.177 36.6738 48.1894 36.6637 48.2036 36.6595C48.6131 36.4871 49.0666 36.3081 49.5571 36.1244C50.3654 35.821 51.2581 35.5183 52.1278 35.2672C52.567 35.1434 52.994 35.0298 53.4031 34.9342C53.4684 34.9212 53.5318 34.9024 53.5971 34.8895C54.3907 34.7183 55.0907 34.6196 55.6139 34.6501C55.9574 34.6697 56.1789 35.2878 56.2974 36.1025L56.2972 36.1023Z" fill="#B2B7D4"/>
</g>
<g style="mix-blend-mode:screen" opacity="0.6">
<path d="M56.2972 36.1022L53.9153 41.0437C53.0137 41.3683 51.994 41.6832 51.1103 41.913C50.0554 42.187 49.1916 42.3279 48.9788 42.2057C48.7748 42.0872 48.4872 41.7123 48.1825 41.2275L48.1628 36.6778C48.1768 36.6736 48.1892 36.6635 48.2034 36.6593C48.6128 36.4869 49.0664 36.3079 49.5569 36.1242C50.3652 35.8208 51.2579 35.5181 52.1276 35.267L51.3011 40.8468C51.4293 40.5022 52.7194 37.2129 53.5969 34.8893C54.3905 34.7182 55.0905 34.6194 55.6137 34.6499C55.9572 34.6695 56.1787 35.2876 56.2972 36.1023L56.2972 36.1022Z" fill="#B2B7D4"/>
</g>
<g style="mix-blend-mode:multiply" opacity="0.5">
<path d="M41.8887 41.0728C42.0548 42.3589 42.139 43.8611 41.9151 44.2979C41.5813 44.9591 35.1128 46.7535 34.4944 46.2978C34.1289 46.0227 33.1281 44.5875 32.5426 43.3618C34.911 45.6314 40.1387 45.2969 41.8887 41.0728Z" fill="#B2B7D4"/>
</g>
<g style="mix-blend-mode:multiply" opacity="0.5">
<path d="M47.2412 39.4874C47.8023 40.6564 48.5499 41.9622 48.9754 42.2067C49.6154 42.5794 56.0179 40.5617 56.2885 39.8426C56.4452 39.4128 56.5029 37.6642 56.3265 36.3173C55.576 39.5106 51.0093 42.0771 47.2412 39.4874Z" fill="#B2B7D4"/>
</g>
<path d="M44.4063 50.9103C45.5236 50.7885 46.6234 50.5685 47.6768 50.22C48.7319 49.877 49.7271 49.3806 50.6419 48.7841C52.4673 47.5904 53.9671 45.9125 54.859 44.0133L56.0636 44.6458C54.8272 46.7009 53.0304 48.3055 50.9852 49.371C49.9617 49.8997 48.8806 50.3059 47.7684 50.5473C46.6576 50.7942 45.5286 50.9016 44.4063 50.9103Z" fill="#09253D"/>
<path d="M53.4268 44.0464C55.051 43.7424 56.3928 44.8802 56.6018 45.5858C56.7556 43.7099 55.5102 42.8978 53.4268 44.0464Z" fill="#09253D"/>
<path d="M14.6205 31.3351L14.0598 18.9242C14.0157 17.95 14.6878 16.9754 15.6145 16.67L27.4529 12.7688C27.9732 12.5973 28.4786 12.6699 28.8543 12.9296L34.0224 16.5015C34.5836 16.8893 34.7863 17.5916 34.6119 18.3298C34.4377 19.0673 33.9015 19.7456 33.1132 20.0053L25.2505 22.5964C23.8981 23.0421 22.9455 24.4232 23.0098 25.8455L23.3808 34.0568C23.4183 34.8865 22.9739 35.6293 22.3453 36.054C21.7161 36.4792 20.9866 36.5385 20.4247 36.1501L15.2661 32.5848C14.8915 32.3259 14.6452 31.8804 14.6205 31.3351Z" fill="#00A5A5" stroke="#09253D"/>
<path d="M40.8899 18.1546C40.6967 18.3908 40.468 18.5863 40.2039 18.7409C39.9399 18.8956 39.6563 18.9997 39.3533 19.0532C39.1208 19.0942 38.891 19.1031 38.6636 19.0798C38.439 19.0583 38.2224 19.0096 38.014 18.9336C37.8074 18.855 37.613 18.7518 37.4307 18.6242C37.2484 18.4966 37.0849 18.3493 36.9403 18.1821C36.7976 18.0123 36.6765 17.8257 36.5772 17.6224C36.4797 17.4164 36.4105 17.1971 36.3695 16.9647C36.3284 16.7323 36.3184 16.5026 36.3395 16.2757C36.3628 16.0483 36.4127 15.8316 36.489 15.6254C36.5673 15.4166 36.6703 15.221 36.7979 15.0387C36.9255 14.8564 37.073 14.6941 37.2406 14.5518C37.41 14.4067 37.5966 14.2857 37.8003 14.1886C38.0059 14.0889 38.2249 14.0185 38.4574 13.9775C38.7604 13.924 39.0625 13.9247 39.3636 13.9797C39.6642 14.0323 39.946 14.1377 40.2088 14.2957L39.8401 15.2419C39.6692 15.1123 39.4785 15.0238 39.2681 14.9763C39.0572 14.9266 38.8447 14.9206 38.6305 14.9585C38.414 14.9967 38.2185 15.0735 38.0438 15.1889C37.8692 15.3043 37.7237 15.4451 37.6073 15.6113C37.4906 15.7753 37.4081 15.9602 37.3599 16.1661C37.3112 16.3697 37.3058 16.5786 37.3436 16.7928C37.3814 17.007 37.458 17.2014 37.5734 17.376C37.6884 17.5484 37.8291 17.6928 37.9953 17.8091C38.1615 17.9255 38.3464 18.0079 38.55 18.0566C38.7536 18.1052 38.9636 18.1105 39.1801 18.0723C39.3943 18.0345 39.5922 17.9572 39.7736 17.8406C39.9547 17.7217 40.1034 17.5721 40.2196 17.3918L40.8899 18.1546ZM42.3834 18.4091L41.4503 18.5738L40.5472 13.4571L41.4803 13.2924L41.7657 14.9091C41.8624 14.8051 41.967 14.7255 42.0795 14.6704C42.1916 14.613 42.3091 14.5735 42.4322 14.5518C42.6577 14.512 42.8773 14.5179 43.0908 14.5695C43.304 14.6188 43.4967 14.7058 43.6691 14.8304C43.8433 14.9524 43.9903 15.1062 44.11 15.2918C44.2316 15.4748 44.3123 15.6791 44.3521 15.9047L44.7213 17.9965L43.7814 18.1624L43.4122 16.0706L43.419 16.0694C43.4021 15.9736 43.368 15.8869 43.3167 15.809C43.2649 15.7288 43.2015 15.6625 43.1265 15.6099C43.0514 15.5574 42.9685 15.5203 42.8777 15.4988C42.787 15.4772 42.6938 15.4748 42.5981 15.4917C42.5001 15.509 42.411 15.5435 42.3309 15.5953C42.2507 15.647 42.1844 15.7104 42.1318 15.7855C42.0793 15.8606 42.0424 15.9446 42.0212 16.0376C41.9997 16.1284 41.9973 16.2216 42.0142 16.3173L42.3834 18.4091ZM48.9323 17.2532L48.7067 17.293L48.2557 16.8545C48.181 16.95 48.0997 17.0419 48.0119 17.1302C47.926 17.2158 47.8329 17.2945 47.7328 17.3662C47.6323 17.4357 47.5265 17.4955 47.4155 17.5456C47.3068 17.5953 47.1932 17.6307 47.0747 17.6516C46.8173 17.697 46.5669 17.6966 46.3238 17.6502C46.0829 17.6034 45.8625 17.5131 45.6627 17.3792C45.4647 17.2426 45.2956 17.0633 45.1554 16.8414C45.0152 16.6194 44.9181 16.3557 44.8642 16.0504C44.814 15.7656 44.8169 15.496 44.8731 15.2417C44.9288 14.9852 45.0259 14.7566 45.1644 14.5559C45.3051 14.3548 45.48 14.1877 45.6891 14.0544C45.9001 13.9185 46.1343 13.8278 46.3918 13.7824C46.5103 13.7615 46.6303 13.7556 46.7517 13.7647C46.8731 13.7738 46.9932 13.7949 47.1118 13.828C47.2304 13.8611 47.345 13.9043 47.4554 13.9577C47.5682 14.0106 47.6751 14.0705 47.7761 14.1372L48.0618 13.6392L48.2874 13.5994L48.9323 17.2532ZM47.6636 15.5563C47.6411 15.4287 47.5943 15.3101 47.5232 15.2004C47.4541 15.0881 47.3693 14.9938 47.2689 14.9175C47.1681 14.839 47.0559 14.7824 46.9323 14.7479C46.8106 14.7106 46.6859 14.7032 46.5583 14.7258C46.4307 14.7483 46.3138 14.7912 46.2075 14.8547C46.1035 14.9177 46.0167 14.9988 45.9473 15.0979C45.8802 15.1967 45.8337 15.313 45.808 15.4468C45.7819 15.5783 45.7829 15.7238 45.811 15.8833C45.8392 16.0428 45.8882 16.181 45.9582 16.2979C46.0278 16.4125 46.111 16.5047 46.2079 16.5745C46.3071 16.644 46.4164 16.6905 46.5357 16.714C46.6572 16.7372 46.7818 16.7376 46.9094 16.715C47.037 16.6925 47.1518 16.6441 47.2539 16.5697C47.3577 16.4926 47.4438 16.401 47.512 16.295C47.5798 16.1867 47.6272 16.0691 47.6541 15.9421C47.683 15.8125 47.6861 15.6839 47.6636 15.5563ZM51.4822 16.8032C51.2566 16.843 51.0372 16.8382 50.8241 16.7889C50.6106 16.7373 50.4155 16.6507 50.239 16.5291C50.0643 16.4049 49.9162 16.2513 49.7946 16.0683C49.6753 15.885 49.5958 15.6805 49.556 15.4549L49.3641 14.368L48.9095 14.4482L48.7454 13.5185L49.2 13.4383L48.9418 11.9754L49.8715 11.8113L50.1297 13.2742L51.5448 13.0244L51.7089 13.9541L50.2938 14.2039L50.4857 15.2908C50.5029 15.3888 50.5375 15.4779 50.5892 15.558C50.6405 15.6359 50.7038 15.7011 50.7788 15.7536C50.8539 15.8062 50.9381 15.8442 51.0316 15.8676C51.1246 15.8888 51.2201 15.8907 51.3181 15.8735L52.0256 15.7486L52.1897 16.6783L51.4822 16.8032Z" fill="#09253D"/>
</svg>
