<svg width="515" height="511" viewBox="0 0 515 511" fill="none" xmlns="http://www.w3.org/2000/svg">
<path d="M63.759 0H62.627V153.187H63.759V0Z" fill="#C7C7C7"/>
<path d="M116.468 204.466L112.189 213.87H14.1859L9.91797 204.466L51.6346 175.633H74.7514L116.468 204.466Z" fill="#00A5A5"/>
<path d="M77.6493 147.852L74.7512 175.634H51.6344L48.7363 147.852H77.6493Z" fill="#DBDBDB"/>
<path d="M116.468 204.469L112.177 213.873H14.1855L9.90625 204.469H116.468Z" fill="#DBDBDB"/>
<path d="M178.156 0H177.023V122.85H178.156V0Z" fill="#C7C7C7"/>
<path d="M230.863 174.123L226.583 183.538H128.58L124.312 174.123L166.029 145.289H189.146L230.863 174.123Z" fill="#00A5A5"/>
<path d="M192.046 117.516L189.148 145.287H166.031L163.133 117.516H192.046Z" fill="#DBDBDB"/>
<path d="M230.862 174.133L226.572 183.537H128.58L124.301 174.133H230.862Z" fill="#DBDBDB"/>
<path d="M29.3895 252.44L18.216 270.422L23.7632 273.813C24.5406 274.318 25.1634 275.027 25.5629 275.863C25.9624 276.699 26.1231 277.628 26.0273 278.549C25.9364 279.575 25.9024 280.605 25.9254 281.635C25.9571 282.572 25.7286 283.5 25.2651 284.316C24.8016 285.132 24.1211 285.804 23.299 286.258L17.6387 289.321L27.6914 308.016L33.3518 304.953C34.1571 304.521 35.0657 304.319 35.9782 304.369C36.8907 304.419 37.7719 304.719 38.5253 305.235C39.4499 305.88 40.4099 306.472 41.4008 307.01C42.2056 307.452 42.8712 308.109 43.3231 308.907C43.775 309.706 43.9952 310.614 43.9592 311.531L43.7555 318.007L64.9478 318.663L65.1402 312.164C65.17 311.245 65.4546 310.353 65.9623 309.587C66.47 308.821 67.1809 308.21 68.0157 307.823C68.5138 307.586 69.0006 307.337 69.4874 307.077C69.9741 306.817 70.4496 306.546 70.9138 306.264C71.6951 305.784 72.5945 305.53 73.5119 305.53C74.4292 305.53 75.3286 305.784 76.1099 306.264L81.6684 309.654L92.8306 291.672L87.2721 288.224C86.4938 287.72 85.8703 287.011 85.4707 286.175C85.0711 285.34 84.9109 284.41 85.008 283.488C85.0987 282.466 85.1327 281.44 85.1099 280.414C85.0793 279.476 85.3095 278.547 85.7751 277.731C86.2406 276.915 86.9234 276.244 87.7476 275.791L93.4079 272.728L83.3891 254.079L77.6609 257.142C76.8299 257.576 75.8944 257.771 74.9589 257.705C74.0234 257.639 73.1245 257.315 72.3628 256.769C71.5138 256.181 70.6307 255.638 69.7364 255.152C68.9118 254.723 68.2237 254.072 67.7497 253.273C67.2756 252.475 67.0345 251.56 67.0534 250.631L67.3138 244.143L46.1328 243.477L45.929 249.976C45.8908 250.904 45.5954 251.803 45.0758 252.573C44.5561 253.343 43.8326 253.954 42.9857 254.339C42.5102 254.553 42.046 254.791 41.5819 255.039C41.1178 255.288 40.6649 255.548 40.2234 255.819C39.4283 256.307 38.5133 256.565 37.58 256.565C36.6468 256.565 35.7318 256.307 34.9367 255.819L29.3895 252.44ZM45.397 266.998C48.345 264.886 51.8815 263.749 55.5097 263.747C59.138 263.745 62.6758 264.878 65.6264 266.986C68.5769 269.094 70.792 272.072 71.9606 275.501C73.1292 278.931 73.1925 282.64 72.1418 286.107C71.091 289.574 68.9789 292.626 66.1021 294.833C63.2252 297.041 59.7281 298.293 56.1019 298.414C52.4757 298.536 48.9024 297.52 45.884 295.51C42.8655 293.5 40.5535 290.596 39.2725 287.207C37.9225 283.635 37.791 279.718 38.8983 276.064C40.0057 272.41 42.2901 269.223 45.397 266.998Z" fill="#00A5A5"/>
<path d="M494.102 76.8583C493.628 76.5807 493.24 76.1768 492.982 75.6917C492.724 75.2067 492.606 74.6597 492.642 74.1117C492.642 73.8065 492.642 73.5013 492.642 73.1961C492.642 72.891 492.642 72.5745 492.642 72.2693C492.606 71.7213 492.724 71.1743 492.982 70.6892C493.24 70.2042 493.628 69.8003 494.102 69.5227L497.419 67.6126L491.193 56.8184L487.831 58.7738C487.353 59.0476 486.808 59.1822 486.258 59.1622C485.707 59.1422 485.174 58.9685 484.717 58.6607C484.197 58.333 483.665 58.0165 483.11 57.7339C482.62 57.4884 482.207 57.1125 481.918 56.6478C481.628 56.1832 481.473 55.6477 481.468 55.1004V51.2461H469.016V55.0551C469.002 55.5974 468.84 56.1255 468.547 56.5819C468.253 57.0384 467.84 57.4056 467.352 57.6435C466.797 57.9261 466.219 58.2425 465.744 58.5703C465.288 58.878 464.754 59.0518 464.204 59.0718C463.653 59.0917 463.108 58.9572 462.631 58.6833L459.314 56.7732L453.076 67.5673L456.404 69.4888C456.888 69.7655 457.284 70.1737 457.544 70.666C457.805 71.1582 457.92 71.7143 457.876 72.2693C457.876 72.5745 457.876 72.8797 457.876 73.1848C457.876 73.49 457.876 73.7952 457.876 74.1004C457.913 74.6513 457.794 75.2016 457.534 75.6889C457.274 76.1762 456.883 76.5813 456.404 76.8583L453.076 78.7684L459.314 89.5626L462.619 87.6524C463.097 87.3795 463.641 87.2445 464.191 87.2624C464.74 87.2804 465.274 87.4507 465.733 87.7542C466.254 88.0976 466.794 88.4108 467.352 88.6923C467.84 88.9384 468.251 89.3146 468.539 89.7794C468.826 90.2442 468.98 90.7795 468.982 91.3259V95.1349H481.434V91.3146C481.439 90.7672 481.594 90.2317 481.884 89.7671C482.174 89.3024 482.586 88.9265 483.076 88.681C483.632 88.397 484.172 88.0839 484.695 87.7429C485.151 87.4391 485.683 87.2686 486.231 87.2507C486.779 87.2327 487.321 87.3679 487.797 87.6411L491.114 89.5513L497.34 78.7571L494.102 76.8583ZM475.265 83.4026C473.25 83.4026 471.28 82.806 469.604 81.6882C467.929 80.5704 466.623 78.9817 465.852 77.1229C465.08 75.2641 464.879 73.2188 465.272 71.2455C465.665 69.2722 466.635 67.4596 468.06 66.037C469.485 64.6143 471.301 63.6455 473.277 63.253C475.253 62.8605 477.302 63.0619 479.164 63.8319C481.025 64.6018 482.617 65.9056 483.736 67.5785C484.856 69.2514 485.453 71.2181 485.453 73.2301C485.452 74.5678 485.186 75.8922 484.671 77.1273C484.156 78.3624 483.403 79.484 482.453 80.4278C481.504 81.3717 480.377 82.1193 479.138 82.6278C477.898 83.1363 476.571 83.3957 475.231 83.3913L475.265 83.4026Z" fill="#00A5A5"/>
<path d="M213.26 360.401C212.816 360.142 212.448 359.773 212.19 359.329C211.932 358.885 211.794 358.383 211.788 357.87C211.788 357.361 211.788 356.864 211.788 356.355C211.733 355.845 211.764 355.329 211.879 354.829C212.004 354.329 212.262 353.872 212.626 353.507C213.01 353.171 213.436 352.886 213.894 352.659L216.531 351.122V351.178L210.237 340.418H210.384L206.92 342.453C206.283 342.77 205.555 342.858 204.86 342.701C204.205 342.498 203.584 342.201 203.014 341.82L202.154 341.334C201.837 341.168 201.55 340.95 201.305 340.689C200.803 340.168 200.499 339.489 200.445 338.768V334.755L200.705 335.015L188.252 335.128L188.637 334.755V338.779C188.601 339.357 188.418 339.915 188.105 340.402C187.792 340.888 187.359 341.287 186.849 341.56L186 342.068L185.15 342.566C184.822 342.771 184.463 342.924 184.086 343.018C183.324 343.185 182.527 343.094 181.822 342.758L178.313 340.757L178.992 340.576L172.8 351.393L172.596 350.636L176.105 352.648C176.599 352.986 177 353.443 177.271 353.976C177.542 354.509 177.674 355.102 177.656 355.7V356.694V357.678C177.663 358.06 177.609 358.442 177.498 358.808C177.262 359.571 176.77 360.23 176.105 360.673L172.596 362.685L172.788 361.973L178.969 372.789L178.335 372.62L181.856 370.642C182.563 370.311 183.36 370.228 184.12 370.404C184.484 370.499 184.831 370.648 185.15 370.845L186.011 371.354L186.86 371.851C187.189 372.032 187.487 372.265 187.743 372.541C188.253 373.097 188.556 373.811 188.603 374.564V378.599L188.298 378.294L200.75 378.418L200.569 378.599V374.587C200.623 373.883 200.919 373.22 201.407 372.71C201.92 372.26 202.491 371.88 203.105 371.58C203.671 371.209 204.284 370.917 204.928 370.71C205.603 370.549 206.313 370.633 206.931 370.947L210.407 372.959H210.328L216.599 362.187L213.26 360.401ZM213.26 360.401L216.577 362.3L210.384 373.106V373.162L206.897 371.184C206.306 370.898 205.634 370.826 204.996 370.981C204.342 371.178 203.723 371.475 203.162 371.863C202.571 372.161 202.026 372.542 201.543 372.993C201.104 373.467 200.844 374.078 200.807 374.722V378.723V378.904H200.626L188.173 379.028H187.879V378.644V374.654C187.832 374.066 187.584 373.511 187.177 373.083C186.971 372.872 186.734 372.693 186.475 372.552L185.592 372.055L184.709 371.557C184.461 371.408 184.189 371.301 183.905 371.241C183.336 371.114 182.741 371.186 182.218 371.444L178.822 373.468L178.426 373.705L178.188 373.298L171.905 362.538L171.645 362.086L172.098 361.826L175.494 359.825C175.945 359.515 176.277 359.06 176.434 358.537C176.511 358.272 176.549 357.998 176.547 357.723V356.705V355.688C176.549 355.413 176.511 355.139 176.434 354.874C176.275 354.354 175.939 353.906 175.483 353.608L172.086 351.597L171.6 351.325L171.883 350.851L178.154 340.09L178.415 339.65L178.845 339.898L182.241 341.899C182.746 342.148 183.322 342.215 183.871 342.091C184.148 342.033 184.413 341.926 184.652 341.774L185.535 341.277L186.43 340.78C186.681 340.647 186.91 340.475 187.109 340.271C187.51 339.855 187.75 339.31 187.788 338.734V334.767V334.371H188.162L200.614 334.484H200.898V334.744V338.734C200.939 339.356 201.19 339.946 201.611 340.407C202.087 340.857 202.624 341.238 203.207 341.537C203.74 341.917 204.328 342.214 204.95 342.419C205.569 342.565 206.22 342.498 206.796 342.227L210.294 340.271L210.384 340.215V340.305L216.577 351.122L213.928 352.636C213.472 352.856 213.05 353.138 212.671 353.473C212.308 353.826 212.05 354.272 211.924 354.761C211.805 355.257 211.77 355.769 211.822 356.276C211.822 356.785 211.822 357.293 211.822 357.791C211.81 358.314 211.937 358.83 212.19 359.289C212.442 359.747 212.811 360.131 213.26 360.401Z" fill="#00A5A5"/>
<path d="M194.423 366.947C192.689 366.94 190.984 366.504 189.459 365.679C187.935 364.854 186.639 363.665 185.687 362.218C184.735 360.771 184.156 359.111 184.002 357.387C183.849 355.662 184.125 353.927 184.807 352.335C185.488 350.743 186.554 349.344 187.908 348.263C189.263 347.183 190.865 346.454 192.57 346.141C194.276 345.829 196.032 345.942 197.683 346.472C199.334 347.002 200.827 347.932 202.031 349.179C203.977 351.21 205.036 353.93 204.974 356.74C204.883 359.464 203.737 362.046 201.778 363.944C199.818 365.841 197.198 366.905 194.468 366.913L194.423 366.947ZM194.423 366.947C195.749 366.946 197.061 366.68 198.282 366.165C199.503 365.65 200.608 364.896 201.534 363.949C202.459 363.001 203.185 361.878 203.668 360.646C204.152 359.413 204.384 358.097 204.351 356.774C204.275 354.192 203.194 351.742 201.339 349.942C199.483 348.142 196.999 347.135 194.412 347.133C191.776 347.133 189.247 348.178 187.383 350.039C185.519 351.901 184.472 354.425 184.472 357.057C184.472 359.689 185.519 362.213 187.383 364.074C189.247 365.935 191.776 366.981 194.412 366.981L194.423 366.947Z" fill="#00A5A5"/>
<path d="M9.30469 494.792L71.3533 494.521L133.402 494.419L257.499 494.238L381.596 494.419L443.645 494.521L505.693 494.792L443.645 495.075L381.596 495.176L257.499 495.357L133.402 495.176L71.3533 495.075L9.30469 494.792Z" fill="#09253D"/>
<path d="M495.552 101.734H307.855V291.147H495.552V101.734Z" fill="#00A5A5"/>
<path d="M394.152 90.3114C400.412 82.9759 411.133 81.2127 421.503 83.3037C431.873 85.3947 444.291 90.6166 445.424 107.933C446.352 121.993 442.027 135.704 442.027 151.392C442.027 167.08 459.812 205.295 431.352 223.945C405.779 240.695 353.964 225.312 352.368 190.827C351.111 163.497 383.579 138.224 386.998 127.407C390.416 116.59 387.292 98.3364 394.152 90.3114Z" fill="#09253D"/>
<path d="M389.476 105.738C389.283 113.56 388.151 121.472 384.947 128.853C384.116 130.722 383.031 132.468 381.721 134.041C380.464 135.623 379.129 137.115 377.793 138.562C375.098 141.489 372.438 144.394 369.868 147.412C364.764 153.324 360.547 159.945 357.348 167.067C354.28 174.223 352.594 181.893 352.378 189.673C352.059 185.746 352.177 181.796 352.729 177.895C353.341 173.974 354.354 170.126 355.751 166.412C358.7 158.969 362.879 152.073 368.114 146.01C370.683 142.947 373.412 140.02 376.129 137.126C378.846 134.233 381.597 131.475 383.283 128.084C385.013 124.617 386.332 120.96 387.212 117.188C388.205 113.422 388.961 109.598 389.476 105.738Z" fill="#09253D"/>
<path d="M444.709 119.742C444.517 127.722 444.007 135.69 444.222 143.614C444.315 147.56 444.648 151.497 445.219 155.403C445.807 159.246 446.962 163.088 447.924 166.977C448.887 170.865 449.747 174.809 450.381 178.788C450.994 182.785 451.251 186.828 451.151 190.871C450.966 194.933 450.204 198.948 448.887 202.795C447.367 206.577 445.099 210.014 442.219 212.9C444.743 209.802 446.662 206.26 447.879 202.456C448.935 198.674 449.46 194.763 449.441 190.837C449.12 182.933 447.882 175.093 445.751 167.474C444.845 163.597 443.69 159.754 443.136 155.674C442.616 151.676 442.412 147.644 442.524 143.614C442.764 135.619 443.493 127.647 444.709 119.742Z" fill="#09253D"/>
<path d="M403.536 186.848C377.499 215.466 356.25 229.211 335.307 229.211C315.394 229.211 272.851 180.936 269.726 174.573C267.032 169.08 301.956 139.025 307.322 142.767C316.379 149.028 345.427 185.276 348.507 185.446C351.586 185.616 362.929 178.133 390.246 165.361C406.842 157.619 421.65 167.011 403.536 186.848Z" fill="#EB9481"/>
<path d="M273.78 179.329C269.954 175.192 253.889 154.542 250.708 147.805C247.527 141.069 239.818 121.018 244.742 118.068C249.667 115.118 252.384 120.803 252.384 120.803C252.384 120.803 250.471 111.829 255.701 109.308C260.931 106.788 264.871 115.773 264.871 115.773C264.871 115.773 263.58 106.415 268.969 104.267C274.357 102.119 276.825 111.84 276.825 111.84C276.825 111.84 275.24 103.329 280.425 103.431C286.663 103.555 287.806 119.571 291.87 126.748C292.787 128.376 312.915 158.396 312.915 158.396L273.78 179.329Z" fill="#EB9481"/>
<path d="M276.609 111.017C277.481 122.783 279.904 127.79 286.798 137.137C286.934 137.318 286.696 137.556 286.537 137.386C278.919 128.841 274.979 123.009 276.009 111.028C276.089 110.44 276.564 110.451 276.609 111.017Z" fill="#09253D"/>
<path d="M264.837 114.848C266.807 126.998 269.365 132.446 275.92 142.766C276.011 142.912 275.773 143.082 275.671 142.946C268.414 133.35 264.611 127.439 264.237 115.04C264.214 114.475 264.746 114.282 264.837 114.848Z" fill="#09253D"/>
<path d="M252.746 121.323C255.508 132.954 258.078 139.046 265.708 148.246C265.889 148.472 265.584 148.755 265.391 148.552C256.697 139.916 253.437 132.332 252.406 121.425C252.339 120.701 252.576 120.588 252.746 121.323Z" fill="#09253D"/>
<path d="M321.892 161.267C321.892 161.267 321.632 146.472 320.081 139.995C318.53 133.519 303.915 111.524 298.922 114.417C292.549 118.147 298.504 132.502 302.319 139.17C302.319 139.17 287.602 147.806 289.605 159.041C291.609 170.276 321.892 161.267 321.892 161.267Z" fill="#EB9481"/>
<path d="M297.508 116.013C294.112 123.609 299.773 132.029 302.999 138.754C303.051 138.851 303.079 138.959 303.081 139.069C303.082 139.178 303.058 139.287 303.009 139.385C302.96 139.484 302.889 139.569 302.8 139.634C302.712 139.7 302.609 139.743 302.501 139.76C296.546 143.795 289.335 151.199 289.244 158.772C289.244 158.817 289.226 158.86 289.195 158.892C289.163 158.923 289.12 158.941 289.075 158.941C289.029 158.941 288.986 158.923 288.954 158.892C288.923 158.86 288.905 158.817 288.905 158.772C287.897 150.634 294.384 142.767 301.176 138.777C297.78 131.916 292.493 123.236 297.44 115.945L297.508 116.013Z" fill="#09253D"/>
<path d="M358.641 177.125L379.561 216.097C379.561 216.097 407.931 188.597 412.459 177.125C416.987 165.653 412.108 157.322 391.923 163.46C380.392 166.872 369.24 171.451 358.641 177.125Z" fill="#09253D"/>
<path d="M384.393 207.972C383.363 205.859 382.457 203.677 381.382 201.575C380.306 199.472 379.231 197.393 378.11 195.336C375.846 191.176 373.582 187.005 371.227 182.903C369.891 180.642 368.487 178.314 367.027 176.121C366.97 176.019 366.778 176.121 366.835 176.2C370.672 184.779 375.325 192.996 379.967 201.157C381.314 203.519 382.842 205.768 384.246 208.096C384.291 208.153 384.449 208.051 384.393 207.972Z" fill="#09253D"/>
<path d="M412.457 177.127C407.929 188.599 379.559 216.099 379.559 216.099L365.465 189.887L411.959 164.219C414.631 166.999 414.597 171.713 412.457 177.127Z" fill="#09253D"/>
<path d="M363.405 242.742C363.405 242.742 351.903 270.231 355.967 291.141H482.781C478.661 234.299 450.28 185.448 433.514 169.636C419.997 156.886 405.767 158.028 395.861 164.55C393.529 166.098 367.797 201.6 365.012 207.218C353.963 229.382 363.405 242.742 363.405 242.742Z" fill="#09253D"/>
<path d="M396.746 162.874C396.746 162.874 388.822 185.626 393.418 186.813C404.852 189.752 420.191 171.113 421.108 169.214C421.335 168.728 422.354 155.99 423.112 146.078C423.599 139.703 423.973 134.492 423.973 134.492L395.762 144.156L396.667 161.619L396.746 162.874Z" fill="#EB9481"/>
<path d="M395.715 144.156L396.621 161.619C402.36 160.816 414.983 157.708 423.066 146.078C423.552 139.703 423.926 134.492 423.926 134.492L420.394 135.622L395.715 144.156Z" fill="#09253D"/>
<path d="M374.703 119.711C374.364 128.584 375.247 135.761 377.409 140.531C379.262 144.605 382.209 148.086 385.924 150.588C389.64 153.091 393.977 154.515 398.454 154.704C401.85 154.829 411.631 153.936 418.707 148.556C424.209 144.374 427.526 136.835 429.405 123.576C433.707 93.2623 419.816 83.0672 406.13 81.8465C392.443 80.6258 375.835 89.1255 374.703 119.711Z" fill="#EB9481"/>
<path d="M382.549 112.948C383.262 112.846 383.919 112.643 384.61 112.485C385.361 112.417 386.071 112.112 386.636 111.614C386.778 111.421 386.854 111.187 386.854 110.948C386.854 110.708 386.778 110.474 386.636 110.281C386.284 109.954 385.851 109.726 385.381 109.621C384.912 109.515 384.423 109.536 383.964 109.682C382.988 109.837 382.105 110.348 381.485 111.117C381.339 111.295 381.251 111.513 381.232 111.743C381.214 111.972 381.266 112.202 381.381 112.401C381.497 112.6 381.671 112.759 381.88 112.857C382.088 112.955 382.322 112.987 382.549 112.948Z" fill="#09253D"/>
<path d="M402.551 113.708C401.857 113.586 401.169 113.428 400.491 113.234C399.74 113.171 399.031 112.861 398.476 112.352C398.334 112.158 398.258 111.925 398.258 111.685C398.258 111.445 398.334 111.212 398.476 111.018C398.831 110.692 399.267 110.466 399.739 110.365C400.21 110.264 400.701 110.29 401.159 110.442C402.143 110.599 403.032 111.119 403.649 111.9C403.791 112.081 403.875 112.3 403.888 112.529C403.902 112.759 403.846 112.987 403.726 113.183C403.607 113.379 403.431 113.535 403.221 113.629C403.011 113.723 402.777 113.75 402.551 113.708Z" fill="#09253D"/>
<path d="M397.548 121.348C397.548 121.269 397.706 121.449 397.706 121.54C397.537 123.608 397.706 126.061 399.552 126.807C399.552 126.807 399.552 126.931 399.552 126.92C397.242 126.49 397.061 123.28 397.548 121.348Z" fill="#09253D"/>
<path d="M399.52 119.259C402.916 119.168 402.825 125.893 399.701 125.984C396.576 126.074 396.746 119.338 399.52 119.259Z" fill="#09253D"/>
<path d="M400.843 119.631C401.42 120.016 401.975 120.694 402.699 120.762C403.424 120.829 404.149 120.151 404.692 119.473C404.749 119.405 404.805 119.473 404.805 119.552C404.805 120.841 404.307 122.163 402.915 122.344C401.522 122.525 400.764 121.349 400.447 120.083C400.39 119.812 400.605 119.473 400.843 119.631Z" fill="#09253D"/>
<path d="M386.398 120.465C386.398 120.386 386.24 120.567 386.24 120.646C386.24 122.737 386.025 125.167 384.134 125.822C384.078 125.822 384.078 125.947 384.134 125.935C386.455 125.619 386.795 122.432 386.398 120.465Z" fill="#09253D"/>
<path d="M384.542 118.285C381.146 118.025 380.908 124.75 384.021 124.987C387.134 125.225 387.349 118.511 384.542 118.285Z" fill="#09253D"/>
<path d="M383.161 118.68C382.618 119.019 382.029 119.641 381.429 119.663C380.829 119.686 380.173 118.929 379.731 118.217C379.731 118.138 379.629 118.217 379.618 118.284C379.539 119.573 379.901 120.918 381.135 121.223C382.369 121.528 383.127 120.421 383.478 119.155C383.501 118.906 383.331 118.544 383.161 118.68Z" fill="#09253D"/>
<path d="M397.345 137.534C396.858 138.043 396.383 138.732 395.635 138.823C394.859 138.829 394.089 138.679 393.371 138.382C393.358 138.37 393.34 138.364 393.322 138.365C393.304 138.366 393.287 138.374 393.275 138.388C393.263 138.401 393.257 138.419 393.258 138.437C393.259 138.455 393.267 138.472 393.281 138.484C393.595 138.883 394.011 139.19 394.485 139.373C394.959 139.556 395.474 139.608 395.975 139.524C396.393 139.393 396.764 139.144 397.044 138.807C397.323 138.47 397.498 138.059 397.549 137.625C397.555 137.599 397.552 137.572 397.54 137.548C397.529 137.524 397.509 137.505 397.485 137.494C397.46 137.483 397.433 137.481 397.407 137.489C397.382 137.496 397.36 137.512 397.345 137.534Z" fill="#09253D"/>
<path d="M388.821 129.813C388.821 129.813 388.323 132.921 388.3 134.391C388.3 134.526 388.651 134.594 389.149 134.639C389.149 134.639 389.149 134.639 389.206 134.639C390.455 134.886 391.749 134.787 392.946 134.353C394.143 133.918 395.198 133.165 395.998 132.175C396.1 132.04 395.919 131.881 395.783 131.972C393.88 133.209 391.63 133.803 389.364 133.667C389.274 133.249 390.394 128.378 390.157 128.355C388.998 128.427 387.855 128.659 386.76 129.044C387.609 122.545 389.489 116.238 390.224 109.762C390.224 109.536 389.919 109.457 389.851 109.66C387.406 116.125 386.274 123.585 385.221 130.265C385.13 131.113 388.187 130.062 388.821 129.813Z" fill="#09253D"/>
<path d="M390.09 133.874C390.814 134.982 391.812 135.885 392.988 136.496C393.636 136.804 394.363 136.907 395.071 136.79C396.622 136.507 396.769 135.117 396.588 133.908C396.477 133.264 396.295 132.634 396.045 132.031C394.307 133.264 392.221 133.91 390.09 133.874Z" fill="#09253D"/>
<path d="M392.986 136.49C393.634 136.799 394.361 136.901 395.069 136.784C396.62 136.502 396.767 135.111 396.586 133.902C395.782 133.866 394.989 134.102 394.336 134.572C393.683 135.041 393.207 135.717 392.986 136.49Z" fill="#FF98B9"/>
<path d="M428.85 120.85C425.511 120.952 416.035 112.633 414.315 96.6508C414.315 96.6508 416.862 110.892 418.13 112.893C419.398 114.894 412.832 108.202 411.258 95.3397C411.258 95.3397 404.579 101.149 398.624 103.41C392.67 105.67 388.945 105.964 388.436 105.557C387.926 105.151 396.677 101.511 398.851 98.5045C398.851 98.5045 383.307 107.547 375.881 108.767C375.021 108.903 376.47 95.5544 387.349 86.9643C398.228 78.3742 413.183 80.5217 418.549 84.8168C418.549 84.8168 424.413 85.122 431.477 93.0904C438.541 101.059 432.439 120.737 428.85 120.85Z" fill="#09253D"/>
<path d="M424.447 125.736C424.447 125.736 430.662 115.868 435.111 118.038C439.56 120.209 435.224 134.281 430.232 136.417C429.61 136.737 428.93 136.929 428.233 136.98C427.535 137.031 426.835 136.94 426.173 136.712C425.512 136.485 424.904 136.127 424.385 135.658C423.867 135.19 423.449 134.621 423.156 133.987L424.447 125.736Z" fill="#EB9481"/>
<path d="M433.764 122.07C433.855 122.07 433.866 122.172 433.764 122.206C430.266 123.822 428.556 127.224 427.402 130.717C428.409 129.338 429.813 128.547 431.647 129.722C431.738 129.779 431.647 129.937 431.556 129.914C430.926 129.761 430.264 129.802 429.658 130.032C429.051 130.262 428.529 130.67 428.16 131.203C427.55 132.117 427.034 133.09 426.621 134.108C426.473 134.436 425.885 134.3 425.998 133.927C425.993 133.897 425.993 133.866 425.998 133.837C425.681 129.27 428.907 122.737 433.764 122.07Z" fill="#09253D"/>
<path d="M443.329 175.838C455.873 190.294 491.035 242.626 482.884 256.766C475.061 270.329 457.322 274.15 447.111 255.929C439.763 242.897 427.413 204.016 424.345 185.366C421.854 170.265 431.737 162.467 443.329 175.838Z" fill="#EB9481"/>
<path d="M431.614 222.17L473.183 206.922C473.183 206.922 449.851 175.037 439.108 168.967C428.365 162.898 419.421 166.56 422.704 187.368C424.472 199.243 427.457 210.905 431.614 222.17Z" fill="#09253D"/>
<path d="M465.801 200.997C463.537 201.732 461.273 202.319 459.008 203.088C456.744 203.857 454.571 204.636 452.375 205.462C447.925 207.112 443.488 208.762 439.084 210.536C436.616 211.531 434.148 212.605 431.737 213.735C431.624 213.735 431.669 213.973 431.737 213.939C440.793 211.339 449.578 207.88 458.318 204.433C460.854 203.427 463.288 202.172 465.789 201.166C465.959 201.121 465.88 200.963 465.801 200.997Z" fill="#09253D"/>
<path d="M433.955 221.196C433.132 221.377 432.325 221.627 431.543 221.942C430.411 219.489 427.728 208.706 427.106 205.937C425.86 200.421 424.842 194.849 423.54 189.333C423.54 189.175 423.234 189.22 423.257 189.333C423.642 192.396 424.117 195.448 424.649 198.477C424.083 197.03 423.517 195.572 423.076 194.091C423.08 194.081 423.082 194.07 423.081 194.059C423.08 194.047 423.076 194.037 423.07 194.027C423.064 194.018 423.055 194.01 423.046 194.005C423.036 193.999 423.025 193.996 423.013 193.996C423.002 193.996 422.991 193.999 422.981 194.005C422.971 194.01 422.963 194.018 422.956 194.027C422.95 194.037 422.947 194.047 422.946 194.059C422.945 194.07 422.946 194.081 422.951 194.091C423.466 195.931 424.097 197.735 424.842 199.494C425.283 205.146 430.434 223.106 430.581 223.038C431.746 222.511 432.88 221.918 433.977 221.263C434.102 221.297 434.102 221.184 433.955 221.196Z" fill="#09253D"/>
<path d="M413.399 114.806L401.569 165.227C401.059 166.708 401.818 167.895 403.267 167.872L425.852 172.461C426.643 172.389 427.397 172.093 428.027 171.609C428.656 171.125 429.135 170.472 429.406 169.726L441.236 119.304C441.746 117.823 440.987 116.637 439.538 116.671L416.953 112.07C416.162 112.143 415.408 112.438 414.778 112.923C414.149 113.407 413.67 114.06 413.399 114.806Z" fill="#A6A6A6"/>
<path d="M415.334 115.087L403.537 165.509C403.028 166.989 403.787 168.176 405.236 168.154L427.82 172.742C428.61 172.671 429.364 172.377 429.993 171.895C430.622 171.413 431.102 170.762 431.375 170.018L443.16 119.597C443.669 118.105 442.911 116.929 441.462 116.952L418.888 112.352C418.098 112.428 417.346 112.725 416.717 113.209C416.088 113.692 415.609 114.343 415.334 115.087Z" fill="#DBDBDB"/>
<path d="M422.489 117.256C422.5 117.708 422.375 118.153 422.13 118.534C421.885 118.914 421.531 119.213 421.114 119.39C420.698 119.568 420.237 119.617 419.793 119.53C419.348 119.444 418.939 119.226 418.62 118.906C418.3 118.585 418.085 118.176 418 117.732C417.916 117.287 417.967 116.828 418.148 116.413C418.328 115.998 418.628 115.646 419.011 115.403C419.393 115.161 419.839 115.038 420.292 115.052C420.876 115.055 421.434 115.288 421.846 115.701C422.257 116.114 422.489 116.673 422.489 117.256Z" fill="#09253D"/>
<path d="M453.145 260.497C460.492 274.06 479.941 266.329 482.884 256.767C489.79 234.331 485.511 197.031 481.39 176.2C480.065 169.498 434.466 176.2 434.738 183.445C435.055 192.205 438.745 233.822 453.145 260.497Z" fill="#EB9481"/>
<path d="M480.88 186.157C483.177 176.273 483.316 166.011 481.288 156.069C478.888 145.23 471.043 122.24 439.503 111.988C432.02 109.547 419.624 111.367 430.447 119.776C438.099 125.755 444.756 127.236 448.56 131.531C448.56 131.531 433.073 135.713 430.922 143.286C429.039 149.914 427.628 156.668 426.7 163.495C427.912 163.949 429.153 164.326 430.413 164.625C429.748 171.219 431.284 177.847 434.783 183.478L480.88 186.157Z" fill="#EB9481"/>
<path d="M477.337 146.088C472.65 142.697 462.62 135.486 452.33 132.525C440.919 129.134 418.062 125.856 415.685 134.276C413.941 140.459 422.556 142.505 422.556 142.505C422.556 142.505 412.821 143.115 412.47 149.038C412.153 154.441 418.911 155.627 418.911 155.627C418.911 155.627 413.07 157.006 413.76 162.274C414.598 168.592 426.723 164.658 433.119 170.332C434.556 171.576 477.337 146.088 477.337 146.088Z" fill="#EB9481"/>
<path d="M450.812 145.104C445.876 142.572 433.174 139.713 422.737 142.301C422.499 142.301 422.42 142.561 422.646 142.561C432.1 142.306 441.549 143.194 450.789 145.206C450.846 145.228 450.869 145.127 450.812 145.104Z" fill="#09253D"/>
<path d="M447.121 156.497C442.593 154.756 429.404 152.383 418.921 155.367C418.683 155.434 418.615 155.649 418.842 155.638C428.282 154.885 437.777 155.211 447.144 156.61C447.159 156.607 447.172 156.598 447.18 156.585C447.189 156.573 447.192 156.557 447.189 156.542C447.186 156.527 447.177 156.514 447.164 156.505C447.152 156.497 447.136 156.494 447.121 156.497Z" fill="#09253D"/>
<path d="M448.979 251.047C448.64 249.916 448.311 248.786 447.949 247.758C447.202 245.497 446.557 243.236 445.9 240.976C444.564 236.455 443.285 231.866 442.164 227.254C439.927 218.063 438.23 208.748 437.081 199.359C436.764 196.759 436.493 194.16 436.21 191.56C435.927 188.96 435.836 186.259 435.338 183.648C435.338 183.512 434.013 181.523 433.493 180.54C432.952 179.517 432.479 178.46 432.078 177.375C431.231 175.162 430.657 172.854 430.368 170.503C430.362 170.488 430.352 170.476 430.339 170.467C430.326 170.458 430.31 170.453 430.295 170.453C430.279 170.453 430.263 170.458 430.25 170.467C430.237 170.476 430.227 170.488 430.221 170.503C430.074 173.179 430.411 175.859 431.217 178.415C431.915 180.553 433.119 182.492 434.727 184.066C434.727 184.405 434.806 188.587 434.942 190.927C435.078 193.267 435.293 195.606 435.553 197.935C436.085 202.614 436.742 207.282 437.568 211.928C439.183 221.325 441.43 230.603 444.293 239.699C444.293 239.846 444.394 239.993 444.44 240.139C444.44 240.479 444.44 240.818 444.44 241.157C444.457 241.993 444.525 242.827 444.644 243.655C444.876 245.302 445.282 246.919 445.855 248.481C445.85 248.495 445.848 248.509 445.85 248.524C445.852 248.538 445.857 248.552 445.865 248.564C445.874 248.576 445.885 248.586 445.898 248.593C445.911 248.599 445.925 248.603 445.94 248.603C445.954 248.603 445.969 248.599 445.982 248.593C445.995 248.586 446.006 248.576 446.014 248.564C446.022 248.552 446.028 248.538 446.03 248.524C446.031 248.509 446.03 248.495 446.025 248.481C445.623 246.847 445.35 245.184 445.21 243.508L445.006 241.79C445.628 243.621 446.285 245.452 446.93 247.272C447.383 248.537 447.847 249.769 448.368 251.001C448.889 252.233 449.296 253.432 449.908 254.573C449.908 254.664 450.089 254.573 450.066 254.505C449.783 253.296 449.33 252.188 448.979 251.047Z" fill="#09253D"/>
<path d="M307.854 291.14V260.758L273.27 291.14H307.854Z" fill="#00A5A5"/>
<path d="M130.109 355.553C140.071 398.831 160.675 450.711 169.471 459.131C180.599 469.779 254.218 489.31 257.886 489.706C266.942 490.621 285.202 425.28 275.512 423.867C260.795 421.742 207.18 418.837 203.977 415.548C200.773 412.259 178.018 383.617 154.766 351.438C138.713 329.206 123.917 328.697 130.109 355.553Z" fill="#AD6359"/>
<path d="M250.594 486.179C251.669 486.721 267.054 494.452 276.564 497.199C283.662 499.256 304.243 504.625 307.288 497.041C309.371 491.886 297.631 487.309 289.413 483.884C285.077 482.076 279.733 477.555 281.013 474.774C283.277 469.914 294.405 474.774 301.741 479.046C315.926 487.275 334.82 502.093 343.48 494.87C346.752 492.158 342.948 487.207 337.39 482.358C346.446 488.01 356.046 492.644 359.793 489.773C361.955 488.134 362.057 485.885 360.857 483.33C363.642 484.234 366.099 484.054 367.819 482.2C370.752 479.126 369.325 474.604 366.11 469.959C366.662 469.902 367.192 469.714 367.657 469.412C368.122 469.109 368.507 468.7 368.782 468.218C374.997 458.758 343.876 431.597 333.133 429.054C301.492 421.538 268.141 422.939 268.141 422.939C255.711 432.897 250.56 486.156 250.594 486.179Z" fill="#AD6359"/>
<path d="M297.123 457.096C304.657 458.271 311.854 461.034 318.236 465.2C326.262 470.49 331.583 476.684 338.307 482.912C338.334 482.947 338.348 482.991 338.346 483.035C338.344 483.079 338.328 483.121 338.298 483.155C338.269 483.188 338.229 483.21 338.185 483.217C338.142 483.224 338.097 483.216 338.058 483.194C334.855 480.233 321.564 469.089 318.134 466.557C311.929 461.895 304.745 458.703 297.123 457.221C297.021 457.209 297.044 457.074 297.123 457.096Z" fill="#09253D"/>
<path d="M303.02 443.682C311.341 445.943 319.865 448.203 327.586 452.182C336.031 456.477 342.643 463.485 349.095 470.266C353.005 474.313 356.82 478.457 360.541 482.699C360.688 482.88 360.45 483.163 360.291 482.982C353.695 476.019 346.903 469.238 339.914 462.637C333.446 456.507 325.828 451.713 317.499 448.531C312.745 446.711 307.854 445.276 302.964 443.829C302.896 443.806 302.93 443.659 303.02 443.682Z" fill="#09253D"/>
<path d="M311.908 431.962C319.991 433.624 327.044 435.037 334.199 439.354C343.674 445.085 352.821 454.726 356.025 458.151C359.568 461.926 362.987 465.814 366.338 469.759C366.474 469.917 366.202 470.166 366.055 470.007C358.376 461.358 350.143 453.215 341.41 445.627C337.302 441.954 332.651 438.935 327.622 436.675C322.523 434.677 317.262 433.119 311.897 432.019C311.897 432.019 311.841 431.951 311.908 431.962Z" fill="#09253D"/>
<path d="M263.048 420.342L240.407 491.957C240.407 491.957 179.105 474.483 167.955 462.423C156.804 450.363 136.075 388.084 129.996 357.894C123.917 327.705 139.2 328.507 153.249 347.484C167.298 366.462 202.279 412.645 204.192 413.651C206.105 414.657 263.048 420.342 263.048 420.342Z" fill="#09253D"/>
<path opacity="0.1" d="M263.048 420.342L240.407 491.957C240.407 491.957 179.105 474.483 167.955 462.423C156.804 450.363 136.075 388.084 129.996 357.894C123.917 327.705 139.2 328.507 153.249 347.484C167.298 366.462 202.279 412.645 204.192 413.651C206.105 414.657 263.048 420.342 263.048 420.342Z" fill="black"/>
<path d="M234.519 460.139C237.27 451.695 240.077 443.275 242.5 434.73C243.881 429.881 245.285 425.021 246.62 420.161C246.677 419.968 246.371 419.867 246.303 420.048C243.213 428.412 240.134 436.81 237.428 445.309C234.722 453.809 231.971 462.264 229.39 470.707C227.93 475.544 226.605 480.405 225.439 485.321C225.439 485.412 225.575 485.468 225.609 485.378C228.983 477.115 231.756 468.638 234.519 460.139Z" fill="#09253D"/>
<path d="M209.489 482.112L206.772 481.162C201.667 479.343 196.459 477.387 191.557 475.387C190.923 475.138 190.301 474.878 189.689 474.618C188.704 474.211 187.719 473.793 186.769 473.375L185.342 472.753L184.833 472.527L183.361 471.849C181.414 470.956 179.569 470.063 177.848 469.159L176.716 468.526C174.026 467.144 171.491 465.481 169.154 463.564C168.938 463.372 168.723 463.179 168.531 462.987C168.338 462.795 168.135 462.603 167.965 462.422C156.757 450.362 136.086 388.084 130.007 357.894L129.803 356.854V356.628C129.395 354.367 129.033 351.496 128.739 348.422C127.89 333.401 135.01 330.948 143.807 337.549C165.735 384.535 199.323 462.174 209.489 482.112Z" fill="#09253D"/>
<path d="M177.689 494.137L44.1055 494.838C44.2187 491.967 63.2374 407.987 78.3618 376.995C97.7541 337.254 107.796 334.044 113.716 331.919C121.358 329.184 134.965 330.54 138.192 332.066C141.859 333.773 153.52 354.096 157.697 369.004C166.052 398.99 179.569 492.306 177.689 494.137Z" fill="#00A5A5"/>
<path d="M106.867 335.062C106.867 335.062 123.848 397.85 124.697 402.02C125.977 408.079 134.445 494.523 134.445 494.523L41.332 494.839C41.332 494.839 61.6526 414.815 76.7771 379.776C93.2826 341.347 106.867 335.062 106.867 335.062Z" fill="#09253D"/>
<g opacity="0.1">
<path d="M106.867 335.062C106.867 335.062 123.848 397.85 124.697 402.02C125.977 408.079 134.445 494.523 134.445 494.523L41.332 494.839C41.332 494.839 61.6526 414.815 76.7771 379.776C93.2826 341.347 106.867 335.062 106.867 335.062Z" fill="black"/>
</g>
<path d="M139.414 333.039C139.912 335.04 155.569 386.049 156.655 398.765C157.867 412.871 168.576 494.839 168.576 494.839H182.161C182.161 494.839 162.497 377.075 157.097 364.63C146.048 339.233 139.414 333.039 139.414 333.039Z" fill="#09253D"/>
<path opacity="0.1" d="M139.414 333.039C139.912 335.04 155.569 386.049 156.655 398.765C157.867 412.871 168.576 494.839 168.576 494.839H182.161C182.161 494.839 162.497 377.075 157.097 364.63C146.048 339.233 139.414 333.039 139.414 333.039Z" fill="black"/>
<path d="M89.2846 349.743C66.915 373.671 12.5305 464.455 29.7832 481.014C47.0359 497.572 142.82 475.283 169.718 462.477C177.722 458.679 147.314 408.857 137.907 407.693C130.073 406.732 90.0431 425.008 88.8771 422.714C87.5752 420.114 93.9374 400.933 103.594 366.2C114.677 326.165 99.1789 339.164 89.2846 349.743Z" fill="#AD6359"/>
<path d="M177.666 391.621C197.115 388.908 202.571 391.202 217.73 380.216C227.703 373.005 236.601 376.271 230.907 387.721C221.602 406.461 197.239 415.21 187.889 415.82L177.666 391.621Z" fill="#AD6359"/>
<path d="M126 410.296C126 410.296 147.86 398.18 168.305 393.252C182.434 389.861 214.018 385.848 244.244 416.988C251.41 424.368 256.38 439.966 240.294 432.156C228.86 426.606 223.312 419.644 216.056 417.62C216.056 417.62 220.018 438.203 212.331 445.086C205.613 451.101 198.474 456.631 190.969 461.634C189.735 460.474 188.578 459.236 187.505 457.926C187.505 457.926 179.717 463.679 165.068 462.278L126 410.296Z" fill="#AD6359"/>
<path d="M182.32 392.211C189.112 395.726 203.274 403.423 212.693 413.754C223.164 425.238 240.225 450.149 231.655 457.835C225.383 463.43 218.07 454.444 218.07 454.444C218.07 454.444 222.949 466.233 216.168 470.042C209.999 473.523 204.723 466.267 204.723 466.267C204.723 466.267 206.455 473.919 199.855 476.123C191.931 478.768 189.599 462.288 179.24 458.038C176.874 457.021 182.32 392.211 182.32 392.211Z" fill="#AD6359"/>
<path d="M198.711 422.727C204.518 427.078 215.182 440.336 218.126 454.069C218.194 454.386 218.001 454.6 217.877 454.329C212.763 443.09 206.3 432.512 198.632 422.828C198.541 422.727 198.632 422.727 198.711 422.727Z" fill="#09253D"/>
<path d="M187.414 433.613C192.045 437.885 202.426 452.037 204.927 466.063C204.984 466.38 204.769 466.583 204.667 466.301C200.134 454.815 194.312 443.88 187.312 433.703C187.245 433.636 187.312 433.557 187.414 433.613Z" fill="#09253D"/>
<path d="M216.055 417.485C222.394 419.35 226.515 422.458 231.904 426.165C234.526 428.037 237.251 429.761 240.066 431.331C242.647 432.721 246.462 434.823 249.202 432.642C250.741 431.432 250.719 429.251 250.334 427.476C249.559 424.908 248.383 422.477 246.847 420.276C246.847 420.186 246.926 420.084 246.994 420.163C248.477 422.169 249.751 424.32 250.798 426.583C251.483 428.134 251.684 429.856 251.375 431.523C250.435 435.004 246.315 435.467 243.451 434.507C241.715 433.87 240.046 433.064 238.47 432.099C236.93 431.218 235.436 430.268 233.941 429.274C230.93 427.239 228.043 425.035 225.055 422.967C222.151 421.02 219.126 419.261 215.998 417.699C215.974 417.688 215.955 417.669 215.944 417.645C215.933 417.621 215.931 417.594 215.937 417.569C215.944 417.543 215.959 417.521 215.981 417.506C216.002 417.49 216.028 417.483 216.055 417.485Z" fill="#09253D"/>
<path d="M229.335 439.749C227.693 436.144 218.807 421.111 215.931 417.63C215.921 417.613 215.916 417.592 215.919 417.572C215.921 417.552 215.93 417.533 215.944 417.519C215.959 417.504 215.978 417.495 215.998 417.493C216.018 417.49 216.038 417.495 216.056 417.506C221.003 422.185 228.939 434.607 230.773 438.585C232.607 442.564 234.712 447.548 234.712 451.923C234.712 458.535 230.32 459.835 228.701 460.117C226.764 460.467 224.765 460.14 223.041 459.19C221.024 457.96 219.282 456.329 217.924 454.398C217.856 454.307 217.98 454.183 218.06 454.274C220.324 456.884 224.173 459.45 227.761 458.976C228.557 458.9 229.33 458.667 230.034 458.288C230.738 457.91 231.359 457.394 231.859 456.771C232.84 455.181 233.218 453.292 232.924 451.448C232.394 447.375 231.181 443.42 229.335 439.749Z" fill="#09253D"/>
<path d="M125.999 410.292L156.655 474.718C156.655 474.718 36.7467 501.597 26.3996 480.754C16.0526 459.912 62.6258 378.351 83.603 354.592C107.931 327.059 111.033 336.429 105.678 360.831C100.018 386.376 89.2294 423.313 89.2294 423.313L125.999 410.292Z" fill="#09253D"/>
<path opacity="0.1" d="M125.999 410.292L156.655 474.718C156.655 474.718 36.7467 501.597 26.3996 480.754C16.0526 459.912 62.6258 378.351 83.603 354.592C107.931 327.059 111.033 336.429 105.678 360.831C100.018 386.376 89.2294 423.313 89.2294 423.313L125.999 410.292Z" fill="black"/>
<path d="M52.7895 440.458C63.8497 432.789 75.9948 426.812 88.8232 422.724C92.4571 421.594 96.125 420.52 99.7929 419.469C99.9062 419.469 99.9514 419.616 99.7929 419.65C93.3957 421.717 87.1247 424.155 81.0119 426.951C74.9063 429.664 68.8686 432.486 62.8989 435.417C59.5027 437.079 56.197 438.898 52.8688 440.673C52.8464 440.668 52.8257 440.658 52.8084 440.643C52.7912 440.628 52.778 440.609 52.7701 440.587C52.7622 440.566 52.7598 440.543 52.7632 440.52C52.7666 440.498 52.7757 440.476 52.7895 440.458Z" fill="#09253D"/>
<path d="M125.682 410.124C125.082 410.282 92.2861 421.099 91.2106 421.596C91.3465 421.099 97.2332 403.693 98.1162 401.138C98.1955 400.889 98.2747 400.63 98.3653 400.381C98.954 399.251 99.5653 398.12 100.12 396.99C100.822 395.509 101.524 394.006 102.214 392.469H102.146L99.8823 396.843C99.5313 397.51 99.203 398.199 98.8747 398.889C99.4521 397.092 100.007 395.283 100.562 393.464C101.445 390.581 102.237 387.665 103.018 384.749C103.018 384.647 102.905 384.625 102.871 384.749C101.128 389.824 99.2257 394.842 97.471 399.917C95.7163 404.992 88.9691 423.653 89.0257 423.653C89.0823 423.653 125.139 410.926 125.841 410.644C125.875 410.633 125.907 410.616 125.934 410.594C125.962 410.571 125.985 410.543 126.001 410.512C126.018 410.48 126.029 410.446 126.032 410.41C126.036 410.375 126.032 410.339 126.022 410.305C126.011 410.271 125.994 410.239 125.972 410.211C125.949 410.184 125.921 410.161 125.889 410.144C125.858 410.127 125.823 410.117 125.788 410.113C125.752 410.11 125.716 410.113 125.682 410.124Z" fill="#09253D"/>
<path d="M127.89 452.114C124.493 444.936 121.199 437.714 117.565 430.638C115.493 426.626 113.444 422.602 111.339 418.612C111.259 418.465 110.988 418.612 111.056 418.737C114.158 426.083 117.282 433.43 120.724 440.653C124.165 447.875 127.516 455.007 131.014 462.128C133.007 466.174 135.123 470.157 137.365 474.075C137.365 474.154 137.546 474.075 137.512 474.075C134.659 466.593 131.297 459.37 127.89 452.114Z" fill="#09253D"/>
<path d="M158.206 475.716C157.006 473.726 155.489 470.878 154.21 468.934C153.871 468.425 153.474 468.527 153.746 469.058C154.663 470.867 155.422 472.89 156.316 474.71C154.64 475.049 152.92 475.343 151.267 475.693C149.32 476.1 147.384 476.518 145.437 476.914C141.618 477.667 137.799 478.421 133.98 479.174C126.237 480.613 118.463 481.879 110.66 482.972C95.026 485.258 79.2842 486.733 63.4976 487.391C59.0826 487.55 54.6562 487.629 50.2411 487.572C45.886 487.583 41.5332 487.372 37.1997 486.939C37.0752 486.939 37.0525 487.131 37.1997 487.154C40.9286 487.941 44.714 488.432 48.5204 488.623C52.5166 488.816 56.5241 488.906 60.5316 488.861C68.4561 488.77 76.4598 488.25 84.3956 487.527C100.131 486.08 115.822 483.955 131.376 481.209C135.739 480.455 140.09 479.638 144.429 478.756C146.625 478.315 148.81 477.874 150.995 477.388C153.18 476.902 158.41 476.055 158.206 475.716Z" fill="#09253D"/>
<path d="M139.435 356.47C131.511 358.652 117.326 346.953 111.53 337.255C111.134 336.589 111.915 329.4 112.447 320.618C112.753 315.294 112.956 309.315 112.753 303.912C112.753 302.782 147.201 310.942 147.201 310.942C147.201 310.942 144.258 322.449 144.666 331.92C144.702 332.682 144.808 333.439 144.983 334.181C145.014 334.3 145.036 334.421 145.051 334.543C145.9 338.736 147.1 354.357 139.435 356.47Z" fill="#AD6359"/>
<path d="M114.859 304.047C116.784 313.18 123.327 335.163 141.554 334.904C142.722 334.892 143.888 334.786 145.04 334.587C145.055 334.463 145.055 334.338 145.04 334.214C144.872 333.47 144.762 332.714 144.712 331.954C144.316 322.47 147.248 310.953 147.248 310.953C147.248 310.953 122.32 305.075 114.859 304.047Z" fill="#09253D"/>
<path d="M151.312 287.599C150.927 295.941 156.564 302.971 163.9 303.31C171.236 303.649 177.485 297.139 177.859 288.797C178.232 280.456 172.594 273.426 165.27 273.098C157.945 272.77 151.685 279.258 151.312 287.599Z" fill="#09253D"/>
<path d="M176.512 289.259C176.932 279.98 170.66 272.159 162.503 271.791C154.346 271.422 147.393 278.646 146.972 287.925C146.552 297.204 152.824 305.025 160.981 305.394C169.138 305.762 176.091 298.538 176.512 289.259Z" fill="#C7C7C7"/>
<path d="M117.248 260.633C111.316 271.8 110.943 307.303 117.916 316.594C128.026 330.044 147.894 334.983 160.142 322.132C172.063 309.631 171.724 263.357 163.629 254.575C151.731 241.611 126.011 244.143 117.248 260.633Z" fill="#AD6359"/>
<path d="M146.816 288.076C146.816 287.986 146.624 288.201 146.635 288.302C146.76 290.687 146.511 293.445 144.371 294.282C144.303 294.282 144.314 294.429 144.371 294.417C147.02 293.988 147.314 290.326 146.816 288.076Z" fill="#09253D"/>
<path d="M144.621 285.637C140.761 285.433 140.636 293.153 144.202 293.334C147.768 293.515 147.859 285.806 144.621 285.637Z" fill="#09253D"/>
<path d="M160.221 288.369C160.221 288.279 160.402 288.494 160.402 288.584C160.289 290.98 160.561 293.738 162.666 294.563C162.734 294.563 162.666 294.71 162.666 294.699C160.051 294.281 159.723 290.619 160.221 288.369Z" fill="#09253D"/>
<path d="M162.406 285.962C166.255 285.725 166.436 293.445 162.859 293.66C159.281 293.874 159.168 286.098 162.406 285.962Z" fill="#09253D"/>
<path d="M141.157 279.464C142.289 279.407 143.229 279.17 144.304 279.012C145.439 278.99 146.534 278.592 147.417 277.881C147.654 277.609 147.794 277.266 147.814 276.906C147.835 276.546 147.735 276.189 147.53 275.892C147.035 275.372 146.41 274.993 145.72 274.795C145.029 274.596 144.298 274.585 143.602 274.762C142.127 274.879 140.749 275.544 139.742 276.627C139.531 276.886 139.399 277.201 139.362 277.533C139.325 277.865 139.385 278.201 139.534 278.5C139.684 278.799 139.916 279.049 140.204 279.22C140.491 279.391 140.822 279.476 141.157 279.464Z" fill="#09253D"/>
<path d="M166.041 280.313C165.007 280.086 163.987 279.803 162.984 279.466C161.871 279.331 160.832 278.835 160.03 278.053C159.827 277.754 159.729 277.397 159.751 277.037C159.774 276.677 159.915 276.334 160.154 276.063C160.708 275.6 161.375 275.292 162.087 275.171C162.799 275.05 163.531 275.12 164.207 275.374C165.655 275.678 166.938 276.507 167.807 277.702C167.976 277.986 168.061 278.312 168.052 278.643C168.043 278.973 167.939 279.294 167.754 279.568C167.569 279.841 167.309 280.057 167.006 280.189C166.703 280.321 166.368 280.364 166.041 280.313Z" fill="#09253D"/>
<path d="M142.447 310.243C143.013 310.808 143.579 311.588 144.439 311.679C145.33 311.671 146.209 311.478 147.021 311.113C147.037 311.11 147.054 311.111 147.069 311.117C147.085 311.122 147.099 311.132 147.109 311.145C147.12 311.158 147.127 311.173 147.129 311.189C147.131 311.206 147.129 311.223 147.122 311.238C146.775 311.705 146.307 312.068 145.769 312.289C145.23 312.51 144.641 312.58 144.066 312.492C143.579 312.356 143.143 312.08 142.813 311.698C142.483 311.316 142.273 310.845 142.209 310.345C142.175 310.209 142.356 310.153 142.447 310.243Z" fill="#09253D"/>
<path d="M145.086 303.118C145.677 304.073 146.46 304.896 147.386 305.534C148.311 306.172 149.359 306.612 150.463 306.825C151.426 307.03 152.414 307.095 153.395 307.017C153.585 307.01 153.774 306.991 153.961 306.961L154.482 306.882C154.61 306.861 154.728 306.798 154.818 306.705C154.908 306.611 154.965 306.491 154.98 306.362C154.986 306.279 154.986 306.196 154.98 306.113V305.898C155.06 304.056 154.98 301.253 154.98 301.253C155.648 301.603 159.067 303.208 159.022 302.247C158.682 294.268 158.297 285.406 156.271 277.551C156.259 277.501 156.231 277.456 156.191 277.424C156.151 277.392 156.101 277.375 156.05 277.375C155.999 277.375 155.949 277.392 155.909 277.424C155.869 277.456 155.841 277.501 155.829 277.551C155.829 285.225 157.233 292.844 157.38 300.552C156.168 299.967 154.88 299.552 153.554 299.32C153.294 299.399 153.905 304.734 153.803 305.559C153.806 305.589 153.806 305.62 153.803 305.65C150.69 305.989 148.369 305.017 145.403 302.892C145.131 302.767 144.939 302.914 145.086 303.118Z" fill="#09253D"/>
<path d="M152.32 306.062C151.29 307.363 149.941 308.376 148.403 309.001C147.554 309.314 146.628 309.358 145.754 309.125C143.852 308.583 143.829 306.865 144.203 305.339C144.412 304.553 144.712 303.794 145.097 303.078C147.125 304.815 149.655 305.861 152.32 306.062Z" fill="#09253D"/>
<path d="M148.403 308.998C147.554 309.312 146.628 309.355 145.754 309.122C143.852 308.58 143.829 306.862 144.203 305.336C146.252 305.585 148.256 307.009 148.403 308.998Z" fill="#FF98B9"/>
<path opacity="0.2" d="M112.799 285.704C115.131 285.331 120.723 277.453 123.089 274.322C125.455 271.191 126.825 254.406 127.04 250.586C122.889 252.93 119.489 256.403 117.237 260.6C114.587 265.619 113.059 275.486 112.799 285.704Z" fill="#09253D"/>
<path d="M155.964 264.486C154.582 266 152.835 267.136 150.89 267.787C148.944 268.438 146.864 268.581 144.847 268.205C142.789 267.826 140.862 266.929 139.249 265.598C137.636 264.266 136.391 262.545 135.632 260.598C135.632 260.473 135.406 260.541 135.451 260.654C136.063 262.775 137.244 264.689 138.866 266.189C140.488 267.689 142.49 268.718 144.655 269.165C146.806 269.49 149.005 269.243 151.03 268.449C153.055 267.655 154.835 266.343 156.191 264.644C156.198 264.615 156.197 264.584 156.187 264.556C156.176 264.528 156.158 264.503 156.133 264.486C156.108 264.469 156.079 264.46 156.049 264.46C156.019 264.46 155.989 264.469 155.964 264.486Z" fill="#09253D"/>
<path d="M144.464 234.399C137.479 234.332 130.958 237.982 128.252 242.639C126.75 245.293 126.191 248.376 126.668 251.387C126.668 251.512 126.928 251.489 126.917 251.387C126.858 248.734 127.515 246.113 128.82 243.8C130.125 241.488 132.028 239.568 134.332 238.242C136.854 236.699 139.7 235.761 142.646 235.502C145.593 235.244 148.56 235.671 151.313 236.75C153.996 237.742 156.236 239.658 157.63 242.153C157.765 242.413 158.286 242.266 158.184 242.006C156.418 237.575 150.769 234.456 144.464 234.399Z" fill="#09253D"/>
<path d="M184.481 250.775C183.446 247.302 181.217 244.304 178.187 242.309C173.987 239.529 169.13 239.766 164.33 240.105C164.303 240.105 164.277 240.116 164.258 240.135C164.239 240.154 164.229 240.18 164.229 240.207C164.229 240.234 164.239 240.26 164.258 240.279C164.277 240.298 164.303 240.309 164.33 240.309C168.428 240.038 172.606 239.992 176.296 242.038C179.368 243.699 181.769 246.371 183.089 249.6C184.345 252.912 184.361 256.565 183.134 259.888C181.907 263.211 179.519 265.98 176.41 267.684C174.596 268.62 172.61 269.175 170.574 269.317C168.538 269.459 166.494 269.184 164.568 268.509C164.41 268.453 164.296 268.668 164.444 268.735C167.045 269.759 169.881 270.04 172.633 269.546C175.386 269.052 177.946 267.804 180.028 265.94C182.11 264.076 183.631 261.67 184.422 258.992C185.212 256.314 185.241 253.469 184.504 250.775H184.481Z" fill="#09253D"/>
<path d="M114.724 267.471C114.724 267.471 108.543 254.778 114.339 247.771C117.622 243.803 128.015 244.708 128.015 244.708C128.015 244.708 131.581 238.864 140.275 237.202C148.969 235.541 159.226 240.978 159.226 240.978C159.226 240.978 167.671 236.558 175.256 241.26C185.841 247.816 183.894 264.194 172.822 269.076C165.056 272.467 154.935 265.392 154.935 265.392C153.928 265.493 143.49 271.258 136.109 261.888C136.109 261.888 129.634 267.223 124.143 263.12C123.209 264.721 121.805 265.998 120.12 266.776C118.435 267.555 116.552 267.797 114.724 267.471Z" fill="#09253D"/>
<path d="M119.173 289.998C119.173 289.998 113.297 277.565 107.761 279.419C102.225 281.273 105.293 298.475 110.84 301.708C111.525 302.172 112.296 302.492 113.108 302.651C113.92 302.809 114.755 302.802 115.564 302.63C116.373 302.458 117.139 302.124 117.815 301.649C118.492 301.174 119.065 300.568 119.501 299.866L119.173 289.998Z" fill="#AD6359"/>
<path d="M108.758 284.312C108.667 284.312 108.622 284.426 108.758 284.471C112.629 286.867 114.158 291.106 114.995 295.367C114.033 293.615 112.482 292.484 110.173 293.592C110.149 293.608 110.131 293.631 110.12 293.657C110.11 293.684 110.109 293.713 110.116 293.741C110.124 293.769 110.14 293.793 110.162 293.811C110.185 293.829 110.212 293.839 110.241 293.841C111.014 293.736 111.8 293.872 112.493 294.23C113.186 294.588 113.751 295.151 114.112 295.841C114.699 297.003 115.162 298.223 115.493 299.481C115.629 299.888 116.331 299.797 116.263 299.345C116.269 299.312 116.269 299.277 116.263 299.244C117.214 293.965 114.373 285.838 108.758 284.312Z" fill="#09253D"/>
<path d="M131.976 315.034L120.825 310.23L111.859 299.086L113.58 297.695L122.206 308.422L132.859 313.011L131.976 315.034Z" fill="#C7C7C7"/>
<path d="M130.787 313.26C131.919 310.016 140.975 311.214 139.334 316.119C137.692 321.025 129.689 316.481 130.787 313.26Z" fill="#37474F"/>
<path d="M107.591 279.079C107.591 279.079 106.379 260.847 111.723 250.822C117.677 239.621 142.356 228.962 159.269 241C159.269 241 131.794 236.094 118.99 251.624C113.602 258.157 113.738 279.587 113.738 279.587L107.591 279.079Z" fill="#C7C7C7"/>
<path d="M110.082 305.266C118.247 305.185 124.791 297.59 124.699 288.301C124.606 279.013 117.912 271.549 109.747 271.63C101.582 271.712 95.0379 279.307 95.1305 288.595C95.223 297.883 101.917 305.347 110.082 305.266Z" fill="#C7C7C7"/>
<path d="M120.383 287.816C120.462 296.169 114.587 302.996 107.251 303.064C99.9151 303.131 93.8925 296.429 93.8133 288.076C93.734 279.723 99.6095 272.896 106.945 272.829C114.281 272.761 120.304 279.463 120.383 287.816Z" fill="#09253D"/>
<path d="M144.917 333.977L136.936 354.096L111.827 328.801L104.785 336.984C104.785 336.984 129.408 377.233 129.555 375.414L137.762 358.064L149.785 370.056L148.653 339.832L144.917 333.977Z" fill="#00A5A5"/>
<path d="M150.079 355.078C149.728 350.094 149.524 345.064 148.947 340.102C148.947 339.932 148.652 339.853 148.607 340.102C147.634 344.928 149.071 363.973 149.071 368.551H149.015C148.517 368.031 137.875 358.006 137.773 358.164C135.996 360.922 129.962 373.547 129.555 374.7C125.66 368.302 109.177 343.108 104.536 337.061C104.513 337.022 104.476 336.994 104.433 336.982C104.389 336.971 104.343 336.977 104.304 336.999C104.265 337.022 104.236 337.059 104.225 337.102C104.213 337.146 104.219 337.192 104.241 337.231C107.638 344.013 129.034 377.254 129.328 377.164C132.504 371.203 135.372 365.084 137.92 358.831C139.72 361.012 150.452 372.338 150.486 371.592C150.643 366.084 150.507 360.572 150.079 355.078Z" fill="#09253D"/>
<path d="M419.205 281.079H384.19C380.796 281.076 377.541 279.728 375.14 277.331C372.74 274.934 371.39 271.685 371.387 268.295C371.387 264.905 372.736 261.653 375.137 259.256C377.538 256.859 380.795 255.512 384.19 255.512H419.205C422.601 255.512 425.858 256.859 428.259 259.256C430.66 261.653 432.009 264.905 432.009 268.295C432.009 269.974 431.678 271.636 431.034 273.187C430.391 274.738 429.448 276.147 428.259 277.334C427.07 278.522 425.658 279.463 424.105 280.106C422.552 280.748 420.887 281.079 419.205 281.079Z" fill="#09253D"/>
<path d="M391.842 268.071C391.866 267.667 391.999 267.276 392.227 266.941L392.544 266.477L393.212 265.81L393.993 265.245C395.068 264.562 396.269 264.097 397.525 263.878C400.421 263.301 403.402 263.301 406.298 263.878C407.539 264.089 408.724 264.547 409.785 265.223C410.057 265.403 410.328 265.607 410.589 265.799L411.245 266.455C411.417 266.703 411.576 266.959 411.721 267.223C411.832 267.495 411.923 267.775 411.993 268.06H406.253C406.208 268.066 406.163 268.057 406.124 268.034C406.085 268.012 406.055 267.977 406.038 267.935C405.881 267.632 405.647 267.374 405.358 267.19C405.07 267.005 404.738 266.9 404.396 266.884C402.726 266.777 401.051 266.777 399.381 266.884C399.042 266.898 398.712 267.002 398.426 267.185C398.14 267.367 397.907 267.622 397.751 267.924C397.751 268.003 397.672 268.06 397.559 268.06H391.842V268.071Z" fill="white"/>
<path d="M391.842 271.271V269.18H397.502C397.502 269.304 397.502 269.44 397.502 269.587V271.271C397.518 271.369 397.51 271.47 397.479 271.565C397.448 271.66 397.395 271.746 397.324 271.816C397.254 271.887 397.167 271.94 397.072 271.971C396.977 272.001 396.876 272.01 396.778 271.994H392.555C392.457 272.01 392.356 272.002 392.261 271.972C392.167 271.941 392.081 271.888 392.011 271.817C391.941 271.746 391.889 271.659 391.86 271.564C391.83 271.469 391.824 271.369 391.842 271.271Z" fill="white"/>
<path d="M406.299 271.336C406.299 270.624 406.299 269.912 406.299 269.211H411.903V269.335C411.903 269.991 411.903 270.658 411.903 271.313C411.913 271.408 411.903 271.504 411.871 271.594C411.84 271.684 411.788 271.765 411.721 271.833C411.653 271.9 411.572 271.951 411.482 271.983C411.391 272.014 411.295 272.025 411.201 272.014H406.933C406.845 272.018 406.757 272.003 406.675 271.969C406.593 271.936 406.52 271.885 406.459 271.821C406.399 271.756 406.354 271.68 406.326 271.596C406.298 271.512 406.289 271.423 406.299 271.336Z" fill="white"/>
<path d="M275.543 496.191H267.777V501.255H275.543V496.191Z" fill="#09253D"/>
<path d="M285.608 495.852H277.842V500.915H285.608V495.852Z" fill="#09253D"/>
<path d="M295.684 495.512H287.918V500.575H295.684V495.512Z" fill="#09253D"/>
<path d="M305.758 495.188H297.992V500.251H305.758V495.188Z" fill="#09253D"/>
<path d="M315.834 494.844H308.068V499.907H315.834V494.844Z" fill="#09253D"/>
<path d="M325.91 494.52H318.145V499.583H325.91V494.52Z" fill="#09253D"/>
<path d="M335.985 494.18H328.219V499.243H335.985V494.18Z" fill="#09253D"/>
<path d="M346.061 493.84H338.295V498.903H346.061V493.84Z" fill="#09253D"/>
<path d="M356.125 493.512H348.359V498.575H356.125V493.512Z" fill="#09253D"/>
<path d="M358.038 504.159H265.865V497.999L358.038 495.434V504.159Z" fill="#37474F"/>
<path d="M447.992 479.869H295.842L320.034 366.773H472.184L447.992 479.869Z" fill="#09253D"/>
<path d="M453.619 479.869H301.469L325.661 366.773H477.811L453.619 479.869Z" fill="#37474F"/>
<path d="M399.284 423.12C403.412 419.312 404.116 413.37 400.858 409.849C397.599 406.328 391.611 406.561 387.482 410.369C383.354 414.178 382.65 420.12 385.908 423.641C389.167 427.162 395.155 426.929 399.284 423.12Z" fill="#09253D"/>
<path d="M410.587 509.405H335.758V503.595L410.587 501.188V509.405Z" fill="#09253D"/>
<path d="M430.931 509.39H390.754L366.551 446.016H406.728L430.931 509.39Z" fill="#09253D"/>
<path d="M437.543 509.39H397.366L373.174 446.016H413.351L437.543 509.39Z" fill="#09253D"/>
<path d="M263.023 510.938H185.873C179.296 510.938 188.816 492.221 212.85 485.043C236.884 477.866 270.608 503.919 263.023 510.938Z" fill="#37474F"/>
<path d="M232.752 510.941C232.814 508.808 233.168 506.693 233.805 504.656C234.426 502.603 235.297 500.633 236.397 498.79C237.504 496.939 238.886 495.266 240.495 493.828C242.087 492.386 243.923 491.238 245.918 490.438C245.091 491.116 244.152 491.568 243.393 492.325L242.261 493.331L241.129 494.461C239.699 495.951 238.445 497.601 237.393 499.378C236.325 501.155 235.409 503.019 234.654 504.95C233.886 506.902 233.25 508.904 232.752 510.941Z" fill="#09253D"/>
<path d="M241.887 493.125C246.469 494.639 250.805 496.813 254.758 499.579C256.756 500.957 258.564 502.591 260.136 504.439C260.907 505.384 261.572 506.411 262.117 507.502C262.655 508.592 262.963 509.781 263.022 510.995C262.752 509.844 262.281 508.749 261.63 507.762C261.014 506.772 260.293 505.851 259.479 505.016C257.83 503.347 256.03 501.833 254.102 500.494C252.189 499.115 250.162 497.883 248.136 496.663C247.117 496.052 246.075 495.465 245.034 494.9C243.992 494.334 242.94 493.701 241.887 493.125Z" fill="#09253D"/>
<path d="M268.55 254.189C267.885 260.493 265.478 266.489 261.599 271.507C257.719 276.525 252.52 280.368 246.581 282.608C240.641 284.848 234.195 285.397 227.962 284.193C221.729 282.989 215.953 280.079 211.279 275.789L194.105 278.343L202.687 263.548C200.542 258.336 199.733 252.672 200.332 247.069C200.772 242.576 202.097 238.214 204.232 234.235C206.367 230.256 209.269 226.738 212.772 223.883C216.274 221.029 220.308 218.894 224.64 217.603C228.972 216.311 233.518 215.888 238.014 216.358C242.511 216.827 246.87 218.18 250.841 220.339C254.812 222.498 258.316 225.419 261.151 228.936C263.986 232.452 266.096 236.494 267.36 240.828C268.624 245.162 269.017 249.703 268.516 254.189H268.55Z" fill="white"/>
<path d="M268.549 254.187C267.89 260.497 265.497 266.501 261.633 271.537C260.672 272.789 259.636 273.982 258.531 275.109C257.384 276.196 256.174 277.215 254.908 278.16C252.386 280.077 249.603 281.626 246.644 282.761C243.686 283.917 240.58 284.655 237.418 284.953C235.833 285.102 234.24 285.132 232.652 285.044C231.06 285.007 229.474 284.844 227.908 284.558C221.58 283.398 215.7 280.502 210.927 276.194L211.335 276.318L194.207 278.952L192.973 279.178L193.595 278.047L202.131 263.207V263.795C200.128 258.933 199.262 253.679 199.599 248.433C199.936 243.187 201.468 238.087 204.076 233.521C206.685 228.954 210.303 225.042 214.654 222.082C219.005 219.122 223.975 217.192 229.186 216.439C234.397 215.685 239.711 216.129 244.724 217.735C249.738 219.341 254.318 222.068 258.117 225.708C261.916 229.348 264.833 233.805 266.647 238.74C268.461 243.675 269.123 248.958 268.583 254.187H268.549ZM268.549 254.187C269.087 249.036 268.435 243.83 266.645 238.97C264.854 234.109 261.972 229.722 258.22 226.146C254.468 222.57 249.945 219.9 244.999 218.34C240.053 216.78 234.814 216.372 229.686 217.148C224.6 217.905 219.755 219.815 215.523 222.731C211.338 225.672 207.839 229.481 205.267 233.899C202.736 238.338 201.242 243.292 200.897 248.389C200.581 253.496 201.412 258.609 203.331 263.354L203.456 263.659L203.286 263.93L194.659 278.703L194.048 277.799L211.21 275.403H211.448L211.618 275.561C216.198 279.842 221.882 282.766 228.033 284.004C229.567 284.312 231.122 284.501 232.686 284.569C234.246 284.676 235.812 284.676 237.372 284.569C240.505 284.33 243.587 283.653 246.531 282.557C249.489 281.49 252.273 279.993 254.795 278.115C256.058 277.178 257.268 276.17 258.417 275.097C259.527 273.983 260.566 272.801 261.531 271.56C265.437 266.53 267.867 260.515 268.549 254.187Z" fill="#09253D"/>
<path d="M253.571 251.668C253.573 252.489 253.332 253.292 252.876 253.976C252.421 254.659 251.773 255.193 251.014 255.509C250.255 255.824 249.419 255.908 248.613 255.749C247.806 255.59 247.065 255.196 246.483 254.617C245.9 254.037 245.504 253.298 245.342 252.493C245.181 251.688 245.263 250.853 245.577 250.095C245.891 249.336 246.424 248.687 247.107 248.231C247.79 247.775 248.594 247.531 249.416 247.531C249.961 247.53 250.501 247.636 251.005 247.843C251.509 248.05 251.968 248.355 252.354 248.739C252.739 249.123 253.046 249.58 253.255 250.082C253.464 250.585 253.571 251.124 253.571 251.668Z" fill="#09253D"/>
<path d="M238.696 251.668C238.698 252.489 238.456 253.293 238.001 253.977C237.545 254.661 236.896 255.194 236.137 255.51C235.377 255.825 234.541 255.908 233.734 255.748C232.927 255.589 232.185 255.193 231.604 254.613C231.022 254.032 230.626 253.292 230.466 252.486C230.306 251.68 230.389 250.845 230.705 250.087C231.021 249.328 231.555 248.681 232.24 248.226C232.925 247.771 233.73 247.529 234.553 247.531C235.652 247.531 236.705 247.967 237.483 248.743C238.26 249.519 238.696 250.571 238.696 251.668Z" fill="#09253D"/>
<path d="M223.833 251.668C223.835 252.489 223.593 253.292 223.138 253.976C222.683 254.659 222.035 255.193 221.276 255.508C220.517 255.824 219.681 255.908 218.875 255.749C218.068 255.59 217.327 255.196 216.744 254.617C216.162 254.037 215.765 253.298 215.604 252.493C215.443 251.688 215.524 250.853 215.839 250.095C216.153 249.336 216.685 248.687 217.369 248.231C218.052 247.775 218.856 247.531 219.678 247.531C220.778 247.531 221.833 247.967 222.612 248.742C223.391 249.518 223.83 250.57 223.833 251.668Z" fill="#09253D"/>
<path d="M283.074 76.7122C283.74 83.016 286.146 89.0112 290.024 94.0297C293.903 99.0482 299.101 102.893 305.039 105.135C310.978 107.377 317.423 107.928 323.657 106.727C329.891 105.527 335.668 102.621 340.345 98.3344L357.484 100.844L348.915 86.0483C350.88 81.2304 351.719 76.0286 351.369 70.8382C351.019 65.6479 349.488 60.6055 346.893 56.0944C344.298 51.5833 340.708 47.7221 336.394 44.8043C332.081 41.8865 327.157 39.9889 321.999 39.2557C316.841 38.5225 311.583 38.973 306.625 40.5729C301.667 42.1728 297.14 44.8801 293.387 48.489C289.635 52.0979 286.755 56.5134 284.968 61.3999C283.181 66.2865 282.533 71.5155 283.074 76.6896V76.7122Z" fill="white"/>
<path d="M293.332 48.4429C297.065 44.767 301.594 41.997 306.57 40.3468C311.546 38.6967 316.836 38.2105 322.03 38.9259C327.26 39.6147 332.264 41.4899 336.656 44.4078C343.31 48.8426 348.224 55.4376 350.566 63.0756C352.908 70.7136 352.533 78.925 349.505 86.3186V85.7309L358.018 100.594L358.641 101.724L357.407 101.532L340.267 98.91L340.675 98.7856C335.902 103.094 330.022 105.99 323.694 107.15C322.128 107.436 320.542 107.599 318.95 107.636C317.365 107.719 315.777 107.688 314.196 107.545C307.847 106.941 301.789 104.594 296.694 100.764C295.428 99.818 294.218 98.799 293.071 97.7119C291.968 96.5829 290.933 95.3903 289.97 94.1402C284.838 87.446 282.344 79.1051 282.959 70.6976C283.575 62.2902 287.257 54.4001 293.309 48.522L293.332 48.4429ZM290.094 93.9819C291.059 95.2199 292.098 96.3976 293.207 97.5084C294.351 98.5878 295.561 99.5957 296.83 100.526C299.351 102.414 302.14 103.915 305.105 104.98C308.046 106.07 311.125 106.747 314.252 106.991C315.817 107.099 317.386 107.099 318.95 106.991C320.51 106.922 322.062 106.733 323.592 106.426C329.743 105.188 335.426 102.264 340.007 97.9831L340.177 97.8249H340.414L357.577 100.221L356.965 101.125L348.339 86.3525L348.169 86.07L348.294 85.7648C350.215 81.0386 351.04 75.9391 350.704 70.8493C350.369 65.7595 348.883 60.8117 346.358 56.3775C343.789 51.958 340.289 48.1479 336.101 45.2103C331.873 42.2961 327.032 40.3862 321.95 39.6267C315.233 38.5912 308.36 39.5959 302.222 42.5102C296.084 45.4245 290.966 50.1139 287.531 55.9695C284.096 61.8251 282.504 68.5764 282.961 75.3469C283.418 82.1174 285.903 88.5943 290.094 93.9367V93.9819Z" fill="#09253D"/>
<path d="M320.218 77.3317V81.6042C320.228 82.0297 320.151 82.4528 319.992 82.8478C319.833 83.2428 319.596 83.6016 319.294 83.9026C318.993 84.2036 318.633 84.4405 318.238 84.5991C317.842 84.7577 317.418 84.8347 316.992 84.8255C316.137 84.8225 315.318 84.4822 314.714 83.8787C314.11 83.2752 313.769 82.4576 313.766 81.6042V74.8225C313.766 74.7547 313.834 74.7547 313.834 74.6869C313.834 74.619 313.766 74.619 313.766 74.5625C313.789 73.7154 314.136 72.9092 314.736 72.31C315.336 71.7108 316.144 71.3641 316.992 71.3412C318.007 71.4208 319.027 71.2899 319.989 70.9567C320.951 70.6236 321.833 70.0954 322.581 69.4055C323.328 68.7155 323.924 67.8786 324.332 66.9474C324.74 66.0162 324.951 65.0108 324.951 63.9944C324.951 62.978 324.74 61.9726 324.332 61.0414C323.924 60.1102 323.328 59.2733 322.581 58.5833C321.833 57.8934 320.951 57.3652 319.989 57.0321C319.027 56.6989 318.007 56.568 316.992 56.6476C315.713 56.6424 314.456 56.9741 313.347 57.6092C312.238 58.2442 311.316 59.1601 310.675 60.2645C310.455 60.6384 310.162 60.9649 309.814 61.2247C309.466 61.4845 309.07 61.6725 308.648 61.7777C308.227 61.8829 307.789 61.9033 307.359 61.8375C306.93 61.7718 306.517 61.6212 306.147 61.3948C305.782 61.1803 305.463 60.8959 305.208 60.558C304.954 60.22 304.768 59.8352 304.663 59.4256C304.558 59.016 304.535 58.5897 304.595 58.1711C304.656 57.7526 304.798 57.35 305.015 56.9867C306.16 55.0019 307.782 53.3327 309.734 52.1294C311.687 50.9261 313.908 50.2265 316.198 50.0936C318.489 49.9607 320.776 50.3986 322.855 51.3679C324.934 52.3373 326.739 53.8076 328.107 55.6465C329.475 57.4854 330.363 59.6351 330.692 61.9021C331.021 64.1692 330.78 66.4823 329.991 68.6332C329.202 70.7841 327.889 72.7053 326.171 74.2237C324.454 75.7422 322.385 76.8102 320.15 77.3317H320.218ZM320.218 91.7202V92.8505C320.229 93.2765 320.153 93.7002 319.995 94.096C319.837 94.4917 319.599 94.8512 319.298 95.1525C318.996 95.4538 318.636 95.6907 318.239 95.8487C317.843 96.0068 317.419 96.0826 316.992 96.0718C316.136 96.0718 315.316 95.7324 314.711 95.1283C314.106 94.5242 313.766 93.7048 313.766 92.8505V91.7202C313.777 90.8695 314.121 90.0569 314.724 89.4553C315.326 88.8537 316.14 88.5106 316.992 88.4989C317.417 88.4944 317.839 88.5746 318.232 88.7349C318.626 88.8951 318.983 89.1322 319.284 89.4323C319.584 89.7323 319.822 90.0892 319.982 90.4821C320.143 90.875 320.223 91.2959 320.218 91.7202Z" fill="#09253D"/>
</svg>
