<svg width="24" height="24" viewBox="0 0 24 24" fill="none" xmlns="http://www.w3.org/2000/svg">
<path d="M3.30052 0C2.42532 0 1.58598 0.365967 0.967123 1.01739C0.348269 1.66882 0.000599942 2.55234 0.000599942 3.47359V10.105C0.955355 8.765 2.37671 7.87911 3.95197 7.64223C5.52724 7.40535 7.12738 7.83687 8.40039 8.84188C9.6734 9.84688 10.515 11.343 10.74 13.0012C10.9651 14.6594 10.5551 16.3438 9.60036 17.6838V18.9469H20.7001C21.5753 18.9469 22.4146 18.5809 23.0335 17.9295C23.6523 17.2781 24 16.3945 24 15.4733V3.47359C24 2.55234 23.6523 1.66882 23.0335 1.01739C22.4146 0.365967 21.5753 0 20.7001 0H3.30052ZM5.70046 5.0525H18.3001C18.5388 5.0525 18.7677 5.15231 18.9365 5.32997C19.1053 5.50763 19.2001 5.74859 19.2001 5.99985C19.2001 6.2511 19.1053 6.49206 18.9365 6.66972C18.7677 6.84738 18.5388 6.94719 18.3001 6.94719H5.70046C5.46177 6.94719 5.23286 6.84738 5.06408 6.66972C4.8953 6.49206 4.80048 6.2511 4.80048 5.99985C4.80048 5.74859 4.8953 5.50763 5.06408 5.32997C5.23286 5.15231 5.46177 5.0525 5.70046 5.0525ZM12.0003 12.3155C12.0003 12.0642 12.0951 11.8233 12.2639 11.6456C12.4327 11.4679 12.6616 11.3681 12.9003 11.3681H18.3001C18.5388 11.3681 18.7677 11.4679 18.9365 11.6456C19.1053 11.8233 19.2001 12.0642 19.2001 12.3155C19.2001 12.5667 19.1053 12.8077 18.9365 12.9853C18.7677 13.163 18.5388 13.2628 18.3001 13.2628H12.9003C12.6616 13.2628 12.4327 13.163 12.2639 12.9853C12.0951 12.8077 12.0003 12.5667 12.0003 12.3155ZM4.80048 8.84188C3.52731 8.84188 2.30629 9.37426 1.40603 10.3219C0.505763 11.2696 0 12.5548 0 13.895C0 15.2352 0.505763 16.5205 1.40603 17.4681C2.30629 18.4158 3.52731 18.9481 4.80048 18.9481C6.07365 18.9481 7.29467 18.4158 8.19493 17.4681C9.0952 16.5205 9.60096 15.2352 9.60096 13.895C9.60096 12.5548 9.0952 11.2696 8.19493 10.3219C7.29467 9.37426 6.07365 8.84188 4.80048 8.84188ZM8.40039 18.9481C7.39841 19.7414 6.15165 20.2113 4.80048 20.2113C3.50226 20.214 2.23852 19.7715 1.20057 18.9507V23.0508C1.20057 23.7708 1.92655 24.2129 2.50854 23.8958L2.61653 23.8263L4.80048 22.2196L6.98443 23.8263C7.11055 23.919 7.25714 23.9762 7.41021 23.9923C7.56328 24.0084 7.71771 23.9829 7.85877 23.9183C7.99982 23.8537 8.12278 23.7521 8.21592 23.6232C8.30906 23.4943 8.36927 23.3425 8.39079 23.1821L8.40039 23.0508L8.40159 18.9469L8.40039 18.9481Z" fill="#00A5A5"/>
</svg>
