<svg width="45" height="46" viewBox="0 0 45 46" fill="none" xmlns="http://www.w3.org/2000/svg">
<path d="M14.3005 10.5C13.4253 10.5 12.586 10.866 11.9671 11.5174C11.3483 12.1688 11.0006 13.0523 11.0006 13.9736V20.605C11.9554 19.265 13.3767 18.3791 14.952 18.1422C16.5272 17.9053 18.1274 18.3369 19.4004 19.3419C20.6734 20.3469 21.515 21.843 21.74 23.5012C21.9651 25.1594 21.5551 26.8438 20.6004 28.1838V29.4469H31.7001C32.5753 29.4469 33.4146 29.0809 34.0335 28.4295C34.6523 27.7781 35 26.8945 35 25.9733V13.9736C35 13.0523 34.6523 12.1688 34.0335 11.5174C33.4146 10.866 32.5753 10.5 31.7001 10.5H14.3005ZM16.7005 15.5525H29.3001C29.5388 15.5525 29.7677 15.6523 29.9365 15.83C30.1053 16.0076 30.2001 16.2486 30.2001 16.4998C30.2001 16.7511 30.1053 16.9921 29.9365 17.1697C29.7677 17.3474 29.5388 17.4472 29.3001 17.4472H16.7005C16.4618 17.4472 16.2329 17.3474 16.0641 17.1697C15.8953 16.9921 15.8005 16.7511 15.8005 16.4998C15.8005 16.2486 15.8953 16.0076 16.0641 15.83C16.2329 15.6523 16.4618 15.5525 16.7005 15.5525ZM23.0003 22.8155C23.0003 22.5642 23.0951 22.3233 23.2639 22.1456C23.4327 21.9679 23.6616 21.8681 23.9003 21.8681H29.3001C29.5388 21.8681 29.7677 21.9679 29.9365 22.1456C30.1053 22.3233 30.2001 22.5642 30.2001 22.8155C30.2001 23.0667 30.1053 23.3077 29.9365 23.4853C29.7677 23.663 29.5388 23.7628 29.3001 23.7628H23.9003C23.6616 23.7628 23.4327 23.663 23.2639 23.4853C23.0951 23.3077 23.0003 23.0667 23.0003 22.8155ZM15.8005 19.3419C14.5273 19.3419 13.3063 19.8743 12.406 20.8219C11.5058 21.7696 11 23.0548 11 24.395C11 25.7352 11.5058 27.0205 12.406 27.9681C13.3063 28.9158 14.5273 29.4481 15.8005 29.4481C17.0736 29.4481 18.2947 28.9158 19.1949 27.9681C20.0952 27.0205 20.601 25.7352 20.601 24.395C20.601 23.0548 20.0952 21.7696 19.1949 20.8219C18.2947 19.8743 17.0736 19.3419 15.8005 19.3419ZM19.4004 29.4481C18.3984 30.2414 17.1516 30.7113 15.8005 30.7113C14.5023 30.714 13.2385 30.2715 12.2006 29.4507V33.5508C12.2006 34.2708 12.9266 34.7129 13.5085 34.3958L13.6165 34.3263L15.8005 32.7196L17.9844 34.3263C18.1106 34.419 18.2571 34.4762 18.4102 34.4923C18.5633 34.5084 18.7177 34.4829 18.8588 34.4183C18.9998 34.3537 19.1228 34.2521 19.2159 34.1232C19.3091 33.9943 19.3693 33.8425 19.3908 33.6821L19.4004 33.5508L19.4016 29.4469L19.4004 29.4481Z" fill="#00A5A5"/>
</svg>
