<svg width="335" height="332" viewBox="0 0 335 332" fill="none" xmlns="http://www.w3.org/2000/svg">
<path d="M41.8499 0H41.1157V99.5266H41.8499V0Z" fill="#C7C7C7"/>
<path d="M76.0341 132.844L73.2588 138.954H9.69956L6.93164 132.844L33.9867 114.111H48.979L76.0341 132.844Z" fill="#09253D"/>
<path d="M50.8588 96.0605L48.9792 114.111H33.987L32.1074 96.0605H50.8588Z" fill="#DBDBDB"/>
<path d="M76.0341 132.844L73.2515 138.954H9.69957L6.92432 132.844H76.0341Z" fill="#DBDBDB"/>
<path d="M116.04 0H115.306V79.8166H116.04V0Z" fill="#C7C7C7"/>
<path d="M150.225 113.127L147.449 119.244H83.89L81.1221 113.127L108.177 94.3936H123.169L150.225 113.127Z" fill="#09253D"/>
<path d="M125.049 76.3503L123.17 94.3933H108.177L106.298 76.3503H125.049Z" fill="#DBDBDB"/>
<path d="M150.225 113.134L147.442 119.244H83.89L81.1147 113.134H150.225Z" fill="#DBDBDB"/>
<path d="M19.5599 164.01L12.3134 175.693L15.911 177.896C16.4152 178.224 16.8191 178.685 17.0781 179.228C17.3372 179.771 17.4415 180.375 17.3794 180.973C17.3204 181.64 17.2984 182.309 17.3133 182.978C17.3338 183.587 17.1856 184.19 16.885 184.72C16.5844 185.25 16.1431 185.687 15.6099 185.982L11.939 187.972L18.4586 200.118L22.1296 198.128C22.6519 197.848 23.2412 197.717 23.833 197.749C24.4248 197.781 24.9962 197.976 25.4849 198.311C26.0845 198.73 26.7071 199.115 27.3497 199.464C27.8717 199.752 28.3034 200.179 28.5964 200.697C28.8895 201.216 29.0324 201.806 29.009 202.402L28.8768 206.61L42.621 207.036L42.7458 202.813C42.7651 202.216 42.9497 201.637 43.279 201.139C43.6082 200.641 44.0693 200.244 44.6106 199.993C44.9337 199.839 45.2494 199.677 45.5651 199.508C45.8808 199.34 46.1892 199.163 46.4902 198.98C46.9969 198.668 47.5802 198.503 48.1752 198.503C48.7701 198.503 49.3534 198.668 49.8601 198.98L53.465 201.183L60.7042 189.499L57.0993 187.259C56.5945 186.932 56.1901 186.471 55.931 185.928C55.6718 185.385 55.568 184.781 55.6309 184.183C55.6897 183.518 55.7118 182.852 55.697 182.185C55.6771 181.575 55.8265 180.972 56.1284 180.442C56.4303 179.912 56.8731 179.475 57.4077 179.182L61.0787 177.192L54.581 165.075L50.866 167.065C50.3271 167.347 49.7204 167.474 49.1136 167.431C48.5069 167.388 47.924 167.177 47.43 166.822C46.8793 166.441 46.3066 166.088 45.7266 165.772C45.1918 165.493 44.7456 165.071 44.4381 164.552C44.1307 164.033 43.9743 163.438 43.9866 162.835L44.1554 158.62L30.4187 158.187L30.2865 162.409C30.2617 163.012 30.0701 163.596 29.7331 164.097C29.3961 164.597 28.9268 164.994 28.3776 165.244C28.0692 165.383 27.7682 165.537 27.4672 165.699C27.1662 165.86 26.8725 166.029 26.5862 166.206C26.0705 166.523 25.4771 166.69 24.8718 166.69C24.2666 166.69 23.6731 166.523 23.1575 166.206L19.5599 164.01ZM29.9414 173.468C31.8534 172.096 34.1469 171.358 36.5 171.356C38.8531 171.355 41.1475 172.091 43.0611 173.461C44.9747 174.83 46.4113 176.765 47.1691 178.993C47.927 181.221 47.9681 183.631 47.2866 185.884C46.6051 188.137 45.2353 190.119 43.3696 191.553C41.5038 192.988 39.2358 193.801 36.884 193.88C34.5323 193.959 32.2149 193.299 30.2573 191.993C28.2997 190.687 26.8002 188.801 25.9694 186.599C25.0939 184.278 25.0086 181.733 25.7268 179.359C26.445 176.985 27.9265 174.914 29.9414 173.468Z" fill="#09253D"/>
<path d="M320.947 49.9358C320.639 49.7554 320.388 49.493 320.22 49.1779C320.053 48.8628 319.977 48.5074 320 48.1513C320 47.9531 320 47.7548 320 47.5565C320 47.3582 320 47.1526 320 46.9543C319.977 46.5983 320.053 46.2429 320.22 45.9278C320.388 45.6126 320.639 45.3502 320.947 45.1699L323.098 43.9288L319.06 36.9158L316.88 38.1862C316.57 38.3641 316.217 38.4515 315.86 38.4385C315.503 38.4256 315.157 38.3127 314.861 38.1128C314.523 37.8998 314.178 37.6942 313.818 37.5106C313.5 37.3511 313.233 37.1069 313.045 36.805C312.857 36.5031 312.756 36.1551 312.753 35.7995V33.2954H304.677V35.7702C304.669 36.1225 304.563 36.4656 304.373 36.7621C304.183 37.0587 303.915 37.2973 303.598 37.4518C303.238 37.6354 302.864 37.841 302.555 38.054C302.26 38.2539 301.913 38.3668 301.556 38.3798C301.2 38.3928 300.846 38.3053 300.536 38.1274L298.385 36.8864L294.34 43.8994L296.498 45.1478C296.812 45.3276 297.069 45.5928 297.238 45.9126C297.407 46.2325 297.481 46.5937 297.453 46.9543C297.453 47.1526 297.453 47.3509 297.453 47.5492C297.453 47.7474 297.453 47.9457 297.453 48.144C297.477 48.502 297.4 48.8594 297.231 49.1761C297.062 49.4927 296.809 49.7558 296.498 49.9358L294.34 51.1769L298.385 58.1899L300.529 56.9489C300.839 56.7715 301.191 56.6838 301.548 56.6955C301.905 56.7071 302.251 56.8177 302.548 57.0149C302.886 57.2381 303.237 57.4416 303.598 57.6245C303.915 57.7843 304.181 58.0288 304.368 58.3308C304.555 58.6328 304.654 58.9805 304.655 59.3355V61.8103H312.731V59.3281C312.734 58.9726 312.835 58.6246 313.023 58.3227C313.211 58.0208 313.478 57.7766 313.796 57.6171C314.156 57.4326 314.507 57.2291 314.846 57.0076C315.142 56.8102 315.487 56.6995 315.842 56.6878C316.198 56.6761 316.549 56.764 316.858 56.9415L319.009 58.1826L323.047 51.1695L320.947 49.9358ZM308.73 54.1877C307.423 54.1877 306.146 53.8001 305.059 53.0738C303.972 52.3476 303.125 51.3154 302.625 50.1077C302.125 48.9001 301.994 47.5712 302.249 46.2892C302.504 45.0071 303.134 43.8295 304.058 42.9052C304.982 41.9808 306.159 41.3514 307.441 41.0964C308.723 40.8414 310.051 40.9722 311.259 41.4725C312.466 41.9727 313.498 42.8198 314.224 43.9067C314.95 44.9936 315.338 46.2714 315.338 47.5785C315.337 48.4477 315.165 49.3081 314.831 50.1106C314.497 50.913 314.008 51.6417 313.392 52.255C312.776 52.8682 312.046 53.3539 311.242 53.6843C310.438 54.0147 309.577 54.1832 308.708 54.1803L308.73 54.1877Z" fill="#09253D"/>
<path d="M138.808 234.155C138.52 233.987 138.281 233.746 138.114 233.458C137.947 233.17 137.857 232.843 137.853 232.51C137.853 232.18 137.853 231.857 137.853 231.526C137.818 231.195 137.838 230.86 137.912 230.535C137.993 230.21 138.161 229.913 138.397 229.675C138.646 229.457 138.922 229.272 139.219 229.125L140.93 228.126V228.163L136.848 221.172H136.943L134.696 222.494C134.283 222.7 133.811 222.757 133.36 222.655C132.936 222.523 132.533 222.33 132.163 222.082L131.605 221.767C131.4 221.659 131.214 221.517 131.055 221.348C130.729 221.009 130.532 220.568 130.497 220.1V217.493L130.666 217.662L122.59 217.735L122.839 217.493V220.107C122.816 220.482 122.697 220.845 122.494 221.161C122.291 221.477 122.011 221.736 121.679 221.913L121.129 222.244L120.578 222.567C120.365 222.701 120.132 222.8 119.888 222.861C119.393 222.969 118.876 222.91 118.419 222.692L116.143 221.392L116.584 221.275L112.568 228.302L112.436 227.81L114.712 229.117C115.032 229.337 115.292 229.634 115.467 229.98C115.643 230.327 115.729 230.712 115.717 231.1V231.746V232.385C115.722 232.634 115.687 232.882 115.615 233.12C115.462 233.615 115.143 234.043 114.712 234.331L112.436 235.638L112.56 235.176L116.569 242.204L116.158 242.093L118.441 240.808C118.9 240.593 119.417 240.539 119.91 240.654C120.145 240.716 120.371 240.812 120.578 240.94L121.136 241.271L121.687 241.594C121.9 241.712 122.094 241.863 122.259 242.042C122.59 242.403 122.787 242.867 122.817 243.356V245.978L122.619 245.78L130.695 245.861L130.578 245.978V243.371C130.612 242.914 130.804 242.483 131.121 242.152C131.454 241.86 131.824 241.613 132.222 241.418C132.589 241.177 132.987 240.987 133.404 240.852C133.842 240.748 134.303 240.802 134.704 241.007L136.958 242.314H136.906L140.974 235.315L138.808 234.155ZM138.808 234.155L140.959 235.389L136.943 242.409V242.446L134.682 241.161C134.298 240.975 133.862 240.928 133.448 241.029C133.024 241.156 132.623 241.35 132.259 241.601C131.876 241.795 131.523 242.043 131.209 242.336C130.924 242.643 130.756 243.041 130.732 243.459V246.059V246.176H130.614L122.538 246.257H122.347V246.007V243.415C122.317 243.033 122.156 242.672 121.892 242.394C121.759 242.257 121.605 242.141 121.437 242.049L120.864 241.726L120.292 241.403C120.13 241.306 119.954 241.236 119.77 241.197C119.401 241.115 119.015 241.162 118.676 241.33L116.474 242.644L116.217 242.798L116.063 242.534L111.988 235.543L111.819 235.249L112.113 235.08L114.315 233.781C114.608 233.579 114.823 233.284 114.925 232.943C114.975 232.772 114.999 232.593 114.998 232.415V231.754V231.093C114.999 230.914 114.975 230.736 114.925 230.564C114.822 230.226 114.604 229.935 114.308 229.742L112.105 228.434L111.79 228.258L111.973 227.95L116.041 220.959L116.209 220.672L116.488 220.834L118.691 222.134C119.019 222.295 119.392 222.339 119.748 222.259C119.928 222.221 120.1 222.151 120.255 222.053L120.827 221.73L121.408 221.407C121.571 221.32 121.719 221.209 121.848 221.076C122.108 220.806 122.264 220.452 122.289 220.078V217.5V217.243H122.531L130.607 217.316H130.791V217.485V220.078C130.817 220.482 130.981 220.865 131.253 221.164C131.562 221.457 131.91 221.704 132.288 221.899C132.634 222.146 133.015 222.339 133.419 222.472C133.82 222.567 134.242 222.523 134.616 222.347L136.884 221.076L136.943 221.04V221.098L140.959 228.126L139.241 229.11C138.946 229.253 138.672 229.436 138.426 229.653C138.191 229.883 138.023 230.172 137.942 230.491C137.864 230.813 137.842 231.145 137.875 231.475C137.875 231.805 137.875 232.136 137.875 232.459C137.868 232.798 137.95 233.134 138.114 233.432C138.278 233.73 138.517 233.979 138.808 234.155Z" fill="#09253D"/>
<path d="M126.591 238.407C125.466 238.402 124.36 238.119 123.372 237.583C122.383 237.047 121.542 236.275 120.925 235.335C120.307 234.395 119.932 233.316 119.832 232.196C119.733 231.076 119.912 229.948 120.354 228.914C120.796 227.879 121.487 226.971 122.366 226.268C123.244 225.566 124.283 225.093 125.389 224.89C126.495 224.686 127.634 224.76 128.705 225.105C129.775 225.449 130.744 226.053 131.525 226.863C132.787 228.183 133.474 229.95 133.434 231.776C133.375 233.546 132.631 235.223 131.361 236.456C130.09 237.689 128.39 238.38 126.62 238.385L126.591 238.407ZM126.591 238.407C127.45 238.406 128.301 238.234 129.093 237.899C129.885 237.565 130.602 237.075 131.202 236.459C131.802 235.843 132.273 235.114 132.587 234.313C132.901 233.513 133.051 232.658 133.03 231.798C132.98 230.121 132.279 228.528 131.076 227.359C129.873 226.19 128.261 225.535 126.583 225.534C124.874 225.534 123.234 226.213 122.025 227.422C120.816 228.632 120.137 230.272 120.137 231.982C120.137 233.692 120.816 235.331 122.025 236.541C123.234 237.75 124.874 238.429 126.583 238.429L126.591 238.407Z" fill="#09253D"/>
<path d="M6.53516 321.469L46.7764 321.293L87.0176 321.227L167.5 321.11L247.983 321.227L288.224 321.293L328.465 321.469L288.224 321.653L247.983 321.719L167.5 321.837L87.0176 321.719L46.7764 321.653L6.53516 321.469Z" fill="#09253D"/>
<path d="M321.887 66.0991H200.157V189.162H321.887V66.0991Z" fill="#09253D"/>
<path d="M256.125 58.6746C260.185 53.9087 267.138 52.7631 273.863 54.1217C280.588 55.4802 288.643 58.8729 289.377 70.1232C289.979 79.2585 287.174 88.1662 287.174 98.359C287.174 108.552 298.708 133.38 280.251 145.497C263.665 156.38 230.061 146.385 229.026 123.98C228.211 106.224 249.268 89.8038 251.485 82.776C253.702 75.7483 251.676 63.8885 256.125 58.6746Z" fill="#09253D"/>
<path d="M253.093 68.6987C252.968 73.7804 252.234 78.9209 250.156 83.7162C249.617 84.9307 248.913 86.065 248.064 87.0869C247.249 88.115 246.382 89.0843 245.516 90.0243C243.769 91.9262 242.043 93.8135 240.377 95.7742C237.066 99.6157 234.331 103.917 232.256 108.545C230.267 113.194 229.173 118.177 229.033 123.232C228.826 120.68 228.903 118.114 229.261 115.58C229.658 113.032 230.315 110.532 231.221 108.119C233.134 103.283 235.844 98.8024 239.239 94.8636C240.905 92.8736 242.675 90.9716 244.437 89.0917C246.199 87.2117 247.983 85.4199 249.077 83.2168C250.199 80.9644 251.054 78.5886 251.624 76.1377C252.269 73.6911 252.759 71.2066 253.093 68.6987Z" fill="#09253D"/>
<path d="M288.914 77.7971C288.789 82.9816 288.459 88.1588 288.598 93.3066C288.659 95.8704 288.874 98.4282 289.244 100.966C289.626 103.463 290.375 105.959 290.999 108.486C291.623 111.012 292.181 113.575 292.592 116.16C292.99 118.757 293.157 121.383 293.092 124.01C292.972 126.649 292.478 129.257 291.623 131.757C290.638 134.214 289.167 136.447 287.299 138.322C288.936 136.31 290.181 134.008 290.97 131.537C291.654 129.079 291.995 126.539 291.983 123.988C291.775 118.853 290.972 113.759 289.59 108.809C289.002 106.29 288.253 103.793 287.894 101.142C287.557 98.5447 287.424 95.9248 287.497 93.3066C287.652 88.1127 288.125 82.9331 288.914 77.7971Z" fill="#09253D"/>
<path d="M262.211 121.396C245.325 139.989 231.544 148.919 217.961 148.919C205.047 148.919 177.456 117.555 175.429 113.421C173.682 109.852 196.332 90.3252 199.812 92.7559C205.686 96.8242 224.525 120.375 226.522 120.485C228.519 120.595 235.876 115.734 253.592 107.436C264.355 102.405 273.958 108.508 262.211 121.396Z" fill="#EB9481"/>
<path d="M178.058 116.512C175.576 113.824 165.158 100.408 163.095 96.0312C161.032 91.6544 156.032 78.627 159.226 76.7104C162.42 74.7937 164.182 78.4875 164.182 78.4875C164.182 78.4875 162.941 72.6568 166.333 71.0192C169.725 69.3816 172.28 75.2196 172.28 75.2196C172.28 75.2196 171.443 69.1392 174.938 67.744C178.432 66.3487 180.033 72.6641 180.033 72.6641C180.033 72.6641 179.005 67.1344 182.368 67.2005C186.413 67.2813 187.155 77.6871 189.79 82.3502C190.385 83.4077 203.439 102.912 203.439 102.912L178.058 116.512Z" fill="#EB9481"/>
<path d="M179.893 72.128C180.459 79.7726 182.03 83.0258 186.501 89.0989C186.589 89.2164 186.435 89.3706 186.332 89.2605C181.391 83.7088 178.836 79.9195 179.504 72.1354C179.556 71.7535 179.864 71.7609 179.893 72.128Z" fill="#09253D"/>
<path d="M172.258 74.6175C173.535 82.5118 175.195 86.0513 179.446 92.756C179.504 92.8514 179.35 92.9616 179.284 92.8735C174.578 86.6388 172.111 82.7982 171.869 74.7423C171.854 74.3752 172.199 74.2503 172.258 74.6175Z" fill="#09253D"/>
<path d="M164.416 78.8253C166.208 86.3818 167.875 90.34 172.823 96.3176C172.94 96.4644 172.742 96.648 172.617 96.5158C166.979 90.9054 164.864 85.9779 164.196 78.8914C164.152 78.4214 164.306 78.348 164.416 78.8253Z" fill="#09253D"/>
<path d="M209.261 104.777C209.261 104.777 209.092 95.1646 208.086 90.9568C207.08 86.749 197.602 72.4585 194.364 74.3384C190.231 76.7618 194.093 86.088 196.567 90.4207C196.567 90.4207 187.022 96.0312 188.322 103.331C189.621 110.63 209.261 104.777 209.261 104.777Z" fill="#EB9481"/>
<path d="M193.447 75.3739C191.244 80.3087 194.915 85.7796 197.007 90.149C197.041 90.2119 197.059 90.2819 197.06 90.3532C197.062 90.4245 197.046 90.495 197.014 90.559C196.982 90.6229 196.936 90.6783 196.879 90.7207C196.821 90.7631 196.755 90.7912 196.684 90.8026C192.823 93.4242 188.146 98.2342 188.087 103.154C188.087 103.184 188.075 103.212 188.055 103.232C188.034 103.253 188.006 103.265 187.977 103.265C187.948 103.265 187.92 103.253 187.899 103.232C187.878 103.212 187.867 103.184 187.867 103.154C187.213 97.8671 191.42 92.756 195.825 90.1637C193.623 85.7062 190.194 80.0664 193.403 75.3298L193.447 75.3739Z" fill="#09253D"/>
<path d="M233.093 115.08L246.661 140.401C246.661 140.401 265.06 122.534 267.997 115.08C270.934 107.627 267.769 102.214 254.679 106.202C247.2 108.419 239.968 111.394 233.093 115.08Z" fill="#00A5A5"/>
<path d="M249.796 135.121C249.128 133.747 248.54 132.33 247.843 130.964C247.145 129.598 246.448 128.247 245.721 126.911C244.253 124.208 242.784 121.498 241.257 118.833C240.391 117.364 239.48 115.851 238.533 114.427C238.497 114.361 238.372 114.427 238.409 114.478C240.897 120.052 243.915 125.391 246.925 130.693C247.799 132.227 248.79 133.689 249.7 135.201C249.73 135.238 249.833 135.172 249.796 135.121Z" fill="#09253D"/>
<path d="M267.997 115.08C265.06 122.534 246.661 140.401 246.661 140.401L237.521 123.371L267.674 106.694C269.407 108.5 269.385 111.563 267.997 115.08Z" fill="#09253D"/>
<path d="M236.184 157.709C236.184 157.709 228.725 175.569 231.36 189.154H313.605C310.932 152.224 292.526 120.485 281.653 110.211C272.886 101.928 263.658 102.67 257.233 106.907C255.721 107.913 239.033 130.979 237.227 134.629C230.061 149.029 236.184 157.709 236.184 157.709Z" fill="#00A5A5"/>
<path d="M257.806 105.82C257.806 105.82 252.667 120.602 255.648 121.373C263.063 123.283 273.011 111.173 273.606 109.94C273.753 109.624 274.414 101.348 274.906 94.9075C275.221 90.7657 275.464 87.3804 275.464 87.3804L257.167 93.6591L257.755 105.005L257.806 105.82Z" fill="#EB9481"/>
<path d="M257.138 93.6591L257.726 105.005C261.448 104.483 269.634 102.464 274.876 94.9075C275.192 90.7657 275.434 87.3804 275.434 87.3804L273.144 88.1147L257.138 93.6591Z" fill="#09253D"/>
<path d="M243.512 77.7751C243.291 83.5398 243.864 88.2029 245.266 91.3019C246.468 93.9488 248.379 96.2108 250.789 97.8364C253.198 99.4621 256.011 100.388 258.915 100.511C261.118 100.591 267.461 100.011 272.05 96.5158C275.618 93.7987 277.769 88.9005 278.988 80.2866C281.778 60.5913 272.769 53.9675 263.893 53.1744C255.016 52.3813 244.246 57.9036 243.512 77.7751Z" fill="#EB9481"/>
<path d="M248.599 73.3837C249.062 73.3177 249.488 73.1855 249.935 73.0827C250.423 73.0388 250.883 72.8408 251.25 72.5172C251.342 72.3914 251.391 72.2397 251.391 72.0839C251.391 71.9282 251.342 71.7764 251.25 71.6507C251.021 71.4382 250.74 71.2902 250.436 71.2218C250.131 71.1534 249.814 71.1671 249.517 71.2615C248.884 71.3621 248.311 71.6945 247.909 72.1941C247.814 72.3097 247.757 72.4516 247.745 72.6006C247.733 72.7497 247.767 72.8989 247.842 73.0282C247.917 73.1576 248.03 73.2609 248.165 73.3244C248.3 73.388 248.452 73.4087 248.599 73.3837Z" fill="#09253D"/>
<path d="M261.573 73.8759C261.122 73.7965 260.676 73.6935 260.236 73.5675C259.749 73.5269 259.29 73.3253 258.929 72.9947C258.838 72.8689 258.788 72.7172 258.788 72.5614C258.788 72.4056 258.838 72.2539 258.929 72.1281C259.16 71.9162 259.443 71.7697 259.749 71.7038C260.054 71.638 260.372 71.6552 260.67 71.7536C261.308 71.8557 261.884 72.1938 262.285 72.7009C262.377 72.8184 262.431 72.961 262.44 73.11C262.449 73.2589 262.412 73.407 262.335 73.5346C262.257 73.6622 262.143 73.7632 262.007 73.8242C261.871 73.8851 261.719 73.9032 261.573 73.8759Z" fill="#09253D"/>
<path d="M258.328 78.8401C258.328 78.7887 258.43 78.9062 258.43 78.9649C258.32 80.3088 258.43 81.9023 259.627 82.387C259.627 82.387 259.627 82.4678 259.627 82.4604C258.129 82.1814 258.012 80.0958 258.328 78.8401Z" fill="#09253D"/>
<path d="M259.605 77.4815C261.808 77.4228 261.749 81.7922 259.723 81.8509C257.696 81.9097 257.806 77.5329 259.605 77.4815Z" fill="#09253D"/>
<path d="M260.464 77.7237C260.839 77.9733 261.198 78.414 261.668 78.458C262.138 78.5021 262.608 78.0615 262.96 77.6209C262.997 77.5768 263.034 77.6209 263.034 77.6723C263.034 78.5094 262.711 79.3686 261.808 79.4861C260.905 79.6036 260.413 78.8399 260.207 78.0174C260.17 77.8412 260.31 77.6209 260.464 77.7237Z" fill="#09253D"/>
<path d="M251.096 78.2671C251.096 78.2157 250.993 78.3332 250.993 78.3846C250.993 79.7432 250.853 81.322 249.627 81.7479C249.59 81.7479 249.59 81.8287 249.627 81.8214C251.132 81.6158 251.352 79.5449 251.096 78.2671Z" fill="#09253D"/>
<path d="M249.892 76.85C247.689 76.6811 247.535 81.0505 249.554 81.2047C251.573 81.3589 251.712 76.9969 249.892 76.85Z" fill="#09253D"/>
<path d="M248.996 77.107C248.643 77.3273 248.261 77.7312 247.872 77.7459C247.483 77.7606 247.057 77.2685 246.771 76.8059C246.771 76.7545 246.705 76.8059 246.698 76.85C246.646 77.6871 246.881 78.561 247.681 78.7593C248.482 78.9576 248.974 78.2379 249.201 77.4154C249.216 77.2539 249.106 77.0189 248.996 77.107Z" fill="#09253D"/>
<path d="M258.196 89.3559C257.88 89.6864 257.571 90.1343 257.087 90.1931C256.583 90.1968 256.084 90.0994 255.618 89.9067C255.61 89.8989 255.598 89.8949 255.587 89.8956C255.575 89.8963 255.564 89.9016 255.556 89.9104C255.548 89.9191 255.544 89.9306 255.545 89.9423C255.546 89.954 255.551 89.965 255.56 89.9728C255.764 90.232 256.033 90.4315 256.341 90.5503C256.648 90.6692 256.982 90.7031 257.307 90.6484C257.578 90.5636 257.819 90.4019 258 90.1829C258.181 89.9639 258.295 89.697 258.328 89.4147C258.332 89.3979 258.33 89.3802 258.322 89.3647C258.315 89.3492 258.302 89.3368 258.286 89.3298C258.27 89.3228 258.253 89.3216 258.236 89.3263C258.22 89.3311 258.205 89.3416 258.196 89.3559Z" fill="#09253D"/>
<path d="M252.667 84.3403C252.667 84.3403 252.344 86.3597 252.329 87.3144C252.329 87.4025 252.557 87.4466 252.88 87.4759C252.88 87.4759 252.88 87.4759 252.917 87.4759C253.727 87.6362 254.566 87.5718 255.342 87.2896C256.119 87.0075 256.803 86.5183 257.322 85.8751C257.388 85.7869 257.27 85.6841 257.182 85.7429C255.949 86.5466 254.489 86.9328 253.019 86.8444C252.961 86.5727 253.688 83.4076 253.533 83.393C252.782 83.4396 252.041 83.5904 251.331 83.8409C251.881 79.6184 253.1 75.5207 253.577 71.3129C253.577 71.166 253.379 71.1146 253.335 71.2468C251.749 75.4473 251.015 80.294 250.332 84.634C250.274 85.1848 252.256 84.5018 252.667 84.3403Z" fill="#09253D"/>
<path d="M253.489 86.9765C253.959 87.6964 254.606 88.2831 255.369 88.6802C255.789 88.8805 256.26 88.9472 256.72 88.8712C257.726 88.6876 257.821 87.7843 257.704 86.9986C257.632 86.5804 257.514 86.1715 257.351 85.7795C256.225 86.5806 254.871 87 253.489 86.9765Z" fill="#09253D"/>
<path d="M255.369 88.6803C255.789 88.8806 256.26 88.9473 256.72 88.8712C257.725 88.6877 257.821 87.7844 257.703 86.9987C257.182 86.9753 256.668 87.1286 256.244 87.4338C255.82 87.739 255.512 88.1781 255.369 88.6803Z" fill="#FF98B9"/>
<path d="M278.628 78.5169C276.462 78.583 270.317 73.1782 269.201 62.7944C269.201 62.7944 270.853 72.0473 271.675 73.3471C272.498 74.6469 268.239 70.2995 267.219 61.9426C267.219 61.9426 262.887 65.7171 259.025 67.1858C255.163 68.6545 252.748 68.8455 252.417 68.5811C252.087 68.3167 257.762 65.9521 259.172 63.9988C259.172 63.9988 249.091 69.8736 244.275 70.6667C243.717 70.7548 244.657 62.0821 251.712 56.501C258.768 50.92 268.467 52.3152 271.947 55.1058C271.947 55.1058 275.75 55.3041 280.331 60.4812C284.913 65.6584 280.955 78.4434 278.628 78.5169Z" fill="#09253D"/>
<path d="M275.772 81.6894C275.772 81.6894 279.803 75.2785 282.688 76.6884C285.574 78.0984 282.762 87.2411 279.524 88.629C279.121 88.8373 278.68 88.9617 278.227 88.9947C277.775 89.0277 277.321 88.9687 276.892 88.8211C276.463 88.6735 276.068 88.4405 275.732 88.1361C275.396 87.8317 275.125 87.4623 274.935 87.0501L275.772 81.6894Z" fill="#EB9481"/>
<path d="M281.814 79.3101C281.873 79.3101 281.88 79.3762 281.814 79.3982C279.546 80.4483 278.437 82.6587 277.688 84.9278C278.341 84.0319 279.252 83.5179 280.441 84.2816C280.5 84.3183 280.441 84.4211 280.382 84.4065C279.974 84.3065 279.544 84.3331 279.151 84.4826C278.758 84.632 278.419 84.8974 278.18 85.2436C277.784 85.8372 277.449 86.4696 277.181 87.1309C277.086 87.3439 276.704 87.2557 276.778 87.0134C276.774 86.994 276.774 86.9741 276.778 86.9547C276.572 83.9879 278.664 79.7433 281.814 79.3101Z" fill="#09253D"/>
<path d="M288.018 114.243C296.153 123.635 318.957 157.636 313.671 166.823C308.598 175.635 297.093 178.117 290.471 166.279C285.706 157.812 277.696 132.55 275.706 120.434C274.091 110.623 280.5 105.556 288.018 114.243Z" fill="#EB9481"/>
<path d="M280.419 144.344L307.379 134.438C307.379 134.438 292.247 113.722 285.28 109.778C278.312 105.835 272.512 108.214 274.641 121.734C275.787 129.449 277.723 137.025 280.419 144.344Z" fill="#00A5A5"/>
<path d="M302.592 130.59C301.124 131.067 299.655 131.449 298.187 131.948C296.719 132.448 295.309 132.954 293.885 133.49C290.999 134.563 288.121 135.635 285.265 136.788C283.665 137.434 282.064 138.132 280.5 138.866C280.427 138.866 280.456 139.02 280.5 138.998C286.374 137.309 292.071 135.062 297.739 132.822C299.384 132.169 300.962 131.353 302.585 130.7C302.695 130.671 302.644 130.568 302.592 130.59Z" fill="#09253D"/>
<path d="M281.939 143.712C281.406 143.83 280.882 143.993 280.376 144.197C279.641 142.604 277.901 135.598 277.497 133.799C276.69 130.215 276.029 126.595 275.185 123.011C275.185 122.908 274.987 122.938 275.001 123.011C275.251 125.001 275.559 126.984 275.904 128.952C275.537 128.012 275.17 127.065 274.884 126.103C274.887 126.096 274.888 126.089 274.887 126.081C274.887 126.074 274.884 126.067 274.88 126.061C274.876 126.055 274.871 126.05 274.864 126.046C274.858 126.043 274.851 126.041 274.843 126.041C274.836 126.041 274.829 126.043 274.822 126.046C274.816 126.05 274.811 126.055 274.807 126.061C274.803 126.067 274.8 126.074 274.799 126.081C274.799 126.089 274.8 126.096 274.803 126.103C275.137 127.298 275.546 128.47 276.029 129.613C276.315 133.285 279.656 144.954 279.751 144.909C280.507 144.567 281.242 144.182 281.954 143.757C282.035 143.779 282.035 143.705 281.939 143.712Z" fill="#09253D"/>
<path d="M268.606 74.5882L260.934 107.348C260.603 108.31 261.095 109.081 262.035 109.066L276.682 112.047C277.196 112 277.685 111.808 278.093 111.494C278.501 111.179 278.812 110.755 278.988 110.27L286.66 77.5109C286.99 76.5489 286.499 75.7778 285.559 75.7998L270.912 72.811C270.398 72.858 269.909 73.05 269.501 73.3647C269.093 73.6794 268.782 74.1037 268.606 74.5882Z" fill="#A6A6A6"/>
<path d="M269.862 74.7718L262.211 107.531C261.881 108.493 262.373 109.264 263.313 109.25L277.96 112.231C278.472 112.185 278.961 111.994 279.369 111.68C279.777 111.367 280.088 110.944 280.265 110.461L287.908 77.7018C288.238 76.7325 287.747 75.9687 286.807 75.9834L272.167 72.9946C271.654 73.0442 271.166 73.2372 270.759 73.5515C270.351 73.8658 270.04 74.2887 269.862 74.7718Z" fill="#DBDBDB"/>
<path d="M274.502 76.1817C274.509 76.4754 274.428 76.7646 274.269 77.0119C274.11 77.2591 273.881 77.4529 273.611 77.5684C273.34 77.6838 273.042 77.7155 272.753 77.6594C272.465 77.6033 272.2 77.4619 271.993 77.2536C271.786 77.0452 271.646 76.7795 271.591 76.4908C271.536 76.202 271.57 75.9035 271.686 75.6339C271.803 75.3642 271.998 75.1358 272.246 74.9782C272.494 74.8205 272.784 74.7409 273.077 74.7497C273.456 74.7516 273.818 74.9033 274.085 75.1717C274.352 75.44 274.502 75.8031 274.502 76.1817Z" fill="#09253D"/>
<path d="M294.384 169.246C299.149 178.058 311.762 173.035 313.671 166.823C318.15 152.246 315.374 128.012 312.702 114.478C311.843 110.123 282.269 114.478 282.446 119.185C282.651 124.877 285.045 151.915 294.384 169.246Z" fill="#EB9481"/>
<path d="M312.372 120.948C313.862 114.526 313.952 107.859 312.636 101.399C311.08 94.3568 305.992 79.4201 285.537 72.7595C280.684 71.1733 272.644 72.3556 279.663 77.8192C284.627 81.7039 288.944 82.6659 291.411 85.4564C291.411 85.4564 281.367 88.1735 279.972 93.0937C278.75 97.4003 277.835 101.788 277.233 106.224C278.02 106.519 278.824 106.764 279.641 106.958C279.21 111.242 280.206 115.548 282.475 119.207L312.372 120.948Z" fill="#EB9481"/>
<path d="M310.073 94.9148C307.034 92.7118 300.529 88.0266 293.855 86.1026C286.454 83.8996 271.631 81.7699 270.089 87.2409C268.959 91.2578 274.546 92.5869 274.546 92.5869C274.546 92.5869 268.232 92.9835 268.004 96.8315C267.799 100.342 272.182 101.113 272.182 101.113C272.182 101.113 268.393 102.009 268.841 105.431C269.384 109.536 277.248 106.98 281.396 110.667C282.328 111.474 310.073 94.9148 310.073 94.9148Z" fill="#EB9481"/>
<path d="M292.872 94.2761C289.67 92.6312 281.433 90.7733 274.664 92.455C274.509 92.455 274.458 92.6239 274.605 92.6239C280.736 92.4584 286.864 93.0354 292.857 94.3422C292.894 94.3569 292.908 94.2908 292.872 94.2761Z" fill="#09253D"/>
<path d="M290.478 101.678C287.541 100.547 278.988 99.0053 272.189 100.944C272.035 100.988 271.991 101.128 272.138 101.12C278.26 100.631 284.418 100.843 290.493 101.752C290.502 101.75 290.511 101.744 290.517 101.736C290.522 101.728 290.524 101.717 290.522 101.708C290.52 101.698 290.514 101.689 290.506 101.684C290.498 101.678 290.488 101.676 290.478 101.678Z" fill="#09253D"/>
<path d="M291.682 163.107C291.462 162.372 291.249 161.638 291.014 160.97C290.529 159.501 290.111 158.032 289.685 156.564C288.819 153.626 287.989 150.645 287.262 147.649C285.811 141.677 284.711 135.625 283.966 129.525C283.76 127.836 283.584 126.147 283.4 124.458C283.217 122.769 283.158 121.014 282.835 119.317C282.835 119.229 281.976 117.937 281.638 117.298C281.288 116.633 280.981 115.947 280.72 115.242C280.172 113.804 279.799 112.305 279.612 110.777C279.608 110.767 279.601 110.759 279.593 110.753C279.584 110.748 279.574 110.745 279.564 110.745C279.554 110.745 279.544 110.748 279.535 110.753C279.527 110.759 279.52 110.767 279.516 110.777C279.421 112.515 279.64 114.257 280.162 115.917C280.615 117.307 281.396 118.566 282.438 119.589C282.438 119.809 282.49 122.527 282.578 124.047C282.666 125.567 282.806 127.087 282.974 128.6C283.319 131.64 283.745 134.673 284.281 137.691C285.329 143.796 286.786 149.824 288.642 155.734C288.642 155.829 288.708 155.925 288.738 156.02C288.738 156.241 288.738 156.461 288.738 156.681C288.749 157.224 288.793 157.766 288.87 158.304C289.021 159.374 289.284 160.425 289.656 161.44C289.652 161.449 289.651 161.458 289.652 161.468C289.654 161.477 289.657 161.486 289.662 161.494C289.668 161.502 289.675 161.508 289.683 161.512C289.692 161.517 289.701 161.519 289.711 161.519C289.72 161.519 289.729 161.517 289.738 161.512C289.746 161.508 289.753 161.502 289.759 161.494C289.764 161.486 289.768 161.477 289.769 161.468C289.77 161.458 289.769 161.449 289.766 161.44C289.505 160.378 289.328 159.298 289.237 158.209L289.105 157.092C289.509 158.282 289.935 159.472 290.353 160.654C290.647 161.477 290.948 162.277 291.286 163.077C291.623 163.878 291.888 164.656 292.284 165.398C292.284 165.457 292.401 165.398 292.387 165.354C292.203 164.568 291.91 163.848 291.682 163.107Z" fill="#09253D"/>
<path d="M200.157 189.154V169.415L177.728 189.154H200.157Z" fill="#09253D"/>
<path d="M84.881 231.005C91.3419 259.123 104.704 292.83 110.409 298.301C117.626 305.218 165.371 317.908 167.75 318.165C173.623 318.76 185.466 276.307 179.181 275.389C169.636 274.008 134.865 272.121 132.787 269.984C130.709 267.847 115.952 249.239 100.872 228.332C90.4609 213.887 80.865 213.556 84.881 231.005Z" fill="#F6A99F"/>
<path d="M163.021 315.874C163.719 316.226 173.696 321.249 179.864 323.034C184.467 324.37 197.815 327.858 199.79 322.931C201.141 319.582 193.527 316.608 188.197 314.383C185.385 313.208 181.919 310.27 182.749 308.464C184.217 305.306 191.434 308.464 196.192 311.24C205.391 316.586 217.645 326.213 223.262 321.521C225.384 319.758 222.917 316.542 219.312 313.391C225.185 317.063 231.411 320.074 233.842 318.209C235.244 317.144 235.31 315.683 234.532 314.023C236.338 314.611 237.931 314.493 239.047 313.289C240.949 311.291 240.023 308.354 237.938 305.336C238.296 305.299 238.64 305.177 238.942 304.98C239.243 304.783 239.493 304.518 239.671 304.205C243.702 298.058 223.519 280.412 216.551 278.76C196.031 273.876 174.401 274.787 174.401 274.787C166.34 281.256 162.999 315.859 163.021 315.874Z" fill="#F6A99F"/>
<path d="M193.197 296.979C198.083 297.742 202.75 299.537 206.889 302.244C212.095 305.681 215.545 309.705 219.907 313.751C219.924 313.774 219.933 313.802 219.932 313.831C219.931 313.86 219.92 313.887 219.901 313.909C219.882 313.93 219.856 313.945 219.827 313.95C219.799 313.954 219.77 313.949 219.745 313.935C217.667 312.011 209.048 304.77 206.823 303.125C202.799 300.097 198.14 298.022 193.197 297.059C193.13 297.052 193.145 296.964 193.197 296.979Z" fill="#09253D"/>
<path d="M197.022 288.262C202.418 289.731 207.947 291.199 212.954 293.784C218.431 296.575 222.719 301.128 226.904 305.534C229.439 308.163 231.913 310.856 234.326 313.612C234.422 313.729 234.268 313.913 234.165 313.795C229.887 309.272 225.482 304.866 220.949 300.577C216.754 296.595 211.814 293.48 206.412 291.412C203.329 290.23 200.157 289.297 196.985 288.357C196.941 288.343 196.963 288.247 197.022 288.262Z" fill="#09253D"/>
<path d="M202.785 280.647C208.028 281.726 212.602 282.644 217.242 285.449C223.387 289.173 229.319 295.437 231.397 297.662C233.695 300.114 235.912 302.641 238.085 305.203C238.174 305.306 237.997 305.468 237.902 305.365C232.921 299.746 227.582 294.455 221.918 289.525C219.254 287.139 216.238 285.177 212.976 283.709C209.669 282.411 206.258 281.399 202.778 280.684C202.778 280.684 202.741 280.639 202.785 280.647Z" fill="#09253D"/>
<path d="M171.097 273.098L156.413 319.626C156.413 319.626 116.657 308.273 109.425 300.438C102.193 292.602 88.7499 252.139 84.8073 232.525C80.8647 212.91 90.7763 213.432 99.8877 225.762C108.999 238.091 131.686 268.097 132.926 268.75C134.167 269.404 171.097 273.098 171.097 273.098Z" fill="#00A5A5"/>
<path opacity="0.1" d="M171.097 273.098L156.413 319.626C156.413 319.626 116.657 308.273 109.425 300.438C102.193 292.602 88.7499 252.139 84.8073 232.525C80.8647 212.91 90.7763 213.432 99.8877 225.762C108.999 238.091 131.686 268.097 132.926 268.75C134.167 269.404 171.097 273.098 171.097 273.098Z" fill="black"/>
<path d="M152.596 298.954C154.38 293.469 156.201 287.998 157.772 282.446C158.668 279.296 159.578 276.138 160.444 272.98C160.481 272.855 160.283 272.789 160.239 272.907C158.234 278.341 156.237 283.797 154.483 289.32C152.728 294.842 150.944 300.335 149.27 305.82C148.323 308.963 147.464 312.121 146.708 315.316C146.708 315.374 146.796 315.411 146.818 315.352C149.006 309.984 150.804 304.477 152.596 298.954Z" fill="#09253D"/>
<path d="M136.363 313.23L134.6 312.613C131.289 311.431 127.912 310.16 124.733 308.861C124.322 308.699 123.918 308.53 123.521 308.361C122.883 308.097 122.244 307.825 121.627 307.553L120.702 307.15L120.372 307.003L119.417 306.562C118.154 305.982 116.958 305.402 115.842 304.814L115.108 304.403C113.363 303.505 111.719 302.425 110.203 301.179C110.064 301.054 109.924 300.93 109.799 300.805C109.675 300.68 109.542 300.555 109.432 300.438C102.164 292.602 88.7573 252.139 84.8147 232.525L84.6825 231.849V231.702C84.4182 230.234 84.1833 228.368 83.9924 226.371C83.4417 216.611 88.0598 215.018 93.7645 219.307C107.986 249.833 129.769 300.276 136.363 313.23Z" fill="#09253D"/>
<path d="M115.739 321.043L29.104 321.499C29.1774 319.633 41.5119 265.071 51.3207 244.935C63.8975 219.116 70.4098 217.03 74.2497 215.649C79.2055 213.872 88.0305 214.753 90.123 215.745C92.5017 216.854 100.064 230.057 102.773 239.743C108.191 259.226 116.958 319.854 115.739 321.043Z" fill="#09253D"/>
<path d="M69.8077 217.691C69.8077 217.691 80.8207 258.484 81.3713 261.194C82.2009 265.13 87.6927 321.293 87.6927 321.293L27.3052 321.499C27.3052 321.499 40.484 269.507 50.2928 246.742C60.9974 221.774 69.8077 217.691 69.8077 217.691Z" fill="#00A5A5"/>
<g opacity="0.1">
<path d="M69.8077 217.691C69.8077 217.691 80.8207 258.484 81.3713 261.194C82.2009 265.13 87.6927 321.293 87.6927 321.293L27.3052 321.499C27.3052 321.499 40.484 269.507 50.2928 246.742C60.9974 221.774 69.8077 217.691 69.8077 217.691Z" fill="black"/>
</g>
<path d="M90.916 216.376C91.2391 217.676 101.393 250.818 102.098 259.079C102.883 268.244 109.829 321.499 109.829 321.499H118.639C118.639 321.499 105.886 244.987 102.384 236.902C95.2184 220.401 90.916 216.376 90.916 216.376Z" fill="#00A5A5"/>
<path opacity="0.1" d="M90.916 216.376C91.2391 217.676 101.393 250.818 102.098 259.079C102.883 268.244 109.829 321.499 109.829 321.499H118.639C118.639 321.499 105.886 244.987 102.384 236.902C95.2184 220.401 90.916 216.376 90.916 216.376Z" fill="black"/>
<path d="M58.4056 227.23C43.8979 242.776 8.62718 301.759 19.8163 312.518C31.0054 323.276 93.1257 308.794 110.57 300.474C115.761 298.007 96.0404 265.637 89.9393 264.88C84.8587 264.256 58.8975 276.13 58.1413 274.64C57.297 272.951 61.4232 260.489 67.6858 237.922C74.8736 211.912 64.8225 220.357 58.4056 227.23Z" fill="#F6A99F"/>
<path d="M115.725 254.438C128.338 252.675 131.877 254.166 141.708 247.028C148.176 242.343 153.947 244.465 150.254 251.904C144.219 264.08 128.419 269.764 122.354 270.16L115.725 254.438Z" fill="#F6A99F"/>
<path d="M82.2158 266.569C82.2158 266.569 96.3931 258.697 109.653 255.495C118.815 253.292 139.299 250.685 158.902 270.917C163.55 275.712 166.773 285.846 156.34 280.772C148.925 277.166 145.327 272.643 140.621 271.328C140.621 271.328 143.191 284.701 138.206 289.173C133.849 293.081 129.219 296.674 124.351 299.924C123.551 299.17 122.8 298.366 122.105 297.515C122.105 297.515 117.053 301.253 107.553 300.342L82.2158 266.569Z" fill="#F6A99F"/>
<path d="M118.742 254.82C123.147 257.104 132.332 262.105 138.44 268.817C145.232 276.278 156.296 292.463 150.738 297.456C146.671 301.091 141.928 295.253 141.928 295.253C141.928 295.253 145.092 302.912 140.694 305.387C136.693 307.649 133.272 302.934 133.272 302.934C133.272 302.934 134.395 307.906 130.114 309.338C124.975 311.056 123.463 300.35 116.745 297.588C115.21 296.927 118.742 254.82 118.742 254.82Z" fill="#F6A99F"/>
<path d="M129.373 274.647C133.14 277.474 140.056 286.088 141.965 295.011C142.009 295.216 141.884 295.356 141.803 295.18C138.487 287.877 134.295 281.005 129.322 274.713C129.263 274.647 129.322 274.647 129.373 274.647Z" fill="#09253D"/>
<path d="M122.046 281.719C125.049 284.495 131.781 293.689 133.404 302.802C133.44 303.008 133.301 303.14 133.235 302.956C130.295 295.494 126.519 288.389 121.98 281.778C121.936 281.734 121.98 281.682 122.046 281.719Z" fill="#09253D"/>
<path d="M140.621 271.24C144.732 272.452 147.405 274.471 150.9 276.88C152.601 278.096 154.368 279.216 156.193 280.236C157.867 281.139 160.341 282.505 162.118 281.088C163.117 280.302 163.102 278.885 162.852 277.732C162.35 276.063 161.587 274.484 160.591 273.054C160.591 272.995 160.642 272.929 160.687 272.98C161.648 274.283 162.475 275.681 163.153 277.151C163.598 278.159 163.728 279.278 163.528 280.361C162.918 282.622 160.246 282.923 158.388 282.299C157.263 281.886 156.181 281.362 155.158 280.735C154.16 280.162 153.19 279.545 152.221 278.899C150.268 277.577 148.396 276.145 146.458 274.802C144.575 273.537 142.613 272.394 140.584 271.379C140.569 271.372 140.556 271.36 140.549 271.344C140.542 271.329 140.541 271.311 140.545 271.295C140.549 271.278 140.559 271.263 140.573 271.254C140.587 271.244 140.604 271.239 140.621 271.24Z" fill="#09253D"/>
<path d="M149.233 285.707C148.169 283.364 142.405 273.597 140.54 271.335C140.533 271.324 140.531 271.311 140.532 271.298C140.534 271.285 140.54 271.272 140.549 271.263C140.558 271.254 140.57 271.248 140.584 271.246C140.597 271.245 140.61 271.248 140.621 271.255C143.83 274.295 148.976 282.365 150.166 284.95C151.355 287.535 152.721 290.774 152.721 293.615C152.721 297.911 149.872 298.756 148.822 298.94C147.566 299.167 146.269 298.954 145.151 298.337C143.843 297.538 142.714 296.478 141.833 295.224C141.789 295.165 141.869 295.084 141.921 295.143C143.389 296.839 145.885 298.506 148.213 298.198C148.729 298.149 149.23 297.997 149.687 297.751C150.143 297.505 150.546 297.17 150.871 296.766C151.507 295.733 151.751 294.505 151.561 293.307C151.217 290.661 150.43 288.091 149.233 285.707Z" fill="#09253D"/>
<path d="M82.2158 266.569L102.098 308.427C102.098 308.427 24.3318 325.89 17.6213 312.349C10.9107 298.807 41.1155 245.817 54.7202 230.381C70.498 212.492 72.5097 218.58 69.037 234.434C65.366 251.031 58.3691 275.029 58.3691 275.029L82.2158 266.569Z" fill="#00A5A5"/>
<path opacity="0.1" d="M82.2158 266.569L102.098 308.427C102.098 308.427 24.3318 325.89 17.6213 312.349C10.9107 298.807 41.1155 245.817 54.7202 230.381C70.498 212.492 72.5097 218.58 69.037 234.434C65.366 251.031 58.3691 275.029 58.3691 275.029L82.2158 266.569Z" fill="black"/>
<path d="M34.7353 286.169C41.9083 281.186 49.785 277.303 58.1047 274.647C60.4615 273.913 62.8403 273.215 65.2191 272.532C65.2925 272.532 65.3219 272.628 65.2191 272.65C61.0702 273.993 57.0031 275.577 53.0388 277.394C49.079 279.156 45.1633 280.99 41.2917 282.894C39.0891 283.973 36.9452 285.156 34.7867 286.309C34.7722 286.306 34.7588 286.299 34.7476 286.289C34.7364 286.279 34.7278 286.267 34.7227 286.253C34.7176 286.239 34.7161 286.224 34.7183 286.209C34.7205 286.195 34.7263 286.181 34.7353 286.169Z" fill="#09253D"/>
<path d="M82.0103 266.459C81.6212 266.562 60.3515 273.59 59.654 273.913C59.7421 273.59 63.56 262.281 64.1326 260.621C64.184 260.459 64.2354 260.291 64.2942 260.129C64.6759 259.395 65.0724 258.66 65.4322 257.926C65.8874 256.964 66.3426 255.987 66.7904 254.989H66.7464L65.278 257.831C65.0504 258.264 64.8375 258.712 64.6245 259.16C64.999 257.992 65.3587 256.817 65.7185 255.635C66.2912 253.762 66.8051 251.868 67.3117 249.973C67.3117 249.907 67.2383 249.892 67.2163 249.973C66.0856 253.27 64.8521 256.531 63.7141 259.828C62.5761 263.125 58.2003 275.249 58.237 275.249C58.2738 275.249 81.6579 266.981 82.1131 266.797C82.1352 266.79 82.1559 266.779 82.1738 266.764C82.1917 266.75 82.2065 266.732 82.2174 266.711C82.2283 266.691 82.2351 266.668 82.2374 266.645C82.2396 266.622 82.2373 266.599 82.2305 266.577C82.2238 266.554 82.2127 266.534 82.198 266.516C82.1833 266.498 82.1652 266.483 82.1447 266.472C82.1243 266.461 82.1019 266.455 82.0788 266.452C82.0558 266.45 82.0325 266.452 82.0103 266.459Z" fill="#09253D"/>
<path d="M83.4421 293.74C81.2395 289.077 79.103 284.385 76.7462 279.788C75.4026 277.181 74.0737 274.567 72.7081 271.974C72.6567 271.879 72.4805 271.974 72.5246 272.055C74.5363 276.828 76.5626 281.602 78.7946 286.294C81.0266 290.987 83.1998 295.62 85.4684 300.247C86.7606 302.876 88.1336 305.463 89.5873 308.009C89.5873 308.06 89.7047 308.009 89.6827 308.009C87.8325 303.147 85.652 298.455 83.4421 293.74Z" fill="#09253D"/>
<path d="M103.103 309.073C102.325 307.781 101.341 305.93 100.512 304.667C100.291 304.337 100.034 304.403 100.211 304.748C100.805 305.923 101.297 307.238 101.877 308.42C100.791 308.64 99.6747 308.831 98.6028 309.059C97.34 309.323 96.0845 309.595 94.8217 309.852C92.345 310.341 89.8683 310.831 87.3916 311.321C82.3697 312.256 77.3282 313.078 72.2672 313.788C62.1281 315.273 51.9189 316.231 41.6806 316.659C38.8173 316.762 35.9466 316.814 33.0832 316.777C30.2587 316.784 27.4357 316.647 24.6253 316.366C24.5445 316.366 24.5298 316.49 24.6253 316.505C27.0436 317.016 29.4986 317.335 31.9672 317.46C34.5589 317.585 37.158 317.643 39.757 317.614C44.8964 317.555 50.0872 317.217 55.2339 316.747C65.4392 315.807 75.6151 314.427 85.703 312.642C88.5321 312.153 91.3538 311.622 94.1682 311.049C95.5926 310.762 97.0096 310.476 98.4266 310.16C99.8436 309.845 103.236 309.294 103.103 309.073Z" fill="#09253D"/>
<path d="M90.9307 231.599C85.7914 233.017 76.5919 225.416 72.8328 219.115C72.5758 218.682 73.0824 214.012 73.4275 208.306C73.6258 204.847 73.7579 200.962 73.6258 197.452C73.6258 196.718 95.9673 202.02 95.9673 202.02C95.9673 202.02 94.0584 209.495 94.3227 215.649C94.3461 216.144 94.4149 216.636 94.5283 217.118C94.5485 217.195 94.5632 217.274 94.5723 217.353C95.123 220.077 95.9012 230.226 90.9307 231.599Z" fill="#F6A99F"/>
<path d="M74.9912 197.54C76.2393 203.474 80.483 217.757 92.3035 217.588C93.0616 217.581 93.8179 217.512 94.5649 217.382C94.5741 217.302 94.5741 217.221 94.5649 217.14C94.4559 216.657 94.3847 216.166 94.3519 215.671C94.095 209.51 95.9965 202.027 95.9965 202.027C95.9965 202.027 79.8296 198.209 74.9912 197.54Z" fill="#09253D"/>
<path d="M98.6322 186.855C98.3825 192.275 102.039 196.843 106.796 197.063C111.554 197.283 115.607 193.053 115.849 187.634C116.091 182.214 112.435 177.647 107.685 177.434C102.935 177.221 98.8745 181.436 98.6322 186.855Z" fill="#09253D"/>
<path d="M114.976 187.933C115.249 181.904 111.182 176.823 105.891 176.584C100.601 176.344 96.0915 181.038 95.8189 187.066C95.5462 193.095 99.6138 198.176 104.904 198.416C110.194 198.655 114.704 193.962 114.976 187.933Z" fill="#C7C7C7"/>
<path d="M76.5407 169.334C72.6935 176.589 72.4512 199.655 76.9738 205.692C83.5302 214.431 96.4153 217.64 104.359 209.29C112.09 201.168 111.87 171.104 106.621 165.398C98.9043 156.975 82.2233 158.62 76.5407 169.334Z" fill="#F6A99F"/>
<path d="M95.7178 187.164C95.7178 187.105 95.593 187.245 95.6003 187.311C95.6811 188.86 95.5195 190.652 94.1319 191.196C94.0879 191.196 94.0952 191.291 94.1319 191.284C95.8499 191.005 96.0408 188.625 95.7178 187.164Z" fill="#09253D"/>
<path d="M94.2935 185.578C91.7899 185.446 91.7091 190.461 94.0218 190.579C96.3345 190.696 96.3933 185.688 94.2935 185.578Z" fill="#09253D"/>
<path d="M104.411 187.355C104.411 187.296 104.528 187.436 104.528 187.494C104.455 189.051 104.631 190.843 105.997 191.379C106.041 191.379 105.997 191.475 105.997 191.467C104.301 191.196 104.088 188.816 104.411 187.355Z" fill="#09253D"/>
<path d="M105.827 185.791C108.324 185.637 108.441 190.652 106.121 190.792C103.801 190.931 103.728 185.879 105.827 185.791Z" fill="#09253D"/>
<path d="M92.0468 181.568C92.781 181.532 93.3903 181.377 94.0878 181.275C94.8236 181.261 95.5339 181.002 96.1069 180.54C96.2605 180.363 96.3511 180.14 96.3644 179.907C96.3777 179.673 96.3129 179.441 96.1803 179.248C95.8593 178.91 95.454 178.664 95.0061 178.535C94.5583 178.406 94.0842 178.398 93.6326 178.513C92.6758 178.59 91.7824 179.022 91.129 179.725C90.9921 179.894 90.9067 180.098 90.8828 180.314C90.859 180.53 90.8978 180.748 90.9945 180.942C91.0913 181.137 91.242 181.299 91.4286 181.41C91.6152 181.521 91.8298 181.576 92.0468 181.568Z" fill="#09253D"/>
<path d="M108.184 182.119C107.514 181.971 106.852 181.788 106.202 181.568C105.48 181.481 104.806 181.158 104.286 180.65C104.154 180.456 104.09 180.224 104.105 179.99C104.12 179.756 104.212 179.534 104.366 179.358C104.726 179.057 105.158 178.857 105.62 178.778C106.082 178.699 106.556 178.745 106.995 178.91C107.934 179.107 108.766 179.646 109.33 180.423C109.439 180.607 109.495 180.819 109.488 181.034C109.482 181.248 109.415 181.457 109.295 181.634C109.175 181.812 109.007 181.952 108.81 182.038C108.613 182.124 108.396 182.152 108.184 182.119Z" fill="#09253D"/>
<path d="M92.8835 201.565C93.2505 201.932 93.6177 202.439 94.1756 202.497C94.753 202.492 95.323 202.367 95.8496 202.13C95.8601 202.128 95.8711 202.129 95.8813 202.132C95.8914 202.136 95.9004 202.142 95.9072 202.15C95.914 202.159 95.9184 202.169 95.9199 202.179C95.9214 202.19 95.92 202.201 95.9157 202.211C95.6905 202.514 95.387 202.75 95.0377 202.894C94.6884 203.037 94.3066 203.083 93.9334 203.026C93.6177 202.938 93.3352 202.758 93.121 202.51C92.9068 202.262 92.7706 201.956 92.7293 201.631C92.7073 201.543 92.8247 201.506 92.8835 201.565Z" fill="#09253D"/>
<path d="M94.5945 196.938C94.9779 197.559 95.4857 198.093 96.086 198.508C96.6862 198.922 97.3658 199.208 98.0819 199.347C98.7064 199.48 99.347 199.522 99.9835 199.472C100.107 199.467 100.229 199.455 100.351 199.435L100.688 199.384C100.771 199.37 100.848 199.329 100.906 199.269C100.964 199.208 101.001 199.129 101.011 199.046C101.015 198.992 101.015 198.938 101.011 198.884V198.745C101.063 197.548 101.011 195.726 101.011 195.726C101.445 195.954 103.662 196.997 103.632 196.373C103.412 191.188 103.163 185.431 101.848 180.327C101.841 180.295 101.823 180.266 101.797 180.245C101.771 180.224 101.738 180.213 101.705 180.213C101.672 180.213 101.64 180.224 101.614 180.245C101.588 180.266 101.569 180.295 101.562 180.327C101.562 185.313 102.472 190.263 102.568 195.271C101.782 194.891 100.947 194.621 100.086 194.471C99.9174 194.522 100.314 197.988 100.248 198.524C100.25 198.544 100.25 198.564 100.248 198.583C98.2288 198.803 96.7237 198.172 94.8001 196.791C94.6239 196.711 94.4991 196.806 94.5945 196.938Z" fill="#09253D"/>
<path d="M99.2858 198.848C98.6182 199.693 97.743 200.351 96.7455 200.757C96.1949 200.961 95.5947 200.989 95.0275 200.838C93.794 200.485 93.7794 199.369 94.0216 198.378C94.157 197.867 94.3516 197.374 94.6017 196.909C95.9167 198.038 97.5578 198.717 99.2858 198.848Z" fill="#09253D"/>
<path d="M96.7455 200.757C96.1949 200.961 95.5947 200.989 95.0275 200.837C93.794 200.485 93.7794 199.369 94.0216 198.377C95.3505 198.539 96.6501 199.464 96.7455 200.757Z" fill="#FF98B9"/>
<path opacity="0.2" d="M73.6553 185.622C75.1677 185.38 78.7946 180.261 80.3291 178.227C81.8636 176.193 82.7519 165.288 82.8914 162.806C80.1989 164.329 77.9941 166.585 76.5333 169.312C74.8153 172.573 73.8241 178.983 73.6553 185.622Z" fill="#09253D"/>
<path d="M101.65 171.838C100.753 172.822 99.6204 173.56 98.3586 173.983C97.0968 174.405 95.748 174.499 94.44 174.254C93.1052 174.008 91.8553 173.425 90.8093 172.56C89.7633 171.695 88.9558 170.577 88.4636 169.312C88.4636 169.231 88.3168 169.275 88.3462 169.349C88.7431 170.727 89.509 171.97 90.5609 172.945C91.6129 173.919 92.911 174.588 94.3152 174.878C95.7103 175.089 97.1363 174.928 98.4496 174.413C99.763 173.897 100.917 173.044 101.797 171.941C101.802 171.922 101.801 171.902 101.794 171.884C101.787 171.865 101.775 171.849 101.759 171.838C101.743 171.827 101.724 171.821 101.704 171.821C101.685 171.821 101.666 171.827 101.65 171.838Z" fill="#09253D"/>
<path d="M94.1905 152.29C89.6605 152.246 85.4315 154.618 83.6768 157.643C82.7022 159.367 82.3399 161.371 82.6489 163.327C82.6489 163.408 82.8178 163.393 82.8105 163.327C82.7724 161.603 83.1988 159.9 84.0449 158.398C84.891 156.895 86.1256 155.648 87.6194 154.786C89.2551 153.784 91.101 153.175 93.0119 153.006C94.9229 152.838 96.8468 153.116 98.6324 153.817C100.373 154.461 101.826 155.706 102.729 157.327C102.817 157.496 103.155 157.401 103.089 157.232C101.944 154.353 98.2799 152.326 94.1905 152.29Z" fill="#09253D"/>
<path d="M120.145 162.93C119.473 160.674 118.028 158.726 116.062 157.43C113.339 155.624 110.189 155.778 107.076 155.998C107.058 155.998 107.042 156.005 107.029 156.017C107.017 156.03 107.01 156.047 107.01 156.064C107.01 156.082 107.017 156.098 107.029 156.111C107.042 156.123 107.058 156.13 107.076 156.13C109.734 155.954 112.443 155.925 114.836 157.254C116.829 158.333 118.385 160.069 119.241 162.167C120.056 164.318 120.067 166.692 119.271 168.851C118.475 171.01 116.926 172.809 114.91 173.916C113.734 174.524 112.446 174.885 111.125 174.977C109.805 175.069 108.479 174.891 107.23 174.452C107.127 174.416 107.054 174.555 107.149 174.599C108.837 175.264 110.676 175.447 112.461 175.126C114.246 174.805 115.906 173.994 117.256 172.783C118.607 171.572 119.593 170.009 120.106 168.269C120.619 166.529 120.637 164.68 120.159 162.93H120.145Z" fill="#09253D"/>
<path d="M74.9034 173.777C74.9034 173.777 70.8947 165.53 74.6538 160.977C76.7829 158.4 83.5228 158.987 83.5228 158.987C83.5228 158.987 85.8356 155.19 91.4742 154.111C97.1128 153.031 103.765 156.564 103.765 156.564C103.765 156.564 109.242 153.692 114.161 156.747C121.026 161.006 119.763 171.647 112.582 174.82C107.546 177.023 100.982 172.426 100.982 172.426C100.329 172.492 93.5593 176.237 88.7723 170.149C88.7723 170.149 84.5727 173.615 81.0119 170.95C80.4061 171.99 79.4953 172.819 78.4027 173.325C77.3101 173.831 76.0885 173.989 74.9034 173.777Z" fill="#09253D"/>
<path d="M77.7885 188.412C77.7885 188.412 73.9781 180.335 70.3878 181.539C66.7976 182.743 68.7873 193.92 72.3848 196.02C72.8287 196.322 73.3289 196.53 73.8554 196.633C74.3818 196.736 74.9236 196.731 75.4483 196.619C75.9729 196.508 76.4695 196.291 76.9083 195.982C77.347 195.674 77.7189 195.279 78.0014 194.823L77.7885 188.412Z" fill="#F6A99F"/>
<path d="M71.0341 184.719C70.9754 184.719 70.946 184.792 71.0341 184.821C73.5451 186.378 74.5362 189.132 75.0795 191.9C74.4555 190.762 73.4496 190.028 71.9519 190.748C71.9364 190.758 71.9245 190.773 71.918 190.79C71.9114 190.807 71.9105 190.826 71.9154 190.844C71.9203 190.862 71.9307 190.878 71.9452 190.89C71.9596 190.901 71.9774 190.908 71.9959 190.909C72.4973 190.841 73.0074 190.929 73.4568 191.162C73.9061 191.395 74.2728 191.76 74.5069 192.209C74.8874 192.964 75.1876 193.756 75.4026 194.573C75.4907 194.838 75.9459 194.779 75.9018 194.485C75.9053 194.463 75.9053 194.441 75.9018 194.419C76.5186 190.99 74.6757 185.71 71.0341 184.719Z" fill="#09253D"/>
<path d="M86.0925 204.678L78.8607 201.557L73.0459 194.317L74.1619 193.413L79.7564 200.382L86.6652 203.364L86.0925 204.678Z" fill="#C7C7C7"/>
<path d="M85.3212 203.525C86.0554 201.418 91.929 202.196 90.8644 205.383C89.7998 208.57 84.6091 205.618 85.3212 203.525Z" fill="#37474F"/>
<path d="M70.2776 181.318C70.2776 181.318 69.492 169.473 72.9574 162.96C76.8193 155.682 92.8247 148.757 103.794 156.578C103.794 156.578 85.9747 153.391 77.671 163.481C74.1762 167.726 74.2643 181.649 74.2643 181.649L70.2776 181.318Z" fill="#C7C7C7"/>
<path d="M71.8939 198.331C77.1892 198.278 81.4333 193.344 81.3733 187.309C81.3133 181.274 76.9719 176.425 71.6765 176.478C66.3811 176.531 62.137 181.465 62.1971 187.5C62.2571 193.534 66.5985 198.384 71.8939 198.331Z" fill="#C7C7C7"/>
<path d="M78.5744 186.995C78.6257 192.422 74.8153 196.857 70.0577 196.902C65.3001 196.946 61.3942 192.591 61.3428 187.164C61.2914 181.737 65.1019 177.302 69.8595 177.258C74.617 177.214 78.523 181.568 78.5744 186.995Z" fill="#09253D"/>
<path d="M94.4842 216.986L89.3082 230.057L73.0237 213.623L68.457 218.939C68.457 218.939 84.4258 245.09 84.5212 243.907L89.8441 232.635L97.6413 240.426L96.9071 220.79L94.4842 216.986Z" fill="#09253D"/>
<path d="M97.8321 230.696C97.6045 227.458 97.4724 224.19 97.098 220.966C97.098 220.856 96.9071 220.805 96.8777 220.966C96.2463 224.102 97.1787 236.476 97.1787 239.45H97.142C96.819 239.112 89.9175 232.598 89.8514 232.701C88.6988 234.493 84.7855 242.696 84.5212 243.445C81.9956 239.288 71.3057 222.919 68.2955 218.991C68.2809 218.965 68.2568 218.947 68.2286 218.939C68.2004 218.932 68.1703 218.936 68.145 218.95C68.1197 218.965 68.1012 218.989 68.0936 219.017C68.086 219.045 68.09 219.076 68.1046 219.101C70.3072 223.507 84.1835 245.104 84.3743 245.045C86.4343 241.173 88.2943 237.197 89.9469 233.134C91.1143 234.552 98.0744 241.91 98.0965 241.425C98.1979 237.847 98.1096 234.265 97.8321 230.696Z" fill="#09253D"/>
<path d="M272.372 182.618H249.664C247.462 182.616 245.351 181.741 243.794 180.184C242.237 178.626 241.362 176.515 241.36 174.313C241.36 172.11 242.235 169.998 243.792 168.44C245.349 166.882 247.461 166.007 249.664 166.007H272.372C274.575 166.007 276.687 166.882 278.244 168.44C279.801 169.998 280.676 172.11 280.676 174.313C280.676 175.404 280.461 176.484 280.044 177.491C279.627 178.499 279.015 179.414 278.244 180.186C277.473 180.957 276.557 181.569 275.55 181.986C274.543 182.404 273.463 182.618 272.372 182.618Z" fill="#09253D"/>
<path d="M254.627 174.166C254.643 173.903 254.729 173.65 254.877 173.432L255.082 173.131L255.515 172.697L256.022 172.33C256.72 171.886 257.498 171.584 258.313 171.442C260.191 171.067 262.124 171.067 264.003 171.442C264.807 171.579 265.576 171.876 266.264 172.315C266.44 172.433 266.616 172.565 266.785 172.69L267.211 173.116C267.322 173.277 267.425 173.444 267.519 173.615C267.591 173.792 267.65 173.973 267.696 174.159H263.973C263.944 174.162 263.915 174.157 263.89 174.142C263.865 174.127 263.845 174.105 263.834 174.078C263.732 173.88 263.58 173.713 263.393 173.593C263.206 173.474 262.991 173.405 262.769 173.395C261.686 173.325 260.6 173.325 259.517 173.395C259.297 173.404 259.083 173.472 258.897 173.59C258.711 173.709 258.56 173.875 258.459 174.07C258.459 174.122 258.408 174.159 258.335 174.159H254.627V174.166Z" fill="white"/>
<path d="M254.627 176.244V174.886H258.298C258.298 174.967 258.298 175.055 258.298 175.15V176.244C258.308 176.308 258.303 176.374 258.283 176.435C258.263 176.497 258.228 176.553 258.182 176.599C258.137 176.645 258.081 176.679 258.019 176.699C257.958 176.719 257.892 176.724 257.828 176.714H255.089C255.026 176.725 254.96 176.72 254.899 176.7C254.838 176.68 254.782 176.645 254.737 176.599C254.691 176.553 254.658 176.497 254.639 176.435C254.62 176.373 254.616 176.308 254.627 176.244Z" fill="white"/>
<path d="M264.002 176.288C264.002 175.826 264.002 175.363 264.002 174.908H267.637V174.988C267.637 175.414 267.637 175.848 267.637 176.274C267.644 176.335 267.637 176.397 267.616 176.456C267.596 176.514 267.563 176.567 267.519 176.611C267.475 176.655 267.422 176.688 267.364 176.709C267.305 176.729 267.243 176.736 267.182 176.729H264.414C264.356 176.731 264.299 176.721 264.246 176.7C264.193 176.678 264.146 176.645 264.107 176.603C264.068 176.561 264.038 176.512 264.02 176.457C264.002 176.403 263.996 176.345 264.002 176.288Z" fill="white"/>
<path d="M179.203 322.38H174.167V325.67H179.203V322.38Z" fill="#09253D"/>
<path d="M185.73 322.16H180.693V325.45H185.73V322.16Z" fill="#09253D"/>
<path d="M192.265 321.939H187.228V325.229H192.265V321.939Z" fill="#09253D"/>
<path d="M198.799 321.727H193.762V325.016H198.799V321.727Z" fill="#09253D"/>
<path d="M205.333 321.506H200.296V324.796H205.333V321.506Z" fill="#09253D"/>
<path d="M211.868 321.293H206.831V324.583H211.868V321.293Z" fill="#09253D"/>
<path d="M218.402 321.073H213.365V324.363H218.402V321.073Z" fill="#09253D"/>
<path d="M224.936 320.853H219.899V324.142H224.936V320.853Z" fill="#09253D"/>
<path d="M231.463 320.64H226.426V323.93H231.463V320.64Z" fill="#09253D"/>
<path d="M232.704 327.557H172.926V323.555L232.704 321.888V327.557Z" fill="#37474F"/>
<path d="M291.043 311.776H192.367L208.057 238.297H306.733L291.043 311.776Z" fill="#09253D"/>
<path d="M294.692 311.776H196.016L211.706 238.297H310.382L294.692 311.776Z" fill="#37474F"/>
<path d="M259.454 274.906C262.131 272.431 262.588 268.571 260.475 266.283C258.361 263.995 254.478 264.147 251.8 266.621C249.123 269.096 248.666 272.956 250.779 275.244C252.893 277.532 256.777 277.38 259.454 274.906Z" fill="#09253D"/>
<path d="M266.785 330.965H218.255V327.19L266.785 325.626V330.965Z" fill="#09253D"/>
<path d="M279.979 330.957H253.922L238.225 289.782H264.282L279.979 330.957Z" fill="#09253D"/>
<path d="M284.266 330.957H258.21L242.52 289.782H268.577L284.266 330.957Z" fill="#09253D"/>
<path d="M171.083 331.963H121.047C116.782 331.963 122.956 319.802 138.543 315.139C154.13 310.476 176.002 327.403 171.083 331.963Z" fill="#37474F"/>
<path d="M151.451 331.963C151.491 330.577 151.721 329.204 152.133 327.88C152.537 326.546 153.101 325.266 153.815 324.069C154.533 322.866 155.429 321.779 156.473 320.845C157.505 319.908 158.696 319.162 159.989 318.642C159.453 319.083 158.844 319.376 158.352 319.868L157.618 320.522L156.884 321.256C155.956 322.224 155.143 323.296 154.461 324.451C153.768 325.606 153.174 326.817 152.684 328.071C152.186 329.339 151.774 330.64 151.451 331.963Z" fill="#09253D"/>
<path d="M157.375 320.39C160.347 321.374 163.16 322.786 165.723 324.583C167.019 325.479 168.191 326.54 169.211 327.741C169.711 328.355 170.142 329.022 170.496 329.731C170.844 330.439 171.044 331.211 171.083 332C170.908 331.252 170.602 330.541 170.18 329.9C169.78 329.256 169.313 328.658 168.785 328.115C167.715 327.031 166.548 326.048 165.297 325.178C164.057 324.282 162.742 323.482 161.428 322.688C160.767 322.292 160.092 321.91 159.417 321.543C158.741 321.176 158.058 320.764 157.375 320.39Z" fill="#09253D"/>
<path d="M174.666 165.148C174.234 169.244 172.673 173.139 170.157 176.399C167.642 179.66 164.27 182.157 160.418 183.612C156.566 185.067 152.385 185.424 148.343 184.641C144.3 183.859 140.554 181.969 137.523 179.181L126.385 180.841L131.95 171.228C130.56 167.842 130.035 164.162 130.423 160.522C130.708 157.603 131.568 154.769 132.953 152.184C134.337 149.598 136.22 147.313 138.491 145.458C140.763 143.603 143.379 142.217 146.188 141.377C148.998 140.538 151.946 140.263 154.862 140.568C157.778 140.874 160.606 141.753 163.181 143.155C165.756 144.558 168.028 146.456 169.867 148.741C171.706 151.025 173.074 153.651 173.894 156.467C174.714 159.283 174.969 162.233 174.644 165.148H174.666Z" fill="white"/>
<path d="M174.666 165.148C174.238 169.247 172.686 173.149 170.18 176.42C169.557 177.234 168.885 178.009 168.168 178.741C167.424 179.447 166.64 180.109 165.819 180.724C164.183 181.969 162.378 182.975 160.459 183.712C158.541 184.464 156.527 184.943 154.475 185.137C153.448 185.234 152.415 185.253 151.384 185.196C150.352 185.172 149.324 185.066 148.308 184.88C144.204 184.127 140.39 182.245 137.295 179.446L137.56 179.527L126.451 181.238L125.651 181.385L126.055 180.65L131.591 171.008V171.39C130.292 168.231 129.73 164.818 129.949 161.41C130.167 158.001 131.16 154.688 132.852 151.721C134.544 148.754 136.89 146.212 139.712 144.289C142.534 142.366 145.757 141.112 149.137 140.623C152.516 140.133 155.963 140.421 159.214 141.465C162.465 142.508 165.436 144.28 167.9 146.645C170.364 149.01 172.256 151.905 173.432 155.112C174.608 158.318 175.038 161.751 174.688 165.148H174.666ZM174.666 165.148C175.014 161.801 174.592 158.419 173.431 155.261C172.269 152.103 170.4 149.253 167.967 146.93C165.533 144.606 162.6 142.871 159.392 141.858C156.184 140.845 152.787 140.58 149.461 141.083C146.162 141.575 143.021 142.816 140.276 144.711C137.562 146.622 135.293 149.097 133.624 151.966C131.983 154.851 131.014 158.069 130.79 161.381C130.585 164.699 131.124 168.021 132.369 171.104L132.45 171.302L132.339 171.478L126.745 181.076L126.348 180.489L137.479 178.932H137.633L137.743 179.035C140.714 181.816 144.4 183.716 148.389 184.52C149.384 184.72 150.393 184.843 151.406 184.887C152.418 184.957 153.434 184.957 154.446 184.887C156.477 184.732 158.477 184.292 160.386 183.58C162.304 182.887 164.11 181.914 165.745 180.694C166.565 180.085 167.349 179.431 168.095 178.734C168.814 178.009 169.488 177.242 170.114 176.435C172.647 173.167 174.223 169.26 174.666 165.148Z" fill="#09253D"/>
<path d="M164.952 163.51C164.954 164.044 164.797 164.566 164.502 165.01C164.207 165.454 163.786 165.801 163.294 166.006C162.802 166.211 162.26 166.265 161.737 166.162C161.214 166.059 160.733 165.803 160.355 165.426C159.978 165.05 159.72 164.569 159.616 164.046C159.511 163.523 159.564 162.981 159.768 162.488C159.972 161.995 160.317 161.574 160.76 161.277C161.203 160.981 161.725 160.823 162.258 160.823C162.611 160.822 162.962 160.891 163.289 161.025C163.615 161.16 163.913 161.358 164.163 161.607C164.413 161.857 164.612 162.154 164.747 162.48C164.883 162.807 164.952 163.157 164.952 163.51Z" fill="#09253D"/>
<path d="M155.305 163.51C155.306 164.044 155.149 164.566 154.854 165.011C154.558 165.455 154.138 165.801 153.645 166.006C153.152 166.211 152.61 166.265 152.087 166.161C151.563 166.058 151.082 165.801 150.705 165.424C150.328 165.046 150.071 164.565 149.967 164.042C149.864 163.518 149.918 162.976 150.123 162.483C150.327 161.99 150.674 161.569 151.118 161.274C151.562 160.978 152.084 160.821 152.618 160.823C153.331 160.823 154.014 161.106 154.518 161.61C155.022 162.114 155.305 162.798 155.305 163.51Z" fill="#09253D"/>
<path d="M145.665 163.51C145.666 164.044 145.51 164.566 145.214 165.01C144.919 165.454 144.499 165.801 144.007 166.006C143.514 166.211 142.972 166.265 142.449 166.162C141.926 166.059 141.445 165.803 141.068 165.426C140.69 165.049 140.433 164.569 140.328 164.046C140.224 163.523 140.277 162.981 140.48 162.488C140.684 161.995 141.029 161.574 141.473 161.277C141.916 160.981 142.437 160.823 142.97 160.823C143.684 160.823 144.368 161.106 144.873 161.61C145.378 162.113 145.663 162.797 145.665 163.51Z" fill="#09253D"/>
<path d="M184.085 49.8404C184.517 53.936 186.078 57.8312 188.593 61.0917C191.108 64.3523 194.48 66.8501 198.331 68.3067C202.182 69.7634 206.362 70.1216 210.405 69.3415C214.448 68.5614 218.195 66.6736 221.228 63.8885L232.344 65.5188L226.786 55.9061C228.061 52.7759 228.605 49.3963 228.378 46.0241C228.151 42.6518 227.158 39.3758 225.475 36.4449C223.792 33.514 221.464 31.0054 218.666 29.1097C215.868 27.214 212.676 25.9811 209.33 25.5047C205.985 25.0283 202.575 25.321 199.359 26.3605C196.144 27.4 193.208 29.1589 190.774 31.5036C188.34 33.8483 186.473 36.7171 185.314 39.8919C184.155 43.0668 183.735 46.4641 184.085 49.8257V49.8404Z" fill="white"/>
<path d="M190.737 31.4742C193.159 29.0859 196.096 27.2862 199.323 26.2141C202.55 25.142 205.981 24.8262 209.349 25.291C212.742 25.7385 215.986 26.9568 218.835 28.8526C223.151 31.7339 226.338 36.0187 227.856 40.9811C229.375 45.9436 229.132 51.2786 227.168 56.0823V55.7004L232.689 65.3572L233.093 66.0915L232.293 65.9667L221.177 64.263L221.441 64.1822C218.346 66.9814 214.533 68.8631 210.429 69.6164C209.413 69.8025 208.384 69.9081 207.352 69.9322C206.324 69.986 205.294 69.9664 204.269 69.8734C200.151 69.4807 196.222 67.9557 192.918 65.4673C192.097 64.853 191.312 64.1909 190.569 63.4846C189.853 62.7511 189.181 61.9763 188.557 61.164C185.229 56.8148 183.611 51.3956 184.01 45.9333C184.409 40.4709 186.798 35.3446 190.723 31.5256L190.737 31.4742ZM188.638 61.0612C189.263 61.8655 189.937 62.6307 190.657 63.3524C191.399 64.0537 192.183 64.7085 193.006 65.3131C194.641 66.5397 196.45 67.5149 198.373 68.2064C200.28 68.915 202.277 69.3549 204.305 69.5136C205.32 69.5834 206.338 69.5834 207.352 69.5136C208.364 69.4687 209.37 69.3459 210.362 69.1464C214.351 68.3419 218.038 66.4424 221.008 63.6608L221.118 63.558H221.273L232.403 65.1148L232.007 65.7023L226.412 56.1043L226.302 55.9208L226.383 55.7225C227.629 52.6518 228.164 49.3387 227.946 46.0318C227.729 42.7249 226.765 39.5103 225.127 36.6294C223.461 33.758 221.191 31.2825 218.475 29.374C215.733 27.4806 212.594 26.2397 209.298 25.7463C204.942 25.0735 200.484 25.7262 196.503 27.6197C192.522 29.5132 189.203 32.5599 186.975 36.3643C184.748 40.1687 183.715 44.5551 184.012 48.9539C184.308 53.3527 185.92 57.5608 188.638 61.0318V61.0612Z" fill="#09253D"/>
<path d="M208.175 50.2441V53.02C208.181 53.2965 208.131 53.5713 208.028 53.828C207.924 54.0846 207.771 54.3177 207.575 54.5133C207.38 54.7088 207.146 54.8628 206.89 54.9658C206.633 55.0689 206.359 55.1189 206.082 55.1129C205.528 55.1109 204.997 54.8898 204.605 54.4977C204.213 54.1057 203.992 53.5745 203.99 53.02V48.6139C203.99 48.5698 204.034 48.5698 204.034 48.5258C204.034 48.4817 203.99 48.4817 203.99 48.445C204.004 47.8946 204.23 47.3708 204.619 46.9815C205.008 46.5922 205.532 46.3669 206.082 46.3521C206.74 46.4038 207.402 46.3187 208.026 46.1023C208.649 45.8858 209.222 45.5427 209.706 45.0944C210.191 44.6461 210.578 44.1024 210.843 43.4974C211.107 42.8923 211.244 42.2391 211.244 41.5788C211.244 40.9185 211.107 40.2652 210.843 39.6602C210.578 39.0552 210.191 38.5115 209.706 38.0632C209.222 37.6149 208.649 37.2718 208.026 37.0553C207.402 36.8389 206.74 36.7538 206.082 36.8055C205.253 36.8022 204.438 37.0177 203.718 37.4303C202.999 37.8429 202.401 38.4379 201.985 39.1554C201.842 39.3984 201.653 39.6105 201.427 39.7793C201.201 39.9481 200.944 40.0702 200.671 40.1386C200.397 40.207 200.113 40.2202 199.835 40.1775C199.556 40.1347 199.289 40.0369 199.049 39.8898C198.812 39.7504 198.605 39.5657 198.44 39.3461C198.275 39.1266 198.155 38.8765 198.086 38.6104C198.018 38.3443 198.003 38.0673 198.042 37.7954C198.081 37.5234 198.174 37.2619 198.314 37.0258C199.057 35.7363 200.109 34.6518 201.375 33.87C202.641 33.0883 204.082 32.6337 205.567 32.5474C207.053 32.461 208.536 32.7455 209.885 33.3753C211.233 34.0051 212.403 34.9603 213.29 36.1551C214.178 37.3498 214.754 38.7465 214.967 40.2194C215.181 41.6923 215.024 43.1952 214.512 44.5926C214.001 45.9901 213.149 47.2383 212.035 48.2249C210.921 49.2114 209.579 49.9053 208.13 50.2441H208.175ZM208.175 59.5924V60.3268C208.182 60.6035 208.132 60.8789 208.03 61.136C207.927 61.3931 207.773 61.6266 207.577 61.8224C207.382 62.0182 207.148 62.1721 206.891 62.2747C206.634 62.3774 206.359 62.4267 206.082 62.4197C205.527 62.4197 204.995 62.1992 204.603 61.8067C204.21 61.4142 203.99 60.8818 203.99 60.3268V59.5924C203.997 59.0397 204.22 58.5118 204.611 58.1209C205.002 57.7301 205.529 57.5071 206.082 57.4995C206.358 57.4966 206.631 57.5487 206.886 57.6528C207.142 57.757 207.373 57.911 207.568 58.1059C207.763 58.3009 207.917 58.5328 208.021 58.788C208.125 59.0433 208.177 59.3168 208.175 59.5924Z" fill="#00A5A5"/>
</svg>
