<svg
            xmlns="http://www.w3.org/2000/svg"
            width="24"
            height="25"
            viewBox="0 0 24 25"
            fill="none"
          >
            <path
              d="M10.0002 13.5C10.4297 14.0741 10.9776 14.5491 11.6067 14.8929C12.2359 15.2367 12.9317 15.4411 13.6468 15.4923C14.362 15.5435 15.0798 15.4403 15.7515 15.1897C16.4233 14.9392 17.0333 14.547 17.5402 14.04L20.5402 11.04C21.451 10.097 21.955 8.83394 21.9436 7.52296C21.9322 6.21198 21.4063 4.95791 20.4793 4.03087C19.5523 3.10383 18.2982 2.57799 16.9872 2.5666C15.6762 2.5552 14.4132 3.05918 13.4702 3.96997L11.7502 5.67997M14.0002 11.5C13.5707 10.9258 13.0228 10.4508 12.3936 10.107C11.7645 9.76327 11.0687 9.55885 10.3535 9.50763C9.63841 9.45641 8.92061 9.5596 8.24885 9.81018C7.5771 10.0608 6.96709 10.4529 6.4602 10.96L3.4602 13.96C2.54941 14.903 2.04544 16.166 2.05683 17.477C2.06822 18.788 2.59407 20.042 3.52111 20.9691C4.44815 21.8961 5.70221 22.4219 7.01319 22.4333C8.32418 22.4447 9.58719 21.9408 10.5302 21.03L12.2402 19.32"
              stroke="#09253D"
              stroke-width="2"
              stroke-linecap="round"
              stroke-linejoin="round"
            />
          </svg>