<svg width="24" height="25" viewBox="0 0 24 25" fill="none" xmlns="http://www.w3.org/2000/svg">
<path d="M2 7.34961L10.1649 13.0651C10.8261 13.5279 11.1567 13.7593 11.5163 13.8489C11.8339 13.9281 12.1661 13.9281 12.4837 13.8489C12.8433 13.7593 13.1739 13.5279 13.8351 13.0651L22 7.34961M6.8 20.3496H17.2C18.8802 20.3496 19.7202 20.3496 20.362 20.0226C20.9265 19.735 21.3854 19.2761 21.673 18.7116C22 18.0698 22 17.2298 22 15.5496V9.14961C22 7.46945 22 6.62937 21.673 5.98764C21.3854 5.42315 20.9265 4.96421 20.362 4.67659C19.7202 4.34961 18.8802 4.34961 17.2 4.34961H6.8C5.11984 4.34961 4.27976 4.34961 3.63803 4.67659C3.07354 4.96421 2.6146 5.42315 2.32698 5.98764C2 6.62937 2 7.46945 2 9.14961V15.5496C2 17.2298 2 18.0698 2.32698 18.7116C2.6146 19.2761 3.07354 19.735 3.63803 20.0226C4.27976 20.3496 5.11984 20.3496 6.8 20.3496Z" stroke="white" stroke-width="2" stroke-linecap="round" stroke-linejoin="round"/>
</svg>
