<svg width="19" height="16" viewBox="0 0 19 16" fill="none" xmlns="http://www.w3.org/2000/svg">
<path d="M0.00131989 8.00031C0.00131989 8.39813 0.159355 8.77966 0.44066 9.06097C0.721966 9.34227 1.10349 9.50031 1.50132 9.50031L13.3813 9.50031L9.44132 13.4403C9.17636 13.7247 9.03211 14.1007 9.03897 14.4894C9.04583 14.878 9.20325 15.2487 9.47808 15.5236C9.7529 15.7984 10.1237 15.9558 10.5123 15.9627C10.9009 15.9695 11.277 15.8253 11.5613 15.5603L18.0613 9.06031C18.3422 8.77906 18.5 8.39781 18.5 8.00031C18.5 7.60281 18.3422 7.22156 18.0613 6.94031L11.5613 0.440308C11.277 0.175347 10.9009 0.0311003 10.5123 0.0379562C10.1237 0.0448122 9.7529 0.202238 9.47808 0.477064C9.20325 0.75189 9.04583 1.12266 9.03897 1.51126C9.03211 1.89987 9.17636 2.27596 9.44132 2.56031L13.3813 6.50031L1.50132 6.50031C1.10349 6.50031 0.721966 6.65834 0.44066 6.93965C0.159355 7.22095 0.00131989 7.60248 0.00131989 8.00031Z" fill="#00A5A5"/>
</svg>
