<svg width="12" height="12" viewBox="0 0 12 12" fill="none" xmlns="http://www.w3.org/2000/svg">
<path d="M7.33344 10.9995H5.33344C3.44794 10.9995 2.50494 10.9995 1.91944 10.4135C1.33343 9.82801 1.33344 8.88501 1.33344 6.99951V5.99951C1.33344 4.11401 1.33343 3.17101 1.91944 2.58551C2.50494 1.99951 3.44794 1.99951 5.33344 1.99951H7.33344C9.21894 1.99951 10.1619 1.99951 10.7474 2.58551C11.3334 3.17101 11.3334 4.11401 11.3334 5.99951V6.99951C11.3334 8.88501 11.3334 9.82801 10.7474 10.4135C10.4209 10.7405 9.98344 10.885 9.33344 10.9485M3.83344 1.99951V1.24951M8.83344 1.99951V1.24951M11.0834 4.49951H5.70844M1.33344 4.49951H3.27094" stroke="white" stroke-linecap="round"/>
<path d="M9.33344 8.49951C9.33344 8.63212 9.28076 8.7593 9.18699 8.85307C9.09322 8.94683 8.96604 8.99951 8.83344 8.99951C8.70083 8.99951 8.57365 8.94683 8.47988 8.85307C8.38611 8.7593 8.33344 8.63212 8.33344 8.49951C8.33344 8.3669 8.38611 8.23973 8.47988 8.14596C8.57365 8.05219 8.70083 7.99951 8.83344 7.99951C8.96604 7.99951 9.09322 8.05219 9.18699 8.14596C9.28076 8.23973 9.33344 8.3669 9.33344 8.49951ZM9.33344 6.49951C9.33344 6.63212 9.28076 6.7593 9.18699 6.85307C9.09322 6.94683 8.96604 6.99951 8.83344 6.99951C8.70083 6.99951 8.57365 6.94683 8.47988 6.85307C8.38611 6.7593 8.33344 6.63212 8.33344 6.49951C8.33344 6.3669 8.38611 6.23973 8.47988 6.14596C8.57365 6.05219 8.70083 5.99951 8.83344 5.99951C8.96604 5.99951 9.09322 6.05219 9.18699 6.14596C9.28076 6.23973 9.33344 6.3669 9.33344 6.49951ZM6.83344 8.49951C6.83344 8.63212 6.78076 8.7593 6.68699 8.85307C6.59322 8.94683 6.46604 8.99951 6.33344 8.99951C6.20083 8.99951 6.07365 8.94683 5.97988 8.85307C5.88611 8.7593 5.83344 8.63212 5.83344 8.49951C5.83344 8.3669 5.88611 8.23973 5.97988 8.14596C6.07365 8.05219 6.20083 7.99951 6.33344 7.99951C6.46604 7.99951 6.59322 8.05219 6.68699 8.14596C6.78076 8.23973 6.83344 8.3669 6.83344 8.49951ZM6.83344 6.49951C6.83344 6.63212 6.78076 6.7593 6.68699 6.85307C6.59322 6.94683 6.46604 6.99951 6.33344 6.99951C6.20083 6.99951 6.07365 6.94683 5.97988 6.85307C5.88611 6.7593 5.83344 6.63212 5.83344 6.49951C5.83344 6.3669 5.88611 6.23973 5.97988 6.14596C6.07365 6.05219 6.20083 5.99951 6.33344 5.99951C6.46604 5.99951 6.59322 6.05219 6.68699 6.14596C6.78076 6.23973 6.83344 6.3669 6.83344 6.49951ZM4.33344 8.49951C4.33344 8.63212 4.28076 8.7593 4.18699 8.85307C4.09322 8.94683 3.96604 8.99951 3.83344 8.99951C3.70083 8.99951 3.57365 8.94683 3.47988 8.85307C3.38611 8.7593 3.33344 8.63212 3.33344 8.49951C3.33344 8.3669 3.38611 8.23973 3.47988 8.14596C3.57365 8.05219 3.70083 7.99951 3.83344 7.99951C3.96604 7.99951 4.09322 8.05219 4.18699 8.14596C4.28076 8.23973 4.33344 8.3669 4.33344 8.49951ZM4.33344 6.49951C4.33344 6.63212 4.28076 6.7593 4.18699 6.85307C4.09322 6.94683 3.96604 6.99951 3.83344 6.99951C3.70083 6.99951 3.57365 6.94683 3.47988 6.85307C3.38611 6.7593 3.33344 6.63212 3.33344 6.49951C3.33344 6.3669 3.38611 6.23973 3.47988 6.14596C3.57365 6.05219 3.70083 5.99951 3.83344 5.99951C3.96604 5.99951 4.09322 6.05219 4.18699 6.14596C4.28076 6.23973 4.33344 6.3669 4.33344 6.49951Z" fill="white"/>
</svg>
