<svg width="78" height="77" viewBox="0 0 78 77" fill="none" xmlns="http://www.w3.org/2000/svg">
<rect x="0.5" width="77" height="77" rx="20" fill="#DF2E38"/>
<g clip-path="url(#clip0_1298_21903)">
<path d="M23.5 23.375C23.5 20.684 25.7213 18.5 28.4583 18.5H41.2083C43.9453 18.5 46.1667 20.684 46.1667 23.375V24.8876L54.5958 33.1751C55.5167 34.0806 56.2471 35.1555 56.7454 36.3385C57.2437 37.5215 57.5001 38.7894 57.5 40.0698V56.1071C57.5 56.4766 57.3507 56.8308 57.0851 57.092C56.8194 57.3533 56.4591 57.5 56.0833 57.5C55.7076 57.5 55.3473 57.3533 55.0816 57.092C54.8159 56.8308 54.6667 56.4766 54.6667 56.1071V40.0698C54.6668 39.1552 54.4838 38.2495 54.1279 37.4044C53.7721 36.5593 53.2504 35.7915 52.5927 35.1446L46.1667 28.8266V36.0277L48.5863 38.4067C48.8523 38.6679 49.0019 39.0223 49.0022 39.3919C49.0025 39.7615 48.8534 40.1161 48.5877 40.3776C48.3221 40.6392 47.9617 40.7862 47.5858 40.7865C47.2098 40.7868 46.8492 40.6402 46.5832 40.379L40.8343 34.724L39.7123 33.7601C39.2691 33.5369 38.7593 33.4765 38.2748 33.5899C37.7903 33.7033 37.3629 33.9829 37.0694 34.3786C36.776 34.7742 36.6358 35.2599 36.6742 35.7481C36.7125 36.2363 36.9268 36.695 37.2785 37.0417L41.503 41.1924C41.635 41.3218 41.7397 41.4755 41.8112 41.6447C41.8827 41.8139 41.9195 41.9953 41.9195 42.1786V44.9643C41.9195 45.7031 42.218 46.4117 42.7494 46.9341C43.2807 47.4565 44.0014 47.75 44.7528 47.75C45.1281 47.7507 45.4877 47.8978 45.7527 48.1589C46.0178 48.4201 46.1667 48.7739 46.1667 49.1429V52.625C46.1667 53.9179 45.6443 55.1579 44.7144 56.0721C43.7845 56.9864 42.5234 57.5 41.2083 57.5H28.4583C27.1433 57.5 25.8821 56.9864 24.9523 56.0721C24.0224 55.1579 23.5 53.9179 23.5 52.625V23.375ZM43.3333 51.2321V50.3602C42.5095 50.1509 41.7444 49.7614 41.095 49.2209C40.1289 49.408 39.2588 49.9193 38.6335 50.6672C38.0082 51.4151 37.6665 52.3533 37.6667 53.3214V54.7143H39.7917C40.0353 54.7143 40.2733 54.6892 40.5 54.6446V53.3214C40.5 52.952 40.6493 52.5977 40.9149 52.3365C41.1806 52.0753 41.5409 51.9286 41.9167 51.9286H43.2625C43.3078 51.7057 43.3333 51.4717 43.3333 51.2321ZM38.5365 42.2176L35.2782 39.0112C34.3984 38.1484 33.8829 36.9905 33.8351 35.7697C33.7872 34.5488 34.2106 33.3553 35.0203 32.4286H34.8333C33.919 32.4286 33.0183 32.6462 32.2081 33.0628C31.3979 33.4793 30.7022 34.0824 30.1804 34.8206C29.6587 35.5588 29.3263 36.4101 29.2118 37.302C29.0972 38.1938 29.2039 39.0997 29.5226 39.9422C29.8414 40.7848 30.3627 41.539 31.0422 42.1405C31.7217 42.742 32.5391 43.1729 33.4247 43.3964C34.3102 43.62 35.2377 43.6295 36.1278 43.4242C37.018 43.2189 37.8444 42.8049 38.5365 42.2176ZM32 22.6786V21.2857H29.875C29.6313 21.2857 29.3933 21.3108 29.1667 21.3554V22.6786C29.1667 23.048 29.0174 23.4023 28.7517 23.6635C28.4861 23.9247 28.1257 24.0714 27.75 24.0714H26.4042C26.3588 24.2943 26.3333 24.5283 26.3333 24.7679V26.8571H27.75C28.8772 26.8571 29.9582 26.4169 30.7552 25.6333C31.5522 24.8496 32 23.7868 32 22.6786ZM27.75 49.1429H26.3333V51.2321C26.3333 51.4717 26.3588 51.7057 26.4042 51.9286H27.75C28.1257 51.9286 28.4861 52.0753 28.7517 52.3365C29.0174 52.5977 29.1667 52.952 29.1667 53.3214V54.6446C29.3933 54.6892 29.6313 54.7143 29.875 54.7143H32V53.3214C32 52.2132 31.5522 51.1504 30.7552 50.3667C29.9582 49.5831 28.8772 49.1429 27.75 49.1429ZM40.5 22.6786V21.3554C40.2668 21.3089 40.0296 21.2856 39.7917 21.2857H37.6667V22.6786C37.6667 23.7868 38.1144 24.8496 38.9115 25.6333C39.7085 26.4169 40.7895 26.8571 41.9167 26.8571H43.3333V24.7679C43.3333 24.5283 43.3078 24.2943 43.2625 24.0714H41.9167C41.5409 24.0714 41.1806 23.9247 40.9149 23.6635C40.6493 23.4023 40.5 23.048 40.5 22.6786Z" fill="white"/>
</g>
<defs>
<clipPath id="clip0_1298_21903">
<rect width="41" height="38" fill="white" transform="translate(18.5 19.5)"/>
</clipPath>
</defs>
</svg>
