<svg width="77" height="77" viewBox="0 0 77 77" fill="none" xmlns="http://www.w3.org/2000/svg">
<rect width="77" height="77" rx="20" fill="#DF2E38"/>
<path d="M56.3388 31.0759C56.0531 30.8022 55.6997 30.628 55.3236 30.5754C54.9475 30.5227 54.5657 30.594 54.2266 30.7802L46.2764 35.1281L39.6389 23.0184C39.4682 22.7077 39.2274 22.4506 38.9397 22.2722C38.6521 22.0938 38.3273 22 37.9969 22C37.6665 22 37.3417 22.0938 37.0541 22.2722C36.7664 22.4506 36.5256 22.7077 36.3549 23.0184L29.7174 35.1333L21.7704 30.7854C21.4321 30.6009 21.0517 30.5302 20.6769 30.5823C20.3022 30.6343 19.9498 30.8068 19.664 31.078C19.3781 31.3492 19.1716 31.7071 19.0703 32.1068C18.9689 32.5065 18.9774 32.9301 19.0945 33.3246L24.953 53.0396C25.0119 53.2376 25.1105 53.4186 25.2416 53.5692C25.3728 53.7198 25.533 53.8361 25.7105 53.9095C25.888 53.983 26.0783 54.0117 26.2673 53.9936C26.4563 53.9755 26.6391 53.9109 26.8024 53.8048C26.842 53.7787 30.8907 51.2169 37.9969 51.2169C45.1031 51.2169 49.1518 53.7787 49.1883 53.803C49.3516 53.9102 49.5347 53.9756 49.7242 53.9944C49.9136 54.0131 50.1045 53.9848 50.2826 53.9115C50.4607 53.8381 50.6215 53.7217 50.7531 53.5707C50.8846 53.4198 50.9835 53.2382 51.0424 53.0396L56.9009 33.3298C57.0214 32.9352 57.0322 32.5103 56.9322 32.1089C56.8321 31.7075 56.6255 31.3479 56.3388 31.0759ZM45.5718 45.0951C45.5201 45.417 45.3669 45.7086 45.139 45.9188C44.9112 46.129 44.6232 46.2444 44.3257 46.2447C44.2514 46.2446 44.1772 46.2376 44.104 46.2238C40.058 45.4609 35.9232 45.4609 31.8771 46.2238C31.7133 46.2556 31.5453 46.2516 31.3829 46.212C31.2204 46.1725 31.0667 46.0982 30.9304 45.9934C30.6551 45.7817 30.4677 45.4586 30.4093 45.0951C30.3509 44.7317 30.4264 44.3576 30.6191 44.0553C30.8119 43.7529 31.106 43.5471 31.4369 43.4829C35.7742 42.6644 40.2069 42.6644 44.5442 43.4829C44.7086 43.5139 44.8659 43.5801 45.0069 43.678C45.148 43.7758 45.2701 43.9033 45.3661 44.0531C45.4622 44.2029 45.5304 44.3721 45.5668 44.5509C45.6031 44.7297 45.607 44.9147 45.5781 45.0951H45.5718Z" fill="white"/>
</svg>
