<svg width="77" height="77" viewBox="0 0 77 77" fill="none" xmlns="http://www.w3.org/2000/svg">
<rect width="77" height="77" rx="20" fill="#DF2E38"/>
<path fill-rule="evenodd" clip-rule="evenodd" d="M32.2656 38.2405C32.2656 34.6604 35.1844 32 38.5 32C41.8155 32 44.7344 34.6604 44.7344 38.2405C44.7344 41.8206 41.8155 44.481 38.5 44.481C35.1844 44.481 32.2656 41.8206 32.2656 38.2405ZM30.3389 60.9825C30.4815 61 30.651 61 30.9901 61H46.01C46.349 61 46.5185 61 46.6611 60.9825C47.8844 60.8324 48.8502 59.7518 48.9844 58.3833C49 58.2238 49 58.0342 49 57.6549V56.9152C49 53.8786 47.5875 51.061 45.2715 49.4776C41.1145 46.6356 35.8855 46.6356 31.7286 49.4776C29.4126 51.061 28 53.8786 28 56.9152V57.6549C28 58.0342 28 58.2238 28.0156 58.3833C28.1498 59.7518 29.1156 60.8324 30.3389 60.9825Z" fill="white"/>
<path fill-rule="evenodd" clip-rule="evenodd" d="M49.8438 45.3038C49.8438 42.8348 51.7896 41 54 41C56.2103 41 58.1563 42.8348 58.1563 45.3038C58.1563 47.7728 56.2103 49.6076 54 49.6076C51.7896 49.6076 49.8438 47.7728 49.8438 45.3038ZM48.5592 60.9879C48.6543 61 48.7673 61 48.9934 61H59.0067C59.2327 61 59.3456 61 59.4408 60.9879C60.2563 60.8844 60.9002 60.1392 60.9896 59.1954C61 59.0854 61 58.9546 61 58.693V58.1829C61 56.0887 60.0583 54.1455 58.5143 53.0535C55.743 51.0935 52.257 51.0935 49.4857 53.0535C47.9417 54.1455 47 56.0887 47 58.1829V58.693C47 58.9546 47 59.0854 47.0104 59.1954C47.0999 60.1392 47.7438 60.8844 48.5592 60.9879Z" fill="white"/>
<path fill-rule="evenodd" clip-rule="evenodd" d="M18.8438 45.3038C18.8438 42.8348 20.7896 41 23 41C25.2103 41 27.1563 42.8348 27.1563 45.3038C27.1563 47.7728 25.2103 49.6076 23 49.6076C20.7896 49.6076 18.8438 47.7728 18.8438 45.3038ZM17.5592 60.9879C17.6543 61 17.7673 61 17.9934 61H28.0067C28.2327 61 28.3456 61 28.4408 60.9879C29.2563 60.8844 29.9002 60.1392 29.9896 59.1954C30 59.0854 30 58.9546 30 58.693V58.1829C30 56.0887 29.0583 54.1455 27.5143 53.0535C24.743 51.0935 21.257 51.0935 18.4857 53.0535C16.9417 54.1455 16 56.0887 16 58.1829V58.693C16 58.9546 16 59.0854 16.0104 59.1954C16.0999 60.1392 16.7438 60.8844 17.5592 60.9879Z" fill="white"/>
<path fill-rule="evenodd" clip-rule="evenodd" d="M38.7491 16.0293C38.9145 15.9902 39.0855 15.9902 39.2509 16.0293C39.6188 16.1164 39.8566 16.4357 40.043 16.7729C40.2316 17.1141 40.4301 17.5939 40.6739 18.1834L40.6856 18.2116C40.8501 18.6094 40.8892 18.6822 40.9378 18.7298C40.9568 18.7483 40.9773 18.7648 40.999 18.779C41.0548 18.8155 41.1295 18.8342 41.5219 18.8846L41.6179 18.897C42.1699 18.9678 42.6193 19.0255 42.9546 19.1125C43.2855 19.1982 43.6182 19.3378 43.8104 19.6696C43.9218 19.8619 43.9866 20.0827 43.9985 20.3109C44.0191 20.7044 43.824 21.0339 43.6018 21.3187C43.3767 21.6073 43.0437 21.9466 42.6348 22.3633L42.6152 22.3832C42.3098 22.6945 42.2566 22.7619 42.2309 22.8306C42.218 22.8649 42.2091 22.9008 42.2043 22.9375C42.1948 23.011 42.2093 23.0992 42.3282 23.5396L42.3527 23.6304C42.5423 24.3331 42.6962 24.903 42.7612 25.3426C42.8252 25.7756 42.8295 26.2365 42.5474 26.5829C42.4762 26.6705 42.3947 26.7472 42.3051 26.811C41.9509 27.0632 41.5409 26.984 41.1654 26.844C40.7843 26.7018 40.3014 26.4416 39.706 26.1207L39.5236 26.0223C39.1506 25.8213 39.0759 25.7924 39.0066 25.7918L38.9973 25.7918C38.9279 25.793 38.8535 25.8226 38.482 26.0269L38.3178 26.1172C37.7164 26.448 37.229 26.7161 36.8442 26.8631C36.4655 27.0078 36.0512 27.0909 35.6932 26.8351C35.6084 26.7744 35.5309 26.7023 35.4624 26.6201C35.1732 26.2736 35.1758 25.8072 35.2394 25.3692C35.3039 24.9241 35.4585 24.3461 35.6492 23.633L35.6742 23.5393C35.7919 23.0991 35.8062 23.0111 35.7966 22.9376C35.7917 22.9012 35.7828 22.8655 35.7701 22.8314C35.7443 22.7629 35.6912 22.6955 35.3862 22.3847L35.3666 22.3647C34.9571 21.9474 34.6236 21.6076 34.3982 21.3186C34.1757 21.0333 33.9805 20.7033 34.0016 20.3092C34.0137 20.0822 34.0782 19.8625 34.1888 19.671C34.3809 19.3384 34.714 19.1985 35.0453 19.1126C35.381 19.0255 35.8312 18.9677 36.384 18.8967L36.4781 18.8846C36.8705 18.8342 36.9451 18.8155 37.001 18.779C37.0227 18.7648 37.0432 18.7483 37.0621 18.7298C37.1108 18.6822 37.1499 18.6094 37.3144 18.2116L37.3261 18.1834C37.5699 17.5939 37.7683 17.1141 37.957 16.7729C38.1434 16.4357 38.3812 16.1164 38.7491 16.0293Z" fill="white"/>
<path fill-rule="evenodd" clip-rule="evenodd" d="M53.7491 21.0293C53.9145 20.9902 54.0855 20.9902 54.2509 21.0293C54.6188 21.1164 54.8566 21.4357 55.043 21.7729C55.2316 22.1141 55.4301 22.5939 55.6739 23.1834L55.6856 23.2116C55.8501 23.6094 55.8892 23.6822 55.9378 23.7298C55.9568 23.7483 55.9773 23.7648 55.999 23.779C56.0548 23.8155 56.1295 23.8342 56.5219 23.8846L56.6179 23.897C57.1699 23.9678 57.6193 24.0255 57.9546 24.1125C58.2855 24.1982 58.6182 24.3378 58.8104 24.6696C58.9218 24.8619 58.9866 25.0827 58.9985 25.3109C59.0191 25.7044 58.824 26.0339 58.6018 26.3187C58.3767 26.6073 58.0437 26.9466 57.6348 27.3633L57.6152 27.3832C57.3098 27.6945 57.2566 27.7619 57.2309 27.8306C57.218 27.8649 57.2091 27.9008 57.2043 27.9375C57.1948 28.011 57.2093 28.0992 57.3282 28.5396L57.3527 28.6304C57.5423 29.3331 57.6962 29.903 57.7612 30.3426C57.8252 30.7756 57.8295 31.2365 57.5474 31.5829C57.4762 31.6705 57.3947 31.7472 57.3051 31.811C56.9509 32.0632 56.5409 31.984 56.1654 31.844C55.7843 31.7018 55.3014 31.4416 54.706 31.1207L54.5236 31.0223C54.1506 30.8213 54.0759 30.7924 54.0066 30.7918L53.9973 30.7918C53.9279 30.793 53.8535 30.8226 53.482 31.0269L53.3178 31.1172C52.7164 31.448 52.229 31.7161 51.8442 31.8631C51.4655 32.0078 51.0512 32.0909 50.6932 31.8351C50.6084 31.7744 50.5309 31.7023 50.4624 31.6201C50.1732 31.2736 50.1758 30.8072 50.2394 30.3692C50.3039 29.9241 50.4585 29.3461 50.6492 28.633L50.6742 28.5393C50.7919 28.0991 50.8062 28.0111 50.7966 27.9376C50.7917 27.9012 50.7828 27.8655 50.7701 27.8314C50.7443 27.7629 50.6912 27.6955 50.3862 27.3847L50.3666 27.3647C49.9571 26.9474 49.6236 26.6076 49.3982 26.3186C49.1757 26.0333 48.9805 25.7033 49.0016 25.3092C49.0137 25.0822 49.0782 24.8625 49.1888 24.671C49.3809 24.3384 49.714 24.1985 50.0453 24.1126C50.381 24.0255 50.8312 23.9677 51.384 23.8967L51.4781 23.8846C51.8705 23.8342 51.9451 23.8155 52.001 23.779C52.0227 23.7648 52.0432 23.7483 52.0621 23.7298C52.1108 23.6822 52.1499 23.6094 52.3144 23.2116L52.3261 23.1834C52.5699 22.5939 52.7683 22.1141 52.957 21.7729C53.1434 21.4357 53.3812 21.1164 53.7491 21.0293Z" fill="white"/>
<path fill-rule="evenodd" clip-rule="evenodd" d="M22.7491 21.0293C22.9145 20.9902 23.0855 20.9902 23.2509 21.0293C23.6188 21.1164 23.8566 21.4357 24.043 21.7729C24.2316 22.1141 24.4301 22.5939 24.6739 23.1834L24.6856 23.2116C24.8501 23.6094 24.8892 23.6822 24.9378 23.7298C24.9568 23.7483 24.9773 23.7648 24.999 23.779C25.0548 23.8155 25.1295 23.8342 25.5219 23.8846L25.6179 23.897C26.1699 23.9678 26.6193 24.0255 26.9546 24.1125C27.2855 24.1982 27.6182 24.3378 27.8104 24.6696C27.9218 24.8619 27.9866 25.0827 27.9985 25.3109C28.0191 25.7044 27.824 26.0339 27.6018 26.3187C27.3767 26.6073 27.0437 26.9466 26.6348 27.3633L26.6152 27.3832C26.3098 27.6945 26.2566 27.7619 26.2309 27.8306C26.218 27.8649 26.2091 27.9008 26.2043 27.9375C26.1948 28.011 26.2093 28.0992 26.3282 28.5396L26.3527 28.6304C26.5423 29.3331 26.6962 29.903 26.7612 30.3426C26.8252 30.7756 26.8295 31.2365 26.5474 31.5829C26.4762 31.6705 26.3947 31.7472 26.3051 31.811C25.9509 32.0632 25.5409 31.984 25.1654 31.844C24.7843 31.7018 24.3014 31.4416 23.706 31.1207L23.5236 31.0223C23.1506 30.8213 23.0759 30.7924 23.0066 30.7918L22.9973 30.7918C22.9279 30.793 22.8535 30.8226 22.482 31.0269L22.3178 31.1172C21.7164 31.448 21.229 31.7161 20.8442 31.8631C20.4655 32.0078 20.0512 32.0909 19.6932 31.8351C19.6084 31.7744 19.5309 31.7023 19.4624 31.6201C19.1732 31.2736 19.1758 30.8072 19.2394 30.3692C19.3039 29.9241 19.4585 29.3461 19.6492 28.633L19.6742 28.5393C19.7919 28.0991 19.8062 28.0111 19.7966 27.9376C19.7917 27.9012 19.7828 27.8655 19.7701 27.8314C19.7443 27.7629 19.6912 27.6955 19.3862 27.3847L19.3666 27.3647C18.9571 26.9474 18.6236 26.6076 18.3982 26.3186C18.1757 26.0333 17.9805 25.7033 18.0016 25.3092C18.0137 25.0822 18.0782 24.8625 18.1888 24.671C18.3809 24.3384 18.714 24.1985 19.0453 24.1126C19.381 24.0255 19.8312 23.9677 20.384 23.8967L20.4781 23.8846C20.8705 23.8342 20.9451 23.8155 21.001 23.779C21.0227 23.7648 21.0432 23.7483 21.0621 23.7298C21.1108 23.6822 21.1499 23.6094 21.3144 23.2116L21.3261 23.1834C21.5699 22.5939 21.7683 22.1141 21.957 21.7729C22.1434 21.4357 22.3812 21.1164 22.7491 21.0293Z" fill="white"/>
</svg>
