<svg width="78" height="77" viewBox="0 0 78 77" fill="none" xmlns="http://www.w3.org/2000/svg">
<rect x="0.5" width="77" height="77" rx="20" fill="#DF2E38"/>
<path d="M27.1757 22C25.9359 22 24.7468 22.549 23.8701 23.5261C22.9934 24.5032 22.5008 25.8285 22.5008 27.2104V37.1575C23.8534 35.1475 25.867 33.8187 28.0986 33.4633C30.3303 33.108 32.5971 33.7553 34.4006 35.2628C36.204 36.7703 37.3962 39.0146 37.715 41.5018C38.0338 43.9891 37.4531 46.5156 36.1005 48.5256V50.4203H51.8251C53.065 50.4203 54.254 49.8714 55.1308 48.8942C56.0075 47.9171 56.5 46.5918 56.5 45.2099V27.2104C56.5 25.8285 56.0075 24.5032 55.1308 23.5261C54.254 22.549 53.065 22 51.8251 22H27.1757ZM30.5756 29.5788H48.4252C48.7633 29.5788 49.0876 29.7285 49.3267 29.995C49.5658 30.2615 49.7002 30.6229 49.7002 30.9998C49.7002 31.3766 49.5658 31.7381 49.3267 32.0046C49.0876 32.2711 48.7633 32.4208 48.4252 32.4208H30.5756C30.2375 32.4208 29.9132 32.2711 29.6741 32.0046C29.435 31.7381 29.3007 31.3766 29.3007 30.9998C29.3007 30.6229 29.435 30.2615 29.6741 29.995C29.9132 29.7285 30.2375 29.5788 30.5756 29.5788ZM39.5004 40.4732C39.5004 40.0963 39.6348 39.7349 39.8739 39.4684C40.113 39.2019 40.4373 39.0522 40.7754 39.0522H48.4252C48.7633 39.0522 49.0876 39.2019 49.3267 39.4684C49.5658 39.7349 49.7002 40.0963 49.7002 40.4732C49.7002 40.8501 49.5658 41.2115 49.3267 41.478C49.0876 41.7445 48.7633 41.8942 48.4252 41.8942H40.7754C40.4373 41.8942 40.113 41.7445 39.8739 41.478C39.6348 41.2115 39.5004 40.8501 39.5004 40.4732ZM29.3007 35.2628C27.497 35.2628 25.7672 36.0614 24.4919 37.4829C23.2165 38.9043 22.5 40.8323 22.5 42.8425C22.5 44.8528 23.2165 46.7807 24.4919 48.2022C25.7672 49.6236 27.497 50.4222 29.3007 50.4222C31.1043 50.4222 32.8341 49.6236 34.1095 48.2022C35.3849 46.7807 36.1014 44.8528 36.1014 42.8425C36.1014 40.8323 35.3849 38.9043 34.1095 37.4829C32.8341 36.0614 31.1043 35.2628 29.3007 35.2628ZM34.4006 50.4222C32.9811 51.6121 31.2148 52.3169 29.3007 52.3169C27.4615 52.321 25.6712 51.6572 24.2008 50.426V56.5762C24.2008 57.6561 25.2293 58.3193 26.0538 57.8437L26.2068 57.7395L29.3007 55.3295L32.3946 57.7395C32.5733 57.8786 32.781 57.9642 32.9978 57.9884C33.2146 58.0125 33.4334 57.9743 33.6333 57.8774C33.8331 57.7805 34.0073 57.6281 34.1392 57.4348C34.2712 57.2415 34.3565 57.0137 34.387 56.7732L34.4006 56.5762L34.4023 50.4203L34.4006 50.4222Z" fill="white"/>
</svg>
