<svg width="139" height="46" viewBox="0 0 139 46" fill="none" xmlns="http://www.w3.org/2000/svg">
<path d="M28.063 18.1568C28.9227 17.2906 30.3196 17.2876 31.183 18.15L37.4365 24.3967C38.2999 25.2591 38.3029 26.6605 37.4432 27.5268L31.2167 33.8005C30.357 34.6667 28.9602 34.6697 28.0967 33.8072L21.8433 27.5606C20.9798 26.6981 20.9768 25.2967 21.8365 24.4305L28.063 18.1568Z" fill="#09253D"/>
<path d="M17.9453 28.3521C18.805 27.4859 20.2019 27.4829 21.0653 28.3453L27.3188 34.592C28.1822 35.4545 28.1853 36.8558 27.3256 37.7221L21.0991 43.9958C20.2394 44.862 18.8425 44.865 17.9791 44.0025L11.7256 37.7559C10.8622 36.8934 10.8591 35.492 11.7188 34.6258L17.9453 28.3521Z" fill="#00A5A5"/>
<path d="M7.78322 18.2017C8.64292 17.3355 10.0398 17.3325 10.9032 18.195L17.1567 24.4416C18.0201 25.3041 18.0231 26.7055 17.1635 27.5717L10.937 33.8454C10.0773 34.7116 8.68038 34.7146 7.81696 33.8522L1.56347 27.6055C0.700044 26.743 0.697023 25.3417 1.55672 24.4754L7.78322 18.2017Z" fill="#09253D"/>
<path d="M8 8.97655C8 8.42412 8.27635 7.89836 8.75864 7.53324L17.4994 0.916008C18.3433 0.277142 19.6077 0.275909 20.4532 0.913128L29.2375 7.53299C29.7221 7.89818 30 8.42523 30 8.97918V14.509C30 16.1623 27.7338 17.0451 26.2875 15.9552L20.4532 11.5585C19.6077 10.9213 18.3433 10.9225 17.4994 11.5614L11.7163 15.9395C10.2711 17.0336 8 16.1515 8 14.4962V8.97655Z" fill="#DF2E38"/>
<path d="M112.826 14.54V18.284H108.314V31.46H103.61V18.284H99.1455V14.54H112.826Z" fill="#09253D"/>
<path d="M97.4027 14.54V31.46H92.6987V14.54H97.4027Z" fill="#09253D"/>
<path d="M90.021 14.54V31.46H85.317V22.124L82.125 31.46H78.189L74.973 22.052V31.46H70.269V14.54H75.957L80.205 25.532L84.357 14.54H90.021Z" fill="#09253D"/>
<path d="M62.856 28.7H56.856L55.944 31.46H51L57.168 14.54H62.592L68.736 31.46H63.768L62.856 28.7ZM61.68 25.1L59.856 19.628L58.056 25.1H61.68Z" fill="#09253D"/>
<g clip-path="url(#clip0_3001_4399)">
<path d="M142.028 30.9279C140.684 30.9279 139.476 30.6479 138.404 30.0879C137.348 29.5279 136.516 28.7279 135.908 27.6879C135.3 26.6479 134.996 25.4239 134.996 24.0159C134.996 22.6239 135.3 21.4079 135.908 20.3679C136.532 19.3279 137.372 18.5279 138.428 17.9679C139.5 17.4079 140.708 17.1279 142.052 17.1279C143.396 17.1279 144.596 17.4079 145.652 17.9679C146.724 18.5279 147.564 19.3279 148.172 20.3679C148.796 21.4079 149.108 22.6239 149.108 24.0159C149.108 25.4079 148.796 26.6319 148.172 27.6879C147.564 28.7279 146.724 29.5279 145.652 30.0879C144.58 30.6479 143.372 30.9279 142.028 30.9279ZM142.028 26.8479C142.684 26.8479 143.228 26.6079 143.66 26.1279C144.108 25.6319 144.332 24.9279 144.332 24.0159C144.332 23.1039 144.108 22.4079 143.66 21.9279C143.228 21.4479 142.692 21.2079 142.052 21.2079C141.412 21.2079 140.876 21.4479 140.444 21.9279C140.012 22.4079 139.796 23.1039 139.796 24.0159C139.796 24.9439 140.004 25.6479 140.42 26.1279C140.836 26.6079 141.372 26.8479 142.028 26.8479Z" fill="#09253D"/>
<path d="M117 22.2641C117 20.6001 117.344 19.1201 118.032 17.8241C118.736 16.5121 119.728 15.4961 121.008 14.7761C122.288 14.0401 123.76 13.6721 125.424 13.6721C127.536 13.6721 129.312 14.2401 130.752 15.3761C132.192 16.4961 133.12 18.0241 133.536 19.9601H128.472C128.168 19.3201 127.744 18.8321 127.2 18.4961C126.672 18.1601 126.056 17.9921 125.352 17.9921C124.264 17.9921 123.392 18.3841 122.736 19.1681C122.096 19.9361 121.776 20.9681 121.776 22.2641C121.776 23.5761 122.096 24.6241 122.736 25.4081C123.392 26.1761 124.264 26.5601 125.352 26.5601C126.056 26.5601 126.672 26.3921 127.2 26.0561C127.744 25.7201 128.168 25.2321 128.472 24.5921H133.536C133.12 26.5281 132.192 28.0641 130.752 29.2001C129.312 30.3201 127.536 30.8801 125.424 30.8801C123.76 30.8801 122.288 30.5201 121.008 29.8001C119.728 29.0641 118.736 28.0481 118.032 26.7521C117.344 25.4401 117 23.9441 117 22.2641Z" fill="#09253D"/>
<rect x="134" y="9" width="5" height="28" fill="#00A5A5"/>
</g>
<defs>
<clipPath id="clip0_3001_4399">
<rect width="22" height="21" fill="white" transform="translate(117 13)"/>
</clipPath>
</defs>
</svg>
