<svg width="1042" height="509" viewBox="0 0 1042 509" fill="none" xmlns="http://www.w3.org/2000/svg">
<path d="M792.49 56.4709C810.081 58.3036 822.97 48.2999 827.082 39.5101C830.881 31.3391 832.685 22.8295 838.011 14.9969C845.471 4.14109 865.213 -0.878281 882.925 0.125592C900.637 1.12947 918.506 7.12936 934.188 12.7441L929.851 78.1126C929.851 78.1126 895.728 53.5994 879.317 53.2025C851.942 52.4671 853.434 82.735 826.856 87.2058C826.856 87.2058 789.593 93.9994 764.404 72.1127C748.426 58.2102 747.056 41.3311 747.056 41.3311C747.056 41.3311 759.303 53.0274 792.49 56.4709Z" fill="#00A5A5"/>
<path d="M934.952 1.96094C934.709 1.96094 929.921 71.3916 924.266 157.036C918.61 242.68 914.204 312.135 914.447 312.146C914.69 312.158 919.461 242.727 925.133 157.059C930.806 71.3916 935.195 1.97261 934.952 1.96094Z" fill="#263238"/>
<g opacity="0.2">
<path d="M841.063 34.9844C838.083 41.8912 833.73 48.4956 828.122 54.6183C823.056 59.9528 815.371 64.4469 806.159 65.7426C804.473 65.8954 802.819 66.1814 801.232 66.5947C800.441 66.8113 799.751 67.1674 799.236 67.6255C798.72 68.0835 798.397 68.6267 798.301 69.1978C798.301 70.9137 800.851 72.0343 803.141 72.7931C806.321 73.9674 809.724 74.8469 813.255 75.4078C816.724 75.8514 819.604 76.1082 822.05 74.2405C824.416 72.6797 826.543 70.963 828.399 69.1161C836.432 59.9061 840.404 46.739 841.063 36.3268" fill="black"/>
</g>
<path d="M817.213 76.9693C817.213 76.9693 817.49 76.8876 817.993 76.6658C818.721 76.3462 819.422 75.9994 820.092 75.6269C822.563 74.2514 824.746 72.6572 826.581 70.8877C829.298 68.2611 831.486 65.4035 833.086 62.3898C835.032 58.7133 836.637 54.9591 837.892 51.1487C840.274 44.2437 841.778 37.2144 842.385 30.1374C842.61 27.4293 842.645 25.2348 842.645 23.7173C842.645 23.0053 842.645 22.4333 842.645 21.9664C842.674 21.7645 842.674 21.5612 842.645 21.3594C842.567 21.5572 842.532 21.7617 842.541 21.9664C842.541 22.4333 842.541 23.0053 842.437 23.7056C842.333 25.2231 842.211 27.4176 841.899 30.1141C841.111 37.149 839.533 44.1338 837.18 51.0087C835.907 54.7992 834.308 58.537 832.392 62.203C830.82 65.1791 828.698 68.0105 826.078 70.6309C824.314 72.3955 822.234 74.0069 819.884 75.4285C818.202 76.4674 817.161 76.9343 817.213 76.9693Z" fill="#263238"/>
<path d="M1041.02 325.941L808.607 351.54V325.941H1041.02Z" fill="#E0E0E0"/>
<path d="M770.253 383.781L537.824 409.38V383.781H770.253Z" fill="#E0E0E0"/>
<path d="M501.339 439.102L268.91 464.7V439.102H501.339Z" fill="#E0E0E0"/>
<path d="M232.774 483.129L0.363279 508.728V483.129H232.774Z" fill="#E0E0E0"/>
<path d="M808.607 306.773H1041.02V325.952H808.607V306.773Z" fill="#00A5A5"/>
<g opacity="0.3">
<path d="M808.608 306.773H881.14V325.952H808.608V306.773Z" fill="black"/>
</g>
<path d="M537.842 364.602H770.253V383.78H537.842V364.602Z" fill="#00A5A5"/>
<g opacity="0.3">
<path d="M537.823 364.602H610.354V383.78H537.823V364.602Z" fill="black"/>
</g>
<path d="M268.912 419.918H501.323V439.097H268.912V419.918Z" fill="#00A5A5"/>
<g opacity="0.3">
<path d="M268.91 419.922H341.442V439.101H268.91V419.922Z" fill="black"/>
</g>
<path d="M0.00184631 463.953H232.413V483.132H0.00184631V463.953Z" fill="#00A5A5"/>
<g opacity="0.3">
<path d="M0.000236511 463.953H72.5322V483.132H0.000236511V463.953Z" fill="black"/>
</g>
</svg>
