<svg width="75" height="75" viewBox="0 0 75 75" fill="none" xmlns="http://www.w3.org/2000/svg">
<path fill-rule="evenodd" clip-rule="evenodd" d="M35.6183 0.200087C36.8587 -0.0666958 38.1413 -0.0666958 39.3817 0.200087C42.1408 0.793629 43.9242 2.9705 45.3225 5.26963C46.7371 7.59588 48.2254 10.8675 50.0542 14.8865L50.1417 15.0791C51.3754 17.7912 51.6692 18.288 52.0338 18.612C52.1758 18.7382 52.3296 18.8506 52.4925 18.9476C52.9113 19.1967 53.4713 19.3243 56.4142 19.6679L57.1346 19.752C61.2742 20.2352 64.645 20.6287 67.1596 21.2213C69.6413 21.8062 72.1367 22.7576 73.5779 25.0198C74.4134 26.3311 74.8992 27.8369 74.9888 29.3922C75.1434 32.0754 73.68 34.3219 72.0138 36.2638C70.3254 38.2317 67.8279 40.545 64.7608 43.3862L64.6142 43.5221C62.3234 45.6442 61.9246 46.1042 61.7317 46.5721C61.635 46.8058 61.5684 47.0508 61.5325 47.3012C61.4609 47.8025 61.57 48.4033 62.4617 51.4067L62.6454 52.0254C64.0675 56.8167 65.2213 60.7021 65.7088 63.6996C66.1892 66.6521 66.2213 69.7946 64.1059 72.1562C63.5713 72.7533 62.96 73.2762 62.2883 73.7112C59.6317 75.4308 56.5571 74.8912 53.7408 73.9367C50.8821 72.9671 47.2608 71.1925 42.795 69.0046L41.4267 68.3342C38.6292 66.9633 38.0696 66.7662 37.5496 66.7621L37.4796 66.7625C36.9595 66.7704 36.4015 66.9725 33.615 68.3654L32.3834 68.9812C27.8728 71.2366 24.2172 73.0641 21.3313 74.0666C18.4912 75.0533 15.384 75.62 12.6992 73.8754C12.0632 73.4621 11.4815 72.97 10.9678 72.41C8.7992 70.0471 8.81882 66.8675 9.29528 63.8808C9.77945 60.8458 10.9385 56.9054 12.3687 52.0433L12.5565 51.4046C13.4393 48.4029 13.5468 47.8029 13.4742 47.3021C13.4381 47.0533 13.3714 46.81 13.2755 46.5779C13.0825 46.1108 12.6843 45.6512 10.3963 43.5321L10.2496 43.3958C7.17795 40.5504 4.67686 38.2337 2.98636 36.263C1.31807 34.3181 -0.146452 32.068 0.0117353 29.3807C0.102777 27.8333 0.586194 26.3353 1.41574 25.0295C2.85649 22.7619 5.35482 21.8082 7.83982 21.2222C10.3579 20.6283 13.7337 20.2342 17.8797 19.7503L18.5857 19.6679C21.5287 19.3243 22.0886 19.1967 22.5072 18.9476C22.6704 18.8506 22.824 18.7382 22.966 18.612C23.3307 18.288 23.6242 17.7912 24.8582 15.0791L24.9456 14.8869C26.7741 10.8677 28.2626 7.59592 29.6775 5.26963C31.0758 2.9705 32.8589 0.793629 35.6183 0.200087Z" fill="#09253D"/>
</svg>
