<svg width="32" height="32" viewBox="0 0 32 32" fill="none" xmlns="http://www.w3.org/2000/svg">
<path d="M19.7206 15.5038L27.1349 8.185C27.1354 8.18456 27.1358 8.18413 27.1363 8.18369C27.4161 7.90919 27.637 7.58047 27.7854 7.21765C27.9328 6.8575 28.0056 6.47128 27.9996 6.08228C27.9974 5.2656 27.672 4.48287 27.0944 3.90525L26.3873 4.61237L27.0944 3.90525C26.5147 3.32562 25.7285 3 24.9088 3V2.99993L24.8974 3.00007C24.5038 3.00456 24.1151 3.0885 23.7547 3.24685C23.3996 3.40289 23.0791 3.62802 22.8119 3.90907L15.5 11.2207L8.13642 3.85738C7.59674 3.31773 6.86669 3.00962 6.10369 3.00008L6.10369 3H6.09119C5.27146 3 4.48529 3.32562 3.90564 3.90525C3.32599 4.48487 3.00034 5.27103 3.00034 6.09076V6.10928L3.00103 6.1278C3.0283 6.86354 3.33614 7.56085 3.86124 8.07671L11.2794 15.4946L3.86506 22.8134C3.86447 22.8139 3.86387 22.8145 3.86328 22.8151C3.58366 23.0895 3.36292 23.4181 3.21456 23.7807C3.06722 24.1408 2.99438 24.5271 3.00035 24.9161C3.00259 25.7327 3.32799 26.5155 3.90564 27.0931C4.48529 27.6727 5.27146 27.9983 6.09119 27.9983V27.9984L6.10311 27.9983C6.48909 27.9937 6.87035 27.9127 7.22487 27.76C7.57666 27.6084 7.89522 27.3893 8.16246 27.1149L15.4954 19.7823L22.7544 27.1363L22.7576 27.1395C23.0436 27.4267 23.3863 27.6513 23.7637 27.799C24.1347 27.9442 24.5314 28.0119 24.9294 27.9983C25.7417 27.9929 26.5196 27.6679 27.0944 27.0931C27.674 26.5135 27.9997 25.7273 27.9997 24.9076V24.8891L27.999 24.8706C27.9717 24.1348 27.6639 23.4375 27.1388 22.9217L19.7206 15.5038Z" fill="#DF2E38" stroke="#DF2E38" stroke-width="2"/>
</svg>
