<svg width="80" height="80" viewBox="0 0 80 80" fill="none" xmlns="http://www.w3.org/2000/svg">
<path d="M39.902 2.03125C29.6576 2.03125 19.8328 6.10084 12.5889 13.3447C5.34497 20.5886 1.27539 30.4136 1.27539 40.658C1.27539 50.9022 5.34497 60.7271 12.5889 67.9711C19.8328 75.2149 29.6576 79.2845 39.902 79.2845C50.1465 79.2845 59.9713 75.2149 67.2151 67.9711C74.4591 60.7271 78.5287 50.9022 78.5287 40.658C78.5287 30.4136 74.4591 20.5886 67.2151 13.3447C59.9713 6.10084 50.1465 2.03125 39.902 2.03125Z" fill="#405993"/>
<path d="M45.1339 50.8962H55.1301L56.6994 40.7413H45.1319V35.1913C45.1319 30.9728 46.5101 27.2322 50.4561 27.2322H56.797V18.3704C55.683 18.22 53.3268 17.8906 48.8745 17.8906C39.5776 17.8906 34.1272 22.8004 34.1272 33.9857V40.7413H24.5703V50.8962H34.1272V78.8068C36.0201 79.0915 37.937 79.2846 39.905 79.2846C41.6839 79.2846 43.4201 79.1219 45.1339 78.8902V50.8962Z" fill="white"/>
</svg>
