<svg width="80" height="80" viewBox="0 0 80 80" fill="none" xmlns="http://www.w3.org/2000/svg">
<mask id="mask0_1427_78110" style="mask-type:luminance" maskUnits="userSpaceOnUse" x="-1" y="0" width="81" height="78">
<path d="M79.4417 39.3761C79.4417 18.0457 61.6558 0.753906 39.7159 0.753906C17.776 0.753906 -0.00976562 18.0457 -0.00976562 39.3761C-0.00976562 60.7066 17.776 77.9984 39.7159 77.9984C61.6558 77.9984 79.4417 60.7066 79.4417 39.3761Z" fill="white"/>
</mask>
<g mask="url(#mask0_1427_78110)">
<path d="M61.6085 0.753906H17.8235C7.97444 0.753906 -0.00976562 8.51634 -0.00976562 18.0918V60.6605C-0.00976562 70.2358 7.97444 77.9983 17.8235 77.9983H61.6085C71.4574 77.9983 79.4417 70.2358 79.4417 60.6605V18.0918C79.4417 8.51634 71.4574 0.753906 61.6085 0.753906Z" fill="url(#paint0_linear_1427_78110)"/>
<path d="M27.5099 14.1289H52.2781C52.8285 14.3965 53.6541 14.3965 54.2045 14.664C56.6199 15.0446 58.8781 16.0725 60.7257 17.6323C62.573 19.192 63.9364 21.2218 64.6624 23.4935C65.0688 24.8026 65.3453 26.1464 65.488 27.5069V51.0522C65.0946 54.0362 63.9613 56.8826 62.1856 59.3464C60.6621 61.0624 58.7524 62.4138 56.6045 63.2953C54.4566 64.1771 52.1287 64.5653 49.8013 64.4302H29.1611C25.4777 64.604 21.8559 63.462 18.9785 61.2193C17.2288 59.7495 15.848 57.9102 14.9417 55.842C14.0354 53.7735 13.6276 51.5313 13.7496 49.2862V30.5571C13.7042 29.2138 13.7964 27.8693 14.0248 26.5438C14.3027 23.8006 15.4628 21.2125 17.3402 19.1471C19.2176 17.0817 21.7168 15.6441 24.4827 15.0386L27.5099 14.1289ZM18.9785 39.5471V49.982C18.8612 51.3106 19.044 52.6484 19.5142 53.9013C19.9845 55.1542 20.7307 56.292 21.7007 57.2351C22.6707 58.178 23.8411 58.9035 25.1298 59.3606C26.4185 59.818 27.7943 59.9958 29.1611 59.8815C36.3163 60.1491 43.4717 60.1491 50.6269 59.8815C56.9568 59.8815 60.5344 56.1358 60.8096 49.982C61.0848 43.0253 61.0848 36.0689 60.8096 29.1122C60.8809 27.794 60.6663 26.4758 60.1799 25.2433C59.6932 24.0109 58.9458 22.8915 57.9856 21.958C57.0256 21.0246 55.8742 20.2977 54.6064 19.8248C53.3387 19.3518 51.983 19.1432 50.6269 19.2125C43.4717 18.945 36.3163 18.945 29.1611 19.2125C27.7943 19.0985 26.4185 19.2762 25.1298 19.7334C23.8411 20.1906 22.6707 20.9161 21.7007 21.8591C20.7307 22.8022 19.9845 23.94 19.5142 25.1929C19.044 26.4458 18.8612 27.7835 18.9785 29.1122V39.5471Z" fill="white"/>
<path d="M26.5195 39.6573C26.5268 36.1824 27.9499 32.8518 30.4772 30.3947C33.0046 27.9375 36.4304 26.554 40.0046 26.5469C43.5588 26.6153 46.9481 28.0184 49.4619 30.4624C51.9758 32.9064 53.4192 36.2015 53.4896 39.6573C53.4823 43.1322 52.0592 46.4629 49.5319 48.92C47.0046 51.3771 43.5787 52.7607 40.0046 52.7678C36.45 52.6993 33.061 51.296 30.5472 48.852C28.0334 46.408 26.5899 43.1129 26.5195 39.6573ZM40.0046 31.3629C38.333 31.3364 36.6914 31.796 35.2903 32.6824C33.8889 33.5689 32.792 34.8418 32.1396 36.3382C31.4873 37.8349 31.3095 39.4864 31.629 41.082C31.9486 42.6773 32.7506 44.1435 33.9328 45.2929C35.115 46.442 36.6231 47.222 38.264 47.5327C39.9049 47.8431 41.6039 47.6702 43.1431 47.0362C44.6823 46.402 45.9918 45.3353 46.9035 43.9731C47.8153 42.6109 48.2878 41.0149 48.2606 39.3898C48.2606 37.2609 47.3908 35.2193 45.8425 33.714C44.2942 32.2087 42.1943 31.3629 40.0046 31.3629Z" fill="white"/>
<path d="M50.4629 26.0094C50.4474 25.5839 50.5224 25.1597 50.6828 24.7634C50.8435 24.367 51.0863 24.0072 51.396 23.7059C51.7057 23.4048 52.076 23.1688 52.4835 23.0128C52.8913 22.8568 53.3274 22.7839 53.7653 22.7988C54.622 22.8552 55.4289 23.2114 56.036 23.8019C56.6433 24.3923 57.0099 25.1766 57.0677 26.0094C57.0677 26.861 56.7199 27.6777 56.1004 28.2799C55.4812 28.8819 54.6412 29.2203 53.7653 29.2203C52.8895 29.2203 52.0495 28.8819 51.43 28.2799C50.8108 27.6777 50.4629 26.861 50.4629 26.0094Z" fill="white"/>
</g>
<defs>
<linearGradient id="paint0_linear_1427_78110" x1="-5.07352" y1="82.2794" x2="85.8986" y2="-9.91595" gradientUnits="userSpaceOnUse">
<stop stop-color="#FED576"/>
<stop offset="0.26" stop-color="#F47133"/>
<stop offset="0.61" stop-color="#BC3081"/>
<stop offset="1" stop-color="#4C63D2"/>
</linearGradient>
</defs>
</svg>
