<svg width="80" height="80" viewBox="0 0 80 80" fill="none" xmlns="http://www.w3.org/2000/svg">
<path d="M40.088 0C29.872 0 20.0743 4.168 12.8505 11.5871C5.62668 19.0061 1.56836 29.0685 1.56836 39.5606C1.56836 50.053 5.62668 60.1152 12.8505 67.5345C20.0743 74.9535 29.872 79.1215 40.088 79.1215C50.304 79.1215 60.1017 74.9535 67.3255 67.5345C74.5493 60.1152 78.6076 50.053 78.6076 39.5606C78.6076 29.0685 74.5493 19.0061 67.3255 11.5871C60.1017 4.168 50.304 0 40.088 0Z" fill="#0288D1"/>
<path d="M20.8281 29.6728H28.532V59.3435H20.8281V29.6728ZM24.6571 25.7167H24.6145C22.3149 25.7167 20.8281 23.9563 20.8281 21.7589C20.8281 19.5137 22.3613 17.8047 24.7013 17.8047C27.0453 17.8047 28.4878 19.5137 28.532 21.7589C28.532 23.9563 27.0453 25.7167 24.6571 25.7167ZM61.2737 40.5522C61.2737 34.5429 56.532 29.6728 50.6808 29.6728C47.0947 29.6728 43.9303 31.5085 42.0139 34.3094V29.6728H34.3101V59.3435H42.0139V43.5191C42.0139 40.2415 44.6006 37.5851 47.792 37.5851C50.9832 37.5851 53.5699 40.2415 53.5699 43.5191V59.3435H61.2737C61.2737 59.3435 61.2737 41.3848 61.2737 40.5522Z" fill="white"/>
</svg>
