<svg width="80" height="80" viewBox="0 0 80 80" fill="none" xmlns="http://www.w3.org/2000/svg">
<g clip-path="url(#clip0_1427_78125)">
<path d="M40.001 80.002C62.0929 80.002 80.002 62.0929 80.002 40.001C80.002 17.9091 62.0929 0 40.001 0C17.9091 0 0 17.9091 0 40.001C0 62.0929 17.9091 80.002 40.001 80.002Z" fill="black"/>
<path d="M34.4354 33.26V31.0767C33.6869 30.9744 32.9264 30.9102 32.1498 30.9102C22.7987 30.9102 15.1914 38.5174 15.1914 47.8685C15.1914 53.6056 18.0589 58.6825 22.4315 61.7527C19.6081 58.7226 17.8763 54.6631 17.8763 50.2063C17.8763 40.9897 25.2689 33.4727 34.4354 33.258V33.26Z" fill="#25F4EE"/>
<path d="M34.8355 57.9536C39.0073 57.9536 42.4107 54.6346 42.5652 50.5008L42.5792 13.5761H49.3256C49.1852 12.8175 49.1089 12.0369 49.1089 11.2383H39.8943L39.8802 48.1631C39.7257 52.2988 36.3224 55.6158 32.1505 55.6158C30.8542 55.6158 29.6322 55.2908 28.5586 54.7269C29.9673 56.6774 32.2529 57.9556 34.8375 57.9556L34.8355 57.9536Z" fill="#25F4EE"/>
<path d="M61.9265 26.1082V24.0554C59.354 24.0554 56.956 23.2908 54.9453 21.9805C56.7353 24.0353 59.1674 25.5182 61.9265 26.1082Z" fill="#25F4EE"/>
<path d="M54.9449 21.9782C52.9844 19.7267 51.7924 16.7869 51.7924 13.5742H49.3242C49.9744 17.0839 52.0573 20.0959 54.9449 21.9782Z" fill="#FE2C55"/>
<path d="M32.1501 40.123C27.8799 40.123 24.4043 43.5965 24.4043 47.8687C24.4043 50.8426 26.0919 53.4272 28.5561 54.7235C27.637 53.4513 27.0892 51.8921 27.0892 50.2065C27.0892 45.9363 30.5648 42.4607 34.835 42.4607C35.6316 42.4607 36.3962 42.5932 37.1206 42.8179V33.4126C36.3721 33.3103 35.6116 33.2461 34.835 33.2461C34.7005 33.2461 34.5681 33.2541 34.4336 33.2561V40.4801C33.7112 40.2534 32.9447 40.123 32.148 40.123H32.1501Z" fill="#FE2C55"/>
<path d="M61.927 26.1094V33.2712C57.1491 33.2712 52.7224 31.7421 49.1083 29.1495V47.8737C49.1083 57.2248 41.501 64.8321 32.15 64.8321C28.5359 64.8321 25.1848 63.6923 22.4316 61.7579C25.5299 65.083 29.9426 67.1699 34.8369 67.1699C44.188 67.1699 51.7953 59.5626 51.7953 50.2115V31.4873C55.4093 34.0819 59.836 35.609 64.6139 35.609V26.3943C63.6928 26.3943 62.7938 26.294 61.929 26.1094H61.927Z" fill="#FE2C55"/>
<path d="M49.1088 47.8703V29.146C52.7228 31.7406 57.1495 33.2677 61.9274 33.2677V26.1059C59.1682 25.5159 56.7362 24.033 54.9462 21.9782C52.0586 20.0959 49.9757 17.0839 49.3255 13.5742H42.5791L42.565 50.499C42.4105 54.6347 39.0072 57.9518 34.8353 57.9518C32.2507 57.9518 29.9651 56.6755 28.5565 54.723C26.0903 53.4247 24.4047 50.8421 24.4047 47.8682C24.4047 43.598 27.8802 40.1225 32.1504 40.1225C32.9471 40.1225 33.7116 40.2549 34.436 40.4797V33.2557C25.2695 33.4704 17.877 40.9874 17.877 50.204C17.877 54.6628 19.6087 58.7203 22.4321 61.7504C25.1873 63.6848 28.5364 64.8246 32.1504 64.8246C41.5015 64.8246 49.1088 57.2173 49.1088 47.8662V47.8703Z" fill="white"/>
</g>
<defs>
<clipPath id="clip0_1427_78125">
<rect width="80" height="80" fill="white"/>
</clipPath>
</defs>
</svg>
