<svg width="46" height="45" viewBox="0 0 46 45" fill="none" xmlns="http://www.w3.org/2000/svg">
<path d="M17.5 13C18.6089 13 19.5 12.1089 19.5 11C19.5 9.89109 18.6089 9 17.5 9C16.3911 9 15.5 9.89109 15.5 11C15.5 12.1089 16.3911 13 17.5 13Z" fill="#00A5A5"/>
<path fill-rule="evenodd" clip-rule="evenodd" d="M22.14 17.9112C22.14 15.6402 20.2129 14 17.8412 14C15.4694 14 13.5424 15.6402 13.5424 17.9112V18.9836C13.5424 19.1729 13.6271 19.3622 13.7541 19.4883C13.8812 19.6145 14.0718 19.6986 14.2624 19.6986H21.42C21.6106 19.6986 21.8012 19.6145 21.9282 19.4883C22.0553 19.3622 22.14 19.1729 22.14 18.9836V17.9112ZM13.5 24.1145C13.5 23.6962 13.6673 23.2951 13.9652 22.9993C14.263 22.7035 14.667 22.5374 15.0882 22.5374H29.9118C30.333 22.5374 30.737 22.7035 31.0348 22.9993C31.3327 23.2951 31.5 23.6962 31.5 24.1145C31.5 24.5328 31.3327 24.9339 31.0348 25.2297C30.737 25.5254 30.333 25.6916 29.9118 25.6916H15.0882C14.667 25.6916 14.263 25.5254 13.9652 25.2297C13.6673 24.9339 13.5 24.5328 13.5 24.1145ZM13.5 30.4229C13.5 30.0046 13.6673 29.6035 13.9652 29.3077C14.263 29.012 14.667 28.8458 15.0882 28.8458H29.9118C30.333 28.8458 30.737 29.012 31.0348 29.3077C31.3327 29.6035 31.5 30.0046 31.5 30.4229C31.5 30.8412 31.3327 31.2423 31.0348 31.5381C30.737 31.8338 30.333 32 29.9118 32H15.0882C14.667 32 14.263 31.8338 13.9652 31.5381C13.6673 31.2423 13.5 30.8412 13.5 30.4229Z" fill="#00A5A5"/>
<path fill-rule="evenodd" clip-rule="evenodd" d="M6.5 5.21053C6.5 2.89053 8.41573 1 10.7667 1H25.0387C26.2376 1 27.3683 1.50105 28.164 2.32842L28.1768 2.34316L37.3757 12.2421C38.1416 13.0484 38.5 14.1032 38.5 15.1053V36.7895C38.5 39.1095 36.5843 41 34.2333 41H10.7667C8.41573 41 6.5 39.1095 6.5 36.7895V5.21053ZM25.0365 5.21053H10.7667V36.7895H34.2333V15.0884L25.0685 5.22526L25.0621 5.22316C25.0544 5.21759 25.0457 5.21332 25.0365 5.21053Z" fill="#00A5A5"/>
<path fill-rule="evenodd" clip-rule="evenodd" d="M24.6888 1C25.2693 1 25.826 1.21892 26.2365 1.60861C26.647 1.9983 26.8776 2.52682 26.8776 3.07792V12.8442H36.3112C36.5987 12.8442 36.8833 12.8979 37.1488 13.0023C37.4144 13.1068 37.6557 13.2598 37.8589 13.4528C38.0622 13.6457 38.2234 13.8748 38.3334 14.1269C38.4434 14.379 38.5 14.6492 38.5 14.9221C38.5 15.195 38.4434 15.4652 38.3334 15.7173C38.2234 15.9694 38.0622 16.1984 37.8589 16.3914C37.6557 16.5843 37.4144 16.7374 37.1488 16.8418C36.8833 16.9463 36.5987 17 36.3112 17H24.6888C24.1083 17 23.5516 16.7811 23.1411 16.3914C22.7306 16.0017 22.5 15.4732 22.5 14.9221V3.07792C22.5 2.52682 22.7306 1.9983 23.1411 1.60861C23.5516 1.21892 24.1083 1 24.6888 1Z" fill="#00A5A5"/>
</svg>
