<svg width="46" height="45" viewBox="0 0 46 45" fill="none" xmlns="http://www.w3.org/2000/svg">
<path d="M24 40.8354L20.115 43.7572C19.695 44.0702 19.275 44.0793 18.855 43.7843C18.435 43.4894 18.3125 43.0977 18.4875 42.6093L20.01 37.8093L16.1775 35.0962C15.7575 34.8179 15.635 34.4353 15.81 33.9483C15.985 33.4614 16.3175 33.2179 16.8075 33.2179H21.48L22.95 28.4178L15.495 24.0351C14.865 23.6525 14.375 23.1481 14.025 22.5221C13.675 21.896 13.5 21.1829 13.5 20.3829V8.17398C13.5 7.02614 13.9116 6.04386 14.7348 5.22715C15.558 4.41044 16.5464 4.00139 17.7 4H30.3C31.455 4 32.4441 4.40905 33.2673 5.22715C34.0905 6.04525 34.5014 7.02753 34.5 8.17398V20.3829C34.5 21.1829 34.325 21.896 33.975 22.5221C33.625 23.1481 33.135 23.6525 32.505 24.0351L25.05 28.4178L26.52 33.2179H31.1925C31.6825 33.2179 32.015 33.4614 32.19 33.9483C32.365 34.4353 32.2425 34.8179 31.8225 35.0962L27.99 37.8093L29.5125 42.6093C29.6875 43.0963 29.565 43.488 29.145 43.7843C28.725 44.0807 28.305 44.0716 27.885 43.7572L24 40.8354ZM21.9 8.17398V22.8873L24 24.1395L26.1 22.8873V8.17398H21.9Z" fill="white"/>
</svg>
