<svg width="46" height="45" viewBox="0 0 46 45" fill="none" xmlns="http://www.w3.org/2000/svg">
<g clip-path="url(#clip0_1427_79430)">
<path fill-rule="evenodd" clip-rule="evenodd" d="M23.6143 0.0259318C23.3363 -0.0178401 23.0524 -0.00610977 22.7789 0.0604531C22.5053 0.127016 22.2475 0.247108 22.0202 0.413872C21.7928 0.580636 21.6003 0.790807 21.4537 1.03238C21.3071 1.27396 21.2092 1.54221 21.1657 1.82183C21.1222 2.10144 21.1339 2.38693 21.2 2.66201C21.2662 2.93709 21.3856 3.19636 21.5515 3.42503C21.7173 3.6537 21.9263 3.84728 22.1665 3.99472C22.4067 4.14217 22.6734 4.24058 22.9514 4.28435C26.8493 4.91559 30.3683 6.99879 32.8089 10.1198C35.2495 13.2409 36.433 17.1713 36.1241 21.1297C35.8152 25.0881 34.0366 28.7847 31.1419 31.4847C28.2471 34.1847 24.4481 35.6904 20.5 35.7024C17.3491 35.703 14.2708 34.7513 11.6644 32.9708C9.05795 31.1903 7.04367 28.6632 5.88286 25.7173C5.78536 25.4459 5.63469 25.1971 5.43978 24.9854C5.24486 24.7737 5.00968 24.6036 4.74816 24.485C4.48663 24.3665 4.20411 24.3019 3.91732 24.2952C3.63054 24.2885 3.34534 24.3398 3.07862 24.446C2.81191 24.5522 2.56912 24.7112 2.36464 24.9136C2.16017 25.1159 1.99817 25.3575 1.88825 25.6239C1.77833 25.8904 1.72273 26.1764 1.72475 26.4649C1.72677 26.7534 1.78636 27.0385 1.9 27.3034C3.61647 31.6521 6.78631 35.2633 10.8641 37.5155C14.942 39.7678 19.6728 40.5203 24.2428 39.6436C28.8127 38.767 32.9359 36.3159 35.9031 32.7122C38.8702 29.1085 40.4958 24.5774 40.5 19.8986C40.4998 15.1065 38.7988 10.4718 35.7033 6.8287C32.6078 3.18559 28.3209 0.773285 23.6143 0.0259318ZM18.1114 1.6839C18.1819 1.95824 18.1978 2.24384 18.1583 2.52438C18.1189 2.80492 18.0248 3.07488 17.8815 3.31882C17.7382 3.56276 17.5485 3.77588 17.3232 3.94599C17.0979 4.11611 16.8415 4.23988 16.5686 4.31021C15.8528 4.49544 15.151 4.73166 14.4686 5.01708C14.2087 5.12575 13.9302 5.1819 13.6488 5.1823C13.3674 5.1827 13.0886 5.12736 12.8285 5.01943C12.5684 4.9115 12.3319 4.7531 12.1326 4.55327C11.9334 4.35343 11.7752 4.11609 11.6671 3.85478C11.5591 3.59347 11.5033 3.31331 11.5029 3.0303C11.5025 2.74729 11.5575 2.46698 11.6648 2.20536C11.7721 1.94374 11.9296 1.70594 12.1283 1.50554C12.327 1.30513 12.563 1.14605 12.8229 1.03738C13.6857 0.675327 14.58 0.373617 15.5029 0.135122C15.7754 0.0647253 16.0591 0.0490193 16.3378 0.088901C16.6164 0.128783 16.8845 0.223471 17.1267 0.367558C17.3689 0.511645 17.5806 0.702309 17.7495 0.928662C17.9185 1.15501 18.0415 1.40975 18.1114 1.6839ZM9.6 5.22684C9.99528 5.63698 10.2125 6.18816 10.2039 6.75927C10.1954 7.33039 9.9617 7.87472 9.55429 8.27267C8.49192 9.31401 7.57843 10.4986 6.84 11.7926C6.70418 12.0454 6.51947 12.2683 6.29675 12.4482C6.07403 12.6281 5.81778 12.7614 5.54309 12.8403C5.26839 12.9191 4.98079 12.942 4.69719 12.9074C4.41359 12.8729 4.13972 12.7817 3.89169 12.6391C3.64365 12.4966 3.42646 12.3056 3.25289 12.0774C3.07932 11.8492 2.95286 11.5884 2.88096 11.3104C2.80906 11.0323 2.79317 10.7426 2.83422 10.4583C2.87527 10.174 2.97244 9.9008 3.12 9.65479C4.05574 8.0078 5.21765 6.50167 6.57143 5.18086C6.97924 4.78333 7.5273 4.56487 8.09518 4.57349C8.66305 4.58211 9.2043 4.81711 9.6 5.22684ZM3.11714 14.9563C3.67972 15.036 4.18777 15.3372 4.5296 15.7936C4.87142 16.25 5.01904 16.8242 4.94 17.3901C4.83695 18.1278 4.7854 18.872 4.78571 19.617C4.78571 20.1885 4.55995 20.7367 4.15809 21.1408C3.75622 21.545 3.21118 21.772 2.64286 21.772C2.07454 21.772 1.52949 21.545 1.12763 21.1408C0.725765 20.7367 0.5 20.1885 0.5 19.617C0.5 18.6601 0.565714 17.7148 0.697143 16.7895C0.77646 16.2237 1.07594 15.7128 1.52975 15.369C1.98355 15.0252 2.55453 14.8768 3.11714 14.9563ZM13.3571 25.3064V14.4908C13.3574 14.0012 13.4821 13.5197 13.7193 13.0922C13.9565 12.6646 14.2984 12.3051 14.7126 12.0478C15.1267 11.7905 15.5994 11.6438 16.0857 11.6218C16.5721 11.5998 17.0559 11.7031 17.4914 11.9219L28.2457 17.3297C28.7197 17.5686 29.1182 17.9354 29.3967 18.3891C29.6752 18.8428 29.8227 19.3654 29.8227 19.8986C29.8227 20.4317 29.6752 20.9544 29.3967 21.4081C29.1182 21.8617 28.7197 22.2285 28.2457 22.4674L17.4914 27.8752C17.0559 28.0941 16.5721 28.1974 16.0857 28.1754C15.5994 28.1533 15.1267 28.0067 14.7126 27.7493C14.2984 27.492 13.9565 27.1325 13.7193 26.7049C13.4821 26.2774 13.3574 25.796 13.3571 25.3064Z" fill="#00A5A5"/>
</g>
<defs>
<clipPath id="clip0_1427_79430">
<rect width="45" height="45" fill="white" transform="translate(0.5)"/>
</clipPath>
</defs>
</svg>
