<svg width="22" height="22" viewBox="0 0 22 22" fill="none" xmlns="http://www.w3.org/2000/svg">
<path d="M9.071 8.66673C9.6086 8.01607 10.4225 7.60007 11.3334 7.60007C12.2443 7.60007 13.0582 8.01607 13.5958 8.66673C13.9497 9.09587 14.1744 9.61679 14.2435 10.1687C14.3126 10.7207 14.2233 11.2809 13.9861 11.7841C13.7489 12.2872 13.3735 12.7126 12.9037 13.0104C12.4339 13.3083 11.8891 13.4665 11.3329 13.4665C10.7766 13.4665 10.2318 13.3083 9.76202 13.0104C9.29224 12.7126 8.91685 12.2872 8.67963 11.7841C8.44241 11.2809 8.35315 10.7207 8.42226 10.1687C8.49136 9.61679 8.71599 9.09587 9.06993 8.66673M15.3323 10.5334C15.3323 9.85927 15.1659 9.22353 14.8715 8.66673H19.3334C19.7577 8.66673 20.1647 8.8353 20.4648 9.13536C20.7648 9.43542 20.9334 9.84239 20.9334 10.2667V10.8001C20.9334 12.4929 19.647 14.2262 17.3974 14.8363C17.1662 14.4211 16.8283 14.0751 16.4185 13.8343C16.0087 13.5935 15.542 13.4666 15.0667 13.4667H14.0534C14.4577 13.0926 14.7802 12.6389 15.0005 12.1341C15.2207 11.6292 15.3341 11.0842 15.3334 10.5334M15.0667 14.5334C15.277 14.5328 15.4853 14.5738 15.6797 14.654C15.8741 14.7343 16.0507 14.8521 16.1994 15.0008C16.348 15.1495 16.4659 15.3261 16.5461 15.5204C16.6263 15.7148 16.6673 15.9231 16.6667 16.1334V16.6667C16.6667 18.7691 14.6827 20.9334 11.3334 20.9334C7.98407 20.9334 6.00007 18.7691 6.00007 16.6667V16.1334C5.9995 15.9231 6.0405 15.7148 6.12071 15.5204C6.20092 15.3261 6.31875 15.1495 6.46744 15.0008C6.61613 14.8521 6.79273 14.7343 6.98711 14.654C7.18148 14.5738 7.38979 14.5328 7.60007 14.5334H15.0667ZM1.7334 10.8001C1.7334 12.4929 3.0198 14.2262 5.2694 14.8363C5.50058 14.4211 5.83855 14.0751 6.24832 13.8343C6.65809 13.5935 7.12478 13.4666 7.60007 13.4667H8.6134C8.2091 13.0926 7.88664 12.6389 7.66635 12.1341C7.44605 11.6292 7.33269 11.0842 7.3334 10.5334C7.3334 9.85927 7.4998 9.22353 7.79527 8.66673H3.3334C2.90905 8.66673 2.50209 8.8353 2.20203 9.13536C1.90197 9.43542 1.7334 9.84239 1.7334 10.2667V10.8001ZM10.0001 4.66673C10.0001 3.88876 9.69102 3.14266 9.14091 2.59255C8.59081 2.04245 7.8447 1.7334 7.06673 1.7334C6.28876 1.7334 5.54266 2.04245 4.99255 2.59255C4.44245 3.14266 4.1334 3.88876 4.1334 4.66673C4.1334 5.4447 4.44245 6.19081 4.99255 6.74091C5.54266 7.29102 6.28876 7.60007 7.06673 7.60007C7.8447 7.60007 8.59081 7.29102 9.14091 6.74091C9.69102 6.19081 10.0001 5.4447 10.0001 4.66673ZM18.5334 4.66673C18.5334 3.88876 18.2244 3.14266 17.6742 2.59255C17.1241 2.04245 16.378 1.7334 15.6001 1.7334C14.8221 1.7334 14.076 2.04245 13.5259 2.59255C12.9758 3.14266 12.6667 3.88876 12.6667 4.66673C12.6667 5.4447 12.9758 6.19081 13.5259 6.74091C14.076 7.29102 14.8221 7.60007 15.6001 7.60007C16.378 7.60007 17.1241 7.29102 17.6742 6.74091C18.2244 6.19081 18.5334 5.4447 18.5334 4.66673Z" fill="#09253D"/>
</svg>
