<svg width="36" height="36" viewBox="0 0 36 36" fill="none" xmlns="http://www.w3.org/2000/svg">
<path d="M17.9562 0.914062C13.3462 0.914062 8.92504 2.74538 5.66529 6.00512C2.40553 9.26488 0.574219 13.6861 0.574219 18.2961C0.574219 22.906 2.40553 27.3272 5.66529 30.587C8.92504 33.8467 13.3462 35.678 17.9562 35.678C22.5662 35.678 26.9874 33.8467 30.2471 30.587C33.5069 27.3272 35.3382 22.906 35.3382 18.2961C35.3382 13.6861 33.5069 9.26488 30.2471 6.00512C26.9874 2.74538 22.5662 0.914062 17.9562 0.914062Z" fill="#405993"/>
<path d="M20.3102 22.9033H24.8085L25.5147 18.3336H20.3093V15.8361C20.3093 13.9378 20.9295 12.2545 22.7052 12.2545H25.5586V8.26669C25.0573 8.19899 23.997 8.05078 21.9935 8.05078C17.8099 8.05078 15.3572 10.2602 15.3572 15.2936V18.3336H11.0566V22.9033H15.3572V35.4631C16.209 35.5912 17.0716 35.6781 17.9572 35.6781C18.7577 35.6781 19.539 35.6049 20.3102 35.5006V22.9033Z" fill="white"/>
</svg>
