<svg width="46" height="45" viewBox="0 0 46 45" fill="none" xmlns="http://www.w3.org/2000/svg">
<path d="M17.7867 16.4444C18.9067 15.0889 20.6022 14.2222 22.5 14.2222C24.3978 14.2222 26.0933 15.0889 27.2133 16.4444C27.9507 17.3385 28.4187 18.4237 28.5627 19.5736C28.7066 20.7236 28.5207 21.8907 28.0265 22.9389C27.5323 23.9871 26.7502 24.8732 25.7715 25.4938C24.7928 26.1144 23.6578 26.444 22.4989 26.444C21.34 26.444 20.205 26.1144 19.2263 25.4938C18.2476 24.8732 17.4655 23.9871 16.9713 22.9389C16.4771 21.8907 16.2911 20.7236 16.4351 19.5736C16.5791 18.4237 17.0471 17.3385 17.7844 16.4444M30.8311 20.3333C30.8311 18.9289 30.4844 17.6044 29.8711 16.4444H39.1667C40.0507 16.4444 40.8986 16.7956 41.5237 17.4208C42.1488 18.0459 42.5 18.8937 42.5 19.7778V20.8889C42.5 24.4156 39.82 28.0267 35.1333 29.2978C34.6517 28.4326 33.9476 27.7119 33.0939 27.2102C32.2402 26.7086 31.268 26.4442 30.2778 26.4444H28.1667C29.009 25.6651 29.6807 24.7198 30.1397 23.668C30.5986 22.6163 30.8348 21.4809 30.8333 20.3333M30.2778 28.6667C30.7158 28.6655 31.1498 28.7509 31.5548 28.918C31.9597 29.0851 32.3277 29.3306 32.6374 29.6404C32.9472 29.9501 33.1927 30.3181 33.3598 30.723C33.5269 31.128 33.6123 31.5619 33.6111 32V33.1111C33.6111 37.4911 29.4778 42 22.5 42C15.5222 42 11.3889 37.4911 11.3889 33.1111V32C11.3877 31.5619 11.4731 31.128 11.6402 30.723C11.8073 30.3181 12.0528 29.9501 12.3626 29.6404C12.6723 29.3306 13.0403 29.0851 13.4452 28.918C13.8502 28.7509 14.2842 28.6655 14.7222 28.6667H30.2778ZM2.5 20.8889C2.5 24.4156 5.18 28.0267 9.86667 29.2978C10.3483 28.4326 11.0524 27.7119 11.9061 27.2102C12.7598 26.7086 13.732 26.4442 14.7222 26.4444H16.8333C15.991 25.6651 15.3193 24.7198 14.8603 23.668C14.4014 22.6163 14.1652 21.4809 14.1667 20.3333C14.1667 18.9289 14.5133 17.6044 15.1289 16.4444H5.83333C4.94928 16.4444 4.10143 16.7956 3.47631 17.4208C2.85119 18.0459 2.5 18.8937 2.5 19.7778V20.8889ZM19.7222 8.11111C19.7222 6.49034 19.0784 4.93596 17.9323 3.7899C16.7863 2.64385 15.2319 2 13.6111 2C11.9903 2 10.436 2.64385 9.2899 3.7899C8.14385 4.93596 7.5 6.49034 7.5 8.11111C7.5 9.73188 8.14385 11.2863 9.2899 12.4323C10.436 13.5784 11.9903 14.2222 13.6111 14.2222C15.2319 14.2222 16.7863 13.5784 17.9323 12.4323C19.0784 11.2863 19.7222 9.73188 19.7222 8.11111ZM37.5 8.11111C37.5 6.49034 36.8562 4.93596 35.7101 3.7899C34.564 2.64385 33.0097 2 31.3889 2C29.7681 2 28.2137 2.64385 27.0677 3.7899C25.9216 4.93596 25.2778 6.49034 25.2778 8.11111C25.2778 9.73188 25.9216 11.2863 27.0677 12.4323C28.2137 13.5784 29.7681 14.2222 31.3889 14.2222C33.0097 14.2222 34.564 13.5784 35.7101 12.4323C36.8562 11.2863 37.5 9.73188 37.5 8.11111Z" fill="#00A5A5"/>
</svg>
