<svg width="35" height="36" viewBox="0 0 35 36" fill="none" xmlns="http://www.w3.org/2000/svg">
<mask id="mask0_643_19812" style="mask-type:luminance" maskUnits="userSpaceOnUse" x="-1" y="0" width="36" height="36">
<path d="M34.7561 17.7198C34.7561 8.12113 26.9748 0.339844 17.3761 0.339844C7.77738 0.339844 -0.00390625 8.12113 -0.00390625 17.7198C-0.00390625 27.3185 7.77738 35.0998 17.3761 35.0998C26.9748 35.0998 34.7561 27.3185 34.7561 17.7198Z" fill="white"/>
</mask>
<g mask="url(#mask0_643_19812)">
<path d="M26.9541 0.339844H7.79813C3.48918 0.339844 -0.00390625 3.83293 -0.00390625 8.14187V27.2978C-0.00390625 31.6067 3.48918 35.0998 7.79813 35.0998H26.9541C31.263 35.0998 34.7561 31.6067 34.7561 27.2978V8.14187C34.7561 3.83293 31.263 0.339844 26.9541 0.339844Z" fill="url(#paint0_linear_643_19812)"/>
<path d="M12.0362 6.35938H22.8723C23.1131 6.47977 23.4743 6.47977 23.7151 6.60017C24.7718 6.77142 25.7598 7.23399 26.5681 7.93588C27.3763 8.63778 27.9728 9.55118 28.2904 10.5735C28.4682 11.1626 28.5892 11.7673 28.6516 12.3795V22.9748C28.4795 24.3176 27.9837 25.5985 27.2068 26.7072C26.5403 27.4794 25.7048 28.0875 24.7651 28.4842C23.8254 28.881 22.8069 29.0557 21.7887 28.9949H12.7586C11.1471 29.0731 9.56257 28.5592 8.3037 27.55C7.53819 26.8886 6.93409 26.0609 6.53759 25.1302C6.14109 24.1994 5.9627 23.1904 6.01607 22.1801V13.7521C5.99618 13.1476 6.03651 12.5426 6.13647 11.9461C6.25805 10.7117 6.76559 9.54698 7.58694 8.61755C8.4083 7.68812 9.5017 7.04121 10.7118 6.76873L12.0362 6.35938ZM8.3037 17.7976V22.4932C8.25237 23.0911 8.33236 23.6931 8.53809 24.2569C8.74381 24.8207 9.0703 25.3327 9.49467 25.7571C9.91905 26.1814 10.4311 26.5079 10.9949 26.7136C11.5587 26.9194 12.1606 26.9994 12.7586 26.948C15.889 27.0684 19.0195 27.0684 22.1499 26.948C24.9192 26.948 26.4844 25.2624 26.6048 22.4932C26.7252 19.3627 26.7252 16.2324 26.6048 13.1019C26.636 12.5087 26.5421 11.9155 26.3293 11.3609C26.1164 10.8063 25.7894 10.3026 25.3693 9.88248C24.9493 9.46241 24.4456 9.13535 23.8909 8.92251C23.3363 8.70967 22.7432 8.6158 22.1499 8.647C19.0195 8.5266 15.889 8.5266 12.7586 8.647C12.1606 8.59567 11.5587 8.67566 10.9949 8.88139C10.4311 9.08711 9.91905 9.41359 9.49467 9.83797C9.0703 10.2624 8.74381 10.7744 8.53809 11.3382C8.33236 11.902 8.25237 12.504 8.3037 13.1019V17.7976Z" fill="white"/>
<path d="M11.6025 17.847C11.6057 16.2833 12.2283 14.7845 13.334 13.6788C14.4397 12.5731 15.9385 11.9505 17.5022 11.9473C19.0572 11.9781 20.54 12.6095 21.6398 13.7093C22.7396 14.8091 23.3711 16.2919 23.4019 17.847C23.3987 19.4107 22.7761 20.9095 21.6704 22.0152C20.5647 23.1209 19.0659 23.7435 17.5022 23.7467C15.9471 23.7159 14.4644 23.0844 13.3646 21.9846C12.2648 20.8848 11.6333 19.402 11.6025 17.847ZM17.5022 14.1145C16.7709 14.1026 16.0527 14.3094 15.4397 14.7083C14.8266 15.1072 14.3467 15.68 14.0613 16.3534C13.7759 17.0269 13.6981 17.7701 13.8379 18.4881C13.9777 19.206 14.3286 19.8658 14.8458 20.383C15.363 20.9001 16.0228 21.2511 16.7407 21.3909C17.4586 21.5306 18.2019 21.4528 18.8753 21.1675C19.5487 20.8821 20.1216 20.4021 20.5205 19.7891C20.9194 19.1761 21.1261 18.4579 21.1142 17.7266C21.1142 16.7686 20.7337 15.8499 20.0563 15.1725C19.3789 14.4951 18.4602 14.1145 17.5022 14.1145Z" fill="white"/>
<path d="M22.078 11.7054C22.0712 11.5139 22.104 11.323 22.1742 11.1447C22.2445 10.9663 22.3507 10.8044 22.4862 10.6688C22.6217 10.5333 22.7837 10.4271 22.962 10.3569C23.1404 10.2867 23.3312 10.2539 23.5228 10.2606C23.8976 10.286 24.2506 10.4463 24.5162 10.712C24.7819 10.9777 24.9423 11.3306 24.9676 11.7054C24.9676 12.0886 24.8154 12.4561 24.5444 12.7271C24.2735 12.998 23.906 13.1503 23.5228 13.1503C23.1396 13.1503 22.7721 12.998 22.5011 12.7271C22.2302 12.4561 22.078 12.0886 22.078 11.7054Z" fill="white"/>
</g>
<defs>
<linearGradient id="paint0_linear_643_19812" x1="-2.2193" y1="37.0263" x2="38.7173" y2="-3.30835" gradientUnits="userSpaceOnUse">
<stop stop-color="#FED576"/>
<stop offset="0.26" stop-color="#F47133"/>
<stop offset="0.61" stop-color="#BC3081"/>
<stop offset="1" stop-color="#4C63D2"/>
</linearGradient>
</defs>
</svg>
