<svg width="38" height="37" viewBox="0 0 38 37" fill="none" xmlns="http://www.w3.org/2000/svg">
<path d="M19.0419 0.000244141C14.1893 0.000244141 9.53546 1.92794 6.10414 5.35926C2.67282 8.79058 0.745117 13.4444 0.745117 18.297C0.745117 23.1497 2.67282 27.8035 6.10414 31.2349C9.53546 34.6662 14.1893 36.5939 19.0419 36.5939C23.8945 36.5939 28.5484 34.6662 31.9797 31.2349C35.411 27.8035 37.3387 23.1497 37.3387 18.297C37.3387 13.4444 35.411 8.79058 31.9797 5.35926C28.5484 1.92794 23.8945 0.000244141 19.0419 0.000244141Z" fill="#0288D1"/>
<path d="M9.89355 13.7234H13.5529V27.4461H9.89355V13.7234ZM11.7123 11.8937H11.6921C10.5998 11.8937 9.89355 11.0795 9.89355 10.0632C9.89355 9.02479 10.6218 8.23438 11.7333 8.23438C12.8467 8.23438 13.5319 9.02479 13.5529 10.0632C13.5529 11.0795 12.8467 11.8937 11.7123 11.8937ZM29.1052 18.7551C29.1052 15.9758 26.8529 13.7234 24.0736 13.7234C22.3702 13.7234 20.8671 14.5724 19.9568 15.8678V13.7234H16.2975V27.4461H19.9568V20.1273C19.9568 18.6114 21.1855 17.3828 22.7014 17.3828C24.2172 17.3828 25.4459 18.6114 25.4459 20.1273V27.4461H29.1052C29.1052 27.4461 29.1052 19.1402 29.1052 18.7551Z" fill="white"/>
</svg>
