<svg width="37" height="37" viewBox="0 0 37 37" fill="none" xmlns="http://www.w3.org/2000/svg">
<g clip-path="url(#clip0_2089_34950)">
<path d="M18.5005 37.0009C28.718 37.0009 37.0009 28.718 37.0009 18.5005C37.0009 8.28294 28.718 0 18.5005 0C8.28294 0 0 8.28294 0 18.5005C0 28.718 8.28294 37.0009 18.5005 37.0009Z" fill="black"/>
<path d="M15.926 15.3817V14.372C15.5798 14.3246 15.2281 14.2949 14.8689 14.2949C10.544 14.2949 7.02563 17.8133 7.02563 22.1382C7.02563 24.7916 8.35187 27.1396 10.3742 28.5596C9.06835 27.1582 8.26741 25.2807 8.26741 23.2194C8.26741 18.9567 11.6865 15.4801 15.926 15.3808V15.3817Z" fill="#25F4EE"/>
<path d="M16.1106 26.8031C18.0401 26.8031 19.6141 25.268 19.6856 23.3562L19.6921 6.27849H22.8123C22.7473 5.92767 22.712 5.56664 22.712 5.19727H18.4503L18.4438 22.275C18.3723 24.1878 16.7983 25.7219 14.8688 25.7219C14.2693 25.7219 13.704 25.5715 13.2075 25.3107C13.859 26.2128 14.9161 26.804 16.1115 26.804L16.1106 26.8031Z" fill="#25F4EE"/>
<path d="M28.6407 12.0741V11.1247C27.4509 11.1247 26.3418 10.7711 25.4119 10.165C26.2397 11.1154 27.3646 11.8013 28.6407 12.0741Z" fill="#25F4EE"/>
<path d="M25.4118 10.1642C24.5051 9.12285 23.9538 7.76321 23.9538 6.27734H22.8123C23.113 7.90057 24.0763 9.29362 25.4118 10.1642Z" fill="#FE2C55"/>
<path d="M14.8688 18.5575C12.8938 18.5575 11.2864 20.164 11.2864 22.1399C11.2864 23.5153 12.0669 24.7107 13.2066 25.3103C12.7815 24.7218 12.5282 24.0007 12.5282 23.2211C12.5282 21.2462 14.1356 19.6387 16.1106 19.6387C16.479 19.6387 16.8326 19.7 17.1677 19.8039V15.454C16.8215 15.4067 16.4697 15.377 16.1106 15.377C16.0484 15.377 15.9871 15.3807 15.9249 15.3816V18.7227C15.5908 18.6178 15.2363 18.5575 14.8679 18.5575H14.8688Z" fill="#FE2C55"/>
<path d="M28.6409 12.0742V15.3866C26.4311 15.3866 24.3837 14.6794 22.7122 13.4803V22.1402C22.7122 26.4651 19.1939 29.9835 14.869 29.9835C13.1975 29.9835 11.6476 29.4563 10.3743 28.5617C11.8072 30.0995 13.8481 31.0647 16.1117 31.0647C20.4366 31.0647 23.9549 27.5463 23.9549 23.2215V14.5615C25.6264 15.7615 27.6738 16.4678 29.8836 16.4678V12.206C29.4576 12.206 29.0418 12.1596 28.6418 12.0742H28.6409Z" fill="#FE2C55"/>
<path d="M22.7121 22.1393V13.4793C24.3835 14.6793 26.4309 15.3856 28.6407 15.3856V12.0732C27.3646 11.8004 26.2397 11.1145 25.4119 10.1642C24.0763 9.29362 23.113 7.90057 22.8123 6.27734H19.6921L19.6856 23.3551C19.6141 25.2678 18.0401 26.802 16.1106 26.802C14.9152 26.802 13.8581 26.2117 13.2066 25.3087C12.066 24.7082 11.2864 23.5138 11.2864 22.1383C11.2864 20.1634 12.8938 18.5559 14.8688 18.5559C15.2373 18.5559 15.5909 18.6172 15.9259 18.7211V15.38C11.6864 15.4793 8.26733 18.9559 8.26733 23.2186C8.26733 25.2808 9.06827 27.1574 10.3741 28.5588C11.6484 29.4535 13.1973 29.9807 14.8688 29.9807C19.1937 29.9807 22.7121 26.4623 22.7121 22.1374V22.1393Z" fill="white"/>
</g>
<defs>
<clipPath id="clip0_2089_34950">
<rect width="37" height="37" fill="white"/>
</clipPath>
</defs>
</svg>
