<svg width="37" height="37" viewBox="0 0 37 37" fill="none" xmlns="http://www.w3.org/2000/svg">
<rect width="37" height="37" rx="18.5" fill="white"/>
<g clip-path="url(#clip0_2091_34974)">
<path d="M29.4372 13.4985C29.1854 12.515 28.4436 11.7405 27.5015 11.4777C25.7941 11 18.9474 11 18.9474 11C18.9474 11 12.1007 11 10.3932 11.4777C9.45122 11.7405 8.70928 12.515 8.45752 13.4985C8 15.2809 8 19 8 19C8 19 8 22.719 8.45752 24.5017C8.70928 25.485 9.45122 26.2595 10.3932 26.5224C12.1007 27 18.9474 27 18.9474 27C18.9474 27 25.7941 27 27.5015 26.5224C28.4436 26.2595 29.1854 25.485 29.4372 24.5017C29.8947 22.719 29.8947 19 29.8947 19C29.8947 19 29.8947 15.2809 29.4372 13.4985Z" fill="#ED1D24"/>
<path d="M16.7083 22.377L22.4307 19.0005L16.7083 15.6237V22.377Z" fill="white"/>
</g>
<defs>
<clipPath id="clip0_2091_34974">
<rect width="21.8947" height="16" fill="white" transform="translate(8 11)"/>
</clipPath>
</defs>
</svg>
