<svg width="45" height="45" viewBox="0 0 45 45" fill="none" xmlns="http://www.w3.org/2000/svg">
<path d="M23.5 40.8354L19.615 43.7572C19.195 44.0702 18.775 44.0793 18.355 43.7843C17.935 43.4894 17.8125 43.0977 17.9875 42.6093L19.51 37.8093L15.6775 35.0962C15.2575 34.8179 15.135 34.4353 15.31 33.9483C15.485 33.4614 15.8175 33.2179 16.3075 33.2179H20.98L22.45 28.4178L14.995 24.0351C14.365 23.6525 13.875 23.1481 13.525 22.522C13.175 21.896 13 21.1829 13 20.3829V8.17398C13 7.02614 13.4116 6.04386 14.2348 5.22715C15.058 4.41044 16.0464 4.00139 17.2 4H29.8C30.955 4 31.9441 4.40905 32.7673 5.22715C33.5905 6.04525 34.0014 7.02753 34 8.17398V20.3829C34 21.1829 33.825 21.896 33.475 22.522C33.125 23.1481 32.635 23.6525 32.005 24.0351L24.55 28.4178L26.02 33.2179H30.6925C31.1825 33.2179 31.515 33.4614 31.69 33.9483C31.865 34.4353 31.7425 34.8179 31.3225 35.0962L27.49 37.8093L29.0125 42.6093C29.1875 43.0963 29.065 43.488 28.645 43.7843C28.225 44.0807 27.805 44.0716 27.385 43.7572L23.5 40.8354ZM21.4 8.17398V22.8873L23.5 24.1395L25.6 22.8873V8.17398H21.4Z" fill="#00A5A5"/>
</svg>
