<svg width="21" height="40" viewBox="0 0 21 40" fill="none" xmlns="http://www.w3.org/2000/svg">
<path d="M10.5 36.8354L6.615 39.7572C6.195 40.0702 5.775 40.0793 5.355 39.7843C4.935 39.4894 4.8125 39.0977 4.9875 38.6093L6.51 33.8093L2.6775 31.0962C2.2575 30.8179 2.135 30.4353 2.31 29.9483C2.485 29.4614 2.8175 29.2179 3.3075 29.2179H7.98L9.45 24.4178L1.995 20.0351C1.365 19.6525 0.875 19.1481 0.525 18.5221C0.175 17.896 0 17.1829 0 16.3829V4.17398C0 3.02614 0.4116 2.04386 1.2348 1.22715C2.058 0.410442 3.0464 0.00139133 4.2 0H16.8C17.955 0 18.9441 0.40905 19.7673 1.22715C20.5905 2.04525 21.0014 3.02753 21 4.17398V16.3829C21 17.1829 20.825 17.896 20.475 18.5221C20.125 19.1481 19.635 19.6525 19.005 20.0351L11.55 24.4178L13.02 29.2179H17.6925C18.1825 29.2179 18.515 29.4614 18.69 29.9483C18.865 30.4353 18.7425 30.8179 18.3225 31.0962L14.49 33.8093L16.0125 38.6093C16.1875 39.0963 16.065 39.488 15.645 39.7843C15.225 40.0807 14.805 40.0716 14.385 39.7572L10.5 36.8354ZM8.4 4.17398V18.8873L10.5 20.1395L12.6 18.8873V4.17398H8.4Z" fill="white"/>
</svg>
