<svg width="40" height="40" viewBox="0 0 40 40" fill="none" xmlns="http://www.w3.org/2000/svg">
<path fill-rule="evenodd" clip-rule="evenodd" d="M23.1143 0.0259318C22.8363 -0.0178401 22.5524 -0.00610977 22.2789 0.0604531C22.0053 0.127016 21.7475 0.247108 21.5202 0.413872C21.2928 0.580636 21.1003 0.790807 20.9537 1.03238C20.8071 1.27396 20.7092 1.54221 20.6657 1.82183C20.6222 2.10144 20.6339 2.38693 20.7 2.66201C20.7662 2.93709 20.8856 3.19636 21.0515 3.42503C21.2173 3.6537 21.4263 3.84728 21.6665 3.99472C21.9067 4.14217 22.1734 4.24058 22.4514 4.28435C26.3493 4.91559 29.8683 6.99879 32.3089 10.1198C34.7495 13.2409 35.933 17.1713 35.6241 21.1297C35.3152 25.0881 33.5366 28.7847 30.6419 31.4847C27.7471 34.1847 23.9481 35.6904 20 35.7024C16.8491 35.703 13.7708 34.7513 11.1644 32.9708C8.55795 31.1903 6.54367 28.6632 5.38286 25.7173C5.28536 25.4459 5.13469 25.1971 4.93978 24.9854C4.74486 24.7737 4.50968 24.6036 4.24815 24.485C3.98663 24.3665 3.70411 24.3019 3.41732 24.2952C3.13054 24.2885 2.84534 24.3398 2.57862 24.446C2.31191 24.5522 2.06912 24.7112 1.86464 24.9136C1.66017 25.1159 1.49817 25.3575 1.38825 25.6239C1.27833 25.8904 1.22273 26.1764 1.22475 26.4649C1.22677 26.7534 1.28636 27.0385 1.4 27.3034C3.11647 31.6521 6.28631 35.2633 10.3641 37.5155C14.442 39.7678 19.1728 40.5203 23.7428 39.6436C28.3127 38.767 32.4359 36.3159 35.4031 32.7122C38.3702 29.1085 39.9958 24.5774 40 19.8986C39.9998 15.1065 38.2988 10.4718 35.2033 6.8287C32.1078 3.18559 27.8209 0.773285 23.1143 0.0259318ZM17.6114 1.6839C17.6819 1.95824 17.6978 2.24384 17.6583 2.52438C17.6189 2.80492 17.5248 3.07488 17.3815 3.31882C17.2382 3.56276 17.0485 3.77588 16.8232 3.94599C16.5979 4.11611 16.3415 4.23988 16.0686 4.31022C15.3528 4.49544 14.651 4.73166 13.9686 5.01708C13.7087 5.12575 13.4302 5.1819 13.1488 5.1823C12.8674 5.1827 12.5886 5.12736 12.3285 5.01943C12.0684 4.9115 11.8319 4.7531 11.6326 4.55327C11.4334 4.35343 11.2752 4.11609 11.1671 3.85478C11.0591 3.59347 11.0033 3.31331 11.0029 3.0303C11.0025 2.74729 11.0575 2.46698 11.1648 2.20536C11.2721 1.94374 11.4296 1.70594 11.6283 1.50554C11.827 1.30513 12.063 1.14605 12.3229 1.03738C13.1857 0.675327 14.08 0.373617 15.0029 0.135122C15.2754 0.0647253 15.5592 0.0490193 15.8378 0.088901C16.1164 0.128783 16.3845 0.223471 16.6267 0.367558C16.8689 0.511645 17.0806 0.702309 17.2495 0.928662C17.4185 1.15501 17.5415 1.40975 17.6114 1.6839ZM9.1 5.22684C9.49528 5.63698 9.7125 6.18816 9.70393 6.75927C9.69536 7.33039 9.4617 7.87472 9.05429 8.27267C7.99192 9.31401 7.07843 10.4986 6.34 11.7926C6.20418 12.0454 6.01947 12.2683 5.79675 12.4482C5.57403 12.6281 5.31778 12.7614 5.04309 12.8403C4.76839 12.9191 4.48079 12.942 4.19719 12.9074C3.91359 12.8729 3.63972 12.7817 3.39169 12.6391C3.14365 12.4966 2.92646 12.3056 2.75289 12.0774C2.57932 11.8492 2.45286 11.5884 2.38096 11.3104C2.30906 11.0323 2.29317 10.7426 2.33422 10.4583C2.37527 10.174 2.47244 9.9008 2.62 9.65479C3.55574 8.0078 4.71765 6.50167 6.07143 5.18086C6.47924 4.78333 7.0273 4.56487 7.59518 4.57349C8.16305 4.58211 8.7043 4.81711 9.1 5.22684ZM2.61714 14.9563C3.17972 15.036 3.68777 15.3372 4.0296 15.7936C4.37142 16.25 4.51904 16.8242 4.44 17.3901C4.33695 18.1278 4.2854 18.872 4.28571 19.617C4.28571 20.1885 4.05995 20.7367 3.65809 21.1408C3.25622 21.545 2.71118 21.772 2.14286 21.772C1.57454 21.772 1.02949 21.545 0.627628 21.1408C0.225765 20.7367 0 20.1885 0 19.617C0 18.6601 0.0657143 17.7148 0.197143 16.7895C0.27646 16.2237 0.575942 15.7128 1.02975 15.369C1.48355 15.0252 2.05453 14.8768 2.61714 14.9563ZM12.8571 25.3064V14.4908C12.8574 14.0012 12.9821 13.5197 13.2193 13.0922C13.4565 12.6646 13.7984 12.3051 14.2126 12.0478C14.6267 11.7905 15.0994 11.6438 15.5857 11.6218C16.0721 11.5998 16.5559 11.7031 16.9914 11.9219L27.7457 17.3297C28.2197 17.5686 28.6182 17.9354 28.8967 18.3891C29.1752 18.8428 29.3227 19.3654 29.3227 19.8986C29.3227 20.4317 29.1752 20.9544 28.8967 21.4081C28.6182 21.8617 28.2197 22.2285 27.7457 22.4674L16.9914 27.8752C16.5559 28.0941 16.0721 28.1974 15.5857 28.1754C15.0994 28.1533 14.6267 28.0067 14.2126 27.7493C13.7984 27.492 13.4565 27.1325 13.2193 26.7049C12.9821 26.2774 12.8574 25.796 12.8571 25.3064Z" fill="white"/>
</svg>
