<svg width="45" height="45" viewBox="0 0 45 45" fill="none" xmlns="http://www.w3.org/2000/svg">
<path d="M17 13C18.1089 13 19 12.1089 19 11C19 9.89109 18.1089 9 17 9C15.8911 9 15 9.89109 15 11C15 12.1089 15.8911 13 17 13Z" fill="#00A5A5"/>
<path fill-rule="evenodd" clip-rule="evenodd" d="M21.64 17.9112C21.64 15.6402 19.7129 14 17.3412 14C14.9694 14 13.0424 15.6402 13.0424 17.9112V18.9836C13.0424 19.1729 13.1271 19.3622 13.2541 19.4883C13.3812 19.6145 13.5718 19.6986 13.7624 19.6986H20.92C21.1106 19.6986 21.3012 19.6145 21.4282 19.4883C21.5553 19.3622 21.64 19.1729 21.64 18.9836V17.9112ZM13 24.1145C13 23.6962 13.1673 23.2951 13.4652 22.9993C13.763 22.7035 14.167 22.5374 14.5882 22.5374H29.4118C29.833 22.5374 30.237 22.7035 30.5348 22.9993C30.8327 23.2951 31 23.6962 31 24.1145C31 24.5328 30.8327 24.9339 30.5348 25.2297C30.237 25.5254 29.833 25.6916 29.4118 25.6916H14.5882C14.167 25.6916 13.763 25.5254 13.4652 25.2297C13.1673 24.9339 13 24.5328 13 24.1145ZM13 30.4229C13 30.0046 13.1673 29.6035 13.4652 29.3077C13.763 29.012 14.167 28.8458 14.5882 28.8458H29.4118C29.833 28.8458 30.237 29.012 30.5348 29.3077C30.8327 29.6035 31 30.0046 31 30.4229C31 30.8412 30.8327 31.2423 30.5348 31.5381C30.237 31.8338 29.833 32 29.4118 32H14.5882C14.167 32 13.763 31.8338 13.4652 31.5381C13.1673 31.2423 13 30.8412 13 30.4229Z" fill="#00A5A5"/>
<path fill-rule="evenodd" clip-rule="evenodd" d="M6 5.21053C6 2.89053 7.91573 1 10.2667 1H24.5387C25.7376 1 26.8683 1.50105 27.664 2.32842L27.6768 2.34316L36.8757 12.2421C37.6416 13.0484 38 14.1032 38 15.1053V36.7895C38 39.1095 36.0843 41 33.7333 41H10.2667C7.91573 41 6 39.1095 6 36.7895V5.21053ZM24.5365 5.21053H10.2667V36.7895H33.7333V15.0884L24.5685 5.22526L24.5621 5.22316C24.5544 5.21759 24.5457 5.21332 24.5365 5.21053Z" fill="#00A5A5"/>
<path fill-rule="evenodd" clip-rule="evenodd" d="M24.1888 1C24.7693 1 25.326 1.21892 25.7365 1.60861C26.147 1.9983 26.3776 2.52682 26.3776 3.07792V12.8442H35.8112C36.0987 12.8442 36.3833 12.8979 36.6488 13.0023C36.9144 13.1068 37.1557 13.2598 37.3589 13.4528C37.5622 13.6457 37.7234 13.8748 37.8334 14.1269C37.9434 14.379 38 14.6492 38 14.9221C38 15.195 37.9434 15.4652 37.8334 15.7173C37.7234 15.9694 37.5622 16.1984 37.3589 16.3914C37.1557 16.5843 36.9144 16.7374 36.6488 16.8418C36.3833 16.9463 36.0987 17 35.8112 17H24.1888C23.6083 17 23.0516 16.7811 22.6411 16.3914C22.2306 16.0017 22 15.4732 22 14.9221V3.07792C22 2.52682 22.2306 1.9983 22.6411 1.60861C23.0516 1.21892 23.6083 1 24.1888 1Z" fill="#00A5A5"/>
</svg>
