<svg width="32" height="40" viewBox="0 0 32 40" fill="none" xmlns="http://www.w3.org/2000/svg">
<path d="M11 12C12.1089 12 13 11.1089 13 10C13 8.89109 12.1089 8 11 8C9.89109 8 9 8.89109 9 10C9 11.1089 9.89109 12 11 12Z" fill="white"/>
<path fill-rule="evenodd" clip-rule="evenodd" d="M15.64 16.9112C15.64 14.6402 13.7129 13 11.3412 13C8.96941 13 7.04235 14.6402 7.04235 16.9112V17.9836C7.04235 18.1729 7.12706 18.3622 7.25412 18.4883C7.38118 18.6145 7.57177 18.6986 7.76235 18.6986H14.92C15.1106 18.6986 15.3012 18.6145 15.4282 18.4883C15.5553 18.3622 15.64 18.1729 15.64 17.9836V16.9112ZM7 23.1145C7 22.6962 7.16733 22.2951 7.46518 21.9993C7.76304 21.7035 8.16701 21.5374 8.58824 21.5374H23.4118C23.833 21.5374 24.237 21.7035 24.5348 21.9993C24.8327 22.2951 25 22.6962 25 23.1145C25 23.5328 24.8327 23.9339 24.5348 24.2297C24.237 24.5254 23.833 24.6916 23.4118 24.6916H8.58824C8.16701 24.6916 7.76304 24.5254 7.46518 24.2297C7.16733 23.9339 7 23.5328 7 23.1145ZM7 29.4229C7 29.0046 7.16733 28.6035 7.46518 28.3077C7.76304 28.012 8.16701 27.8458 8.58824 27.8458H23.4118C23.833 27.8458 24.237 28.012 24.5348 28.3077C24.8327 28.6035 25 29.0046 25 29.4229C25 29.8412 24.8327 30.2423 24.5348 30.5381C24.237 30.8338 23.833 31 23.4118 31H8.58824C8.16701 31 7.76304 30.8338 7.46518 30.5381C7.16733 30.2423 7 29.8412 7 29.4229Z" fill="white"/>
<path fill-rule="evenodd" clip-rule="evenodd" d="M0 4.21053C0 1.89053 1.91573 0 4.26667 0H18.5387C19.7376 0 20.8683 0.501053 21.664 1.32842L21.6768 1.34316L30.8757 11.2421C31.6416 12.0484 32 13.1032 32 14.1053V35.7895C32 38.1095 30.0843 40 27.7333 40H4.26667C1.91573 40 0 38.1095 0 35.7895V4.21053ZM18.5365 4.21053H4.26667V35.7895H27.7333V14.0884L18.5685 4.22526L18.5621 4.22316C18.5544 4.21759 18.5457 4.21332 18.5365 4.21053Z" fill="white"/>
<path fill-rule="evenodd" clip-rule="evenodd" d="M18.1888 0C18.7693 0 19.326 0.218923 19.7365 0.608609C20.147 0.998295 20.3776 1.52682 20.3776 2.07792V11.8442H29.8112C30.0987 11.8442 30.3833 11.8979 30.6488 12.0023C30.9144 12.1068 31.1557 12.2598 31.3589 12.4528C31.5622 12.6457 31.7234 12.8748 31.8334 13.1269C31.9434 13.379 32 13.6492 32 13.9221C32 14.195 31.9434 14.4652 31.8334 14.7173C31.7234 14.9694 31.5622 15.1984 31.3589 15.3914C31.1557 15.5843 30.9144 15.7374 30.6488 15.8418C30.3833 15.9463 30.0987 16 29.8112 16H18.1888C17.6083 16 17.0516 15.7811 16.6411 15.3914C16.2306 15.0017 16 14.4732 16 13.9221V2.07792C16 1.52682 16.2306 0.998295 16.6411 0.608609C17.0516 0.218923 17.6083 0 18.1888 0Z" fill="white"/>
</svg>
