<svg width="45" height="45" viewBox="0 0 45 45" fill="none" xmlns="http://www.w3.org/2000/svg">
<path d="M17.2867 16.4444C18.4067 15.0889 20.1022 14.2222 22 14.2222C23.8978 14.2222 25.5933 15.0889 26.7133 16.4444C27.4507 17.3385 27.9187 18.4237 28.0627 19.5736C28.2066 20.7236 28.0207 21.8907 27.5265 22.9389C27.0323 23.9871 26.2502 24.8732 25.2715 25.4938C24.2928 26.1144 23.1578 26.444 21.9989 26.444C20.84 26.444 19.705 26.1144 18.7263 25.4938C17.7476 24.8732 16.9655 23.9871 16.4713 22.9389C15.9771 21.8907 15.7911 20.7236 15.9351 19.5736C16.0791 18.4237 16.5471 17.3385 17.2844 16.4444M30.3311 20.3333C30.3311 18.9289 29.9844 17.6044 29.3711 16.4444H38.6667C39.5507 16.4444 40.3986 16.7956 41.0237 17.4208C41.6488 18.0459 42 18.8937 42 19.7778V20.8889C42 24.4156 39.32 28.0267 34.6333 29.2978C34.1517 28.4326 33.4476 27.7119 32.5939 27.2102C31.7402 26.7086 30.768 26.4442 29.7778 26.4444H27.6667C28.509 25.6651 29.1807 24.7198 29.6397 23.668C30.0986 22.6163 30.3348 21.4809 30.3333 20.3333M29.7778 28.6667C30.2158 28.6655 30.6498 28.7509 31.0548 28.918C31.4597 29.0851 31.8277 29.3306 32.1374 29.6404C32.4472 29.9501 32.6927 30.3181 32.8598 30.723C33.0269 31.128 33.1123 31.5619 33.1111 32V33.1111C33.1111 37.4911 28.9778 42 22 42C15.0222 42 10.8889 37.4911 10.8889 33.1111V32C10.8877 31.5619 10.9731 31.128 11.1402 30.723C11.3073 30.3181 11.5528 29.9501 11.8626 29.6404C12.1723 29.3306 12.5403 29.0851 12.9452 28.918C13.3502 28.7509 13.7842 28.6655 14.2222 28.6667H29.7778ZM2 20.8889C2 24.4156 4.68 28.0267 9.36667 29.2978C9.84829 28.4326 10.5524 27.7119 11.4061 27.2102C12.2598 26.7086 13.232 26.4442 14.2222 26.4444H16.3333C15.491 25.6651 14.8193 24.7198 14.3603 23.668C13.9014 22.6163 13.6652 21.4809 13.6667 20.3333C13.6667 18.9289 14.0133 17.6044 14.6289 16.4444H5.33333C4.44928 16.4444 3.60143 16.7956 2.97631 17.4208C2.35119 18.0459 2 18.8937 2 19.7778V20.8889ZM19.2222 8.11111C19.2222 6.49034 18.5784 4.93596 17.4323 3.7899C16.2863 2.64385 14.7319 2 13.1111 2C11.4903 2 9.93596 2.64385 8.7899 3.7899C7.64385 4.93596 7 6.49034 7 8.11111C7 9.73188 7.64385 11.2863 8.7899 12.4323C9.93596 13.5784 11.4903 14.2222 13.1111 14.2222C14.7319 14.2222 16.2863 13.5784 17.4323 12.4323C18.5784 11.2863 19.2222 9.73188 19.2222 8.11111ZM37 8.11111C37 6.49034 36.3562 4.93596 35.2101 3.7899C34.064 2.64385 32.5097 2 30.8889 2C29.2681 2 27.7137 2.64385 26.5677 3.7899C25.4216 4.93596 24.7778 6.49034 24.7778 8.11111C24.7778 9.73188 25.4216 11.2863 26.5677 12.4323C27.7137 13.5784 29.2681 14.2222 30.8889 14.2222C32.5097 14.2222 34.064 13.5784 35.2101 12.4323C36.3562 11.2863 37 9.73188 37 8.11111Z" fill="#00A5A5"/>
</svg>
