<svg width="40" height="40" viewBox="0 0 40 40" fill="none" xmlns="http://www.w3.org/2000/svg">
<path d="M15.2867 14.4444C16.4067 13.0889 18.1022 12.2222 20 12.2222C21.8978 12.2222 23.5933 13.0889 24.7133 14.4444C25.4507 15.3385 25.9187 16.4237 26.0627 17.5736C26.2066 18.7236 26.0207 19.8907 25.5265 20.9389C25.0323 21.9871 24.2502 22.8732 23.2715 23.4938C22.2928 24.1144 21.1578 24.444 19.9989 24.444C18.84 24.444 17.705 24.1144 16.7263 23.4938C15.7476 22.8732 14.9655 21.9871 14.4713 20.9389C13.9771 19.8907 13.7911 18.7236 13.9351 17.5736C14.0791 16.4237 14.5471 15.3385 15.2844 14.4444M28.3311 18.3333C28.3311 16.9289 27.9844 15.6044 27.3711 14.4444H36.6667C37.5507 14.4444 38.3986 14.7956 39.0237 15.4208C39.6488 16.0459 40 16.8937 40 17.7778V18.8889C40 22.4156 37.32 26.0267 32.6333 27.2978C32.1517 26.4326 31.4476 25.7119 30.5939 25.2102C29.7402 24.7086 28.768 24.4442 27.7778 24.4444H25.6667C26.509 23.6651 27.1807 22.7198 27.6397 21.668C28.0986 20.6163 28.3348 19.4809 28.3333 18.3333M27.7778 26.6667C28.2158 26.6655 28.6498 26.7509 29.0548 26.918C29.4597 27.0851 29.8277 27.3306 30.1374 27.6404C30.4472 27.9501 30.6927 28.3181 30.8598 28.723C31.0269 29.128 31.1123 29.5619 31.1111 30V31.1111C31.1111 35.4911 26.9778 40 20 40C13.0222 40 8.88889 35.4911 8.88889 31.1111V30C8.88772 29.5619 8.97313 29.128 9.14024 28.723C9.30734 28.3181 9.55282 27.9501 9.86258 27.6404C10.1723 27.3306 10.5403 27.0851 10.9452 26.918C11.3502 26.7509 11.7842 26.6655 12.2222 26.6667H27.7778ZM0 18.8889C0 22.4156 2.68 26.0267 7.36667 27.2978C7.84829 26.4326 8.55239 25.7119 9.40609 25.2102C10.2598 24.7086 11.232 24.4442 12.2222 24.4444H14.3333C13.491 23.6651 12.8193 22.7198 12.3603 21.668C11.9014 20.6163 11.6652 19.4809 11.6667 18.3333C11.6667 16.9289 12.0133 15.6044 12.6289 14.4444H3.33333C2.44928 14.4444 1.60143 14.7956 0.976311 15.4208C0.35119 16.0459 0 16.8937 0 17.7778V18.8889ZM17.2222 6.11111C17.2222 4.49034 16.5784 2.93596 15.4323 1.7899C14.2863 0.643847 12.7319 0 11.1111 0C9.49034 0 7.93596 0.643847 6.7899 1.7899C5.64385 2.93596 5 4.49034 5 6.11111C5 7.73188 5.64385 9.28626 6.7899 10.4323C7.93596 11.5784 9.49034 12.2222 11.1111 12.2222C12.7319 12.2222 14.2863 11.5784 15.4323 10.4323C16.5784 9.28626 17.2222 7.73188 17.2222 6.11111ZM35 6.11111C35 4.49034 34.3562 2.93596 33.2101 1.7899C32.064 0.643847 30.5097 0 28.8889 0C27.2681 0 25.7137 0.643847 24.5677 1.7899C23.4216 2.93596 22.7778 4.49034 22.7778 6.11111C22.7778 7.73188 23.4216 9.28626 24.5677 10.4323C25.7137 11.5784 27.2681 12.2222 28.8889 12.2222C30.5097 12.2222 32.064 11.5784 33.2101 10.4323C34.3562 9.28626 35 7.73188 35 6.11111Z" fill="white"/>
</svg>
